M48
;Layer_Color=9474304
;FILE_FORMAT=2:4
INCH,TZ
;TYPE=PLATED
T1F00S00C0.0150
T2F00S00C0.0250
T3F00S00C0.0300
T4F00S00C0.0320
T5F00S00C0.0354
T6F00S00C0.0360
T7F00S00C0.0394
%
T01
X9270Y2582
Y3712
X10511Y3138
X12120Y13985
X16406Y13391
X16673Y12841
X16228Y12061
X15813Y11938
X9271Y10494
X9201Y9343
Y8191
Y7040
X9270Y5973
Y4842
X6373Y5315
X5217Y7496
X2039Y6315
X2100Y4341
X1300Y8000
X2557Y10496
X2479Y11299
X2062Y12868
X1205
X694
X253Y13232
X317Y14352
X586Y14803
X2158Y14242
X2152Y13760
X2506Y17002
X1113Y17419
X4367Y17101
X5047Y17132
X5199Y17933
X5777Y17740
X6223Y16573
X6386Y15904
X5569Y16078
X4137Y16382
X5448Y13439
X4228Y10913
X9011Y16382
X10356Y15532
X10115Y17632
Y19095
X10500Y20100
X10667Y22103
X8707Y21707
X7707
X6707Y21707
X5707Y21707
X4655Y21707
X3655Y21707
X2655Y21707
X1655
X1600Y20800
X836Y20151
X1186Y24337
X1687Y26949
X2687
X3687
X4687
X5707Y26949
X6707
X7707Y26949
X8707
X8433Y28941
X7707Y28931
X6707Y28931
X5707Y28931
X4687Y28931
X3687
X2687
X1687
X612Y28871
X222
X1086Y33218
X9159Y31971
X9574
X11240Y31071
X10733Y29716
X10839Y28013
Y27679
X8040Y25258
X5205Y24337
X5764Y19875
X6068Y20151
X12644Y25988
X12919Y28676
X14201Y30668
X15871Y30655
X15882Y31974
X14471Y32345
X12764
X13160Y33896
X15871Y29305
X15800Y28058
X16850Y25596
X16415Y23696
X16850Y22437
X16000Y37400
X15373Y37179
X14874
X12354Y39196
X11735Y38723
X13162Y40838
X11230Y39205
X10173Y38127
X8022Y38866
X8522Y40019
X7556Y40628
X7284Y40990
X6982Y39848
X7336Y37615
X4952Y40666
T02
X3553Y1100
X4753
X4153Y2300
X5353
X10753Y1100
X11953
X11353Y2300
X12553
X11953Y3500
X13153
X12553Y4700
X11353
X11953Y5900
X13153
X12553Y7100
X11353
X11953Y8300
X11353Y9500
X12553
X14953
Y7100
Y11900
Y14300
X13753
X12553
X11353
X11953Y15500
X14353
X15553
X14953Y16700
X14353Y17900
X15553
X12553Y19100
X7153Y15500
X6553Y11900
X5353
X4153
X1153Y15500
Y17900
X4153Y4700
X5353
X1153Y32300
Y34700
X15553Y32300
X14953Y28700
X13753
Y23900
X13153Y22700
X14353
X13753Y21500
X12553
X11353Y23900
X15553Y25100
X16153Y26300
X14953Y38300
X13753
X14353Y39500
X6553Y38300
X5353
X3553Y39500
T03
X6873Y33960
X16411Y33429
X16121Y26885
X16411Y36822
T04
X12447Y16159
Y18159
T05
X6175Y466
Y1466
X7175
X8175
X9175
X10175
Y466
X9175
X8175
X7175
X14190Y3500
X17190
Y4500
Y5500
Y7420
Y8420
X17190Y9420
Y10420
X17190Y11420
X14190
Y10420
Y9420
Y8420
Y7420
Y5500
Y4500
X10373Y34628
X9373
X8373
X7373
X6373
X5373
X4373
X3373
X11373
X12373
X13373
X14373
X15373
X15373Y35628
X14373
X13373
X12373
X11373
X10373
X9373
X8373
X7373
X6373
X5373
X4373
X3373
T06
X14933Y18901
X15933
Y19901
X14933
X14933Y20901
X14933Y21901
X15933Y21901
X15933Y22901
X14933
X15933Y20901
T07
X12092Y24836
Y26836
M30
