M48
;Layer_Color=9474304
;FILE_FORMAT=2:4
INCH,TZ
;TYPE=PLATED
T1F00S00C0.0120
T2F00S00C0.0150
T3F00S00C0.0236
T4F00S00C0.0276
T5F00S00C0.0300
T6F00S00C0.0315
T7F00S00C0.0320
T8F00S00C0.0354
T9F00S00C0.0360
T10F00S00C0.0394
T12F00S00C0.0400
T13F00S00C0.0433
T14F00S00C0.0472
T16F00S00C0.0591
T17F00S00C0.0630
T18F00S00C0.1260
;TYPE=NON_PLATED
T19F00S00C0.1280
%
T01
X71098Y133732
X61612Y129924
X59775Y129368
X53706Y125494
X27152Y129253
X18606Y127735
X17805Y133133
X14053Y134612
X11706Y128723
X12469Y127542
X20482Y140847
X22177Y140850
X57735Y141836
X60698Y141404
X60665Y140818
X62100Y141001
X62085Y141429
X65504Y148542
X63599Y150620
X66871Y141554
X66893Y140800
X67947Y140881
X67940Y141554
X73262Y144583
T02
X82262Y102542
X83062
X83862
X84662
X85462
X84911Y104660
Y106260
Y107060
X82809Y106720
X82511Y106260
X82029Y106884
X81974Y107434
X81885Y108426
X82809Y107934
X83648Y105363
X88911Y107860
X89711
X90511
X92111Y108660
X80715Y107934
X79715Y107484
X80111Y107060
X79311
X77711
X76911
X75886Y107053
X75311Y107060
Y106260
X76111
Y105460
Y104660
X76911
X77711
X77462Y102542
X78262
X79062
X79862
X80662
X81462
X76662
X75862
X75062
X74262
X73462
X72662
X71862
X71062
X70262
X69462
X68662
X67862
X67062
X67311Y104660
X68911
X69711
X70511
X71311
X72111
X72911
X73711
X74511
X75311
Y105460
X74511
Y106260
Y107060
X73711
Y106260
X72911Y107060
X72111
Y107860
Y108660
X71311Y107860
Y107060
Y106260
Y105460
X70511Y107060
Y107860
X69711
X76911Y108660
X77711
X78511
X79674Y105684
X42511Y106260
Y104660
X41711
X40911
X40111
Y105460
X39311Y104660
X38511
Y106260
X36911Y107060
X36111
Y106260
Y105460
Y104660
X35311
Y105460
Y106260
Y107060
X39482Y108631
X39311Y102260
X40111
X40911
X41711
X42511
X43311
X44716Y102338
X38511Y102260
X37711
X32911Y104660
Y106260
Y107060
X33711
X34511
Y108660
X33711
X32911
X32111
X31311
Y107060
X32111
X31311Y106260
Y104660
X28911
Y106260
Y107060
X28111
X27311
Y106260
X26511
Y107060
X25711
X24911
Y106260
X24111
Y107060
X23311
X22511
Y106260
Y105460
Y104660
X20911
Y106260
Y107060
X21711
Y108660
X22511
X23311
X24111
X24911
X25711
X26511
X27311
X28111
X28911
X27311Y104660
X26511
Y105460
X19311
Y106260
Y108660
X18511
X16911
Y107060
X14658Y106856
X14511Y106260
Y107860
X12111
Y108660
X11311
X10511
Y107860
Y107060
X12111
X12859Y106856
X8111Y107060
Y107860
Y108660
X18511Y105460
Y110260
X16911
Y111860
X12111
Y112660
Y113460
Y114260
Y115060
Y115860
Y116660
Y117460
Y118260
Y119060
Y119860
Y120660
Y121460
Y122260
Y123060
Y123860
X11311
Y123060
X10511
X9711
Y123860
X8911
Y123060
Y122260
Y121460
Y120660
Y119860
X9711
Y119060
X10511
X11311
Y119860
Y118260
Y117460
Y116660
X10511
Y117460
Y118260
X9711
Y117460
Y116660
X8911
Y117460
Y118260
Y119060
X10511Y115860
X9711Y113460
X8911
Y112660
Y111860
X10511Y111060
X11311
X12111
Y110260
Y109460
X11311
Y110260
X10511Y109460
X8111
Y110260
X19311
X20111Y111060
X20911Y111860
X20111Y112660
X19311Y113460
Y111860
X23311
X24111
X24911
X25711
X26511
X27311
X28111
X28911
X29711
Y112660
X30511
Y113460
X31311
X32111
X32911
X33711
X34511
Y115060
Y115860
X33711
Y115060
X32911
Y115860
X32111
Y115060
Y114260
X32911
X31311
Y115060
Y115860
X30511
Y115060
Y114260
X29711
Y115060
Y115860
X28911
Y115060
Y114260
Y113460
X29711
X28911Y112660
X28111
Y113460
Y114260
Y115060
Y115860
X27311
Y115060
Y114260
Y113460
Y112660
X26511
Y113460
Y114260
Y115060
Y115860
X25711Y115060
Y114260
Y113460
Y112660
X24911
Y113460
Y114260
Y115060
Y115860
Y116660
Y118260
Y119060
Y119860
Y121460
X24111Y121460
Y122260
Y123060
Y123860
X24911Y123060
Y122260
X24111Y114260
Y113460
Y112660
X23311
Y113460
Y114260
Y111060
X24111
X24911
X25711
X26511
X27311
X28111
X28911
Y110260
Y109460
X28111
Y110260
X27311
Y109460
X26511
Y110260
X25711
Y109460
X24911
Y110260
X24111
Y109460
X23311
Y110260
X22511Y109460
X31311
X32111
X32911
X33711
Y110260
Y111060
X32911
Y110260
X32111
Y111060
X31311
Y110260
X34642Y109481
X33711Y119060
X32911
X32111
X31311
X37951Y119372
X38863
X39776
X40688
X41606
X42518
X43430
X44342
X45247
X46167
X47087
X47997
X48909
X49821
X49816Y122702
X48904
X47991
X47081
X46161
X45711Y123060
X45241Y122702
X44337
X43425
X42512
X41600
X40682
X39770
X39311Y123060
X38858Y122702
X37946
X37711Y115860
X36911
X36111
X35311
Y115060
Y114260
Y113460
Y112660
X35604Y111944
X37354Y111616
Y110660
X38025Y112172
X37849Y114409
X39311Y115060
X39786Y115960
X38707
X40911Y115860
Y115060
Y114260
Y113460
Y112660
X41219Y111981
X40412Y109481
X44879Y113272
X50734Y119372
X51646
X53391Y119669
X54191
X54991
X55311Y119060
X56111
X56911
X54511
X53711
Y122260
X54511
X55311
X56111
X56911
X57711
Y123060
X56911
X58609Y122462
Y121360
X62511Y119860
X63311
X64111
X64911
X65711
Y119060
Y118260
X64911
Y119060
X64111
Y118260
X63311
Y119060
X62511
X63311Y117460
X63703Y113254
X65711Y113460
X53711Y123060
X52911
X51640Y122702
X50728
X66511Y120660
X67311
Y119860
X68111
X68911
X69711
X70511
Y120660
Y119060
Y118260
Y117460
X71311
X72111
X72911
X73711
X74511
X75311
X76111
Y118260
Y119060
X76911
X77711
Y119860
X78511Y118260
X79757Y118202
X80911Y118260
Y119060
Y119860
Y120660
Y121460
X80111
Y120660
X79311Y121460
X76111
X77722Y123894
X80226Y124036
X80488Y124291
X80911Y117460
Y116660
Y115860
X80111
X79311
X78511Y115060
Y114260
Y113460
X79311
X80111
X80911
X81024Y112984
X80779Y114176
X80593Y114951
X77711Y115060
Y114260
Y113460
X76911
Y114260
Y115060
X75311
Y115860
Y116660
Y112660
X76111
Y111860
Y111060
X76911
X77711
X78511
Y111860
Y112660
X77711Y111860
Y109460
X78511
X80111Y110260
X80962Y111084
X81324Y109257
X76111Y110260
X75311
Y111060
Y111860
X74511
Y112660
X73711
X72911
X72111
Y113460
Y110260
X72911
X73711
X74511
Y111060
X72911Y109460
X72111
X70511Y111860
X69711
X68911
X68111Y109460
X67311
X66511Y113460
Y118260
X67311
X68111
Y119060
X67311
X66511
Y119860
X69711Y119060
Y118260
Y117460
X68911
X72389Y123919
X82511Y122260
X83311Y121460
X84111
X84202Y124291
X84982Y124036
X88772Y123834
Y123334
Y122834
Y122334
Y121834
Y121334
X88772Y120100
X88772Y119600
Y119100
Y118600
Y118100
Y117600
Y117100
X89199Y116091
X89019Y114787
X90584Y114786
X90358Y113673
X89711Y112660
X88911
X88743Y110876
X89608Y110957
X89992Y110581
X90458Y109223
X92111Y109460
X92911
X93711
X94511
X94985Y110743
X93129Y110735
X92111Y110260
Y111860
Y112660
X92911
X93711
X94511
X94036Y113341
X93384Y115048
X94511Y115860
X96911Y116660
X90511Y117460
Y118260
Y119060
Y119860
Y120660
Y121460
Y122260
Y123060
X90350Y123607
X88772Y124334
X94799Y124362
X94511Y123860
X95311
X92789Y120834
X91676Y113139
X87311Y111860
Y109460
X84111Y111060
X82670Y111587
X82224Y110581
X81824Y109307
X81924Y113484
X81711Y114260
X81780Y115820
X81711Y118260
Y119060
Y119860
X97711Y116660
X99311
X100111
X100911
X101711
X102511
X103311
X104111
X104911
Y117460
Y118260
Y119060
Y119860
Y120660
X104111
Y119860
X103311
Y120660
Y119060
Y117460
X104111
X102511
X101711
X100911
X99870Y117840
X99311Y117460
X100911Y120660
X100111Y121460
X100281Y121827
Y125241
X100911Y125460
X101194Y125198
X99386Y125241
X100111Y126260
X100643Y126904
X101184Y129684
X100241Y130364
Y131741
X99311Y131860
X99571Y133910
X98500
X97711Y135060
Y136660
Y137460
X98511
X98721Y139933
X100111Y139860
Y139060
X104911
Y139860
X105788Y140056
X105004Y137531
X105788Y136541
X107053Y136947
X109711Y136660
X110511
Y137460
X109711
Y135860
X110511
X111311
Y135060
Y134260
X112111
Y133460
Y132660
X111311
Y133460
X110511
Y134260
Y135060
X109711
Y134260
Y133460
Y132660
X110511
X108911
Y133460
X108111
X108524Y134101
X106602Y134041
X105704Y133693
X104998Y133681
X105005Y135593
X103311Y132660
X102090Y133643
X101604Y134204
X103311Y129460
X104111
Y128660
X103311
X94799Y125962
X93290Y125050
X92418Y126318
Y127118
Y127918
X90865Y128045
X90866Y127546
X90865Y127045
X89711Y127060
Y127860
Y128660
X88911
Y129460
Y127860
Y127060
X88848Y126252
X89711Y126260
X90511Y124660
X90866Y128546
X90865Y129675
Y130175
Y130675
Y131175
Y131675
Y132175
X90866Y132675
X90385Y132828
X88911Y134260
X89711Y136660
X90511
X91311
Y137460
Y138260
X90826Y138454
X90511Y138260
Y139060
X91311
X92111
X92911
X93711
Y138260
Y137460
X94511
X95311
X96111
X96911
Y136660
X96111
X95311
X94511
X93711
X94511Y135060
X95311
X96111
X96911
X92911Y131860
Y131060
Y130260
X88111
X87311Y131060
X86235Y132580
X85745Y132715
X85761Y132312
X84911Y127860
Y127060
Y126260
Y125460
X84111
Y126260
Y127060
Y127860
X84667Y124627
X84111Y139060
X86511
X87311
X88111
X88911
X89711
Y138260
Y137460
X90511
X88111
Y138260
Y136660
X80111
X79311
X79683Y137127
X80483
X80484Y136160
X79684
X78305Y135756
X76694Y136226
X76346Y137264
X75879Y135164
X75600Y135169
X75342Y135641
X74948
X74555
X74161Y135646
X73543Y135627
X73711Y134260
X74511
X75311
Y132660
Y131860
X74511
Y132660
Y133460
X73711
Y132660
Y131860
Y131060
X74511
Y130260
X75311
Y129460
X74511
X73711
Y130260
X72911
Y131060
Y131860
Y132660
Y133460
Y134260
X72111
Y133460
Y132660
Y131860
Y131060
Y130260
Y129460
X72911
X71311
Y130260
Y131060
Y131860
Y132660
Y133460
Y134260
Y135060
X71405Y135576
X72125Y137107
X74036Y137747
X69436Y137618
X68911Y139060
Y139860
X68111
Y139060
X67311Y139860
X66511
X68282Y136557
X67693Y134941
X67621Y134417
X69007Y134612
X69711Y133460
X70511
Y132660
X69711
Y131060
X70511
Y130260
Y129460
X69711
Y130260
X69019Y131664
X67597Y131571
X66374Y133434
X69234Y128288
X69953Y128303
X70421Y128210
X71775Y128317
X71908Y126813
X73876
X73773Y128288
X76350Y128515
X77612Y128705
X77711Y127860
Y127060
X78511
Y126260
X79311
X80111
X80911
X80317Y127308
X79752Y127874
X79039Y128716
X78781Y129176
X78653Y129961
X78302Y131062
X77869Y130946
X77562Y131144
X76350Y131074
Y133239
X77579Y133346
X79169
X77711Y126260
X80695Y124627
X62423Y126208
X62144Y126492
X61865Y126776
X61571Y127207
X61711Y133460
X62511
X61711Y134260
X60911
Y135060
Y133460
X61608Y136471
X64282Y136374
X65852Y134871
X65711Y134260
Y139860
X64911
X64111
X63311
X62511
X61711
X59311
X58511
X57711
X56911
X56111
X55311
X54132Y139495
X54475Y137854
X54806
X56111Y137760
X56911
X57711
X58511
X58952Y137574
X51951Y138797
X52111Y130260
X51640Y129308
X50728
X52911Y129460
X51640Y126031
X50728
X54139Y125958
X54939
X55739
X56111Y125460
X56911
X57711Y124660
X55311Y125460
X54511
X49816Y126031
X48904
X47991
X47081
X46161
X45241
X44337
X43425
X42512
X41600
X40682
X39770
X38858
X37946
Y129308
X38858
X39770
X40682
X41600
X42512
X43425
X44337
X45241
X46161
X47081
X47991
X48904
X49816
X49711Y139860
X48911
X38355Y137068
X37897
X37439
X35311Y135060
X34511
Y135860
X33711
Y135060
X32911
Y135860
Y136660
Y137460
X32111Y135860
Y135060
X31311
Y135860
X31574Y136384
X30574
X30511Y135860
Y135060
X29711
Y135860
X29574Y136384
X28574
X28911Y135860
Y135060
X28111
Y135860
X27311
Y135060
X26511
Y135860
X26659Y136884
X24411Y136883
X24687Y136384
X24137Y137384
X22511Y137460
Y136660
Y135860
X21711
Y136660
Y137460
Y139060
X22511Y139860
X24412Y139826
X24137Y139384
X25210Y138909
X26994Y139384
X26896Y139829
X32778Y139852
X32911Y133460
X33711
Y132660
Y131860
X32911
Y132660
X32111
Y133460
X31311
Y132660
X30511
Y133460
X29711
Y132660
X28911
Y133460
X28111
Y132660
X27311
Y133460
X26511
Y132660
X25711
Y133460
Y130260
X26511
X27311Y128660
X24911
X24687Y129206
X22511Y128660
X22118Y127999
X22511Y126260
X21494Y126449
X20494
X19494
X19704Y131067
X21425Y131066
X20111Y133460
X19311
Y134260
Y135060
X20111
Y135860
X19704Y135921
X19311Y135860
X19774Y136534
X20774
X20911Y135860
X24137Y126205
X24411Y125705
X24911Y126260
X26852Y126223
X29271Y126499
X30271
X31271
X32271
X34439Y126309
X34106Y129792
X17623Y130636
X17711Y133460
X18511
Y134260
Y135060
Y135860
X17711
X17778Y136534
X16911Y136660
Y137460
Y139060
X16111
X15311
X15423Y139631
X15899Y139943
X15311Y138260
X14511Y137460
Y136660
Y135860
Y135060
Y134260
Y133460
Y132660
X13711
Y133460
Y134260
Y135060
Y135860
Y136660
Y137460
X13186Y137268
X12111Y138260
Y139060
X11311Y138260
Y136660
X10511Y135860
X9711
Y136660
Y137460
Y138260
Y139060
Y139860
X8911
Y139060
Y138260
Y137460
Y136660
Y135860
Y135060
X9711
Y134260
Y133460
Y132660
Y131860
Y131060
Y130260
Y129460
Y128660
Y127860
Y127060
Y126260
Y125460
Y124660
X8911
Y125460
Y126260
Y127060
Y127860
Y128660
Y129460
Y130260
Y131060
Y131860
Y132660
Y133460
Y134260
X11311Y133460
X13711Y131860
X16911Y133460
Y134260
X17711
Y135060
X16911
Y135860
X18774Y136534
X18494Y126449
X15659Y128951
X11311Y129460
X12111Y127060
Y126260
Y125460
Y124660
X11311Y125460
Y140660
X12111
Y141460
X12911
Y142260
X13711
Y140660
X15434Y140323
X15876Y140663
X17089
X18774Y140945
X15311Y141460
X15657Y142142
X15889Y143538
X14511Y143860
X14104Y143539
X12111Y142260
X11311
X9711
Y143060
Y143860
Y144660
Y145460
Y146260
Y147060
Y147860
X8911Y147060
Y146260
Y145460
Y144660
Y143860
Y143060
Y142260
Y141460
X9711
Y140660
X8911
X11311Y144660
Y146260
X12111Y147060
Y147860
Y149460
X12911Y150260
X13711
X14511
X15311
X16111
X17711Y151060
X18511
Y151860
X17711
X18511Y149460
X17688Y148017
X17471Y147263
X16203Y146793
X18798Y146609
X18797Y145708
X17761Y144073
X14511Y152660
Y153460
X13711Y152660
X12911
X19311Y149460
X20111
X20911Y148660
X21711
X22511
X23311
X23813Y147796
X22543Y147104
X23043Y146541
X24628Y146365
X25412Y146780
X26511Y144660
Y143860
Y143060
X27311
X27257Y143748
X28111Y143060
X28911
X29068Y143898
Y145347
X32111Y145460
Y144660
Y143860
Y143060
X31527Y143202
X31324Y140729
X29524Y140945
X27839Y140903
X26170Y142446
X25865Y142721
X24965Y142982
Y141473
X24111Y141460
X24123Y140384
X33452Y140729
X34453Y144177
X34511Y144660
X33662Y146341
X32706
X34177Y147074
X34651Y149754
X34511Y150260
X33711
X32911Y151060
X32111
X31311
X30511
X29409Y151205
X30677Y148459
X24111Y150260
Y151060
X23311
Y150260
X20024Y147625
X19298Y146607
X35015Y146571
X35464Y146954
X37711Y147060
Y146260
Y145460
Y144660
X36911
X36927Y144337
X36111Y144660
X35311
Y143060
X36911
X37711
X38511
X39311
X39462Y143410
X40501Y144936
X40111Y145460
X40640Y146550
X41596
X41711Y147060
X42232Y147162
X42511Y149460
Y151060
X43311
X44111
X44911
X45711
X46950Y151487
X47311Y154260
Y155060
X48111
X46511
X45711
X44911
X44111
X43311
Y154260
X42511Y155060
X41711
X40911
Y154260
Y153460
Y151060
X40111
X39311
X38511
X37711
X37564Y149329
X36911Y149460
X36111
Y150260
X35311
Y149460
X37576Y148235
X38614Y148651
X38511Y153460
Y154260
Y155060
X39311
X40111
X37711
X41575Y150833
X45476Y149514
X45501Y148350
X48017Y148717
X50048Y146597
X49711Y143860
X47557Y143464
X46829Y142869
X47166Y142521
X44862Y144857
X43311Y144660
Y143860
X50408Y152599
X53711Y154260
X56111
Y153460
X56109Y150506
X55309Y150580
X54509
X53709
X55364Y149050
X55424Y147950
X56812Y147531
X57612
X57711Y148660
X56911
X56958Y150603
X57758
X58558
X60911Y150260
Y149460
Y148660
X61711
X62511
X63311
X64111
X64529Y150210
X65467Y150984
X64911Y153460
Y154260
X62511
X60911
X58511
X60111Y148660
X60911Y147860
Y147060
X59421Y144789
Y144420
Y144051
Y143682
Y143313
Y142944
X59311Y142260
X60111
X60911
X61711
X62511
X63311
X64111
X64911
X65711
Y143060
X64911
X64111
X63311
X62511
Y140660
X63311
X64111
X64911
X65711
X64911Y141460
X64111
X60111
Y140660
X59311
Y141460
X58511
Y142260
X57711
Y141460
Y140660
X58511
X56911
Y141460
X56111Y140660
Y143860
X55311
Y143060
X54511
Y142260
X53711Y141460
X52911
Y142260
Y143060
X51311
X50511
X51311Y140660
X52911
X54269Y144999
X51595Y147173
X51311Y147060
X51004Y146597
X64986Y146093
X69331Y145936
X69723Y146267
X70116Y146128
X70902Y145970
X71295Y145957
X72702Y144991
X73711Y143860
X74511
Y143060
X75181Y143013
X75517Y143355
X75342Y141944
X74948Y141625
X74555Y141307
X73543Y140910
X71349Y140820
Y141620
X71295Y143022
X71655Y143017
X70902Y143063
X70509
X70116
X69723
X69331
X68911Y142260
Y141460
Y140660
X68111Y142260
Y143060
X67311
Y142260
X66511
Y143060
Y140660
X73711Y143060
X77032Y143013
X77320Y143355
X77711Y143860
X78511
X79311
X80111
X80911
Y144660
Y145460
X80111Y144660
X79311
X78511
X77711
X76911
Y143860
X76729Y142581
X76336Y142262
X78511Y142260
X79311
X80111
X80911
Y143060
X80111
X79311
X78511
Y141460
Y140860
X79311
Y141460
X80111
Y140860
X80911
Y141460
X80341Y146921
X79315Y146926
X78315
X76594Y146918
X75182Y145719
X75517Y145246
X74337Y147309
X72820Y148469
X72111Y152660
X71311
X70511
X69711
X68911
Y153460
Y154260
X69711
X71311
X73711
X75311
X77711
X79311
Y152660
X78511
X77978Y149553
X79398Y149496
X81076Y149253
X80607Y148391
X68283Y150665
X67710Y151023
X68007Y151905
X68529Y151391
X66511Y154260
X83311
Y152660
X82511
X81788Y151365
X83174Y148230
X83671Y148239
X84181
X84674Y148211
X84701Y149310
X85174Y148902
X87065Y148989
X87644Y149468
X88144
X88644
Y148021
X88144Y148138
X89144Y146875
X89981Y146554
X91311Y146260
X92111
Y145460
Y144660
Y143860
Y143060
X91311
Y143860
Y144660
Y145460
X90511Y144660
Y143860
Y143060
X89711
Y143860
Y144660
X88911
Y143860
Y143060
Y142260
X88111
Y143060
Y143860
Y144660
Y145460
X87311Y144660
Y143860
Y143060
X86511
X84837Y143529
Y144300
X85128Y145247
X85978
X84228
X83328
X82428
X82511Y144660
Y143860
Y143060
X83311
X84111
X83311Y142260
Y141460
Y140860
X82511
Y141460
Y142260
X81711
Y143060
Y143860
Y144660
Y141460
Y140860
X88111Y140660
X93711
Y141460
Y143860
X94511
X95311
X96111
X96911
Y144660
X96111
X95311
X94511
X94146Y144847
X93711Y144660
X93012Y148017
X91895Y148599
X90568
X91471Y149790
X93705Y149444
X94923Y149404
X96231Y149361
X96111Y152660
Y153460
Y154260
X95311Y152660
X94511
X93711
X92111
Y153460
Y154260
X91311Y152660
X90511
X89711
X88111
Y153460
Y154260
X87311Y152660
X86511
X85711
Y153460
Y154260
X86099Y149984
X86433Y147269
X87144Y146654
X89134Y150479
X96911Y143060
X100111
X100911
X101711
X102511
X103311
X104111
X104911
X105711
X106511
X107311
X108111
X108911
X109711
Y143860
X108911
X108111
X107311
X106511
X105711
X104911
X104111
X104239Y145758
X105310Y145735
X103216Y145149
X102710Y145480
X102148Y147707
X103859Y148275
X105111Y150835
X105711Y151860
X106511
X107311
X108111
X108911
X109711
X110511
X112111
Y152660
X112911Y151060
X112111Y150260
X111311Y149460
X111154Y149102
X111311Y147860
Y147060
Y146260
X111154Y145744
X110514Y145456
X109711Y146260
Y147060
X108911
X107651Y147187
X107628Y146626
X108504Y141293
X104911Y140660
X104111
X103311
X100911
Y141460
Y142260
X101711
X100111
Y141460
Y140660
X100674Y144241
X99122Y144238
Y145757
X98682Y147161
X99306Y148490
X99001Y149127
X98369Y149404
X97920Y150837
X97711Y152660
X98511
X99311
X100111
X100911
X101711
X102511
X104111
X105711
X106511
X107311
X108111
X108911
X109711
X110511Y154260
X108911
X106511
X104911
X102511
X100111
Y153460
X101396Y151425
X100716Y149214
X111311Y143860
X112111
X112911
Y143060
X112111
X111311
X113711
Y145460
Y150260
X114409Y150557
Y151357
Y152157
X113711Y155060
T03
X83953Y136601
X84740
Y137900
X83953
X86315
X87102
Y136601
X86315
X86415Y140501
X87202
Y141800
X86415
X84840
X84053
Y140501
X84840
X89353
X90140
Y141800
X89353
X91715
X92502
Y140501
X91715
X94653
X95440
Y141800
X94653
X97015
Y140501
X97802
Y141800
T04
X10564Y82782
X11564
X15464
X16464
X19664Y82777
X20664
X24164Y82816
X25164
T05
X81780Y117400
X82780
X83780
X84780
X100783Y139501
X101783
X102783
X103783
X22404Y150434
X21404
X20404
X19404
T06
X63783Y129603
Y130393
T07
X11524Y80877
X14064Y81877
X15524Y80877
X18064Y81877
X18964
X22964
X27364Y82777
Y86777
X32206Y91710
Y93196
X36206
Y91710
X84724Y108034
X87724
Y109034
Y110034
Y111034
Y112484
Y113484
Y114484
Y115484
X84724
Y114484
Y113484
Y112484
Y111034
Y110034
Y109034
X97328Y135650
X98328
Y138650
X97328
X96328
X95328
X94328
Y135650
X95328
X96328
X65626Y137426
X64626
X64804Y134255
X62804
T08
X9557Y84456
X12557
X14364
X17364
X18661
Y90456
X17364Y89456
X14364Y90456
X12557Y89456
X9557Y90456
X21661Y89456
X23048Y90456
X26048Y89456
Y84456
X23048
X21661
X99815Y108637
X104315
X108796Y108639
X76337Y108337
X75337
X74337
X73337
X42389Y106918
X41389
X40389
X42828Y110350
X45828Y109350
X47628Y110350
Y115350
X45828
X42828
X50628
X52228
X55228
X56828
X59828
X61628
X64628
X64687Y121194
X65687
X63687Y121194
X64628Y109350
X61628Y110350
X59828Y109350
X56828Y110350
X55228Y109350
X52228Y110350
X50628Y110957
Y109350
X73837Y109337
X74837
X75837
X76837
X75186Y124461
X74186
X73186
X69933Y120688
X68933Y120688
X67933
X96660Y120439
Y121439
Y122439
Y123439
Y124439
Y119439
X96815Y114637
Y109637
X101315
X105796Y109639
Y114639
X104315Y114637
X101315
X99815
X97660Y119439
Y120439
Y121439
Y122439
Y123439
Y124439
X104044Y123150
Y121550
Y118550
X109044
X110044Y121550
X109044Y123150
X108796Y114639
X110044Y126150
X109003Y127615
X110003Y130615
X104003
Y127615
X104044Y126150
X97660Y126439
Y127439
Y128439
Y129439
Y130439
Y125439
X96660
Y126439
Y127439
Y128439
Y129439
Y130439
X86732Y131770
X85732
X84732
X79699Y129066
X80406Y128359
X81113Y127652
X80704Y125396
X79720
X78736
X77752
X76767
X34642Y150982
X33642
X27391Y151205
X26391
X25391
Y150102
X26391
X27391
X35642Y150982
X50862Y142203
Y141203
Y140203
T09
X28901Y87228
X29901
X30901
X31901
X32901
X33901
Y90228
X32901
X31901
X30901
X29901
X28901
X34901
X35901
Y87228
X34901
X22091Y115191
X69295Y115282
X84353Y135866
X85293
X86233
X87173
X74911Y125392
X74370
T10
X34305Y112170
Y114170
X68824Y116666
Y118666
X71224Y113884
X73224
X75697Y113884
X77112Y112469
X76405Y120295
X78405
X113567Y139850
X34174Y143067
X36174
X42019Y141631
Y140631
X43019
Y141631
X44019
Y140631
X45019
Y141631
X46019
Y140631
X47019
Y141631
X48019
Y140631
X49019
Y141631
X44324Y144319
X42324
X52165Y144272
X53579Y142858
X113567Y142850
Y141850
Y140850
T12
X89841Y134635
X90826
X91810
T13
X65869Y141201
T14
X30786Y82080
X30829Y83332
X30868Y84569
X30868Y85837
X34786Y82080
X34829Y83332
X34868Y84569
Y85837
T16
X62916Y141191
T17
X99022Y105537
X101022
X103022
X105022
X107022
X109022
X97022
X95022
X93022
X89724Y105456
X87724
X85724
X70000Y105537
X68000
X64517Y105504
X62517
X60517
X58517
X54779Y105517
X52779
X50779
X48779
X46779
X43196Y105537
X41196
X39196
X37196
X34148Y105492
X32148
X30148
X28148
X25548
X23548
X21548
X22169Y96555
X24169
X26169
X28169
X30169
X18007Y104613
X16353
Y106266
Y107920
X18007
Y106266
Y109573
X16353
Y111227
X18007
Y112881
Y114534
X16353
Y116188
X18007
Y117841
X16353
Y119495
X18007
Y121148
X16353
Y122802
X18007
X16353Y112881
X9775Y112355
Y110355
X113006Y111144
Y109144
X113023Y124015
Y126015
Y128015
X112953Y132946
Y134946
Y136946
X10648Y137492
Y139492
X10586Y134692
Y132692
Y130692
Y128692
Y126692
Y124692
X10648Y141492
Y143492
Y145492
Y147492
X11147Y153707
X9147
X13147
X15941
X17941
X19941
X21941
X24740
X26740
X28740
X30740
X33539Y153694
X35539
X37539
X39539
X42338Y153707
X44338
X46338
X48338
X51039Y153694
X53039
X55039
X57039
X59764Y153707
X61764
X63764
X65764
X67764
X70483Y153671
X72483
X74483
X76483
X78483
X80483
X82483
X84483
X87107Y153690
X89107
X91107
X93107
X95107
X97107
X99107
X101107
X103737
X105737
X107737
X109737
X111737
X113737
T18
X113249Y104448
X10493
Y121377
X70336Y109566
X113249Y120196
X56987Y134281
X21554
X10493Y150511
X21554Y145699
X56987
X113249Y147755
T19
X72837Y105837
X77337
M30
