%FSLAX24Y24*%
%MOIN*%
G70*
G01*
G75*
G04 Layer_Color=16711935*
%ADD10C,0.0394*%
%ADD11R,0.0500X0.0400*%
%ADD12R,0.0400X0.0500*%
%ADD13O,0.0800X0.0300*%
%ADD14R,0.0800X0.0300*%
%ADD15R,0.1339X0.0700*%
%ADD16R,0.1339X0.0472*%
%ADD17R,0.1339X0.0472*%
G04:AMPARAMS|DCode=18|XSize=40mil|YSize=50mil|CornerRadius=0mil|HoleSize=0mil|Usage=FLASHONLY|Rotation=135.000|XOffset=0mil|YOffset=0mil|HoleType=Round|Shape=Rectangle|*
%AMROTATEDRECTD18*
4,1,4,0.0318,0.0035,-0.0035,-0.0318,-0.0318,-0.0035,0.0035,0.0318,0.0318,0.0035,0.0*
%
%ADD18ROTATEDRECTD18*%

%ADD19O,0.0160X0.1000*%
%ADD20O,0.1000X0.0160*%
%ADD21O,0.0300X0.0800*%
%ADD22R,0.0300X0.0800*%
%ADD23O,0.0240X0.0800*%
%ADD24C,0.0300*%
%ADD25C,0.0150*%
%ADD26C,0.0120*%
%ADD27C,0.0200*%
%ADD28C,0.0050*%
%ADD29C,0.0100*%
%ADD30C,0.0650*%
%ADD31C,0.0709*%
%ADD32O,0.0709X0.0550*%
%ADD33C,0.0500*%
%ADD34C,0.0591*%
%ADD35C,0.0787*%
%ADD36C,0.0787*%
%ADD37O,0.0980X0.1020*%
%ADD38C,0.0600*%
%ADD39C,0.0250*%
%ADD40C,0.0984*%
%ADD41C,0.0080*%
%ADD42C,0.0060*%
%ADD43C,0.0061*%
%ADD44C,0.0079*%
%ADD45R,0.1575X0.0153*%
%ADD46C,0.0866*%
%ADD47C,0.0474*%
%ADD48R,0.0580X0.0480*%
%ADD49R,0.0480X0.0580*%
%ADD50O,0.0880X0.0380*%
%ADD51R,0.0880X0.0380*%
%ADD52R,0.1419X0.0780*%
%ADD53R,0.1419X0.0552*%
%ADD54R,0.1419X0.0552*%
G04:AMPARAMS|DCode=55|XSize=48mil|YSize=58mil|CornerRadius=0mil|HoleSize=0mil|Usage=FLASHONLY|Rotation=135.000|XOffset=0mil|YOffset=0mil|HoleType=Round|Shape=Rectangle|*
%AMROTATEDRECTD55*
4,1,4,0.0375,0.0035,-0.0035,-0.0375,-0.0375,-0.0035,0.0035,0.0375,0.0375,0.0035,0.0*
%
%ADD55ROTATEDRECTD55*%

%ADD56O,0.0240X0.1080*%
%ADD57O,0.1080X0.0240*%
%ADD58O,0.0380X0.0880*%
%ADD59R,0.0380X0.0880*%
%ADD60O,0.0320X0.0880*%
%ADD61C,0.0730*%
%ADD62C,0.0789*%
%ADD63O,0.0789X0.0630*%
%ADD64C,0.0580*%
%ADD65C,0.0671*%
%ADD66C,0.0867*%
%ADD67C,0.0867*%
%ADD68O,0.1060X0.1100*%
%ADD69C,0.0680*%
%ADD70C,0.1064*%
%ADD71C,0.0020*%
%ADD72C,0.0197*%
%ADD73R,0.0667X0.1929*%
D28*
X28150Y0D02*
G03*
X29528Y1378I0J1378D01*
G01*
X0D02*
G03*
X1378Y0I1378J0D01*
G01*
X29528Y58465D02*
G03*
X28150Y59843I-1378J0D01*
G01*
X1378D02*
G03*
X0Y58465I0J-1378D01*
G01*
Y59843D02*
X29528D01*
Y0D02*
Y59843D01*
X28560Y0D02*
X29528D01*
X0D02*
X28560D01*
X0D02*
Y59843D01*
X28150Y0D02*
G03*
X29528Y1378I0J1378D01*
G01*
X0D02*
G03*
X1378Y0I1378J0D01*
G01*
X29528Y58465D02*
G03*
X28150Y59843I-1378J0D01*
G01*
X1378D02*
G03*
X0Y58465I0J-1378D01*
G01*
Y59843D02*
X29528D01*
Y0D02*
Y59843D01*
X28560Y0D02*
X29528D01*
X0D02*
X28560D01*
X0D02*
Y59843D01*
D29*
X6831Y1496D02*
G03*
X6831Y1496I-787J0D01*
G01*
Y30059D02*
G03*
X6831Y30059I-787J0D01*
G01*
X6792Y57140D02*
G03*
X6792Y57140I-787J0D01*
G01*
X22441Y47244D02*
G03*
X22441Y47244I-787J0D01*
G01*
X28898Y1441D02*
G03*
X28898Y1441I-787J0D01*
G01*
X28874Y54390D02*
G03*
X28874Y54390I-787J0D01*
G01*
X6693Y47244D02*
G03*
X6693Y47244I-787J0D01*
G01*
X6831Y1496D02*
G03*
X6831Y1496I-787J0D01*
G01*
Y30059D02*
G03*
X6831Y30059I-787J0D01*
G01*
X6792Y57140D02*
G03*
X6792Y57140I-787J0D01*
G01*
X22441Y47244D02*
G03*
X22441Y47244I-787J0D01*
G01*
X28898Y1441D02*
G03*
X28898Y1441I-787J0D01*
G01*
X28874Y54390D02*
G03*
X28874Y54390I-787J0D01*
G01*
X6693Y47244D02*
G03*
X6693Y47244I-787J0D01*
G01*
M02*
