%FSLAX24Y24*%
%MOIN*%
G70*
G01*
G75*
G04 Layer_Color=65280*
%ADD10C,0.0394*%
%ADD11R,0.0500X0.0400*%
%ADD12R,0.0400X0.0500*%
%ADD13O,0.0800X0.0300*%
%ADD14R,0.0800X0.0300*%
%ADD15R,0.1339X0.0700*%
%ADD16R,0.1339X0.0472*%
%ADD17R,0.1339X0.0472*%
G04:AMPARAMS|DCode=18|XSize=40mil|YSize=50mil|CornerRadius=0mil|HoleSize=0mil|Usage=FLASHONLY|Rotation=135.000|XOffset=0mil|YOffset=0mil|HoleType=Round|Shape=Rectangle|*
%AMROTATEDRECTD18*
4,1,4,0.0318,0.0035,-0.0035,-0.0318,-0.0318,-0.0035,0.0035,0.0318,0.0318,0.0035,0.0*
%
%ADD18ROTATEDRECTD18*%

%ADD19O,0.0160X0.1000*%
%ADD20O,0.1000X0.0160*%
%ADD21O,0.0300X0.0800*%
%ADD22R,0.0300X0.0800*%
%ADD23O,0.0240X0.0800*%
%ADD24C,0.0300*%
%ADD25C,0.0150*%
%ADD26C,0.0120*%
%ADD27C,0.0200*%
%ADD28C,0.0050*%
%ADD29C,0.0100*%
%ADD30C,0.0650*%
%ADD31C,0.0709*%
%ADD32O,0.0709X0.0550*%
%ADD33C,0.0500*%
%ADD34C,0.0591*%
%ADD35C,0.0787*%
%ADD36C,0.0787*%
%ADD37O,0.0980X0.1020*%
%ADD38C,0.0600*%
%ADD39C,0.0250*%
%ADD40C,0.0984*%
%ADD41C,0.0080*%
%ADD42C,0.0060*%
%ADD43C,0.0061*%
%ADD44C,0.0079*%
%ADD45R,0.1575X0.0153*%
%ADD46C,0.0866*%
%ADD47C,0.0474*%
%ADD48R,0.0580X0.0480*%
%ADD49R,0.0480X0.0580*%
%ADD50O,0.0880X0.0380*%
%ADD51R,0.0880X0.0380*%
%ADD52R,0.1419X0.0780*%
%ADD53R,0.1419X0.0552*%
%ADD54R,0.1419X0.0552*%
G04:AMPARAMS|DCode=55|XSize=48mil|YSize=58mil|CornerRadius=0mil|HoleSize=0mil|Usage=FLASHONLY|Rotation=135.000|XOffset=0mil|YOffset=0mil|HoleType=Round|Shape=Rectangle|*
%AMROTATEDRECTD55*
4,1,4,0.0375,0.0035,-0.0035,-0.0375,-0.0375,-0.0035,0.0035,0.0375,0.0375,0.0035,0.0*
%
%ADD55ROTATEDRECTD55*%

%ADD56O,0.0240X0.1080*%
%ADD57O,0.1080X0.0240*%
%ADD58O,0.0380X0.0880*%
%ADD59R,0.0380X0.0880*%
%ADD60O,0.0320X0.0880*%
%ADD61C,0.0730*%
%ADD62C,0.0789*%
%ADD63O,0.0789X0.0630*%
%ADD64C,0.0580*%
%ADD65C,0.0671*%
%ADD66C,0.0867*%
%ADD67C,0.0867*%
%ADD68O,0.1060X0.1100*%
%ADD69C,0.0680*%
%ADD70C,0.1064*%
%ADD71C,0.0020*%
%ADD72C,0.0197*%
%ADD73R,0.0667X0.1929*%
G36*
X13450Y30280D02*
X13078D01*
Y30356D01*
X13360D01*
Y30968D01*
X13450D01*
Y30280D01*
D02*
G37*
G36*
X11835D02*
X11649D01*
X11632Y30281D01*
X11617Y30282D01*
X11604Y30283D01*
X11590Y30286D01*
X11579Y30287D01*
X11568Y30289D01*
X11559Y30291D01*
X11551Y30293D01*
X11544Y30296D01*
X11538Y30297D01*
X11534Y30299D01*
X11527Y30301D01*
X11525Y30302D01*
X11509Y30312D01*
X11495Y30322D01*
X11484Y30333D01*
X11474Y30344D01*
X11466Y30354D01*
X11460Y30362D01*
X11457Y30367D01*
X11456Y30369D01*
X11448Y30386D01*
X11441Y30401D01*
X11437Y30416D01*
X11435Y30430D01*
X11432Y30441D01*
X11431Y30450D01*
Y30456D01*
Y30458D01*
X11432Y30476D01*
X11436Y30493D01*
X11440Y30509D01*
X11446Y30523D01*
X11451Y30536D01*
X11456Y30546D01*
X11459Y30551D01*
X11460Y30553D01*
X11466Y30562D01*
X11474Y30571D01*
X11490Y30587D01*
X11508Y30600D01*
X11527Y30612D01*
X11544Y30621D01*
X11551Y30626D01*
X11558Y30629D01*
X11564Y30631D01*
X11568Y30633D01*
X11570Y30634D01*
X11571D01*
X11556Y30643D01*
X11542Y30652D01*
X11530Y30660D01*
X11520Y30668D01*
X11514Y30674D01*
X11508Y30680D01*
X11505Y30683D01*
X11504Y30684D01*
X11488Y30706D01*
X11482Y30716D01*
X11477Y30724D01*
X11474Y30733D01*
X11470Y30739D01*
X11468Y30743D01*
Y30744D01*
X11464Y30757D01*
X11461Y30769D01*
X11459Y30780D01*
X11457Y30791D01*
Y30800D01*
X11456Y30807D01*
Y30812D01*
Y30813D01*
X11457Y30830D01*
X11459Y30845D01*
X11462Y30860D01*
X11466Y30872D01*
X11470Y30882D01*
X11474Y30889D01*
X11476Y30894D01*
X11477Y30895D01*
X11485Y30908D01*
X11495Y30919D01*
X11505Y30928D01*
X11515Y30935D01*
X11524Y30941D01*
X11531Y30945D01*
X11536Y30948D01*
X11538Y30949D01*
X11547Y30952D01*
X11557Y30955D01*
X11568Y30958D01*
X11580Y30960D01*
X11607Y30963D01*
X11635Y30965D01*
X11660Y30967D01*
X11671Y30968D01*
X11835D01*
Y30280D01*
D02*
G37*
G36*
X13779Y30987D02*
X13807Y30982D01*
X13831Y30974D01*
X13853Y30967D01*
X13872Y30959D01*
X13880Y30954D01*
X13886Y30951D01*
X13891Y30949D01*
X13894Y30947D01*
X13897Y30944D01*
X13898D01*
X13922Y30927D01*
X13943Y30905D01*
X13961Y30884D01*
X13976Y30863D01*
X13988Y30844D01*
X13992Y30837D01*
X13997Y30830D01*
X13999Y30823D01*
X14001Y30819D01*
X14003Y30817D01*
Y30815D01*
X14016Y30783D01*
X14024Y30750D01*
X14031Y30718D01*
X14036Y30688D01*
X14037Y30674D01*
X14038Y30662D01*
X14039Y30651D01*
Y30641D01*
X14040Y30633D01*
Y30628D01*
Y30624D01*
Y30623D01*
X14039Y30584D01*
X14034Y30548D01*
X14028Y30514D01*
X14024Y30500D01*
X14021Y30487D01*
X14018Y30473D01*
X14014Y30463D01*
X14011Y30453D01*
X14008Y30446D01*
X14006Y30439D01*
X14003Y30434D01*
X14002Y30431D01*
Y30430D01*
X13987Y30400D01*
X13970Y30374D01*
X13952Y30352D01*
X13936Y30334D01*
X13920Y30320D01*
X13908Y30310D01*
X13903Y30307D01*
X13900Y30304D01*
X13898Y30302D01*
X13897D01*
X13871Y30288D01*
X13844Y30278D01*
X13820Y30270D01*
X13798Y30266D01*
X13778Y30262D01*
X13770Y30261D01*
X13762D01*
X13757Y30260D01*
X13749D01*
X13726Y30261D01*
X13701Y30264D01*
X13678Y30269D01*
X13656Y30274D01*
X13638Y30279D01*
X13630Y30281D01*
X13623Y30283D01*
X13618Y30286D01*
X13613Y30287D01*
X13611Y30288D01*
X13610D01*
Y30369D01*
X13637Y30356D01*
X13662Y30346D01*
X13687Y30338D01*
X13708Y30333D01*
X13727Y30330D01*
X13733Y30329D01*
X13740D01*
X13746Y30328D01*
X13752D01*
X13771Y30329D01*
X13789Y30333D01*
X13806Y30339D01*
X13820Y30346D01*
X13832Y30351D01*
X13841Y30357D01*
X13847Y30361D01*
X13849Y30362D01*
X13864Y30377D01*
X13878Y30394D01*
X13890Y30411D01*
X13901Y30429D01*
X13909Y30444D01*
X13914Y30458D01*
X13917Y30462D01*
X13919Y30466D01*
X13920Y30468D01*
Y30469D01*
X13929Y30496D01*
X13936Y30523D01*
X13941Y30549D01*
X13944Y30573D01*
X13946Y30583D01*
X13947Y30593D01*
Y30602D01*
X13948Y30609D01*
Y30616D01*
Y30620D01*
Y30622D01*
Y30623D01*
X13947Y30653D01*
X13943Y30682D01*
X13939Y30709D01*
X13934Y30731D01*
X13932Y30741D01*
X13930Y30750D01*
X13928Y30758D01*
X13926Y30764D01*
X13923Y30770D01*
X13922Y30773D01*
X13921Y30775D01*
Y30777D01*
X13910Y30801D01*
X13898Y30823D01*
X13887Y30841D01*
X13876Y30857D01*
X13866Y30868D01*
X13857Y30877D01*
X13852Y30881D01*
X13850Y30883D01*
X13833Y30895D01*
X13816Y30904D01*
X13800Y30911D01*
X13784Y30915D01*
X13771Y30918D01*
X13761Y30920D01*
X13752D01*
X13726Y30918D01*
X13700Y30913D01*
X13676Y30907D01*
X13654Y30900D01*
X13637Y30892D01*
X13629Y30889D01*
X13622Y30885D01*
X13617Y30882D01*
X13613Y30881D01*
X13611Y30879D01*
X13610D01*
Y30960D01*
X13638Y30970D01*
X13664Y30977D01*
X13688Y30982D01*
X13708Y30985D01*
X13726Y30988D01*
X13732D01*
X13738Y30989D01*
X13749D01*
X13779Y30987D01*
D02*
G37*
G36*
X9467Y30591D02*
X9477Y30589D01*
X9486Y30586D01*
X9494Y30581D01*
X9499Y30577D01*
X9505Y30573D01*
X9507Y30571D01*
X9508Y30570D01*
X9515Y30561D01*
X9519Y30553D01*
X9524Y30544D01*
X9526Y30537D01*
X9527Y30530D01*
X9528Y30524D01*
Y30521D01*
Y30520D01*
X9527Y30510D01*
X9525Y30501D01*
X9522Y30492D01*
X9518Y30486D01*
X9515Y30479D01*
X9512Y30474D01*
X9509Y30471D01*
X9508Y30470D01*
X9499Y30462D01*
X9492Y30457D01*
X9483Y30453D01*
X9474Y30451D01*
X9467Y30449D01*
X9462Y30448D01*
X9456D01*
X9445Y30449D01*
X9435Y30451D01*
X9426Y30454D01*
X9418Y30459D01*
X9413Y30463D01*
X9408Y30467D01*
X9406Y30469D01*
X9405Y30470D01*
X9398Y30479D01*
X9393Y30488D01*
X9389Y30496D01*
X9386Y30503D01*
X9385Y30510D01*
X9384Y30516D01*
Y30519D01*
Y30520D01*
X9385Y30530D01*
X9387Y30540D01*
X9390Y30548D01*
X9394Y30556D01*
X9398Y30561D01*
X9402Y30567D01*
X9404Y30569D01*
X9405Y30570D01*
X9413Y30578D01*
X9422Y30583D01*
X9429Y30587D01*
X9438Y30590D01*
X9445Y30591D01*
X9450Y30592D01*
X9456D01*
X9467Y30591D01*
D02*
G37*
G36*
X10591Y30280D02*
X10500D01*
X10288Y30968D01*
X10375D01*
X10524Y30487D01*
X10541Y30417D01*
X10561Y30487D01*
X10710Y30968D01*
X10805D01*
X10591Y30280D01*
D02*
G37*
G36*
X26250Y10033D02*
X26257Y10006D01*
X26262Y9983D01*
X26265Y9962D01*
X26268Y9945D01*
Y9938D01*
X26269Y9933D01*
Y9928D01*
Y9925D01*
Y9923D01*
Y9922D01*
X26267Y9892D01*
X26262Y9864D01*
X26254Y9840D01*
X26247Y9817D01*
X26239Y9798D01*
X26234Y9791D01*
X26231Y9785D01*
X26229Y9780D01*
X26227Y9776D01*
X26224Y9774D01*
Y9773D01*
X26207Y9748D01*
X26185Y9727D01*
X26164Y9710D01*
X26143Y9695D01*
X26124Y9683D01*
X26117Y9679D01*
X26110Y9674D01*
X26103Y9672D01*
X26099Y9670D01*
X26097Y9667D01*
X26095D01*
X26063Y9655D01*
X26030Y9646D01*
X25998Y9640D01*
X25968Y9635D01*
X25954Y9634D01*
X25942Y9633D01*
X25931Y9632D01*
X25921D01*
X25913Y9631D01*
X25903D01*
X25864Y9632D01*
X25828Y9636D01*
X25794Y9643D01*
X25780Y9646D01*
X25766Y9650D01*
X25753Y9653D01*
X25742Y9656D01*
X25732Y9660D01*
X25724Y9663D01*
X25718Y9665D01*
X25713Y9667D01*
X25710Y9668D01*
X25709D01*
X25679Y9684D01*
X25653Y9701D01*
X25631Y9718D01*
X25613Y9735D01*
X25599Y9750D01*
X25589Y9762D01*
X25586Y9766D01*
X25583Y9770D01*
X25581Y9772D01*
Y9773D01*
X25568Y9800D01*
X25558Y9825D01*
X25550Y9852D01*
X25546Y9875D01*
X25542Y9896D01*
X25541Y9905D01*
Y9913D01*
X25540Y9918D01*
Y9924D01*
Y9926D01*
Y9927D01*
X25541Y9951D01*
X25543Y9974D01*
X25547Y9996D01*
X25550Y10017D01*
X25553Y10035D01*
X25556Y10042D01*
X25557Y10048D01*
X25558Y10054D01*
X25559Y10057D01*
X25560Y10060D01*
Y10061D01*
X25900D01*
Y9902D01*
X25831D01*
Y9971D01*
X25610D01*
X25609Y9956D01*
X25608Y9945D01*
Y9941D01*
Y9937D01*
Y9936D01*
Y9935D01*
X25609Y9915D01*
X25612Y9896D01*
X25617Y9880D01*
X25622Y9864D01*
X25629Y9850D01*
X25637Y9836D01*
X25644Y9824D01*
X25653Y9813D01*
X25662Y9804D01*
X25670Y9796D01*
X25678Y9790D01*
X25684Y9784D01*
X25690Y9780D01*
X25696Y9776D01*
X25698Y9775D01*
X25699Y9774D01*
X25717Y9765D01*
X25734Y9757D01*
X25770Y9744D01*
X25804Y9735D01*
X25836Y9730D01*
X25850Y9727D01*
X25863Y9725D01*
X25874Y9724D01*
X25884D01*
X25892Y9723D01*
X25903D01*
X25933Y9724D01*
X25962Y9727D01*
X25989Y9732D01*
X26011Y9736D01*
X26021Y9738D01*
X26030Y9741D01*
X26038Y9743D01*
X26044Y9745D01*
X26050Y9747D01*
X26053Y9748D01*
X26056Y9750D01*
X26057D01*
X26081Y9761D01*
X26103Y9772D01*
X26121Y9784D01*
X26137Y9795D01*
X26148Y9805D01*
X26157Y9813D01*
X26161Y9818D01*
X26163Y9821D01*
X26175Y9837D01*
X26184Y9855D01*
X26191Y9871D01*
X26195Y9886D01*
X26198Y9900D01*
X26200Y9910D01*
Y9916D01*
Y9917D01*
Y9918D01*
X26198Y9945D01*
X26193Y9971D01*
X26187Y9994D01*
X26180Y10016D01*
X26172Y10034D01*
X26169Y10042D01*
X26165Y10048D01*
X26162Y10054D01*
X26161Y10057D01*
X26159Y10060D01*
Y10061D01*
X26240D01*
X26250Y10033D01*
D02*
G37*
G36*
X25836Y7158D02*
X26041D01*
Y7089D01*
X25836D01*
Y6882D01*
X25766D01*
Y7089D01*
X25560D01*
Y7158D01*
X25766D01*
Y7364D01*
X25836D01*
Y7158D01*
D02*
G37*
G36*
X26248Y6622D02*
Y6532D01*
X25560Y6320D01*
Y6405D01*
X25711Y6452D01*
Y6694D01*
X25560Y6742D01*
Y6837D01*
X26248Y6622D01*
D02*
G37*
G36*
X25756Y7874D02*
X25773Y7871D01*
X25789Y7866D01*
X25803Y7861D01*
X25816Y7855D01*
X25826Y7851D01*
X25831Y7848D01*
X25833Y7846D01*
X25842Y7841D01*
X25851Y7833D01*
X25867Y7816D01*
X25880Y7799D01*
X25892Y7780D01*
X25901Y7763D01*
X25906Y7755D01*
X25909Y7749D01*
X25911Y7743D01*
X25913Y7739D01*
X25914Y7736D01*
Y7735D01*
X25923Y7751D01*
X25932Y7764D01*
X25940Y7776D01*
X25948Y7786D01*
X25954Y7793D01*
X25960Y7799D01*
X25963Y7802D01*
X25964Y7803D01*
X25986Y7819D01*
X25996Y7824D01*
X26004Y7830D01*
X26013Y7833D01*
X26019Y7836D01*
X26023Y7839D01*
X26024D01*
X26037Y7843D01*
X26049Y7845D01*
X26060Y7848D01*
X26071Y7850D01*
X26080D01*
X26087Y7851D01*
X26093D01*
X26110Y7850D01*
X26126Y7848D01*
X26140Y7844D01*
X26152Y7841D01*
X26162Y7836D01*
X26169Y7833D01*
X26174Y7831D01*
X26175Y7830D01*
X26188Y7822D01*
X26199Y7812D01*
X26208Y7802D01*
X26215Y7792D01*
X26221Y7783D01*
X26225Y7775D01*
X26228Y7771D01*
X26229Y7769D01*
X26232Y7760D01*
X26235Y7750D01*
X26238Y7739D01*
X26240Y7726D01*
X26243Y7700D01*
X26245Y7672D01*
X26247Y7646D01*
X26248Y7635D01*
Y7626D01*
Y7618D01*
Y7612D01*
Y7608D01*
Y7606D01*
Y7472D01*
X25560D01*
Y7640D01*
Y7658D01*
X25561Y7674D01*
X25562Y7690D01*
X25563Y7703D01*
X25566Y7716D01*
X25567Y7728D01*
X25569Y7739D01*
X25571Y7748D01*
X25573Y7755D01*
X25576Y7763D01*
X25577Y7769D01*
X25579Y7773D01*
X25581Y7780D01*
X25582Y7782D01*
X25592Y7798D01*
X25602Y7812D01*
X25613Y7823D01*
X25624Y7833D01*
X25634Y7841D01*
X25642Y7846D01*
X25647Y7850D01*
X25649Y7851D01*
X25666Y7859D01*
X25681Y7865D01*
X25696Y7870D01*
X25710Y7872D01*
X25721Y7874D01*
X25730Y7875D01*
X25738D01*
X25756Y7874D01*
D02*
G37*
G36*
X26248Y8932D02*
X25767Y8783D01*
X25697Y8765D01*
X25767Y8745D01*
X26248Y8596D01*
Y8502D01*
X25560Y8715D01*
Y8806D01*
X26248Y9019D01*
Y8932D01*
D02*
G37*
G36*
X25872Y8042D02*
X25804D01*
Y8386D01*
X25872D01*
Y8042D01*
D02*
G37*
G36*
X11265Y30524D02*
X10920D01*
Y30592D01*
X11265D01*
Y30524D01*
D02*
G37*
G36*
X28481Y10560D02*
X28422D01*
Y10731D01*
X28348D01*
X28336Y10732D01*
X28324Y10734D01*
X28313Y10736D01*
X28302Y10739D01*
X28292Y10742D01*
X28283Y10746D01*
X28275Y10749D01*
X28268Y10754D01*
X28261Y10757D01*
X28256Y10761D01*
X28251Y10763D01*
X28248Y10766D01*
X28245Y10769D01*
X28243Y10769D01*
X28242Y10770D01*
X28234Y10778D01*
X28227Y10787D01*
X28220Y10796D01*
X28214Y10805D01*
X28210Y10815D01*
X28206Y10823D01*
X28200Y10840D01*
X28198Y10849D01*
X28197Y10856D01*
X28196Y10863D01*
X28195Y10869D01*
X28194Y10873D01*
Y10877D01*
Y10879D01*
Y10880D01*
X28195Y10892D01*
X28196Y10903D01*
X28198Y10914D01*
X28201Y10924D01*
X28204Y10933D01*
X28208Y10941D01*
X28211Y10949D01*
X28215Y10956D01*
X28219Y10962D01*
X28222Y10967D01*
X28226Y10971D01*
X28229Y10975D01*
X28232Y10978D01*
X28234Y10980D01*
X28235Y10981D01*
X28236Y10982D01*
X28244Y10988D01*
X28252Y10994D01*
X28271Y11003D01*
X28290Y11008D01*
X28308Y11013D01*
X28317Y11014D01*
X28325Y11016D01*
X28332Y11017D01*
X28338D01*
X28343Y11017D01*
X28481D01*
Y10560D01*
D02*
G37*
G36*
X8928Y30988D02*
X8944Y30985D01*
X8958Y30984D01*
X8972Y30982D01*
X8982Y30980D01*
X8989Y30979D01*
X8992D01*
X9013Y30974D01*
X9033Y30969D01*
X9052Y30963D01*
X9068Y30957D01*
X9083Y30951D01*
X9094Y30947D01*
X9098Y30944D01*
X9102Y30943D01*
X9103Y30942D01*
X9104D01*
Y30869D01*
X9085Y30877D01*
X9069Y30883D01*
X9056Y30889D01*
X9045Y30893D01*
X9037Y30897D01*
X9032Y30899D01*
X9028Y30900D01*
X9027D01*
X9008Y30905D01*
X8992Y30910D01*
X8984Y30911D01*
X8978Y30912D01*
X8974Y30913D01*
X8973D01*
X8961Y30915D01*
X8951Y30918D01*
X8941Y30919D01*
X8933D01*
X8925Y30920D01*
X8916D01*
X8899Y30919D01*
X8885Y30917D01*
X8872Y30912D01*
X8859Y30908D01*
X8849Y30903D01*
X8843Y30899D01*
X8837Y30897D01*
X8836Y30895D01*
X8824Y30885D01*
X8815Y30874D01*
X8809Y30863D01*
X8805Y30852D01*
X8803Y30842D01*
X8801Y30834D01*
Y30829D01*
Y30827D01*
X8802Y30817D01*
X8803Y30807D01*
X8805Y30798D01*
X8808Y30789D01*
X8812Y30782D01*
X8814Y30775D01*
X8815Y30772D01*
X8816Y30771D01*
X8823Y30759D01*
X8832Y30747D01*
X8843Y30732D01*
X8853Y30719D01*
X8863Y30708D01*
X8872Y30698D01*
X8877Y30691D01*
X8878Y30690D01*
X8879Y30689D01*
X8896Y30671D01*
X8909Y30657D01*
X8919Y30644D01*
X8928Y30636D01*
X8934Y30629D01*
X8937Y30624D01*
X8939Y30622D01*
X8941Y30621D01*
X8988Y30573D01*
X9015Y30544D01*
X9027Y30531D01*
X9038Y30519D01*
X9047Y30509D01*
X9054Y30501D01*
X9058Y30496D01*
X9059Y30493D01*
X9071Y30478D01*
X9080Y30463D01*
X9088Y30451D01*
X9095Y30440D01*
X9099Y30431D01*
X9103Y30423D01*
X9104Y30419D01*
X9105Y30418D01*
X9109Y30406D01*
X9112Y30394D01*
X9114Y30383D01*
X9116Y30374D01*
Y30367D01*
X9117Y30361D01*
Y30357D01*
Y30356D01*
Y30280D01*
X8701D01*
Y30356D01*
X9032D01*
X9029Y30374D01*
X9026Y30392D01*
X9022Y30407D01*
X9016Y30420D01*
X9012Y30431D01*
X9007Y30439D01*
X9005Y30443D01*
X9004Y30446D01*
X8994Y30460D01*
X8983Y30474D01*
X8973Y30488D01*
X8962Y30500D01*
X8953Y30510D01*
X8945Y30519D01*
X8941Y30523D01*
X8938Y30526D01*
X8896Y30567D01*
X8846Y30617D01*
X8832Y30631D01*
X8818Y30644D01*
X8807Y30657D01*
X8796Y30669D01*
X8777Y30691D01*
X8763Y30709D01*
X8753Y30723D01*
X8745Y30733D01*
X8741Y30740D01*
X8739Y30742D01*
X8731Y30760D01*
X8724Y30778D01*
X8718Y30794D01*
X8715Y30809D01*
X8713Y30820D01*
X8712Y30830D01*
Y30835D01*
Y30838D01*
X8713Y30853D01*
X8715Y30868D01*
X8718Y30881D01*
X8723Y30893D01*
X8727Y30903D01*
X8731Y30910D01*
X8733Y30915D01*
X8734Y30917D01*
X8743Y30930D01*
X8753Y30941D01*
X8764Y30950D01*
X8775Y30958D01*
X8785Y30963D01*
X8793Y30968D01*
X8798Y30970D01*
X8801Y30971D01*
X8817Y30977D01*
X8835Y30981D01*
X8851Y30984D01*
X8866Y30987D01*
X8879Y30988D01*
X8889Y30989D01*
X8913D01*
X8928Y30988D01*
D02*
G37*
G36*
X29113Y32978D02*
X29054D01*
Y33149D01*
X28981D01*
X28968Y33149D01*
X28957Y33151D01*
X28945Y33154D01*
X28935Y33157D01*
X28925Y33160D01*
X28916Y33163D01*
X28908Y33167D01*
X28900Y33171D01*
X28894Y33174D01*
X28888Y33178D01*
X28883Y33181D01*
X28880Y33184D01*
X28877Y33186D01*
X28876Y33187D01*
X28875Y33188D01*
X28867Y33196D01*
X28860Y33205D01*
X28853Y33214D01*
X28847Y33223D01*
X28843Y33232D01*
X28839Y33241D01*
X28833Y33258D01*
X28831Y33266D01*
X28829Y33274D01*
X28829Y33280D01*
X28828Y33286D01*
X28827Y33291D01*
Y33294D01*
Y33297D01*
Y33297D01*
X28828Y33309D01*
X28829Y33321D01*
X28831Y33331D01*
X28834Y33342D01*
X28837Y33351D01*
X28840Y33359D01*
X28844Y33367D01*
X28848Y33373D01*
X28851Y33379D01*
X28855Y33385D01*
X28859Y33389D01*
X28862Y33393D01*
X28865Y33396D01*
X28867Y33398D01*
X28868Y33399D01*
X28868Y33399D01*
X28877Y33405D01*
X28885Y33411D01*
X28903Y33420D01*
X28922Y33426D01*
X28941Y33430D01*
X28950Y33432D01*
X28957Y33433D01*
X28965Y33434D01*
X28971D01*
X28976Y33435D01*
X29113D01*
Y32978D01*
D02*
G37*
G36*
X28002Y11025D02*
X28015Y11024D01*
X28027Y11022D01*
X28039Y11019D01*
X28050Y11016D01*
X28060Y11012D01*
X28070Y11008D01*
X28079Y11005D01*
X28087Y11000D01*
X28094Y10997D01*
X28100Y10993D01*
X28106Y10990D01*
X28110Y10987D01*
X28113Y10985D01*
X28114Y10984D01*
X28115Y10983D01*
Y10925D01*
X28105Y10934D01*
X28094Y10942D01*
X28084Y10948D01*
X28074Y10955D01*
X28063Y10960D01*
X28054Y10964D01*
X28045Y10968D01*
X28036Y10970D01*
X28028Y10972D01*
X28020Y10974D01*
X28015Y10975D01*
X28009Y10976D01*
X28004Y10977D01*
X27998D01*
X27983Y10976D01*
X27971Y10974D01*
X27960Y10970D01*
X27951Y10966D01*
X27944Y10963D01*
X27939Y10959D01*
X27936Y10957D01*
X27935Y10956D01*
X27928Y10948D01*
X27923Y10938D01*
X27918Y10928D01*
X27916Y10918D01*
X27915Y10909D01*
X27913Y10903D01*
Y10900D01*
Y10897D01*
Y10897D01*
Y10896D01*
X27914Y10883D01*
X27916Y10872D01*
X27919Y10860D01*
X27922Y10850D01*
X27926Y10841D01*
X27929Y10835D01*
X27931Y10831D01*
X27932Y10830D01*
Y10829D01*
X27935Y10823D01*
X27940Y10817D01*
X27951Y10803D01*
X27963Y10788D01*
X27975Y10774D01*
X27986Y10762D01*
X27992Y10757D01*
X27996Y10752D01*
X28000Y10748D01*
X28003Y10745D01*
X28004Y10744D01*
X28005Y10743D01*
X28138Y10610D01*
Y10560D01*
X27860D01*
Y10611D01*
X28069D01*
Y10613D01*
X27965Y10714D01*
X27953Y10726D01*
X27943Y10737D01*
X27933Y10747D01*
X27924Y10757D01*
X27917Y10766D01*
X27909Y10775D01*
X27904Y10783D01*
X27898Y10790D01*
X27893Y10796D01*
X27889Y10802D01*
X27886Y10807D01*
X27883Y10811D01*
X27881Y10814D01*
X27879Y10817D01*
X27878Y10818D01*
Y10818D01*
X27871Y10834D01*
X27865Y10849D01*
X27861Y10863D01*
X27858Y10876D01*
X27857Y10886D01*
X27855Y10894D01*
Y10897D01*
Y10900D01*
Y10901D01*
Y10902D01*
X27856Y10912D01*
X27857Y10922D01*
X27861Y10940D01*
X27867Y10955D01*
X27873Y10968D01*
X27880Y10978D01*
X27886Y10985D01*
X27888Y10988D01*
X27890Y10990D01*
X27891Y10991D01*
X27892D01*
X27898Y10997D01*
X27906Y11003D01*
X27922Y11011D01*
X27938Y11017D01*
X27953Y11021D01*
X27967Y11024D01*
X27973Y11025D01*
X27978D01*
X27983Y11025D01*
X27989D01*
X28002Y11025D01*
D02*
G37*
G36*
X10050Y30944D02*
X10079Y30923D01*
X10107Y30905D01*
X10133Y30890D01*
X10145Y30883D01*
X10156Y30878D01*
X10166Y30872D01*
X10174Y30869D01*
X10181Y30865D01*
X10186Y30863D01*
X10189Y30861D01*
X10190D01*
Y30787D01*
X10168Y30794D01*
X10149Y30802D01*
X10134Y30810D01*
X10119Y30817D01*
X10109Y30821D01*
X10101Y30826D01*
X10096Y30828D01*
X10095Y30829D01*
X10068Y30845D01*
X10056Y30854D01*
X10045Y30862D01*
X10036Y30869D01*
X10029Y30875D01*
X10024Y30879D01*
X10023Y30880D01*
Y30348D01*
X10190D01*
Y30280D01*
X9774D01*
Y30348D01*
X9939D01*
Y30968D01*
X10023D01*
X10050Y30944D01*
D02*
G37*
G36*
X12387Y30280D02*
X12297D01*
Y30630D01*
X12024Y30280D01*
X11911D01*
X12194Y30641D01*
X11946Y30968D01*
X12041D01*
X12297Y30630D01*
Y30968D01*
X12387D01*
Y30280D01*
D02*
G37*
G36*
X28749Y33397D02*
Y33345D01*
X28644Y33375D01*
Y33027D01*
X28746D01*
Y32978D01*
X28484D01*
Y33027D01*
X28587D01*
Y33445D01*
X28749Y33397D01*
D02*
G37*
G36*
X12901Y30524D02*
X12557D01*
Y30592D01*
X12901D01*
Y30524D01*
D02*
G37*
%LPC*%
G36*
X25780Y6674D02*
Y6473D01*
X26041Y6554D01*
X26110Y6572D01*
X26041Y6592D01*
X25780Y6674D01*
D02*
G37*
G36*
X29054Y33383D02*
X28994D01*
X28975Y33382D01*
X28959Y33379D01*
X28945Y33375D01*
X28933Y33369D01*
X28923Y33362D01*
X28914Y33355D01*
X28908Y33347D01*
X28903Y33339D01*
X28898Y33331D01*
X28894Y33322D01*
X28892Y33315D01*
X28891Y33308D01*
X28890Y33302D01*
X28889Y33298D01*
Y33295D01*
Y33294D01*
X28891Y33278D01*
X28894Y33265D01*
X28898Y33252D01*
X28903Y33242D01*
X28908Y33235D01*
X28913Y33229D01*
X28916Y33226D01*
X28917Y33225D01*
X28929Y33217D01*
X28942Y33211D01*
X28956Y33206D01*
X28969Y33203D01*
X28981Y33202D01*
X28986Y33201D01*
X28991D01*
X28994Y33200D01*
X29054D01*
Y33383D01*
D02*
G37*
G36*
X25748Y7785D02*
X25742D01*
X25726Y7784D01*
X25710Y7780D01*
X25696Y7774D01*
X25684Y7769D01*
X25674Y7762D01*
X25668Y7756D01*
X25662Y7752D01*
X25661Y7751D01*
X25650Y7736D01*
X25642Y7721D01*
X25636Y7703D01*
X25632Y7686D01*
X25630Y7671D01*
X25629Y7659D01*
X25628Y7653D01*
Y7650D01*
Y7648D01*
Y7646D01*
Y7562D01*
X25869D01*
Y7586D01*
X25868Y7615D01*
X25867Y7641D01*
X25863Y7662D01*
X25861Y7679D01*
X25858Y7692D01*
X25854Y7701D01*
X25853Y7706D01*
X25852Y7709D01*
X25846Y7723D01*
X25838Y7734D01*
X25830Y7744D01*
X25822Y7753D01*
X25816Y7759D01*
X25810Y7763D01*
X25807Y7765D01*
X25806Y7766D01*
X25794Y7773D01*
X25783Y7778D01*
X25773Y7781D01*
X25763Y7783D01*
X25754Y7784D01*
X25748Y7785D01*
D02*
G37*
G36*
X11745Y30899D02*
X11667D01*
X11654Y30898D01*
X11641Y30897D01*
X11630Y30895D01*
X11620Y30893D01*
X11610Y30891D01*
X11596Y30887D01*
X11585Y30882D01*
X11577Y30878D01*
X11572Y30875D01*
X11571Y30874D01*
X11561Y30864D01*
X11555Y30853D01*
X11549Y30841D01*
X11546Y30830D01*
X11544Y30819D01*
X11542Y30810D01*
Y30804D01*
Y30803D01*
Y30802D01*
X11544Y30780D01*
X11546Y30770D01*
X11547Y30762D01*
X11549Y30754D01*
X11551Y30749D01*
X11552Y30746D01*
Y30744D01*
X11561Y30727D01*
X11567Y30719D01*
X11571Y30711D01*
X11576Y30706D01*
X11580Y30701D01*
X11582Y30699D01*
X11584Y30698D01*
X11592Y30690D01*
X11602Y30682D01*
X11625Y30670D01*
X11635Y30664D01*
X11642Y30661D01*
X11648Y30659D01*
X11650Y30658D01*
X11745D01*
Y30899D01*
D02*
G37*
G36*
Y30589D02*
X11720D01*
X11691Y30588D01*
X11666Y30587D01*
X11645Y30583D01*
X11628Y30581D01*
X11615Y30578D01*
X11606Y30574D01*
X11600Y30573D01*
X11598Y30572D01*
X11584Y30566D01*
X11572Y30558D01*
X11562Y30550D01*
X11554Y30542D01*
X11548Y30536D01*
X11544Y30530D01*
X11541Y30527D01*
X11540Y30526D01*
X11534Y30514D01*
X11529Y30503D01*
X11526Y30493D01*
X11524Y30483D01*
X11522Y30474D01*
X11521Y30468D01*
Y30463D01*
Y30462D01*
X11522Y30446D01*
X11527Y30430D01*
X11532Y30416D01*
X11538Y30404D01*
X11545Y30394D01*
X11550Y30388D01*
X11555Y30382D01*
X11556Y30381D01*
X11570Y30370D01*
X11586Y30362D01*
X11604Y30356D01*
X11620Y30352D01*
X11636Y30350D01*
X11648Y30349D01*
X11654Y30348D01*
X11745D01*
Y30589D01*
D02*
G37*
G36*
X26090Y7764D02*
X26082D01*
X26060Y7763D01*
X26050Y7761D01*
X26042Y7760D01*
X26034Y7758D01*
X26029Y7755D01*
X26026Y7754D01*
X26024D01*
X26007Y7745D01*
X25999Y7740D01*
X25991Y7735D01*
X25986Y7731D01*
X25981Y7726D01*
X25979Y7724D01*
X25978Y7723D01*
X25970Y7714D01*
X25962Y7704D01*
X25950Y7682D01*
X25944Y7672D01*
X25941Y7664D01*
X25939Y7659D01*
X25938Y7656D01*
Y7562D01*
X26179D01*
Y7624D01*
Y7640D01*
X26178Y7653D01*
X26177Y7665D01*
X26175Y7676D01*
X26173Y7686D01*
X26171Y7696D01*
X26167Y7711D01*
X26162Y7722D01*
X26158Y7730D01*
X26156Y7734D01*
X26154Y7735D01*
X26144Y7745D01*
X26133Y7752D01*
X26121Y7758D01*
X26110Y7761D01*
X26099Y7763D01*
X26090Y7764D01*
D02*
G37*
G36*
X28422Y10966D02*
X28361D01*
X28342Y10965D01*
X28326Y10962D01*
X28313Y10957D01*
X28300Y10951D01*
X28291Y10945D01*
X28282Y10937D01*
X28275Y10929D01*
X28270Y10921D01*
X28265Y10913D01*
X28262Y10905D01*
X28259Y10897D01*
X28258Y10891D01*
X28257Y10885D01*
X28257Y10880D01*
Y10877D01*
Y10877D01*
X28258Y10860D01*
X28261Y10847D01*
X28265Y10835D01*
X28271Y10825D01*
X28276Y10818D01*
X28280Y10812D01*
X28283Y10809D01*
X28285Y10807D01*
X28296Y10799D01*
X28309Y10793D01*
X28323Y10789D01*
X28336Y10786D01*
X28348Y10784D01*
X28353Y10783D01*
X28358D01*
X28362Y10783D01*
X28422D01*
Y10966D01*
D02*
G37*
%LPD*%
D26*
X25700Y32665D02*
X29075Y32665D01*
X29075Y24791D01*
X25700Y24791D02*
X29075Y24791D01*
X25700Y24791D02*
Y32665D01*
D28*
X28150Y0D02*
G03*
X29528Y1378I0J1378D01*
G01*
X0D02*
G03*
X1378Y0I1378J0D01*
G01*
X29528Y58465D02*
G03*
X28150Y59843I-1378J0D01*
G01*
X1378D02*
G03*
X0Y58465I0J-1378D01*
G01*
Y59843D02*
X29528D01*
Y0D02*
Y59843D01*
X28560Y0D02*
X29528D01*
X0D02*
X28560D01*
X0D02*
Y59843D01*
D29*
X6831Y1496D02*
G03*
X6831Y1496I-787J0D01*
G01*
Y30059D02*
G03*
X6831Y30059I-787J0D01*
G01*
X6792Y57140D02*
G03*
X6792Y57140I-787J0D01*
G01*
X22441Y47244D02*
G03*
X22441Y47244I-787J0D01*
G01*
X28898Y1441D02*
G03*
X28898Y1441I-787J0D01*
G01*
X28874Y54390D02*
G03*
X28874Y54390I-787J0D01*
G01*
X6693Y47244D02*
G03*
X6693Y47244I-787J0D01*
G01*
D42*
X28650Y6360D02*
Y6860D01*
X28522Y5860D02*
Y10360D01*
X26800Y5860D02*
X28522D01*
X26800D02*
Y10360D01*
X28522D01*
X28650Y9360D02*
Y9860D01*
D71*
X7680Y31080D02*
X7700D01*
X8560D02*
X8620D01*
X9480D02*
X9600D01*
X10400D02*
X10500D01*
X7680Y31100D02*
X7740D01*
X8520D02*
X8640D01*
X8940D02*
X9120D01*
X9480D02*
X9600D01*
X10400D02*
X10500D01*
X13820D02*
X13940D01*
X7660Y31120D02*
X7800D01*
X8480D02*
X8640D01*
X8880D02*
X9120D01*
X9480D02*
X9600D01*
X10400D02*
X10500D01*
X10880D02*
X11800D01*
X12320D02*
X12360D01*
X12660D02*
X13000D01*
X13380D02*
X13640D01*
X13820D02*
X13940D01*
X7640Y31140D02*
X7840D01*
X8440D02*
X8660D01*
X8860D02*
X9120D01*
X9480D02*
X9600D01*
X10400D02*
X10500D01*
X10880D02*
X11900D01*
X12300D02*
X12360D01*
X12580D02*
X13060D01*
X13360D02*
X13640D01*
X13820D02*
X13940D01*
X7620Y31160D02*
X7880D01*
X8400D02*
X8680D01*
X8840D02*
X9140D01*
X9480D02*
X9600D01*
X10400D02*
X10500D01*
X10860D02*
X11980D01*
X12300D02*
X12380D01*
X12560D02*
X13080D01*
X13340D02*
X13640D01*
X13820D02*
X13940D01*
X7620Y31180D02*
X7900D01*
X8360D02*
X8640D01*
X8840D02*
X9140D01*
X9480D02*
X9600D01*
X10400D02*
X10500D01*
X10860D02*
X12020D01*
X12280D02*
X12380D01*
X12540D02*
X13100D01*
X13320D02*
X13640D01*
X13820D02*
X13940D01*
X7640Y31200D02*
X7940D01*
X8320D02*
X8580D01*
X8820D02*
X9140D01*
X9480D02*
X9600D01*
X10400D02*
X10500D01*
X10860D02*
X12040D01*
X12260D02*
X12400D01*
X12520D02*
X13120D01*
X13320D02*
X13640D01*
X13820D02*
X13940D01*
X7700Y31220D02*
X7980D01*
X8280D02*
X8540D01*
X8820D02*
X8960D01*
X9480D02*
X9600D01*
X10400D02*
X10500D01*
X10840D02*
X11120D01*
X11740D02*
X12080D01*
X12240D02*
X12400D01*
X12520D02*
X12680D01*
X12960D02*
X13120D01*
X13300D02*
X13440D01*
X13820D02*
X13940D01*
X7760Y31240D02*
X8000D01*
X8260D02*
X8480D01*
X8820D02*
X8940D01*
X9480D02*
X9600D01*
X10400D02*
X10500D01*
X11880D02*
X12100D01*
X12220D02*
X12380D01*
X12500D02*
X12640D01*
X13000D02*
X13140D01*
X13300D02*
X13420D01*
X13820D02*
X13940D01*
X7800Y31260D02*
X8040D01*
X8220D02*
X8440D01*
X8820D02*
X8940D01*
X9480D02*
X9600D01*
X10400D02*
X10500D01*
X11940D02*
X12120D01*
X12200D02*
X12360D01*
X12500D02*
X12620D01*
X13020D02*
X13140D01*
X13300D02*
X13420D01*
X13820D02*
X13940D01*
X7840Y31280D02*
X8060D01*
X8200D02*
X8400D01*
X8820D02*
X8940D01*
X9480D02*
X9600D01*
X10400D02*
X10500D01*
X11980D02*
X12140D01*
X12180D02*
X12340D01*
X12500D02*
X12620D01*
X13020D02*
X13140D01*
X13300D02*
X13420D01*
X13820D02*
X13940D01*
X7880Y31300D02*
X8080D01*
X8160D02*
X8360D01*
X8820D02*
X8940D01*
X9480D02*
X9600D01*
X10400D02*
X10500D01*
X12020D02*
X12320D01*
X12500D02*
X12600D01*
X13020D02*
X13140D01*
X13300D02*
X13420D01*
X13820D02*
X13940D01*
X7920Y31320D02*
X8120D01*
X8140D02*
X8320D01*
X8820D02*
X8940D01*
X9480D02*
X9600D01*
X10400D02*
X10500D01*
X12040D02*
X12300D01*
X12500D02*
X12600D01*
X13020D02*
X13140D01*
X13300D02*
X13420D01*
X13820D02*
X13940D01*
X7960Y31340D02*
X8300D01*
X8820D02*
X8940D01*
X9480D02*
X9600D01*
X10400D02*
X10500D01*
X12080D02*
X12260D01*
X12500D02*
X12600D01*
X13020D02*
X13140D01*
X13300D02*
X13420D01*
X13820D02*
X13940D01*
X7980Y31360D02*
X8260D01*
X8820D02*
X8940D01*
X9480D02*
X9600D01*
X10400D02*
X10500D01*
X11760D02*
X11880D01*
X12080D02*
X12240D01*
X12480D02*
X12600D01*
X13020D02*
X13140D01*
X13300D02*
X13420D01*
X13820D02*
X13940D01*
X8000Y31380D02*
X8240D01*
X8820D02*
X8940D01*
X9480D02*
X9600D01*
X10400D02*
X10500D01*
X10960D02*
X11060D01*
X11760D02*
X11880D01*
X12100D02*
X12220D01*
X12480D02*
X12600D01*
X13020D02*
X13140D01*
X13300D02*
X13420D01*
X13820D02*
X13940D01*
X8020Y31400D02*
X8220D01*
X8820D02*
X8940D01*
X9480D02*
X9600D01*
X10400D02*
X10500D01*
X10720D02*
X10740D01*
X10960D02*
X11060D01*
X11760D02*
X11880D01*
X12100D02*
X12200D01*
X12480D02*
X12600D01*
X13020D02*
X13140D01*
X13300D02*
X13420D01*
X13820D02*
X13940D01*
X8020Y31420D02*
X8220D01*
X8820D02*
X8940D01*
X9480D02*
X9600D01*
X10400D02*
X10500D01*
X10700D02*
X10740D01*
X10960D02*
X11060D01*
X11760D02*
X11880D01*
X12100D02*
X12200D01*
X12480D02*
X12600D01*
X13020D02*
X13140D01*
X13300D02*
X13420D01*
X13820D02*
X13940D01*
X8000Y31440D02*
X8240D01*
X8820D02*
X8940D01*
X9480D02*
X9600D01*
X10400D02*
X10500D01*
X10680D02*
X10760D01*
X10960D02*
X11880D01*
X12100D02*
X12200D01*
X12480D02*
X12600D01*
X13020D02*
X13140D01*
X13300D02*
X13940D01*
X7980Y31460D02*
X8260D01*
X8820D02*
X8940D01*
X9480D02*
X9600D01*
X10400D02*
X10500D01*
X10680D02*
X10760D01*
X10960D02*
X11880D01*
X12100D02*
X12200D01*
X12480D02*
X12600D01*
X13020D02*
X13140D01*
X13300D02*
X13940D01*
X7960Y31480D02*
X8260D01*
X8820D02*
X8940D01*
X9480D02*
X9600D01*
X10160D02*
X10200D01*
X10400D02*
X10500D01*
X10660D02*
X10780D01*
X10960D02*
X11880D01*
X12100D02*
X12200D01*
X12540D02*
X12600D01*
X12980D02*
X13140D01*
X13300D02*
X13940D01*
X7940Y31500D02*
X8080D01*
X8140D02*
X8280D01*
X8820D02*
X8940D01*
X9480D02*
X9600D01*
X9960D02*
X10200D01*
X10400D02*
X10500D01*
X10660D02*
X10780D01*
X10960D02*
X11880D01*
X12100D02*
X12200D01*
X12920D02*
X13140D01*
X13300D02*
X13940D01*
X7940Y31520D02*
X8080D01*
X8160D02*
X8300D01*
X8820D02*
X8940D01*
X9480D02*
X9600D01*
X9740D02*
X10200D01*
X10400D02*
X10500D01*
X10640D02*
X10760D01*
X10960D02*
X11880D01*
X12100D02*
X12200D01*
X12880D02*
X13140D01*
X13300D02*
X13420D01*
X13820D02*
X13940D01*
X7920Y31540D02*
X8060D01*
X8180D02*
X8300D01*
X8820D02*
X8940D01*
X9480D02*
X10200D01*
X10400D02*
X10500D01*
X10620D02*
X10760D01*
X10960D02*
X11060D01*
X11360D02*
X11480D01*
X11760D02*
X11880D01*
X12100D02*
X12200D01*
X12840D02*
X13140D01*
X13300D02*
X13420D01*
X13820D02*
X13940D01*
X7900Y31560D02*
X8040D01*
X8200D02*
X8320D01*
X8820D02*
X8940D01*
X9300D02*
X10220D01*
X10400D02*
X10500D01*
X10620D02*
X10740D01*
X10960D02*
X11060D01*
X11360D02*
X11480D01*
X11760D02*
X11880D01*
X12100D02*
X12200D01*
X12780D02*
X13140D01*
X13300D02*
X13420D01*
X13820D02*
X13940D01*
X7880Y31580D02*
X8020D01*
X8200D02*
X8340D01*
X8820D02*
X8940D01*
X9220D02*
X10220D01*
X10400D02*
X10500D01*
X10600D02*
X10720D01*
X10960D02*
X11060D01*
X11360D02*
X11480D01*
X11760D02*
X11880D01*
X12100D02*
X12200D01*
X12740D02*
X13140D01*
X13300D02*
X13420D01*
X13820D02*
X13940D01*
X7880Y31600D02*
X8000D01*
X8220D02*
X8340D01*
X8820D02*
X8940D01*
X9220D02*
X10000D01*
X10400D02*
X10500D01*
X10600D02*
X10720D01*
X10960D02*
X11060D01*
X11360D02*
X11480D01*
X11760D02*
X11880D01*
X12100D02*
X12200D01*
X12700D02*
X12980D01*
X13020D02*
X13140D01*
X13300D02*
X13420D01*
X13820D02*
X13940D01*
X7860Y31620D02*
X7980D01*
X8240D02*
X8360D01*
X8820D02*
X8940D01*
X9220D02*
X9760D01*
X10400D02*
X10500D01*
X10580D02*
X10700D01*
X10960D02*
X11060D01*
X11360D02*
X11480D01*
X11760D02*
X11880D01*
X12100D02*
X12200D01*
X12660D02*
X12920D01*
X13020D02*
X13140D01*
X13300D02*
X13420D01*
X13820D02*
X13940D01*
X7840Y31640D02*
X7980D01*
X8240D02*
X8360D01*
X8820D02*
X8940D01*
X9220D02*
X9600D01*
X10400D02*
X10500D01*
X10580D02*
X10700D01*
X10960D02*
X11060D01*
X11360D02*
X11480D01*
X11760D02*
X11880D01*
X12100D02*
X12200D01*
X12620D02*
X12880D01*
X13020D02*
X13140D01*
X13300D02*
X13420D01*
X13820D02*
X13940D01*
X7840Y31660D02*
X7960D01*
X8260D02*
X8380D01*
X8820D02*
X8940D01*
X9240D02*
X9340D01*
X9480D02*
X9600D01*
X10400D02*
X10500D01*
X10560D02*
X10680D01*
X10960D02*
X11060D01*
X11360D02*
X11480D01*
X11760D02*
X11880D01*
X12100D02*
X12200D01*
X12580D02*
X12840D01*
X13020D02*
X13140D01*
X13300D02*
X13420D01*
X13820D02*
X13940D01*
X7820Y31680D02*
X7940D01*
X8260D02*
X8380D01*
X8820D02*
X8940D01*
X9100D02*
X9160D01*
X9480D02*
X9600D01*
X10180D02*
X10220D01*
X10400D02*
X10500D01*
X10560D02*
X10660D01*
X10960D02*
X11060D01*
X11360D02*
X11480D01*
X11760D02*
X11880D01*
X12100D02*
X12200D01*
X12540D02*
X12780D01*
X13020D02*
X13140D01*
X13300D02*
X13940D01*
X7820Y31700D02*
X7940D01*
X8280D02*
X8400D01*
X8820D02*
X8940D01*
X9060D02*
X9160D01*
X9480D02*
X9600D01*
X10160D02*
X10240D01*
X10400D02*
X10500D01*
X10540D02*
X10660D01*
X10960D02*
X11060D01*
X11360D02*
X11480D01*
X11760D02*
X11880D01*
X12100D02*
X12200D01*
X12500D02*
X12740D01*
X13020D02*
X13140D01*
X13300D02*
X13940D01*
X7800Y31720D02*
X7920D01*
X8300D02*
X8400D01*
X8820D02*
X8940D01*
X9000D02*
X9160D01*
X9480D02*
X9600D01*
X10140D02*
X10260D01*
X10400D02*
X10500D01*
X10540D02*
X10640D01*
X10960D02*
X11060D01*
X11360D02*
X11480D01*
X11760D02*
X11880D01*
X12100D02*
X12200D01*
X12500D02*
X12700D01*
X13020D02*
X13140D01*
X13300D02*
X13940D01*
X7800Y31740D02*
X7920D01*
X8300D02*
X8420D01*
X8820D02*
X9160D01*
X9480D02*
X9600D01*
X10120D02*
X10280D01*
X10400D02*
X10500D01*
X10540D02*
X10640D01*
X10960D02*
X11060D01*
X11360D02*
X11480D01*
X11760D02*
X11880D01*
X12100D02*
X12200D01*
X12500D02*
X12660D01*
X13020D02*
X13140D01*
X13300D02*
X13940D01*
X7780Y31760D02*
X7900D01*
X8300D02*
X8420D01*
X8820D02*
X9160D01*
X9480D02*
X9600D01*
X10140D02*
X10300D01*
X10400D02*
X10500D01*
X10520D02*
X10620D01*
X10960D02*
X11060D01*
X11360D02*
X11480D01*
X11760D02*
X11880D01*
X12100D02*
X12200D01*
X12520D02*
X12620D01*
X13020D02*
X13140D01*
X13300D02*
X13940D01*
X7780Y31780D02*
X7900D01*
X8320D02*
X8420D01*
X8800D02*
X9160D01*
X9480D02*
X9600D01*
X9840D02*
X9880D01*
X10160D02*
X10320D01*
X10400D02*
X10620D01*
X10960D02*
X11060D01*
X11360D02*
X11480D01*
X11760D02*
X11880D01*
X12100D02*
X12200D01*
X12540D02*
X12580D01*
X13020D02*
X13140D01*
X13300D02*
X13420D01*
X13820D02*
X13940D01*
X7760Y31800D02*
X7880D01*
X8320D02*
X8440D01*
X8740D02*
X9120D01*
X9480D02*
X9600D01*
X9820D02*
X9900D01*
X10200D02*
X10340D01*
X10400D02*
X10600D01*
X10960D02*
X11060D01*
X11360D02*
X11480D01*
X11760D02*
X11880D01*
X12100D02*
X12200D01*
X12540D02*
X12560D01*
X13020D02*
X13140D01*
X13300D02*
X13420D01*
X13820D02*
X13940D01*
X7760Y31820D02*
X7880D01*
X8340D02*
X8440D01*
X8680D02*
X9040D01*
X9480D02*
X9600D01*
X9800D02*
X9920D01*
X10220D02*
X10360D01*
X10400D02*
X10600D01*
X10960D02*
X11060D01*
X11360D02*
X11480D01*
X11760D02*
X11880D01*
X12100D02*
X12200D01*
X13020D02*
X13140D01*
X13300D02*
X13420D01*
X13820D02*
X13940D01*
X7740Y31840D02*
X7860D01*
X8340D02*
X8440D01*
X8640D02*
X8980D01*
X9480D02*
X9600D01*
X9800D02*
X9940D01*
X10240D02*
X10380D01*
X10400D02*
X10580D01*
X10960D02*
X11060D01*
X11360D02*
X11480D01*
X11760D02*
X11880D01*
X12100D02*
X12200D01*
X13020D02*
X13140D01*
X13300D02*
X13420D01*
X13820D02*
X13940D01*
X7740Y31860D02*
X7860D01*
X8340D02*
X8460D01*
X8640D02*
X8940D01*
X9480D02*
X9600D01*
X9800D02*
X9960D01*
X10260D02*
X10580D01*
X10960D02*
X11880D01*
X12100D02*
X12200D01*
X13300D02*
X13420D01*
X13820D02*
X13940D01*
X7740Y31880D02*
X7860D01*
X8360D02*
X8460D01*
X8640D02*
X8940D01*
X9480D02*
X9600D01*
X9820D02*
X9980D01*
X10280D02*
X10360D01*
X10400D02*
X10580D01*
X10960D02*
X11880D01*
X12100D02*
X12200D01*
X13300D02*
X13420D01*
X13820D02*
X13940D01*
X7720Y31900D02*
X7840D01*
X8360D02*
X8460D01*
X8640D02*
X8780D01*
X8820D02*
X8940D01*
X9480D02*
X9600D01*
X9840D02*
X10000D01*
X10300D02*
X10340D01*
X10400D02*
X10560D01*
X10960D02*
X11880D01*
X12100D02*
X12200D01*
X13300D02*
X13420D01*
X13820D02*
X13940D01*
X7720Y31920D02*
X8580D01*
X8640D02*
X8720D01*
X8820D02*
X8940D01*
X9480D02*
X9600D01*
X9860D02*
X10040D01*
X10400D02*
X10560D01*
X10960D02*
X11880D01*
X12100D02*
X12200D01*
X13300D02*
X13420D01*
X13820D02*
X13940D01*
X7720Y31940D02*
X8580D01*
X8640D02*
X8660D01*
X8820D02*
X8940D01*
X9480D02*
X9600D01*
X9900D02*
X10060D01*
X10400D02*
X10540D01*
X10960D02*
X11880D01*
X12100D02*
X12200D01*
X12600D02*
X13040D01*
X13300D02*
X13940D01*
X7720Y31960D02*
X8580D01*
X8820D02*
X8940D01*
X9480D02*
X9600D01*
X9920D02*
X10080D01*
X10400D02*
X10540D01*
X10960D02*
X11060D01*
X11360D02*
X11480D01*
X11760D02*
X11880D01*
X12100D02*
X12400D01*
X12560D02*
X13080D01*
X13300D02*
X13940D01*
X7720Y31980D02*
X8580D01*
X8820D02*
X8940D01*
X9480D02*
X9600D01*
X9940D02*
X10100D01*
X10400D02*
X10540D01*
X10960D02*
X11060D01*
X11360D02*
X11480D01*
X11760D02*
X11880D01*
X12100D02*
X12400D01*
X12540D02*
X13100D01*
X13300D02*
X13940D01*
X7720Y32000D02*
X8580D01*
X8820D02*
X8940D01*
X9480D02*
X9600D01*
X9960D02*
X10100D01*
X10400D02*
X10520D01*
X10960D02*
X11060D01*
X11360D02*
X11480D01*
X11760D02*
X11880D01*
X12100D02*
X12400D01*
X12520D02*
X13100D01*
X13300D02*
X13940D01*
X8060Y32020D02*
X8160D01*
X8820D02*
X8940D01*
X9480D02*
X9600D01*
X10000D02*
X10080D01*
X10400D02*
X10520D01*
X10960D02*
X11060D01*
X11360D02*
X11480D01*
X11760D02*
X11880D01*
X12100D02*
X12400D01*
X12520D02*
X13120D01*
X8060Y32040D02*
X8160D01*
X8820D02*
X8940D01*
X9480D02*
X9600D01*
X10020D02*
X10080D01*
X10400D02*
X10520D01*
X10960D02*
X11060D01*
X11360D02*
X11480D01*
X11760D02*
X11880D01*
X12100D02*
X12400D01*
X12520D02*
X12640D01*
X13000D02*
X13120D01*
X8060Y32060D02*
X8160D01*
X8820D02*
X8940D01*
X9480D02*
X9600D01*
X10040D02*
X10060D01*
X10140D02*
X10760D01*
X10960D02*
X11060D01*
X11360D02*
X11480D01*
X11760D02*
X11880D01*
X12100D02*
X12400D01*
X12500D02*
X12620D01*
X13000D02*
X13120D01*
X8060Y32080D02*
X8160D01*
X8820D02*
X8940D01*
X9480D02*
X9600D01*
X10140D02*
X10760D01*
X10960D02*
X11060D01*
X11360D02*
X11480D01*
X11760D02*
X11880D01*
X12500D02*
X12620D01*
X13020D02*
X13140D01*
X13260D02*
X13300D01*
X8060Y32100D02*
X8160D01*
X8820D02*
X8940D01*
X9480D02*
X9600D01*
X10140D02*
X10760D01*
X10960D02*
X11060D01*
X11360D02*
X11480D01*
X11760D02*
X11880D01*
X12500D02*
X12620D01*
X13020D02*
X13140D01*
X13240D02*
X13300D01*
X8060Y32120D02*
X8160D01*
X8820D02*
X8940D01*
X9480D02*
X9600D01*
X10140D02*
X10760D01*
X10960D02*
X11060D01*
X11360D02*
X11480D01*
X11760D02*
X11880D01*
X12500D02*
X12600D01*
X13020D02*
X13140D01*
X13200D02*
X13320D01*
X8060Y32140D02*
X8160D01*
X8820D02*
X8940D01*
X9480D02*
X9600D01*
X9740D02*
X9760D01*
X10140D02*
X10760D01*
X10960D02*
X11060D01*
X11360D02*
X11480D01*
X11760D02*
X11880D01*
X12500D02*
X12600D01*
X13020D02*
X13140D01*
X13200D02*
X13340D01*
X13800D02*
X13980D01*
X8060Y32160D02*
X8160D01*
X8820D02*
X8940D01*
X9480D02*
X9600D01*
X9740D02*
X9780D01*
X10400D02*
X10500D01*
X10960D02*
X11060D01*
X11360D02*
X11480D01*
X11760D02*
X11880D01*
X12500D02*
X12600D01*
X13020D02*
X13140D01*
X13200D02*
X13340D01*
X13540D02*
X13980D01*
X8060Y32180D02*
X8160D01*
X8820D02*
X8940D01*
X9480D02*
X9600D01*
X9720D02*
X9800D01*
X10400D02*
X10500D01*
X10960D02*
X11060D01*
X11360D02*
X11480D01*
X11760D02*
X11880D01*
X12480D02*
X12600D01*
X13020D02*
X13140D01*
X13220D02*
X14000D01*
X8060Y32200D02*
X8160D01*
X8820D02*
X8940D01*
X9480D02*
X9600D01*
X9700D02*
X9820D01*
X10400D02*
X10500D01*
X10960D02*
X11060D01*
X11360D02*
X11480D01*
X11760D02*
X11880D01*
X12480D02*
X12600D01*
X13020D02*
X13140D01*
X13240D02*
X14000D01*
X8060Y32220D02*
X8160D01*
X8640D02*
X9140D01*
X9480D02*
X9600D01*
X9680D02*
X9840D01*
X10400D02*
X10500D01*
X10960D02*
X11060D01*
X11360D02*
X11480D01*
X11760D02*
X11880D01*
X12480D02*
X12600D01*
X13020D02*
X13140D01*
X13240D02*
X14000D01*
X8060Y32240D02*
X8160D01*
X8640D02*
X9140D01*
X9480D02*
X9600D01*
X9720D02*
X9860D01*
X10400D02*
X10500D01*
X10960D02*
X11060D01*
X11360D02*
X11480D01*
X11760D02*
X11880D01*
X12480D02*
X12600D01*
X13000D02*
X13140D01*
X13260D02*
X13820D01*
X13860D02*
X14020D01*
X7620Y32260D02*
X8580D01*
X8640D02*
X9140D01*
X9480D02*
X9600D01*
X9740D02*
X9880D01*
X10400D02*
X10500D01*
X10960D02*
X11060D01*
X11360D02*
X11480D01*
X11760D02*
X11880D01*
X12080D02*
X12120D01*
X12500D02*
X12600D01*
X12940D02*
X13140D01*
X13280D02*
X13520D01*
X13840D02*
X14000D01*
X7620Y32280D02*
X8580D01*
X8640D02*
X9140D01*
X9480D02*
X9600D01*
X9760D02*
X9920D01*
X10400D02*
X10500D01*
X10960D02*
X11880D01*
X12060D02*
X12140D01*
X12540D02*
X12600D01*
X12900D02*
X13140D01*
X13280D02*
X13420D01*
X13840D02*
X13980D01*
X7620Y32300D02*
X8580D01*
X8640D02*
X9140D01*
X9480D02*
X9600D01*
X9780D02*
X9940D01*
X10400D02*
X10500D01*
X10960D02*
X11880D01*
X12020D02*
X12160D01*
X12840D02*
X13140D01*
X13300D02*
X13440D01*
X13820D02*
X13940D01*
X7620Y32320D02*
X8580D01*
X8820D02*
X8940D01*
X9480D02*
X9600D01*
X9800D02*
X9960D01*
X10400D02*
X10500D01*
X10960D02*
X11880D01*
X12020D02*
X12180D01*
X12800D02*
X13140D01*
X13320D02*
X13440D01*
X13800D02*
X13920D01*
X7620Y32340D02*
X8580D01*
X8820D02*
X8940D01*
X9480D02*
X9600D01*
X9820D02*
X9980D01*
X10400D02*
X10500D01*
X10960D02*
X11880D01*
X12040D02*
X12180D01*
X12760D02*
X13140D01*
X13320D02*
X13460D01*
X13780D02*
X13900D01*
X7620Y32360D02*
X8580D01*
X8820D02*
X8940D01*
X9480D02*
X9600D01*
X9860D02*
X10000D01*
X10400D02*
X10500D01*
X10960D02*
X11880D01*
X12060D02*
X12200D01*
X12720D02*
X12980D01*
X13020D02*
X13140D01*
X13340D02*
X13480D01*
X13760D02*
X13900D01*
X8060Y32380D02*
X8160D01*
X8820D02*
X8940D01*
X9480D02*
X9600D01*
X9880D02*
X10020D01*
X10400D02*
X10500D01*
X10640D02*
X10740D01*
X11360D02*
X11480D01*
X12060D02*
X12220D01*
X12680D02*
X12940D01*
X13020D02*
X13140D01*
X13360D02*
X13480D01*
X13760D02*
X13880D01*
X8060Y32400D02*
X8160D01*
X8820D02*
X8940D01*
X9480D02*
X9600D01*
X9900D02*
X10000D01*
X10400D02*
X10740D01*
X11360D02*
X11480D01*
X12080D02*
X12220D01*
X12640D02*
X12880D01*
X13020D02*
X13140D01*
X13380D02*
X13500D01*
X13740D02*
X13860D01*
X8060Y32420D02*
X8160D01*
X8820D02*
X8940D01*
X9480D02*
X9600D01*
X9920D02*
X9980D01*
X10280D02*
X10740D01*
X11360D02*
X11480D01*
X12100D02*
X12240D01*
X12580D02*
X12840D01*
X13020D02*
X13140D01*
X13380D02*
X13520D01*
X13720D02*
X13840D01*
X8060Y32440D02*
X8160D01*
X8820D02*
X8940D01*
X9480D02*
X9600D01*
X10120D02*
X10760D01*
X11360D02*
X11480D01*
X12120D02*
X12260D01*
X12540D02*
X12800D01*
X13020D02*
X13140D01*
X13400D02*
X13500D01*
X13700D02*
X13840D01*
X8060Y32460D02*
X8160D01*
X8820D02*
X8940D01*
X9480D02*
X9600D01*
X10140D02*
X10760D01*
X11360D02*
X11480D01*
X12140D02*
X12280D01*
X12520D02*
X12760D01*
X13020D02*
X13140D01*
X13420D02*
X13460D01*
X13680D02*
X13820D01*
X8060Y32480D02*
X8160D01*
X8820D02*
X8940D01*
X9480D02*
X9600D01*
X10140D02*
X10720D01*
X11360D02*
X11480D01*
X12140D02*
X12280D01*
X12540D02*
X12720D01*
X13020D02*
X13140D01*
X13680D02*
X13800D01*
X8060Y32500D02*
X8160D01*
X8820D02*
X8940D01*
X9480D02*
X9600D01*
X10140D02*
X10500D01*
X11360D02*
X11480D01*
X12160D02*
X12300D01*
X12560D02*
X12680D01*
X13020D02*
X13140D01*
X13660D02*
X13780D01*
X8060Y32520D02*
X8160D01*
X8820D02*
X8940D01*
X9480D02*
X9600D01*
X10160D02*
X10340D01*
X11360D02*
X11480D01*
X12180D02*
X12320D01*
X12560D02*
X12640D01*
X13020D02*
X13140D01*
X13640D02*
X13780D01*
X8060Y32540D02*
X8160D01*
X8820D02*
X8940D01*
X9480D02*
X9600D01*
X10160D02*
X10200D01*
X11360D02*
X11480D01*
X12200D02*
X12340D01*
X12580D02*
X12600D01*
X13020D02*
X13140D01*
X13620D02*
X13760D01*
X8060Y32560D02*
X8160D01*
X8820D02*
X8940D01*
X9480D02*
X9600D01*
X11360D02*
X11480D01*
X12220D02*
X12320D01*
X13020D02*
X13140D01*
X13620D02*
X13740D01*
X8060Y32580D02*
X8160D01*
X8820D02*
X8940D01*
X9480D02*
X9600D01*
X11360D02*
X11480D01*
X12220D02*
X12280D01*
X13020D02*
X13140D01*
X13600D02*
X13740D01*
X8060Y32600D02*
X8160D01*
X8820D02*
X8940D01*
X9480D02*
X9600D01*
X11360D02*
X11480D01*
X12240D02*
X12260D01*
X13020D02*
X13140D01*
X13580D02*
X13720D01*
X11360Y32620D02*
X11480D01*
X13640D02*
X13720D01*
X16100Y35160D02*
X17260D01*
X11720Y35180D02*
X12240D01*
X13000D02*
X13500D01*
X13880D02*
X14340D01*
X14900D02*
X15380D01*
X16100D02*
X17320D01*
X11740Y35200D02*
X12240D01*
X13000D02*
X13500D01*
X13880D02*
X14360D01*
X14900D02*
X15460D01*
X16080D02*
X17360D01*
X11740Y35220D02*
X12240D01*
X13000D02*
X13500D01*
X13880D02*
X14360D01*
X14880D02*
X15500D01*
X16080D02*
X17400D01*
X11740Y35240D02*
X12240D01*
X13000D02*
X13500D01*
X13880D02*
X14360D01*
X14880D02*
X15540D01*
X16060D02*
X17420D01*
X11740Y35260D02*
X12220D01*
X13000D02*
X13500D01*
X13880D02*
X14360D01*
X14860D02*
X15560D01*
X16060D02*
X17440D01*
X11740Y35280D02*
X12220D01*
X13000D02*
X13500D01*
X13900D02*
X14360D01*
X14860D02*
X15580D01*
X16040D02*
X17460D01*
X11740Y35300D02*
X12220D01*
X13000D02*
X13480D01*
X13900D02*
X14380D01*
X14960D02*
X15600D01*
X16020D02*
X17480D01*
X11740Y35320D02*
X12220D01*
X13000D02*
X13480D01*
X13900D02*
X14380D01*
X15040D02*
X15600D01*
X16720D02*
X17500D01*
X11740Y35340D02*
X12220D01*
X13000D02*
X13480D01*
X13900D02*
X14380D01*
X15060D02*
X15620D01*
X16860D02*
X17520D01*
X11740Y35360D02*
X12220D01*
X13000D02*
X13480D01*
X13900D02*
X14380D01*
X15100D02*
X15620D01*
X16920D02*
X17520D01*
X11740Y35380D02*
X12220D01*
X13000D02*
X13480D01*
X13900D02*
X14380D01*
X15120D02*
X15620D01*
X16960D02*
X17540D01*
X11740Y35400D02*
X12220D01*
X13000D02*
X13480D01*
X13900D02*
X14380D01*
X15120D02*
X15640D01*
X16980D02*
X17540D01*
X11740Y35420D02*
X12220D01*
X13000D02*
X13480D01*
X13900D02*
X14380D01*
X15140D02*
X15640D01*
X17000D02*
X17560D01*
X11740Y35440D02*
X12220D01*
X13000D02*
X13480D01*
X13900D02*
X14380D01*
X15140D02*
X15640D01*
X17020D02*
X17560D01*
X11740Y35460D02*
X12220D01*
X13000D02*
X13480D01*
X13900D02*
X14380D01*
X15160D02*
X15640D01*
X17020D02*
X17580D01*
X11740Y35480D02*
X12220D01*
X13000D02*
X13480D01*
X13900D02*
X14380D01*
X15160D02*
X15640D01*
X17040D02*
X17580D01*
X11740Y35500D02*
X12220D01*
X13000D02*
X13480D01*
X13900D02*
X14380D01*
X15160D02*
X15640D01*
X17040D02*
X17580D01*
X11740Y35520D02*
X12220D01*
X13000D02*
X13480D01*
X13900D02*
X14380D01*
X15160D02*
X15640D01*
X17060D02*
X17580D01*
X11740Y35540D02*
X12220D01*
X13000D02*
X13480D01*
X13900D02*
X14380D01*
X15160D02*
X15640D01*
X17060D02*
X17580D01*
X11740Y35560D02*
X12220D01*
X13000D02*
X13480D01*
X13900D02*
X14380D01*
X15180D02*
X15640D01*
X17060D02*
X17580D01*
X11740Y35580D02*
X12220D01*
X13000D02*
X13480D01*
X13900D02*
X14380D01*
X15180D02*
X15640D01*
X17060D02*
X17580D01*
X11740Y35600D02*
X12220D01*
X13000D02*
X13480D01*
X13900D02*
X14380D01*
X15180D02*
X15640D01*
X17060D02*
X17580D01*
X11740Y35620D02*
X12220D01*
X13000D02*
X13480D01*
X13900D02*
X14380D01*
X15180D02*
X15640D01*
X17080D02*
X17580D01*
X11740Y35640D02*
X12220D01*
X13000D02*
X13480D01*
X13900D02*
X14380D01*
X15180D02*
X15640D01*
X17080D02*
X17580D01*
X11740Y35660D02*
X12220D01*
X13000D02*
X13480D01*
X13900D02*
X14380D01*
X15180D02*
X15640D01*
X17080D02*
X17580D01*
X11740Y35680D02*
X12220D01*
X13000D02*
X13480D01*
X13900D02*
X14380D01*
X15180D02*
X15640D01*
X17080D02*
X17580D01*
X11740Y35700D02*
X12220D01*
X13000D02*
X13480D01*
X13900D02*
X14380D01*
X15180D02*
X15640D01*
X17080D02*
X17580D01*
X11740Y35720D02*
X12220D01*
X13000D02*
X13480D01*
X13900D02*
X14380D01*
X15180D02*
X15640D01*
X8420Y33940D02*
X8620D01*
X8400Y33960D02*
X8640D01*
X8380Y33980D02*
X8440D01*
X8600D02*
X8660D01*
X8360Y34000D02*
X8420D01*
X17080Y35720D02*
X17580D01*
X11740Y35740D02*
X12220D01*
X13000D02*
X13480D01*
X8620Y34000D02*
X8660D01*
X8360Y34020D02*
X8420D01*
X8620D02*
X8680D01*
X8360Y34040D02*
X8400D01*
X8360Y34060D02*
X8400D01*
X6380Y34080D02*
X6520D01*
X6740D02*
X6780D01*
X6860D02*
X6960D01*
X7160D02*
X7220D01*
X7320D02*
X7360D01*
X7460D02*
X7600D01*
X7860D02*
X7920D01*
X8340D02*
X8400D01*
X8500D02*
X8540D01*
X13900Y35740D02*
X14380D01*
X15160D02*
X15640D01*
X17080D02*
X17580D01*
X8780Y34080D02*
X8840D01*
X9020D02*
X9080D01*
X9200D02*
X9260D01*
X9320D02*
X9420D01*
X9560D02*
X9620D01*
X9720D02*
X9840D01*
X10100D02*
X10220D01*
X10520D02*
X10580D01*
X10740D02*
X10860D01*
X11320D02*
X11460D01*
X11580D02*
X11720D01*
X11960D02*
X12120D01*
X12340D02*
X12480D01*
X12680D02*
X12880D01*
X13160D02*
X13360D01*
X13640D02*
X13820D01*
X14080D02*
X14220D01*
X14460D02*
X14620D01*
X11740Y35760D02*
X12220D01*
X13000D02*
X13480D01*
X13900D02*
X14380D01*
X15160D02*
X15640D01*
X17080D02*
X17580D01*
X14940Y34080D02*
X15080D01*
X15480D02*
X15640D01*
X6360Y34100D02*
X6560D01*
X6740D02*
X6780D01*
X6820D02*
X7000D01*
X7160D02*
X7220D01*
X7320D02*
X7380D01*
X7420D02*
X7620D01*
X7860D02*
X7920D01*
X8340D02*
X8400D01*
X8440D02*
X8600D01*
X8780D02*
X8840D01*
X9020D02*
X9080D01*
X9200D02*
X9260D01*
X9320D02*
X9440D01*
X9580D02*
X9620D01*
X9680D02*
X9880D01*
X11740Y35780D02*
X12220D01*
X13000D02*
X13480D01*
X13900D02*
X14380D01*
X15160D02*
X15640D01*
X17080D02*
X17580D01*
X10060Y34100D02*
X10260D01*
X10520D02*
X10580D01*
X10700D02*
X10900D01*
X11320D02*
X11460D01*
X11580D02*
X11720D01*
X11900D02*
X12160D01*
X12340D02*
X12480D01*
X12640D02*
X12940D01*
X13100D02*
X13400D01*
X13600D02*
X13880D01*
X14080D02*
X14220D01*
X14400D02*
X14660D01*
X14940D02*
X15080D01*
X15480D02*
X15640D01*
X6320Y34120D02*
X6420D01*
X6500D02*
X6580D01*
X6740D02*
X6780D01*
X6800D02*
X6880D01*
X6940D02*
X7020D01*
X7160D02*
X7220D01*
X7320D02*
X7380D01*
X7400D02*
X7460D01*
X7560D02*
X7640D01*
X7840D02*
X7940D01*
X11740Y35800D02*
X12220D01*
X8340Y34120D02*
X8620D01*
X13000Y35800D02*
X13480D01*
X8780Y34120D02*
X8840D01*
X13900Y35800D02*
X14380D01*
X9020Y34120D02*
X9080D01*
X15160Y35800D02*
X15640D01*
X9200Y34120D02*
X9260D01*
X17080Y35800D02*
X17580D01*
X9340Y34120D02*
X9460D01*
X9580D02*
X9640D01*
X9660D02*
X9720D01*
X9820D02*
X9900D01*
X10040D02*
X10120D01*
X10200D02*
X10300D01*
X10520D02*
X10580D01*
X10680D02*
X10760D01*
X10840D02*
X10920D01*
X11320D02*
X11460D01*
X11580D02*
X11720D01*
X11880D02*
X12180D01*
X12340D02*
X12480D01*
X12620D02*
X12960D01*
X13080D02*
X13420D01*
X13560D02*
X13900D01*
X14080D02*
X14220D01*
X11740Y35820D02*
X12220D01*
X14380Y34120D02*
X14680D01*
X13000Y35820D02*
X13480D01*
X14940Y34120D02*
X15080D01*
X13900Y35820D02*
X14380D01*
X15480Y34120D02*
X15640D01*
X15160Y35820D02*
X15640D01*
X17080D02*
X17580D01*
X6320Y34140D02*
X6380D01*
X6540D02*
X6600D01*
X6740D02*
X6840D01*
X6960D02*
X7040D01*
X7160D02*
X7220D01*
X7320D02*
X7420D01*
X7580D02*
X7660D01*
X7840D02*
X7940D01*
X8340D02*
X8460D01*
X8580D02*
X8640D01*
X8780D02*
X8840D01*
X9020D02*
X9080D01*
X9200D02*
X9260D01*
X9400D02*
X9460D01*
X9580D02*
X9680D01*
X9840D02*
X9920D01*
X11740Y35840D02*
X12220D01*
X10020Y34140D02*
X10080D01*
X13000Y35840D02*
X13480D01*
X10240Y34140D02*
X10300D01*
X13900Y35840D02*
X14380D01*
X10520Y34140D02*
X10580D01*
X15160Y35840D02*
X15640D01*
X10680Y34140D02*
X10740D01*
X17080Y35840D02*
X17580D01*
X10880Y34140D02*
X10940D01*
X11320D02*
X11460D01*
X11580D02*
X11720D01*
X11860D02*
X12200D01*
X12340D02*
X12480D01*
X12600D02*
X12980D01*
X13060D02*
X13440D01*
X13540D02*
X13920D01*
X14080D02*
X14220D01*
X14360D02*
X14700D01*
X14940D02*
X15080D01*
X15480D02*
X15640D01*
X6300Y34160D02*
X6360D01*
X6560D02*
X6620D01*
X6740D02*
X6820D01*
X6980D02*
X7040D01*
X7160D02*
X7220D01*
X7320D02*
X7400D01*
X7600D02*
X7660D01*
X7820D02*
X7880D01*
X7900D02*
X7940D01*
X8340D02*
X8440D01*
X8600D02*
X8660D01*
X8780D02*
X8840D01*
X9020D02*
X9080D01*
X9200D02*
X9260D01*
X9400D02*
X9460D01*
X9580D02*
X9660D01*
X9860D02*
X9920D01*
X11740Y35860D02*
X12220D01*
X10000Y34160D02*
X10060D01*
X10260D02*
X10320D01*
X13000Y35860D02*
X13480D01*
X10520Y34160D02*
X10580D01*
X13900Y35860D02*
X14380D01*
X10660Y34160D02*
X10720D01*
X15140Y35860D02*
X15640D01*
X10900Y34160D02*
X10960D01*
X17080Y35860D02*
X17580D01*
X11320Y34160D02*
X11460D01*
X11580D02*
X11720D01*
X11840D02*
X12220D01*
X12340D02*
X12480D01*
X12580D02*
X12720D01*
X12820D02*
X12980D01*
X13060D02*
X13180D01*
X13300D02*
X13440D01*
X13540D02*
X13680D01*
X13780D02*
X13920D01*
X14080D02*
X14220D01*
X14340D02*
X14720D01*
X14940D02*
X15080D01*
X15480D02*
X15640D01*
X6300Y34180D02*
X6360D01*
X11740Y35880D02*
X12220D01*
X6560Y34180D02*
X6620D01*
X13000Y35880D02*
X13480D01*
X6740Y34180D02*
X6800D01*
X13900Y35880D02*
X14360D01*
X6980Y34180D02*
X7040D01*
X15140Y35880D02*
X15640D01*
X7160Y34180D02*
X7220D01*
X17080Y35880D02*
X17580D01*
X7320Y34180D02*
X7400D01*
X7600D02*
X7660D01*
X7820D02*
X7880D01*
X7900D02*
X7960D01*
X8340D02*
X8420D01*
X8620D02*
X8660D01*
X8780D02*
X8840D01*
X9020D02*
X9080D01*
X9200D02*
X9260D01*
X9400D02*
X9460D01*
X9580D02*
X9660D01*
X9860D02*
X9920D01*
X10000D02*
X10060D01*
X10260D02*
X10320D01*
X10520D02*
X10580D01*
X10660D02*
X10700D01*
X10900D02*
X10960D01*
X11320D02*
X11460D01*
X11740Y35900D02*
X12220D01*
X11580Y34180D02*
X11720D01*
X13000Y35900D02*
X13480D01*
X11840Y34180D02*
X11980D01*
X13900Y35900D02*
X14360D01*
X12080Y34180D02*
X12240D01*
X15120Y35900D02*
X15640D01*
X12340Y34180D02*
X12480D01*
X17080Y35900D02*
X17580D01*
X12580Y34180D02*
X12700D01*
X12840D02*
X12960D01*
X13040D02*
X13180D01*
X13300D02*
X13440D01*
X13620D02*
X13660D01*
X13800D02*
X13940D01*
X14080D02*
X14220D01*
X14340D02*
X14480D01*
X14580D02*
X14740D01*
X14940D02*
X15080D01*
X15480D02*
X15640D01*
X6580Y34200D02*
X6640D01*
X6740D02*
X6800D01*
X6980D02*
X7040D01*
X11740Y35920D02*
X12220D01*
X7160Y34200D02*
X7220D01*
X13000Y35920D02*
X13480D01*
X7320Y34200D02*
X7380D01*
X13900Y35920D02*
X14360D01*
X7600Y34200D02*
X7660D01*
X7820D02*
X7860D01*
X15100Y35920D02*
X15640D01*
X7900Y34200D02*
X7960D01*
X17080Y35920D02*
X17580D01*
X8340Y34200D02*
X8400D01*
X8620D02*
X8680D01*
X8780D02*
X8840D01*
X9020D02*
X9080D01*
X9200D02*
X9260D01*
X9400D02*
X9460D01*
X9580D02*
X9640D01*
X9860D02*
X9920D01*
X10280D02*
X10340D01*
X10520D02*
X10580D01*
X10640D02*
X10700D01*
X10920D02*
X10980D01*
X11320D02*
X11460D01*
X11580D02*
X11720D01*
X11820D02*
X11960D01*
X12100D02*
X12240D01*
X11740Y35940D02*
X12220D01*
X12340Y34200D02*
X12480D01*
X13000Y35940D02*
X13480D01*
X12580Y34200D02*
X12720D01*
X13900Y35940D02*
X14360D01*
X13040Y34200D02*
X13180D01*
X13800D02*
X13940D01*
X14080D02*
X14220D01*
X15080Y35940D02*
X15640D01*
X14320Y34200D02*
X14460D01*
X17080Y35940D02*
X17580D01*
X14600Y34200D02*
X14740D01*
X14940D02*
X15080D01*
X15480D02*
X15640D01*
X6580Y34220D02*
X6640D01*
X6740D02*
X6800D01*
X6980D02*
X7040D01*
X7160D02*
X7220D01*
X7320D02*
X7380D01*
X7580D02*
X7660D01*
X7800D02*
X7860D01*
X7920D02*
X7960D01*
X11740Y35960D02*
X12220D01*
X8340Y34220D02*
X8400D01*
X13000Y35960D02*
X13480D01*
X8620Y34220D02*
X8680D01*
X13900Y35960D02*
X14360D01*
X8780Y34220D02*
X8840D01*
X9020D02*
X9080D01*
X9200D02*
X9260D01*
X15060Y35960D02*
X15620D01*
X9400Y34220D02*
X9460D01*
X17080Y35960D02*
X17580D01*
X9580Y34220D02*
X9640D01*
X9840D02*
X9900D01*
X10280D02*
X10340D01*
X10520D02*
X10580D01*
X10920D02*
X10980D01*
X11320D02*
X11460D01*
X11580D02*
X11720D01*
X11820D02*
X11960D01*
X12120D02*
X12260D01*
X12340D02*
X12480D01*
X12580D02*
X12740D01*
X13040D02*
X13200D01*
X11740Y35980D02*
X12220D01*
X13820Y34220D02*
X13960D01*
X14080D02*
X14220D01*
X13000Y35980D02*
X13480D01*
X14320Y34220D02*
X14460D01*
X13900Y35980D02*
X14360D01*
X14620Y34220D02*
X14760D01*
X15020Y35980D02*
X15620D01*
X14940Y34220D02*
X15080D01*
X17080Y35980D02*
X17580D01*
X15480Y34220D02*
X15640D01*
X6580Y34240D02*
X6640D01*
X6740D02*
X6800D01*
X6980D02*
X7040D01*
X7160D02*
X7220D01*
X7320D02*
X7380D01*
X7560D02*
X7640D01*
X7800D02*
X7840D01*
X7920D02*
X7980D01*
X8340D02*
X8400D01*
X8620D02*
X8680D01*
X8780D02*
X8840D01*
X9020D02*
X9080D01*
X11740Y36000D02*
X12220D01*
X9200Y34240D02*
X9260D01*
X13000Y36000D02*
X13480D01*
X9400Y34240D02*
X9460D01*
X13900Y36000D02*
X14360D01*
X9580Y34240D02*
X9640D01*
X14940Y36000D02*
X15600D01*
X9820Y34240D02*
X9900D01*
X17080Y36000D02*
X17580D01*
X10280Y34240D02*
X10340D01*
X10520D02*
X10580D01*
X10920D02*
X10980D01*
X11320D02*
X11460D01*
X11580D02*
X11720D01*
X11820D02*
X11960D01*
X12120D02*
X12260D01*
X12340D02*
X12480D01*
X12580D02*
X12840D01*
X13060D02*
X13300D01*
X13520D02*
X13960D01*
X11740Y36020D02*
X12220D01*
X13000D02*
X13480D01*
X14080Y34240D02*
X14220D01*
X14320D02*
X14460D01*
X13900Y36020D02*
X15600D01*
X4240Y35180D02*
X4680D01*
X14620Y34240D02*
X14760D01*
X17080Y36020D02*
X17580D01*
X14940Y34240D02*
X15080D01*
X5240Y35180D02*
X5660D01*
X15480Y34240D02*
X15640D01*
X6280Y35180D02*
X6740D01*
X7300D02*
X7760D01*
X6280Y34260D02*
X6640D01*
X8600Y35180D02*
X9720D01*
X10260D02*
X11040D01*
X6740Y34260D02*
X6800D01*
X6980D02*
X7040D01*
X4240Y35200D02*
X4680D01*
X7160Y34260D02*
X7220D01*
X7320D02*
X7380D01*
X5240Y35200D02*
X5760D01*
X6280D02*
X6760D01*
X7460Y34260D02*
X7620D01*
X7280Y35200D02*
X7860D01*
X7800Y34260D02*
X7840D01*
X8580Y35200D02*
X9840D01*
X7920Y34260D02*
X7980D01*
X11740Y36040D02*
X12220D01*
X10240Y35200D02*
X11120D01*
X8340Y34260D02*
X8400D01*
X13000Y36040D02*
X13480D01*
X8620Y34260D02*
X8680D01*
X13900Y36040D02*
X15580D01*
X4240Y35220D02*
X4700D01*
X17080Y36040D02*
X17580D01*
X8780Y34260D02*
X8840D01*
X5220Y35220D02*
X5820D01*
X9020Y34260D02*
X9080D01*
X6280Y35220D02*
X6760D01*
X9200Y34260D02*
X9260D01*
X7280Y35220D02*
X7900D01*
X9400Y34260D02*
X9460D01*
X8580Y35220D02*
X9900D01*
X9580Y34260D02*
X9640D01*
X10240Y35220D02*
X11160D01*
X9700Y34260D02*
X9880D01*
X9980D02*
X10340D01*
X4240Y35240D02*
X4700D01*
X10520Y34260D02*
X10580D01*
X5220Y35240D02*
X5840D01*
X10920Y34260D02*
X10980D01*
X6280Y35240D02*
X6760D01*
X11320Y34260D02*
X11460D01*
X11580D02*
X11720D01*
X7260Y35240D02*
X7940D01*
X11820Y34260D02*
X11960D01*
X8560Y35240D02*
X9940D01*
X12120Y34260D02*
X12260D01*
X10220Y35240D02*
X11200D01*
X12340Y34260D02*
X12480D01*
X11740Y36060D02*
X12220D01*
X4240Y35260D02*
X4700D01*
X12600Y34260D02*
X12900D01*
X13000Y36060D02*
X13480D01*
X5200Y35260D02*
X5880D01*
X13060Y34260D02*
X13380D01*
X6280Y35260D02*
X6760D01*
X13900Y36060D02*
X15560D01*
X17080D02*
X17580D01*
X7260Y35260D02*
X7960D01*
X13520Y34260D02*
X13960D01*
X8540Y35260D02*
X9960D01*
X14080Y34260D02*
X14220D01*
X14320D02*
X14460D01*
X10220Y35260D02*
X11220D01*
X14620Y34260D02*
X14760D01*
X4240Y35280D02*
X4720D01*
X14940Y34260D02*
X15080D01*
X15480D02*
X15640D01*
X5260Y35280D02*
X5900D01*
X6280D02*
X6760D01*
X7240D02*
X7980D01*
X6280Y34280D02*
X6640D01*
X8540Y35280D02*
X10000D01*
X6740Y34280D02*
X6800D01*
X10200Y35280D02*
X11240D01*
X6980Y34280D02*
X7040D01*
X7160D02*
X7220D01*
X4240Y35300D02*
X4720D01*
X7320Y34280D02*
X7580D01*
X5360Y35300D02*
X5900D01*
X7780Y34280D02*
X7840D01*
X6280Y35300D02*
X6760D01*
X7360D02*
X8000D01*
X7940Y34280D02*
X8000D01*
X9400Y35300D02*
X10000D01*
X8340Y34280D02*
X8400D01*
X11740Y36080D02*
X12220D01*
X8620Y34280D02*
X8680D01*
X10700Y35300D02*
X11260D01*
X13000Y36080D02*
X13480D01*
X8780Y34280D02*
X8840D01*
X13900Y36080D02*
X15520D01*
X9020Y34280D02*
X9080D01*
X4240Y35320D02*
X4720D01*
X17080Y36080D02*
X17580D01*
X9200Y34280D02*
X9260D01*
X5400Y35320D02*
X5920D01*
X9400Y34280D02*
X9460D01*
X6280Y35320D02*
X6760D01*
X9580Y34280D02*
X9840D01*
X7420Y35320D02*
X8000D01*
X9980Y34280D02*
X10340D01*
X10520D02*
X10580D01*
X9480Y35320D02*
X10020D01*
X10920Y34280D02*
X10980D01*
X10760Y35320D02*
X11280D01*
X11320Y34280D02*
X11460D01*
X11580D02*
X11720D01*
X4240Y35340D02*
X4720D01*
X5440D02*
X5940D01*
X11820Y34280D02*
X11960D01*
X6280Y35340D02*
X6760D01*
X12120Y34280D02*
X12260D01*
X7460Y35340D02*
X8020D01*
X9520D02*
X10040D01*
X12340Y34280D02*
X12480D01*
X10800Y35340D02*
X11300D01*
X12620Y34280D02*
X12940D01*
X13080D02*
X13400D01*
X4240Y35360D02*
X4720D01*
X11740Y36100D02*
X12220D01*
X13520Y34280D02*
X13960D01*
X5460Y35360D02*
X5940D01*
X14080Y34280D02*
X14220D01*
X13000Y36100D02*
X13480D01*
X6280Y35360D02*
X6760D01*
X7480D02*
X8020D01*
X14320Y34280D02*
X14460D01*
X13900Y36100D02*
X15480D01*
X9540Y35360D02*
X10040D01*
X14620Y34280D02*
X14760D01*
X17080Y36100D02*
X17580D01*
X14940Y34280D02*
X15080D01*
X10820Y35360D02*
X11300D01*
X15480Y34280D02*
X15640D01*
X4260Y35380D02*
X4720D01*
X6280Y34300D02*
X6640D01*
X5480Y35380D02*
X5960D01*
X6740Y34300D02*
X6800D01*
X6280Y35380D02*
X6760D01*
X6980Y34300D02*
X7040D01*
X7160D02*
X7220D01*
X7500Y35380D02*
X8020D01*
X7320Y34300D02*
X7480D01*
X9560Y35380D02*
X10060D01*
X7780Y34300D02*
X7820D01*
X10840Y35380D02*
X11320D01*
X7940Y34300D02*
X8000D01*
X8340D02*
X8400D01*
X4260Y35400D02*
X4720D01*
X5480D02*
X5960D01*
X8620Y34300D02*
X8680D01*
X6300Y35400D02*
X6760D01*
X8780Y34300D02*
X8840D01*
X7520Y35400D02*
X8040D01*
X11740Y36120D02*
X12220D01*
X9580Y35400D02*
X10060D01*
X9020Y34300D02*
X9080D01*
X13000Y36120D02*
X13480D01*
X9200Y34300D02*
X9260D01*
X10860Y35400D02*
X11320D01*
X13900Y36120D02*
X15360D01*
X9400Y34300D02*
X9460D01*
X17080Y36120D02*
X17580D01*
X9580Y34300D02*
X9740D01*
X4260Y35420D02*
X4720D01*
X10000Y34300D02*
X10340D01*
X5500Y35420D02*
X5960D01*
X10520Y34300D02*
X10580D01*
X6300Y35420D02*
X6760D01*
X10920Y34300D02*
X10980D01*
X7540Y35420D02*
X8040D01*
X11320Y34300D02*
X11460D01*
X9600Y35420D02*
X10080D01*
X11580Y34300D02*
X11720D01*
X10860Y35420D02*
X11340D01*
X11820Y34300D02*
X11960D01*
X4260Y35440D02*
X4720D01*
X12120Y34300D02*
X12260D01*
X5500Y35440D02*
X5980D01*
X12340Y34300D02*
X12480D01*
X12640D02*
X12960D01*
X6300Y35440D02*
X6760D01*
X13120Y34300D02*
X13420D01*
X7540Y35440D02*
X8040D01*
X13520Y34300D02*
X13960D01*
X9600Y35440D02*
X10080D01*
X11740Y36140D02*
X12220D01*
X14080Y34300D02*
X14220D01*
X10860Y35440D02*
X11340D01*
X13000Y36140D02*
X13480D01*
X14320Y34300D02*
X14460D01*
X14620D02*
X14760D01*
X13900Y36140D02*
X14500D01*
X17080D02*
X17580D01*
X4260Y35460D02*
X4720D01*
X14940Y34300D02*
X15080D01*
X15260D02*
X15640D01*
X5500Y35460D02*
X5980D01*
X6300D02*
X6760D01*
X7540D02*
X8040D01*
X6280Y34320D02*
X6340D01*
X9600Y35460D02*
X10080D01*
X6580Y34320D02*
X6640D01*
X10880Y35460D02*
X11340D01*
X6740Y34320D02*
X6800D01*
X6980D02*
X7040D01*
X4260Y35480D02*
X4720D01*
X5520D02*
X5980D01*
X7160Y34320D02*
X7220D01*
X6300Y35480D02*
X6760D01*
X7320Y34320D02*
X7380D01*
X7560Y35480D02*
X8040D01*
X9620D02*
X10080D01*
X7760Y34320D02*
X7820D01*
X7960D02*
X8000D01*
X10880Y35480D02*
X11360D01*
X8340Y34320D02*
X8400D01*
X8620D02*
X8680D01*
X4260Y35500D02*
X4720D01*
X11740Y36160D02*
X12220D01*
X8780Y34320D02*
X8840D01*
X13000Y36160D02*
X13480D01*
X5520Y35500D02*
X5980D01*
X13900Y36160D02*
X14460D01*
X9020Y34320D02*
X9080D01*
X6280Y35500D02*
X6760D01*
X17080Y36160D02*
X17580D01*
X9200Y34320D02*
X9260D01*
X7560Y35500D02*
X8040D01*
X9400Y34320D02*
X9460D01*
X9620Y35500D02*
X10080D01*
X9580Y34320D02*
X9640D01*
X10880Y35500D02*
X11360D01*
X10000Y34320D02*
X10060D01*
X10280D02*
X10340D01*
X4260Y35520D02*
X4720D01*
X10520Y34320D02*
X10580D01*
X10920D02*
X10980D01*
X5520Y35520D02*
X5980D01*
X11320Y34320D02*
X11460D01*
X11580D02*
X11720D01*
X6280Y35520D02*
X6760D01*
X11820Y34320D02*
X11960D01*
X7560Y35520D02*
X8040D01*
X12120Y34320D02*
X12260D01*
X9620Y35520D02*
X10100D01*
X12340Y34320D02*
X12480D01*
X10880Y35520D02*
X11360D01*
X12720Y34320D02*
X12960D01*
X13180D02*
X13440D01*
X4260Y35540D02*
X4720D01*
X11740Y36180D02*
X12220D01*
X5520Y35540D02*
X5980D01*
X13520Y34320D02*
X13660D01*
X6280Y35540D02*
X6760D01*
X13000Y36180D02*
X13480D01*
X7560Y35540D02*
X8040D01*
X13820Y34320D02*
X13960D01*
X13900Y36180D02*
X14440D01*
X9620Y35540D02*
X10100D01*
X14080Y34320D02*
X14220D01*
X17080Y36180D02*
X17580D01*
X14320Y34320D02*
X14460D01*
X10880Y35540D02*
X11360D01*
X14620Y34320D02*
X14760D01*
X4260Y35560D02*
X4720D01*
X14920Y34320D02*
X15080D01*
X15240D02*
X15640D01*
X5520Y35560D02*
X5980D01*
X6280D02*
X6760D01*
X7560D02*
X8040D01*
X6300Y34340D02*
X6340D01*
X9620Y35560D02*
X10100D01*
X6580Y34340D02*
X6640D01*
X10880Y35560D02*
X11360D01*
X6740Y34340D02*
X6800D01*
X6980D02*
X7040D01*
X7160D02*
X7220D01*
X4260Y35580D02*
X4720D01*
X5520D02*
X5980D01*
X7320Y34340D02*
X7380D01*
X6280Y35580D02*
X6760D01*
X7760Y34340D02*
X7820D01*
X7960D02*
X8020D01*
X7560Y35580D02*
X8040D01*
X8340Y34340D02*
X8400D01*
X9620Y35580D02*
X10100D01*
X8620Y34340D02*
X8680D01*
X11740Y36200D02*
X12220D01*
X10880Y35580D02*
X11360D01*
X8780Y34340D02*
X8840D01*
X13000Y36200D02*
X13480D01*
X4260Y35600D02*
X4720D01*
X13900Y36200D02*
X14420D01*
X9020Y34340D02*
X9080D01*
X5520Y35600D02*
X5980D01*
X17080Y36200D02*
X17580D01*
X6280Y35600D02*
X6760D01*
X9200Y34340D02*
X9260D01*
X7560Y35600D02*
X8040D01*
X9400Y34340D02*
X9460D01*
X9620Y35600D02*
X10100D01*
X9580Y34340D02*
X9640D01*
X10880Y35600D02*
X11360D01*
X10000Y34340D02*
X10060D01*
X10280D02*
X10340D01*
X4260Y35620D02*
X4720D01*
X10520Y34340D02*
X10580D01*
X5520Y35620D02*
X5980D01*
X10920Y34340D02*
X10980D01*
X6280Y35620D02*
X6760D01*
X7560D02*
X8040D01*
X9620D02*
X10100D01*
X10880D02*
X11360D01*
X11320Y34340D02*
X11480D01*
X11580D02*
X11720D01*
X11820D02*
X11960D01*
X4260Y35640D02*
X4720D01*
X12100Y34340D02*
X12240D01*
X5520Y35640D02*
X5980D01*
X12340Y34340D02*
X12480D01*
X6280Y35640D02*
X6760D01*
X12840Y34340D02*
X12980D01*
X13300D02*
X13440D01*
X7560Y35640D02*
X8040D01*
X9620D02*
X10100D01*
X13520Y34340D02*
X13660D01*
X11740Y36220D02*
X12220D01*
X13800Y34340D02*
X13940D01*
X13000Y36220D02*
X13480D01*
X10880Y35640D02*
X11360D01*
X14080Y34340D02*
X14220D01*
X13900Y36220D02*
X14400D01*
X14320Y34340D02*
X14460D01*
X14600D02*
X14740D01*
X4260Y35660D02*
X4720D01*
X17080Y36220D02*
X17580D01*
X5520Y35660D02*
X5980D01*
X14920Y34340D02*
X15080D01*
X15220D02*
X15640D01*
X6280Y35660D02*
X6760D01*
X6300Y34360D02*
X6360D01*
X6560D02*
X6620D01*
X6740D02*
X6800D01*
X6980D02*
X7040D01*
X7160D02*
X7220D01*
X7320D02*
X7380D01*
X7600D02*
X7640D01*
X7560Y35660D02*
X8040D01*
X7760Y34360D02*
X7800D01*
X9620Y35660D02*
X10100D01*
X7960Y34360D02*
X8020D01*
X10880Y35660D02*
X11360D01*
X8340Y34360D02*
X8420D01*
X11740Y36240D02*
X12220D01*
X8620Y34360D02*
X8680D01*
X13000Y36240D02*
X13480D01*
X8780Y34360D02*
X8840D01*
X4260Y35680D02*
X4720D01*
X9020Y34360D02*
X9080D01*
X13900Y36240D02*
X14400D01*
X5520Y35680D02*
X5980D01*
X9200Y34360D02*
X9260D01*
X17080Y36240D02*
X17580D01*
X9400Y34360D02*
X9460D01*
X6280Y35680D02*
X6760D01*
X9580Y34360D02*
X9640D01*
X7560Y35680D02*
X8040D01*
X9840Y34360D02*
X9900D01*
X9620Y35680D02*
X10100D01*
X10000Y34360D02*
X10060D01*
X10880Y35680D02*
X11360D01*
X10280Y34360D02*
X10320D01*
X10520D02*
X10580D01*
X10660D02*
X10700D01*
X10900D02*
X10960D01*
X4260Y35700D02*
X4720D01*
X11320Y34360D02*
X11500D01*
X5520Y35700D02*
X5980D01*
X11540Y34360D02*
X11720D01*
X6280Y35700D02*
X6760D01*
X11840Y34360D02*
X11980D01*
X7560Y35700D02*
X8040D01*
X12080Y34360D02*
X12240D01*
X9620Y35700D02*
X10100D01*
X12340Y34360D02*
X12480D01*
X10880Y35700D02*
X11360D01*
X11740Y36260D02*
X12220D01*
X13000D02*
X13480D01*
X12840Y34360D02*
X12980D01*
X13900Y36260D02*
X14380D01*
X13320Y34360D02*
X13440D01*
X17060Y36260D02*
X17580D01*
X13520Y34360D02*
X13660D01*
X4260Y35720D02*
X4720D01*
X13800Y34360D02*
X13940D01*
X5520Y35720D02*
X5980D01*
X14080Y34360D02*
X14220D01*
X6280Y35720D02*
X6760D01*
X14340Y34360D02*
X14480D01*
X7560Y35720D02*
X8040D01*
X8400D02*
X8420D01*
X9620D02*
X10100D01*
X14580Y34360D02*
X14740D01*
X10880Y35720D02*
X11360D01*
X14820Y34360D02*
X14840D01*
X14880D02*
X15080D01*
X4240Y35740D02*
X4720D01*
X15200Y34360D02*
X15640D01*
X5520Y35740D02*
X5980D01*
X6280D02*
X6760D01*
X6300Y34380D02*
X6360D01*
X7560Y35740D02*
X8040D01*
X8400D02*
X8440D01*
X6560Y34380D02*
X6620D01*
X9620Y35740D02*
X10100D01*
X11740Y36280D02*
X12220D01*
X6740Y34380D02*
X6800D01*
X13000Y36280D02*
X13480D01*
X10880Y35740D02*
X11360D01*
X6980Y34380D02*
X7040D01*
X13900Y36280D02*
X14380D01*
X7160Y34380D02*
X7220D01*
X17060Y36280D02*
X17580D01*
X7340Y34380D02*
X7400D01*
X4240Y35760D02*
X4720D01*
X7580Y34380D02*
X7640D01*
X5520Y35760D02*
X5980D01*
X7740Y34380D02*
X7800D01*
X6280Y35760D02*
X6760D01*
X7980Y34380D02*
X8020D01*
X7560Y35760D02*
X8040D01*
X8340Y34380D02*
X8420D01*
X8400Y35760D02*
X8460D01*
X8600Y34380D02*
X8660D01*
X9620Y35760D02*
X10100D01*
X10880D02*
X11360D01*
X8780Y34380D02*
X8840D01*
X4240Y35780D02*
X4720D01*
X9020Y34380D02*
X9080D01*
X9200D02*
X9260D01*
X5520Y35780D02*
X5980D01*
X9400Y34380D02*
X9460D01*
X6280Y35780D02*
X6760D01*
X9580Y34380D02*
X9640D01*
X7560Y35780D02*
X8040D01*
X9840Y34380D02*
X9900D01*
X8400Y35780D02*
X8500D01*
X10020Y34380D02*
X10060D01*
X9620Y35780D02*
X10100D01*
X11740Y36300D02*
X12220D01*
X10260Y34380D02*
X10320D01*
X13000Y36300D02*
X13480D01*
X10500Y34380D02*
X10580D01*
X10880Y35780D02*
X11360D01*
X13900Y36300D02*
X14380D01*
X10660Y34380D02*
X10720D01*
X10900D02*
X10960D01*
X17060Y36300D02*
X17580D01*
X11320Y34380D02*
X11720D01*
X4240Y35800D02*
X4720D01*
X11840Y34380D02*
X12220D01*
X5520Y35800D02*
X5980D01*
X12340Y34380D02*
X12480D01*
X6280Y35800D02*
X6760D01*
X7560D02*
X8040D01*
X8400D02*
X8540D01*
X12600Y34380D02*
X12740D01*
X9620Y35800D02*
X10100D01*
X12840Y34380D02*
X12960D01*
X10880Y35800D02*
X11360D01*
X13060Y34380D02*
X13200D01*
X13320D02*
X13440D01*
X4240Y35820D02*
X4720D01*
X13540Y34380D02*
X13680D01*
X5520Y35820D02*
X5980D01*
X6280D02*
X6760D01*
X13780Y34380D02*
X13920D01*
X7560Y35820D02*
X8040D01*
X14000Y34380D02*
X14260D01*
X8400Y35820D02*
X8600D01*
X9620D02*
X10100D01*
X10880D02*
X11360D01*
X14340Y34380D02*
X14720D01*
X14820D02*
X15080D01*
X4240Y35840D02*
X4720D01*
X15180Y34380D02*
X15640D01*
X5520Y35840D02*
X5980D01*
X11760Y36320D02*
X12220D01*
X6280Y35840D02*
X6760D01*
X13000Y36320D02*
X13480D01*
X7540Y35840D02*
X8040D01*
X13900Y36320D02*
X14380D01*
X6320Y34400D02*
X6380D01*
X17060Y36320D02*
X17580D01*
X8400Y35840D02*
X8660D01*
X6540Y34400D02*
X6600D01*
X6740D02*
X6800D01*
X9620Y35840D02*
X10100D01*
X6980Y34400D02*
X7040D01*
X10880Y35840D02*
X11360D01*
X7160Y34400D02*
X7220D01*
X7340D02*
X7400D01*
X4240Y35860D02*
X4720D01*
X7580Y34400D02*
X7640D01*
X5520Y35860D02*
X5980D01*
X7740Y34400D02*
X7800D01*
X6280Y35860D02*
X6760D01*
X7980Y34400D02*
X8040D01*
X7540Y35860D02*
X8040D01*
X8340Y34400D02*
X8440D01*
X8400Y35860D02*
X8760D01*
X8580Y34400D02*
X8660D01*
X8780D02*
X8860D01*
X9620Y35860D02*
X10100D01*
X9000Y34400D02*
X9080D01*
X10880Y35860D02*
X11360D01*
X9200Y34400D02*
X9260D01*
X9400D02*
X9460D01*
X9600D02*
X9660D01*
X4240Y35880D02*
X4720D01*
X5520D02*
X5980D01*
X11760Y36340D02*
X12220D01*
X9820Y34400D02*
X9880D01*
X6280Y35880D02*
X6760D01*
X10020Y34400D02*
X10080D01*
X13000Y36340D02*
X13480D01*
X7520Y35880D02*
X8040D01*
X13900Y36340D02*
X14380D01*
X10240Y34400D02*
X10300D01*
X8400Y35880D02*
X8860D01*
X10480Y34400D02*
X10580D01*
X17060Y36340D02*
X17580D01*
X9620Y35880D02*
X10100D01*
X10660Y34400D02*
X10740D01*
X10880Y35880D02*
X11360D01*
X10880Y34400D02*
X10940D01*
X11340D02*
X11720D01*
X4240Y35900D02*
X4720D01*
X11860Y34400D02*
X12220D01*
X5520Y35900D02*
X5980D01*
X6280D02*
X6760D01*
X12340Y34400D02*
X12480D01*
X7520Y35900D02*
X8040D01*
X12600Y34400D02*
X12780D01*
X8400Y35900D02*
X8960D01*
X12820Y34400D02*
X12960D01*
X9620Y35900D02*
X10100D01*
X13080Y34400D02*
X13240D01*
X10880Y35900D02*
X11360D01*
X13280Y34400D02*
X13420D01*
X13560D02*
X13920D01*
X4240Y35920D02*
X4720D01*
X14000Y34400D02*
X14260D01*
X14360D02*
X14720D01*
X5520Y35920D02*
X5980D01*
X14820Y34400D02*
X15080D01*
X6280Y35920D02*
X6760D01*
X15180Y34400D02*
X15340D01*
X7500Y35920D02*
X8040D01*
X15480Y34400D02*
X15640D01*
X8400Y35920D02*
X9060D01*
X9620D02*
X10100D01*
X6340Y34420D02*
X6420D01*
X11760Y36360D02*
X12220D01*
X6500Y34420D02*
X6580D01*
X10880Y35920D02*
X11360D01*
X13000Y36360D02*
X13480D01*
X6740Y34420D02*
X6800D01*
X13900Y36360D02*
X14380D01*
X6980Y34420D02*
X7040D01*
X17040Y36360D02*
X17560D01*
X4240Y35940D02*
X4720D01*
X7160Y34420D02*
X7220D01*
X5520Y35940D02*
X5980D01*
X7340Y34420D02*
X7440D01*
X6280Y35940D02*
X6760D01*
X7540Y34420D02*
X7620D01*
X7720D02*
X7780D01*
X7480Y35940D02*
X8020D01*
X7980Y34420D02*
X8040D01*
X8400Y35940D02*
X9140D01*
X8340Y34420D02*
X8480D01*
X8560D02*
X8640D01*
X9620Y35940D02*
X10100D01*
X8800Y34420D02*
X8900D01*
X10880Y35940D02*
X11360D01*
X8960Y34420D02*
X9020D01*
X9040D02*
X9080D01*
X4240Y35960D02*
X4720D01*
X9200Y34420D02*
X9260D01*
X5520Y35960D02*
X5980D01*
X9400Y34420D02*
X9460D01*
X6280Y35960D02*
X6760D01*
X9600Y34420D02*
X9680D01*
X7460Y35960D02*
X8020D01*
X9800Y34420D02*
X9880D01*
X8400Y35960D02*
X9240D01*
X9620D02*
X10100D01*
X10040Y34420D02*
X10120D01*
X10220D02*
X10300D01*
X10880Y35960D02*
X11360D01*
X10380Y34420D02*
X10500D01*
X11760Y36380D02*
X12240D01*
X4240Y35980D02*
X4720D01*
X10520Y34420D02*
X10580D01*
X13000Y36380D02*
X13480D01*
X5520Y35980D02*
X5980D01*
X10680Y34420D02*
X10760D01*
X13900Y36380D02*
X14380D01*
X10840Y34420D02*
X10940D01*
X6280Y35980D02*
X6760D01*
X17040Y36380D02*
X17560D01*
X11340Y34420D02*
X11580D01*
X7420Y35980D02*
X8020D01*
X11600Y34420D02*
X11720D01*
X8400Y35980D02*
X9340D01*
X9620D02*
X10100D01*
X11880Y34420D02*
X12200D01*
X10880Y35980D02*
X11360D01*
X12340Y34420D02*
X12480D01*
X12620D02*
X12940D01*
X4240Y36000D02*
X4720D01*
X13080Y34420D02*
X13420D01*
X5520Y36000D02*
X5980D01*
X13580Y34420D02*
X13900D01*
X14000D02*
X14260D01*
X6280Y36000D02*
X6760D01*
X14380Y34420D02*
X14700D01*
X7340Y36000D02*
X8000D01*
X14800Y34420D02*
X14940D01*
X8400Y36000D02*
X9440D01*
X14960Y34420D02*
X15080D01*
X9620Y36000D02*
X10100D01*
X15180Y34420D02*
X15340D01*
X10880Y36000D02*
X11360D01*
X15480Y34420D02*
X15640D01*
X11760Y36400D02*
X12240D01*
X13000D02*
X13480D01*
X4240Y36020D02*
X4720D01*
X6360Y34440D02*
X6560D01*
X13900Y36400D02*
X14380D01*
X5520Y36020D02*
X5980D01*
X17020Y36400D02*
X17560D01*
X6740Y34440D02*
X6800D01*
X6280Y36020D02*
X7980D01*
X6980Y34440D02*
X7040D01*
X8400Y36020D02*
X9520D01*
X7160Y34440D02*
X7220D01*
X9620Y36020D02*
X10100D01*
X7360Y34440D02*
X7600D01*
X10880Y36020D02*
X11360D01*
X7720Y34440D02*
X7780D01*
X8000D02*
X8060D01*
X4240Y36040D02*
X4720D01*
X8340Y34440D02*
X8400D01*
X5520Y36040D02*
X5980D01*
X8440Y34440D02*
X8620D01*
X6280Y36040D02*
X7960D01*
X8820Y34440D02*
X9000D01*
X8400Y36040D02*
X9540D01*
X9040Y34440D02*
X9080D01*
X9620Y36040D02*
X10100D01*
X9200Y34440D02*
X9260D01*
X11780Y36420D02*
X12240D01*
X10880Y36040D02*
X11360D01*
X9340Y34440D02*
X9500D01*
X9620D02*
X9860D01*
X13000Y36420D02*
X13480D01*
X10060Y34440D02*
X10260D01*
X13920Y36420D02*
X14380D01*
X4240Y36060D02*
X4720D01*
X17020Y36420D02*
X17540D01*
X10380Y34440D02*
X10500D01*
X5520Y36060D02*
X5980D01*
X10520Y34440D02*
X10580D01*
X6280Y36060D02*
X7940D01*
X10700Y34440D02*
X10900D01*
X8400Y36060D02*
X9540D01*
X9620D02*
X10100D01*
X11360Y34440D02*
X11540D01*
X10880Y36060D02*
X11360D01*
X11600Y34440D02*
X11720D01*
X11900D02*
X12160D01*
X12340D02*
X12480D01*
X4240Y36080D02*
X4720D01*
X5520D02*
X5980D01*
X12640Y34440D02*
X12920D01*
X13100D02*
X13400D01*
X6280Y36080D02*
X7920D01*
X8400D02*
X9540D01*
X13600Y34440D02*
X13860D01*
X9620Y36080D02*
X10100D01*
X14000Y34440D02*
X14260D01*
X11780Y36440D02*
X12260D01*
X10880Y36080D02*
X11360D01*
X13000Y36440D02*
X13480D01*
X14400Y34440D02*
X14660D01*
X13920Y36440D02*
X14380D01*
X17000D02*
X17540D01*
X4240Y36100D02*
X4720D01*
X14800Y34440D02*
X14920D01*
X14960D02*
X15080D01*
X5520Y36100D02*
X5980D01*
X15180Y34440D02*
X15340D01*
X6280Y36100D02*
X7860D01*
X15480Y34440D02*
X15640D01*
X8400Y36100D02*
X8840D01*
X9620D02*
X10100D01*
X6400Y34460D02*
X6520D01*
X6740D02*
X6800D01*
X10880Y36100D02*
X11360D01*
X6980Y34460D02*
X7040D01*
X4240Y36120D02*
X4720D01*
X7160Y34460D02*
X7220D01*
X5500Y36120D02*
X5980D01*
X7400Y34460D02*
X7560D01*
X6280Y36120D02*
X7760D01*
X7720Y34460D02*
X7760D01*
X8400Y36120D02*
X8840D01*
X8000Y34460D02*
X8060D01*
X9620Y36120D02*
X10100D01*
X8340Y34460D02*
X8400D01*
X10880Y36120D02*
X11360D01*
X11780Y36460D02*
X12260D01*
X8460Y34460D02*
X8580D01*
X13000Y36460D02*
X13480D01*
X4240Y36140D02*
X4720D01*
X8840Y34460D02*
X8960D01*
X13920Y36460D02*
X14400D01*
X9040Y34460D02*
X9080D01*
X5500Y36140D02*
X5980D01*
X9200Y34460D02*
X9260D01*
X16960Y36460D02*
X17520D01*
X9340Y34460D02*
X9500D01*
X6280Y36140D02*
X6900D01*
X9660Y34460D02*
X9820D01*
X10100D02*
X10240D01*
X8400Y36140D02*
X8840D01*
X9620D02*
X10100D01*
X10380Y34460D02*
X10480D01*
X10880Y36140D02*
X11360D01*
X10520Y34460D02*
X10580D01*
X10740D02*
X10860D01*
X11380D02*
X11520D01*
X11600D02*
X11720D01*
X4240Y36160D02*
X4720D01*
X11940Y34460D02*
X12120D01*
X5500Y36160D02*
X5980D01*
X12340Y34460D02*
X12480D01*
X6280Y36160D02*
X6860D01*
X12680Y34460D02*
X12880D01*
X8400Y36160D02*
X8840D01*
X13140Y34460D02*
X13360D01*
X9620Y36160D02*
X10100D01*
X10880D02*
X11360D01*
X13640Y34460D02*
X13820D01*
X11800Y36480D02*
X12280D01*
X14000Y34460D02*
X14260D01*
X4240Y36180D02*
X4720D01*
X13020Y36480D02*
X13480D01*
X14440Y34460D02*
X14620D01*
X13940Y36480D02*
X14420D01*
X14800Y34460D02*
X14900D01*
X5480Y36180D02*
X5980D01*
X14960Y34460D02*
X15080D01*
X15900Y36480D02*
X15940D01*
X6280Y36180D02*
X6820D01*
X15180Y34460D02*
X15340D01*
X16940Y36480D02*
X17520D01*
X8400Y36180D02*
X8840D01*
X15480Y34460D02*
X15640D01*
X9620Y36180D02*
X10100D01*
X10880D02*
X11360D01*
X7160Y34480D02*
X7220D01*
X9400D02*
X9460D01*
X14060D02*
X14220D01*
X15180D02*
X15340D01*
X4240Y36200D02*
X4720D01*
X15480Y34480D02*
X15640D01*
X5480Y36200D02*
X5960D01*
X6280D02*
X6820D01*
X8400D02*
X8840D01*
X7160Y34500D02*
X7220D01*
X9400D02*
X9460D01*
X9620Y36200D02*
X10100D01*
X14060Y34500D02*
X14220D01*
X10880Y36200D02*
X11360D01*
X15180Y34500D02*
X15360D01*
X4240Y36220D02*
X4720D01*
X15480Y34500D02*
X15640D01*
X5460Y36220D02*
X5960D01*
X6280D02*
X6800D01*
X8400D02*
X8840D01*
X11800Y36500D02*
X12300D01*
X9620Y36220D02*
X10100D01*
X7160Y34520D02*
X7220D01*
X10880Y36220D02*
X11360D01*
X9400Y34520D02*
X9460D01*
X13020Y36500D02*
X13480D01*
X14060Y34520D02*
X14200D01*
X15180D02*
X15640D01*
X4240Y36240D02*
X4720D01*
X13940Y36500D02*
X14420D01*
X5440Y36240D02*
X5960D01*
X15900Y36500D02*
X16080D01*
X16860D02*
X17500D01*
X6280Y36240D02*
X6780D01*
X7160Y34540D02*
X7220D01*
X9400D02*
X9460D01*
X8400Y36240D02*
X8840D01*
X9620D02*
X10100D01*
X12340Y34540D02*
X12480D01*
X13980D02*
X14200D01*
X10880Y36240D02*
X11360D01*
X15200Y34540D02*
X15640D01*
X4240Y36260D02*
X4720D01*
X5400D02*
X5940D01*
X6280D02*
X6780D01*
X7160Y34560D02*
X7220D01*
X8400Y36260D02*
X8840D01*
X9200Y34560D02*
X9260D01*
X9620Y36260D02*
X10100D01*
X9400Y34560D02*
X9460D01*
X10880Y36260D02*
X11360D01*
X12340Y34560D02*
X12480D01*
X13980D02*
X14200D01*
X4240Y36280D02*
X4720D01*
X15220Y34560D02*
X15640D01*
X11820Y36520D02*
X12320D01*
X5360Y36280D02*
X5940D01*
X13020Y36520D02*
X13480D01*
X7160Y34580D02*
X7220D01*
X13960Y36520D02*
X14460D01*
X6280Y36280D02*
X6780D01*
X9200Y34580D02*
X9260D01*
X8400Y36280D02*
X8840D01*
X15900Y36520D02*
X17480D01*
X9400Y34580D02*
X9420D01*
X9620Y36280D02*
X10100D01*
X12340Y34580D02*
X12480D01*
X10880Y36280D02*
X11360D01*
X13980Y34580D02*
X14180D01*
X15240D02*
X15640D01*
X4240Y36300D02*
X5920D01*
X6280D02*
X6780D01*
X7160Y34600D02*
X7220D01*
X9200D02*
X9260D01*
X8400Y36300D02*
X8840D01*
X9620D02*
X10100D01*
X12340Y34600D02*
X12480D01*
X10880Y36300D02*
X11360D01*
X13960Y34600D02*
X14160D01*
X15260D02*
X15640D01*
X4240Y36320D02*
X5900D01*
X14000Y34620D02*
X14120D01*
X11840Y36540D02*
X12360D01*
X6280Y36320D02*
X6760D01*
X8400D02*
X8840D01*
X12920Y36540D02*
X12940D01*
X9620Y36320D02*
X10100D01*
X13020Y36540D02*
X13480D01*
X10880Y36320D02*
X11360D01*
X13980Y36540D02*
X14500D01*
X15520D02*
X15540D01*
X4240Y36340D02*
X4720D01*
X15900Y36540D02*
X17460D01*
X4740Y36340D02*
X5880D01*
X6300D02*
X6760D01*
X8400D02*
X8840D01*
X9620D02*
X10100D01*
X10880D02*
X11360D01*
X4240Y36360D02*
X4720D01*
X4760D02*
X5860D01*
X6300D02*
X6760D01*
X8400D02*
X8840D01*
X9620D02*
X10080D01*
X10880D02*
X11360D01*
X11860Y36560D02*
X12920D01*
X13020D02*
X13480D01*
X4240Y36380D02*
X4720D01*
X14000Y36560D02*
X15540D01*
X4780Y36380D02*
X5820D01*
X15900Y36560D02*
X17440D01*
X6300Y36380D02*
X6760D01*
X8400D02*
X8840D01*
X9620D02*
X10080D01*
X10880D02*
X11360D01*
X4240Y36400D02*
X4720D01*
X4800D02*
X5780D01*
X6300D02*
X6780D01*
X8400D02*
X8840D01*
X9620D02*
X10080D01*
X10880D02*
X11360D01*
X11880Y36580D02*
X12920D01*
X4240Y36420D02*
X4720D01*
X13020Y36580D02*
X13480D01*
X4860Y36420D02*
X5720D01*
X14020Y36580D02*
X15540D01*
X6300Y36420D02*
X6780D01*
X15900Y36580D02*
X17420D01*
X8420Y36420D02*
X8860D01*
X9600D02*
X10080D01*
X10880D02*
X11360D01*
X4240Y36440D02*
X4720D01*
X6320D02*
X6780D01*
X8420D02*
X8860D01*
X9600D02*
X10060D01*
X10880D02*
X11360D01*
X4240Y36460D02*
X4720D01*
X11900Y36600D02*
X12900D01*
X6320Y36460D02*
X6800D01*
X13040Y36600D02*
X13480D01*
X8420Y36460D02*
X8860D01*
X14040Y36600D02*
X15540D01*
X9600Y36460D02*
X10060D01*
X15900Y36600D02*
X17400D01*
X10880Y36460D02*
X11360D01*
X4240Y36480D02*
X4720D01*
X6340D02*
X6800D01*
X8420D02*
X8880D01*
X9580D02*
X10040D01*
X10880D02*
X11360D01*
X4240Y36500D02*
X4720D01*
X6340D02*
X6820D01*
X8440D02*
X8900D01*
X9560D02*
X10040D01*
X11920Y36620D02*
X12880D01*
X10880Y36500D02*
X11360D01*
X13040Y36620D02*
X13500D01*
X14060D02*
X15540D01*
X4240Y36520D02*
X4720D01*
X15880Y36620D02*
X17360D01*
X6360Y36520D02*
X6860D01*
X8440D02*
X8920D01*
X9540D02*
X10020D01*
X10880D02*
X11360D01*
X4240Y36540D02*
X4720D01*
X6380D02*
X6900D01*
X7900D02*
X7940D01*
X8460D02*
X8960D01*
X9500D02*
X10020D01*
X11960Y36640D02*
X12840D01*
X10880Y36540D02*
X11360D01*
X13060Y36640D02*
X13500D01*
X14100D02*
X15520D01*
X4240Y36560D02*
X4720D01*
X15880Y36640D02*
X17320D01*
X6400Y36560D02*
X7940D01*
X8480D02*
X10000D01*
X10880D02*
X11360D01*
X4240Y36580D02*
X4720D01*
X6420D02*
X7940D01*
X8500D02*
X9980D01*
X10880D02*
X11360D01*
X4240Y36600D02*
X4720D01*
X12020Y36660D02*
X12800D01*
X6440Y36600D02*
X7920D01*
X13080Y36660D02*
X13500D01*
X8520Y36600D02*
X9940D01*
X14160Y36660D02*
X15520D01*
X15880D02*
X17280D01*
X10880Y36600D02*
X11380D01*
X4240Y36620D02*
X4720D01*
X6460D02*
X7920D01*
X8540D02*
X9920D01*
X10880D02*
X11380D01*
X4240Y36640D02*
X4720D01*
X6500D02*
X7920D01*
X8580D02*
X9880D01*
X10880D02*
X11380D01*
X15880Y36680D02*
X17180D01*
X4240Y36660D02*
X4720D01*
X6560D02*
X7920D01*
X8660D02*
X9800D01*
X10860D02*
X11380D01*
X4240Y36680D02*
X4740D01*
X4240Y36700D02*
X4740D01*
X4240Y36720D02*
X4740D01*
D72*
X4251Y33736D02*
X17525Y33743D01*
D73*
X25865Y28744D02*
D03*
M02*
