%FSLAX24Y24*%
%MOIN*%
G70*
G01*
G75*
G04 Layer_Color=8388736*
%ADD10C,0.0394*%
%ADD11R,0.0500X0.0400*%
%ADD12R,0.0400X0.0500*%
%ADD13O,0.0800X0.0300*%
%ADD14R,0.0800X0.0300*%
%ADD15R,0.1339X0.0700*%
%ADD16R,0.1339X0.0472*%
%ADD17R,0.1339X0.0472*%
G04:AMPARAMS|DCode=18|XSize=40mil|YSize=50mil|CornerRadius=0mil|HoleSize=0mil|Usage=FLASHONLY|Rotation=135.000|XOffset=0mil|YOffset=0mil|HoleType=Round|Shape=Rectangle|*
%AMROTATEDRECTD18*
4,1,4,0.0318,0.0035,-0.0035,-0.0318,-0.0318,-0.0035,0.0035,0.0318,0.0318,0.0035,0.0*
%
%ADD18ROTATEDRECTD18*%

%ADD19O,0.0160X0.1000*%
%ADD20O,0.1000X0.0160*%
%ADD21O,0.0300X0.0800*%
%ADD22R,0.0300X0.0800*%
%ADD23O,0.0240X0.0800*%
%ADD24C,0.0300*%
%ADD25C,0.0150*%
%ADD26C,0.0120*%
%ADD27C,0.0200*%
%ADD28C,0.0050*%
%ADD29C,0.0100*%
%ADD30C,0.0650*%
%ADD31C,0.0709*%
%ADD32O,0.0709X0.0550*%
%ADD33C,0.0500*%
%ADD34C,0.0591*%
%ADD35C,0.0787*%
%ADD36C,0.0787*%
%ADD37O,0.0980X0.1020*%
%ADD38C,0.0600*%
%ADD39C,0.0250*%
%ADD40C,0.0984*%
%ADD41C,0.0080*%
%ADD42C,0.0060*%
%ADD43C,0.0061*%
%ADD44C,0.0079*%
%ADD45R,0.1575X0.0153*%
%ADD46C,0.0866*%
%ADD47C,0.0474*%
%ADD48R,0.0580X0.0480*%
%ADD49R,0.0480X0.0580*%
%ADD50O,0.0880X0.0380*%
%ADD51R,0.0880X0.0380*%
%ADD52R,0.1419X0.0780*%
%ADD53R,0.1419X0.0552*%
%ADD54R,0.1419X0.0552*%
G04:AMPARAMS|DCode=55|XSize=48mil|YSize=58mil|CornerRadius=0mil|HoleSize=0mil|Usage=FLASHONLY|Rotation=135.000|XOffset=0mil|YOffset=0mil|HoleType=Round|Shape=Rectangle|*
%AMROTATEDRECTD55*
4,1,4,0.0375,0.0035,-0.0035,-0.0375,-0.0375,-0.0035,0.0035,0.0375,0.0375,0.0035,0.0*
%
%ADD55ROTATEDRECTD55*%

%ADD56O,0.0240X0.1080*%
%ADD57O,0.1080X0.0240*%
%ADD58O,0.0380X0.0880*%
%ADD59R,0.0380X0.0880*%
%ADD60O,0.0320X0.0880*%
%ADD61C,0.0730*%
%ADD62C,0.0789*%
%ADD63O,0.0789X0.0630*%
%ADD64C,0.0580*%
%ADD65C,0.0671*%
%ADD66C,0.0867*%
%ADD67C,0.0867*%
%ADD68O,0.1060X0.1100*%
%ADD69C,0.0680*%
D28*
X28150Y0D02*
G03*
X29528Y1378I0J1378D01*
G01*
X0D02*
G03*
X1378Y0I1378J0D01*
G01*
X29528Y58465D02*
G03*
X28150Y59843I-1378J0D01*
G01*
X1378D02*
G03*
X0Y58465I0J-1378D01*
G01*
Y59843D02*
X29528D01*
Y0D02*
Y59843D01*
X28560Y0D02*
X29528D01*
X0D02*
X28560D01*
X0D02*
Y59843D01*
D29*
X6831Y1496D02*
G03*
X6831Y1496I-787J0D01*
G01*
Y30059D02*
G03*
X6831Y30059I-787J0D01*
G01*
X6792Y57140D02*
G03*
X6792Y57140I-787J0D01*
G01*
X22441Y47244D02*
G03*
X22441Y47244I-787J0D01*
G01*
X28898Y1441D02*
G03*
X28898Y1441I-787J0D01*
G01*
X28874Y54390D02*
G03*
X28874Y54390I-787J0D01*
G01*
X6693Y47244D02*
G03*
X6693Y47244I-787J0D01*
G01*
D46*
X12313Y2193D02*
D03*
X1358Y1142D02*
D03*
X26053Y697D02*
D03*
X28927Y58808D02*
D03*
X1269Y54861D02*
D03*
D47*
X1358Y1142D02*
D03*
X28927Y58808D02*
D03*
X1269Y54861D02*
D03*
D48*
X26190Y16805D02*
D03*
Y15955D02*
D03*
X23560Y13440D02*
D03*
Y14290D02*
D03*
X24850Y13440D02*
D03*
Y14290D02*
D03*
X25730D02*
D03*
Y13440D02*
D03*
X23530Y20810D02*
D03*
Y19960D02*
D03*
X24390Y20790D02*
D03*
Y19940D02*
D03*
X25250Y20800D02*
D03*
Y19950D02*
D03*
X8670Y45495D02*
D03*
Y46345D02*
D03*
X9467Y45495D02*
D03*
Y46345D02*
D03*
X10264Y45495D02*
D03*
Y46345D02*
D03*
X11062Y45495D02*
D03*
Y46345D02*
D03*
X11859Y45495D02*
D03*
Y46345D02*
D03*
X12666Y45495D02*
D03*
Y46345D02*
D03*
X13463Y45495D02*
D03*
Y46345D02*
D03*
X16720Y29470D02*
D03*
Y30320D02*
D03*
D49*
X7230Y22370D02*
D03*
X6380D02*
D03*
X7230Y21560D02*
D03*
X6380D02*
D03*
X7240Y20730D02*
D03*
X6390D02*
D03*
X7240Y19920D02*
D03*
X6390D02*
D03*
X7230Y19090D02*
D03*
X6380D02*
D03*
X7227Y18255D02*
D03*
X6377D02*
D03*
X7250Y17420D02*
D03*
X6400D02*
D03*
X7234Y5932D02*
D03*
X6384D02*
D03*
X7234Y6749D02*
D03*
X6384D02*
D03*
X7234Y7575D02*
D03*
X6384D02*
D03*
X7234Y8392D02*
D03*
X6384D02*
D03*
X6381Y10863D02*
D03*
X7231D02*
D03*
X7234Y9219D02*
D03*
X6384D02*
D03*
X7234Y10036D02*
D03*
X6384D02*
D03*
X8430Y32590D02*
D03*
X7580D02*
D03*
X8420Y31700D02*
D03*
X7570D02*
D03*
X11920Y36630D02*
D03*
X12770D02*
D03*
X19845Y32920D02*
D03*
X20695D02*
D03*
X18265Y32910D02*
D03*
X19115D02*
D03*
X16845Y31990D02*
D03*
X17695D02*
D03*
D50*
X9270Y17410D02*
D03*
Y17910D02*
D03*
Y20910D02*
D03*
X11770Y17910D02*
D03*
Y18410D02*
D03*
Y18910D02*
D03*
Y19410D02*
D03*
Y19910D02*
D03*
Y20410D02*
D03*
Y20910D02*
D03*
X9270Y20410D02*
D03*
Y19910D02*
D03*
Y19410D02*
D03*
Y18910D02*
D03*
Y18410D02*
D03*
X9390Y5917D02*
D03*
Y6417D02*
D03*
Y9417D02*
D03*
X11890Y6417D02*
D03*
Y6917D02*
D03*
Y7417D02*
D03*
Y7917D02*
D03*
Y8417D02*
D03*
Y8917D02*
D03*
Y9417D02*
D03*
X9390Y8917D02*
D03*
Y8417D02*
D03*
Y7917D02*
D03*
Y7417D02*
D03*
Y6917D02*
D03*
D51*
X11770Y17410D02*
D03*
X11890Y5917D02*
D03*
D52*
X22590Y9817D02*
D03*
Y11817D02*
D03*
X24430Y9817D02*
D03*
Y11817D02*
D03*
D53*
X22559Y6615D02*
D03*
X24440D02*
D03*
D54*
X22559Y8504D02*
D03*
X24440D02*
D03*
D55*
X13251Y27669D02*
D03*
X12649Y28271D02*
D03*
D56*
X13080Y34460D02*
D03*
X13400D02*
D03*
X13710Y34460D02*
D03*
X14030Y34460D02*
D03*
X11200D02*
D03*
X11510Y34460D02*
D03*
X11830Y34460D02*
D03*
X12140D02*
D03*
X12460D02*
D03*
X12770D02*
D03*
X14340D02*
D03*
Y29560D02*
D03*
X14030D02*
D03*
X13710D02*
D03*
X13400D02*
D03*
X13080Y29560D02*
D03*
X12770Y29560D02*
D03*
X12460D02*
D03*
X12140D02*
D03*
X11830D02*
D03*
X11510Y29560D02*
D03*
X11200Y29560D02*
D03*
D57*
X10320Y30440D02*
D03*
Y30750D02*
D03*
Y31070D02*
D03*
X10320Y31380D02*
D03*
X10320Y31700D02*
D03*
Y32010D02*
D03*
Y32320D02*
D03*
Y32640D02*
D03*
Y32950D02*
D03*
Y33270D02*
D03*
X10320Y33580D02*
D03*
X15220D02*
D03*
X15220Y33270D02*
D03*
X15220Y32950D02*
D03*
Y32640D02*
D03*
X15220Y32320D02*
D03*
X15220Y32010D02*
D03*
Y31700D02*
D03*
Y31380D02*
D03*
Y31070D02*
D03*
Y30750D02*
D03*
Y30440D02*
D03*
D58*
X8670Y43400D02*
D03*
X9170D02*
D03*
X12170D02*
D03*
X9170Y40900D02*
D03*
X9670D02*
D03*
X10170D02*
D03*
X10670D02*
D03*
X11170D02*
D03*
X11670D02*
D03*
X12170D02*
D03*
X11670Y43400D02*
D03*
X11170D02*
D03*
X10670D02*
D03*
X10170D02*
D03*
X9670D02*
D03*
D59*
X8670Y40900D02*
D03*
D60*
X25360Y15780D02*
D03*
X24860D02*
D03*
X24360D02*
D03*
X23860D02*
D03*
Y17980D02*
D03*
X24360D02*
D03*
X24860D02*
D03*
X25360D02*
D03*
D61*
X20488Y37197D02*
D03*
Y39953D02*
D03*
X17732D02*
D03*
Y37197D02*
D03*
X20488Y39034D02*
D03*
Y38115D02*
D03*
X17732D02*
D03*
Y39034D02*
D03*
X20488Y42492D02*
D03*
Y45248D02*
D03*
X17732D02*
D03*
Y42492D02*
D03*
X20488Y44329D02*
D03*
Y43411D02*
D03*
X17732D02*
D03*
Y44329D02*
D03*
X1102Y4255D02*
D03*
Y3336D02*
D03*
X3858D02*
D03*
Y4255D02*
D03*
Y2417D02*
D03*
Y5173D02*
D03*
X1102D02*
D03*
Y2417D02*
D03*
Y9416D02*
D03*
Y8497D02*
D03*
X3858D02*
D03*
Y9416D02*
D03*
Y7579D02*
D03*
Y10335D02*
D03*
X1102D02*
D03*
Y7579D02*
D03*
Y14577D02*
D03*
Y13659D02*
D03*
X3858D02*
D03*
Y14577D02*
D03*
Y12740D02*
D03*
Y15496D02*
D03*
X1102D02*
D03*
Y12740D02*
D03*
X20488Y28224D02*
D03*
Y30980D02*
D03*
X17732D02*
D03*
Y28224D02*
D03*
X20488Y30062D02*
D03*
Y29143D02*
D03*
X17732D02*
D03*
Y30062D02*
D03*
X708Y50886D02*
D03*
X4252D02*
D03*
X11429D02*
D03*
X7886D02*
D03*
X16484D02*
D03*
X20027D02*
D03*
X27194D02*
D03*
X23651D02*
D03*
X1102Y56122D02*
D03*
Y58878D02*
D03*
X3858D02*
D03*
Y56122D02*
D03*
X1102Y57959D02*
D03*
Y57041D02*
D03*
X3858D02*
D03*
Y57959D02*
D03*
X11035Y56122D02*
D03*
Y58878D02*
D03*
X8279D02*
D03*
Y56122D02*
D03*
Y57959D02*
D03*
Y57041D02*
D03*
X11035D02*
D03*
Y57959D02*
D03*
X16878Y56122D02*
D03*
Y58878D02*
D03*
X19634D02*
D03*
Y56122D02*
D03*
X16878Y57959D02*
D03*
Y57041D02*
D03*
X19634D02*
D03*
Y57959D02*
D03*
X26811Y56122D02*
D03*
Y58878D02*
D03*
X24055D02*
D03*
Y56122D02*
D03*
X26811Y57959D02*
D03*
Y57041D02*
D03*
X24055D02*
D03*
Y57959D02*
D03*
X1102Y42492D02*
D03*
Y45248D02*
D03*
X3858D02*
D03*
Y42492D02*
D03*
X1102Y44329D02*
D03*
Y43411D02*
D03*
X3858D02*
D03*
Y44329D02*
D03*
X1102Y37197D02*
D03*
Y39953D02*
D03*
X3858D02*
D03*
Y37197D02*
D03*
X1102Y39034D02*
D03*
Y38115D02*
D03*
X3858D02*
D03*
Y39034D02*
D03*
X1102Y28224D02*
D03*
Y30980D02*
D03*
X3858D02*
D03*
Y28224D02*
D03*
X1102Y30062D02*
D03*
Y29143D02*
D03*
X3858D02*
D03*
Y30062D02*
D03*
X1102Y24900D02*
D03*
Y23982D02*
D03*
X3858D02*
D03*
Y24900D02*
D03*
Y23063D02*
D03*
Y25819D02*
D03*
X1102D02*
D03*
Y23063D02*
D03*
Y19739D02*
D03*
Y18820D02*
D03*
X3858D02*
D03*
Y19739D02*
D03*
Y17902D02*
D03*
Y20657D02*
D03*
X1102D02*
D03*
Y17902D02*
D03*
X20488Y4255D02*
D03*
Y3336D02*
D03*
X17732D02*
D03*
Y4255D02*
D03*
Y2417D02*
D03*
Y5173D02*
D03*
X20488D02*
D03*
Y2417D02*
D03*
X20478Y7502D02*
D03*
Y10258D02*
D03*
X17722D02*
D03*
Y7502D02*
D03*
X20478Y9339D02*
D03*
Y8421D02*
D03*
X17722D02*
D03*
Y9339D02*
D03*
X20488Y14577D02*
D03*
Y13659D02*
D03*
X17732D02*
D03*
Y14577D02*
D03*
Y12740D02*
D03*
Y15496D02*
D03*
X20488D02*
D03*
Y12740D02*
D03*
Y17902D02*
D03*
Y20657D02*
D03*
X17732D02*
D03*
Y17902D02*
D03*
X20488Y19739D02*
D03*
Y18820D02*
D03*
X17732D02*
D03*
Y19739D02*
D03*
X20488Y24900D02*
D03*
Y23982D02*
D03*
X17732D02*
D03*
Y24900D02*
D03*
Y23063D02*
D03*
Y25819D02*
D03*
X20488D02*
D03*
Y23063D02*
D03*
D62*
X26760Y26730D02*
D03*
Y27730D02*
D03*
X26760Y28730D02*
D03*
Y29730D02*
D03*
Y30730D02*
D03*
D63*
X27760Y26730D02*
D03*
Y27730D02*
D03*
Y28730D02*
D03*
X27760Y29730D02*
D03*
X27760Y30730D02*
D03*
D64*
X18380Y34310D02*
D03*
X20380D02*
D03*
D65*
X8583Y13343D02*
D03*
X11383D02*
D03*
D66*
X26800Y9610D02*
D03*
Y7610D02*
D03*
Y6610D02*
D03*
Y8610D02*
D03*
D67*
X28890Y14310D02*
D03*
X26890D02*
D03*
X13510Y25780D02*
D03*
X12510D02*
D03*
D68*
X1480Y53286D02*
D03*
X1480Y48486D02*
D03*
X3480Y53286D02*
D03*
Y48486D02*
D03*
X10657D02*
D03*
X10657Y53286D02*
D03*
X8657Y48486D02*
D03*
Y53286D02*
D03*
X17256D02*
D03*
X17256Y48486D02*
D03*
X19256Y53286D02*
D03*
Y48486D02*
D03*
X26423D02*
D03*
X26423Y53286D02*
D03*
X24423Y48486D02*
D03*
Y53286D02*
D03*
D69*
X12470Y59020D02*
D03*
X13320D02*
D03*
X27900Y57850D02*
D03*
X27910Y57130D02*
D03*
M02*
