%FSLAX24Y24*%
%MOIN*%
G70*
G01*
G75*
G04 Layer_Physical_Order=1*
G04 Layer_Color=255*
%ADD10C,0.0394*%
%ADD11R,0.0500X0.0400*%
%ADD12R,0.0400X0.0500*%
%ADD13O,0.0800X0.0300*%
%ADD14R,0.0800X0.0300*%
%ADD15R,0.1339X0.0700*%
%ADD16R,0.1339X0.0472*%
%ADD17R,0.1339X0.0472*%
G04:AMPARAMS|DCode=18|XSize=40mil|YSize=50mil|CornerRadius=0mil|HoleSize=0mil|Usage=FLASHONLY|Rotation=135.000|XOffset=0mil|YOffset=0mil|HoleType=Round|Shape=Rectangle|*
%AMROTATEDRECTD18*
4,1,4,0.0318,0.0035,-0.0035,-0.0318,-0.0318,-0.0035,0.0035,0.0318,0.0318,0.0035,0.0*
%
%ADD18ROTATEDRECTD18*%

%ADD19O,0.0160X0.1000*%
%ADD20O,0.1000X0.0160*%
%ADD21O,0.0300X0.0800*%
%ADD22R,0.0300X0.0800*%
%ADD23O,0.0240X0.0800*%
%ADD24C,0.0300*%
%ADD25C,0.0150*%
%ADD26C,0.0120*%
%ADD27C,0.0200*%
%ADD28C,0.0050*%
%ADD29C,0.0100*%
%ADD30C,0.0650*%
%ADD31C,0.0709*%
%ADD32O,0.0709X0.0550*%
%ADD33C,0.0500*%
%ADD34C,0.0591*%
%ADD35C,0.0787*%
%ADD36C,0.0787*%
%ADD37O,0.0980X0.1020*%
%ADD38C,0.0600*%
%ADD39C,0.0250*%
G36*
X28486Y15222D02*
Y14876D01*
X28397Y14803D01*
X28310Y14697D01*
X28246Y14577D01*
X28206Y14446D01*
X28193Y14310D01*
X28206Y14174D01*
X28246Y14043D01*
X28310Y13923D01*
X28397Y13817D01*
X28486Y13744D01*
Y9218D01*
X28332Y9064D01*
X27325D01*
X27293Y9103D01*
X27187Y9190D01*
X27155Y9207D01*
X27151Y9257D01*
X27152Y9258D01*
X27231Y9361D01*
X27281Y9481D01*
X27291Y9560D01*
X26309D01*
X26319Y9481D01*
X26369Y9361D01*
X26448Y9258D01*
X26449Y9257D01*
X26445Y9207D01*
X26413Y9190D01*
X26307Y9103D01*
X26220Y8997D01*
X26156Y8877D01*
X26116Y8746D01*
X26103Y8610D01*
X26116Y8474D01*
X26156Y8343D01*
X26220Y8223D01*
X26307Y8117D01*
Y8103D01*
X26275Y8064D01*
X25409D01*
Y9041D01*
X24893D01*
Y9167D01*
X25399D01*
Y10467D01*
X23938D01*
Y11367D01*
X24380D01*
Y11817D01*
Y12267D01*
X23938D01*
Y12940D01*
X24110D01*
Y13062D01*
X24300D01*
Y12940D01*
X25400D01*
Y13140D01*
X25680D01*
Y13440D01*
Y13740D01*
X25400D01*
Y13790D01*
X26280D01*
Y14790D01*
X25285D01*
X25257Y14832D01*
X25264Y14849D01*
X25279Y14960D01*
X25267Y15049D01*
X25302Y15084D01*
X25360Y15076D01*
X25470Y15091D01*
X25572Y15133D01*
X25660Y15200D01*
X25727Y15288D01*
X25743Y15326D01*
X28382D01*
X28486Y15222D01*
D02*
G37*
G36*
X23336Y30840D02*
Y30078D01*
X22855Y29597D01*
X20973D01*
X20952Y29642D01*
X21010Y29713D01*
X21068Y29821D01*
X21104Y29939D01*
X21116Y30062D01*
X21104Y30184D01*
X21068Y30302D01*
X21010Y30411D01*
X20936Y30501D01*
X20945Y30522D01*
X20965Y30547D01*
X22810D01*
X22810Y30547D01*
X22914Y30560D01*
X23012Y30601D01*
X23095Y30665D01*
X23290Y30859D01*
X23336Y30840D01*
D02*
G37*
G36*
X13301Y33670D02*
X13400Y33657D01*
X13499Y33670D01*
X13555Y33693D01*
X13611Y33670D01*
X13710Y33657D01*
X13809Y33670D01*
X13870Y33695D01*
X13931Y33670D01*
X14030Y33657D01*
X14129Y33670D01*
X14185Y33693D01*
X14241Y33670D01*
X14340Y33657D01*
X14388Y33663D01*
X14423Y33628D01*
X14417Y33580D01*
X14430Y33481D01*
X14453Y33425D01*
X14430Y33369D01*
X14417Y33270D01*
X14430Y33171D01*
X14455Y33110D01*
X14430Y33049D01*
X14417Y32950D01*
X14430Y32851D01*
X14453Y32795D01*
X14430Y32739D01*
X14417Y32640D01*
X14430Y32541D01*
X14455Y32480D01*
X14430Y32419D01*
X14417Y32320D01*
X14430Y32221D01*
X14468Y32128D01*
X14475Y32120D01*
X14455Y32074D01*
X14392Y32065D01*
X14301Y32028D01*
X14223Y31967D01*
X13973Y31717D01*
X13912Y31639D01*
X13875Y31548D01*
X13862Y31450D01*
Y30658D01*
X12460D01*
X12460Y30658D01*
X11468D01*
Y33322D01*
X12760D01*
X12858Y33335D01*
X12949Y33372D01*
X13027Y33433D01*
X13088Y33511D01*
X13125Y33602D01*
X13133Y33664D01*
X13179Y33670D01*
X13240Y33695D01*
X13301Y33670D01*
D02*
G37*
G36*
X26367Y55678D02*
X26462Y55600D01*
X26570Y55542D01*
X26688Y55506D01*
X26706Y55504D01*
X26725Y55458D01*
X26713Y55444D01*
X26587Y55256D01*
X26487Y55053D01*
X26414Y54838D01*
X26370Y54616D01*
X26355Y54390D01*
X26370Y54164D01*
X26414Y53942D01*
X26415Y53937D01*
X26388Y53895D01*
X26307Y53887D01*
X26196Y53854D01*
X26093Y53799D01*
X26004Y53725D01*
X25930Y53635D01*
X25875Y53533D01*
X25841Y53421D01*
X25833Y53336D01*
X26423D01*
Y53286D01*
X26473D01*
Y52678D01*
X26538Y52684D01*
X26650Y52718D01*
X26752Y52773D01*
X26842Y52847D01*
X26916Y52936D01*
X26963Y53025D01*
X27012Y53034D01*
X27032Y53016D01*
X27221Y52890D01*
X27424Y52790D01*
X27638Y52717D01*
X27861Y52673D01*
X28087Y52658D01*
X28313Y52673D01*
X28535Y52717D01*
X28749Y52790D01*
X28952Y52890D01*
X29141Y53016D01*
X29154Y53028D01*
X29200Y53007D01*
Y25917D01*
X29154Y25898D01*
X28891Y26161D01*
X28797Y26233D01*
X28752Y26252D01*
X28687Y26278D01*
X28570Y26294D01*
X28298D01*
X28259Y26333D01*
X28342Y26440D01*
X28400Y26580D01*
X28419Y26730D01*
X28400Y26880D01*
X28342Y27020D01*
X28249Y27140D01*
X28129Y27232D01*
X27989Y27290D01*
X27870Y27306D01*
Y27356D01*
X27937Y27365D01*
X28028Y27402D01*
X28107Y27463D01*
X28167Y27541D01*
X28205Y27632D01*
X28211Y27680D01*
X27760D01*
Y27730D01*
X27710D01*
Y28108D01*
X27681D01*
X27583Y28095D01*
X27492Y28058D01*
X27413Y27997D01*
X27409Y27992D01*
X27359Y27996D01*
X27307Y28095D01*
X27225Y28195D01*
X27213Y28205D01*
Y28255D01*
X27225Y28265D01*
X27307Y28365D01*
X27359Y28464D01*
X27409Y28468D01*
X27413Y28463D01*
X27492Y28402D01*
X27583Y28365D01*
X27681Y28352D01*
X27710D01*
Y28730D01*
Y29108D01*
X27681D01*
X27583Y29095D01*
X27492Y29058D01*
X27413Y28997D01*
X27409Y28992D01*
X27359Y28996D01*
X27307Y29095D01*
X27225Y29195D01*
X27213Y29205D01*
Y29255D01*
X27225Y29265D01*
X27307Y29365D01*
X27359Y29464D01*
X27409Y29468D01*
X27413Y29463D01*
X27492Y29402D01*
X27583Y29365D01*
X27681Y29352D01*
X27710D01*
Y29730D01*
Y30108D01*
X27681D01*
X27583Y30095D01*
X27492Y30058D01*
X27413Y29997D01*
X27409Y29992D01*
X27359Y29996D01*
X27307Y30095D01*
X27225Y30195D01*
X27213Y30205D01*
Y30255D01*
X27225Y30265D01*
X27307Y30365D01*
X27359Y30464D01*
X27409Y30468D01*
X27413Y30463D01*
X27492Y30402D01*
X27583Y30365D01*
X27681Y30352D01*
X27710D01*
Y30730D01*
Y31108D01*
X27681D01*
X27583Y31095D01*
X27492Y31058D01*
X27413Y30997D01*
X27409Y30992D01*
X27359Y30996D01*
X27307Y31095D01*
X27225Y31195D01*
X27125Y31277D01*
X27012Y31337D01*
X26888Y31375D01*
X26760Y31388D01*
X26632Y31375D01*
X26508Y31337D01*
X26395Y31277D01*
X26295Y31195D01*
X26213Y31095D01*
X26176Y31025D01*
X26127Y31015D01*
X26102Y31034D01*
X26014Y31071D01*
X25920Y31083D01*
X25826Y31071D01*
X25738Y31034D01*
X25663Y30977D01*
X25606Y30902D01*
X25569Y30814D01*
X25557Y30720D01*
Y30125D01*
X25519Y30092D01*
X25490Y30096D01*
X25379Y30082D01*
X25276Y30039D01*
X25187Y29971D01*
X25119Y29882D01*
X25076Y29778D01*
X25061Y29667D01*
X25076Y29557D01*
X25119Y29453D01*
X25127Y29443D01*
Y29189D01*
X25089Y29184D01*
X24986Y29141D01*
X24897Y29073D01*
X24829Y28984D01*
X24786Y28881D01*
X24771Y28770D01*
X24786Y28659D01*
X24829Y28556D01*
X24837Y28545D01*
Y27840D01*
X24740Y27743D01*
X20960D01*
X20939Y27788D01*
X21010Y27875D01*
X21068Y27984D01*
X21104Y28102D01*
X21116Y28224D01*
X21104Y28347D01*
X21068Y28465D01*
X21010Y28573D01*
X20952Y28644D01*
X20973Y28689D01*
X23043D01*
X23161Y28705D01*
X23225Y28731D01*
X23270Y28750D01*
X23364Y28822D01*
X23364Y28822D01*
X23364Y28822D01*
X24111Y29569D01*
X24111Y29569D01*
X24111Y29569D01*
X24183Y29663D01*
X24228Y29773D01*
X24244Y29890D01*
Y37540D01*
X24228Y37657D01*
X24183Y37767D01*
X24111Y37861D01*
X23535Y38436D01*
X23441Y38509D01*
X23332Y38554D01*
X23215Y38569D01*
X20973D01*
X20952Y38615D01*
X21010Y38685D01*
X21068Y38794D01*
X21104Y38912D01*
X21116Y39034D01*
X21104Y39157D01*
X21068Y39274D01*
X21010Y39383D01*
X20932Y39478D01*
Y39509D01*
X21010Y39604D01*
X21068Y39712D01*
X21104Y39830D01*
X21116Y39953D01*
X21104Y40075D01*
X21068Y40193D01*
X21010Y40302D01*
X20932Y40397D01*
X20837Y40475D01*
X20728Y40533D01*
X20610Y40569D01*
X20488Y40581D01*
X20365Y40569D01*
X20248Y40533D01*
X20139Y40475D01*
X20044Y40397D01*
X20010Y40356D01*
X18209D01*
X18176Y40397D01*
X18081Y40475D01*
X17972Y40533D01*
X17854Y40569D01*
X17732Y40581D01*
X17609Y40569D01*
X17492Y40533D01*
X17383Y40475D01*
X17289Y40397D01*
X17285Y40399D01*
X17243Y40433D01*
Y42026D01*
X17289Y42047D01*
X17383Y41970D01*
X17492Y41912D01*
X17609Y41876D01*
X17732Y41864D01*
X17854Y41876D01*
X17972Y41912D01*
X18081Y41970D01*
X18176Y42048D01*
X18209Y42089D01*
X20010D01*
X20044Y42048D01*
X20139Y41970D01*
X20248Y41912D01*
X20365Y41876D01*
X20488Y41864D01*
X20610Y41876D01*
X20728Y41912D01*
X20837Y41970D01*
X20932Y42048D01*
X21010Y42143D01*
X21068Y42252D01*
X21104Y42370D01*
X21116Y42492D01*
X21104Y42615D01*
X21068Y42732D01*
X21010Y42841D01*
X20932Y42936D01*
Y42967D01*
X21010Y43062D01*
X21068Y43170D01*
X21104Y43288D01*
X21116Y43411D01*
X21104Y43533D01*
X21068Y43651D01*
X21010Y43760D01*
X20932Y43855D01*
Y43885D01*
X21010Y43980D01*
X21068Y44089D01*
X21104Y44207D01*
X21116Y44329D01*
X21104Y44452D01*
X21068Y44570D01*
X21010Y44678D01*
X20932Y44773D01*
Y44804D01*
X21010Y44899D01*
X21068Y45008D01*
X21104Y45126D01*
X21116Y45248D01*
X21104Y45371D01*
X21068Y45488D01*
X21016Y45587D01*
X21048Y45625D01*
X21205Y45571D01*
X21428Y45527D01*
X21654Y45512D01*
X21880Y45527D01*
X22102Y45571D01*
X22316Y45644D01*
X22519Y45744D01*
X22708Y45870D01*
X22878Y46020D01*
X23027Y46190D01*
X23153Y46378D01*
X23253Y46581D01*
X23326Y46796D01*
X23370Y47018D01*
X23385Y47244D01*
X23370Y47470D01*
X23326Y47692D01*
X23253Y47907D01*
X23153Y48110D01*
X23027Y48298D01*
X22878Y48469D01*
X22708Y48618D01*
X22519Y48744D01*
X22316Y48844D01*
X22102Y48917D01*
X21880Y48961D01*
X21654Y48976D01*
X21428Y48961D01*
X21205Y48917D01*
X20991Y48844D01*
X20788Y48744D01*
X20599Y48618D01*
X20429Y48469D01*
X20280Y48298D01*
X20154Y48110D01*
X20054Y47907D01*
X19981Y47692D01*
X19937Y47470D01*
X19922Y47244D01*
X19937Y47018D01*
X19981Y46796D01*
X20054Y46581D01*
X20154Y46378D01*
X20280Y46190D01*
X20429Y46020D01*
X20545Y45918D01*
X20525Y45872D01*
X20488Y45876D01*
X20365Y45864D01*
X20248Y45828D01*
X20139Y45770D01*
X20044Y45692D01*
X20010Y45651D01*
X18860D01*
X18860Y45651D01*
X18860Y45651D01*
X18209D01*
X18176Y45692D01*
X18135Y45725D01*
Y47248D01*
X18135Y47248D01*
X18122Y47352D01*
X18081Y47450D01*
X18017Y47533D01*
X18017Y47533D01*
X17607Y47943D01*
X17610Y47993D01*
X17675Y48047D01*
X17749Y48136D01*
X17803Y48239D01*
X17837Y48350D01*
X17845Y48436D01*
X16666D01*
X16674Y48350D01*
X16708Y48239D01*
X16747Y48166D01*
X16721Y48123D01*
X12509D01*
X12490Y48170D01*
X12515Y48195D01*
X12579Y48278D01*
X12620Y48376D01*
X12633Y48480D01*
Y54373D01*
X12937Y54677D01*
X23790D01*
X23790Y54677D01*
X23894Y54690D01*
X23992Y54731D01*
X24075Y54795D01*
X24340Y55060D01*
X24340Y55060D01*
X24404Y55143D01*
X24444Y55240D01*
X24444Y55240D01*
X24444Y55240D01*
Y55240D01*
X24458Y55345D01*
X24458Y55345D01*
Y55645D01*
X24499Y55678D01*
X24532Y55719D01*
X26333D01*
X26367Y55678D01*
D02*
G37*
G36*
X8793Y17017D02*
X8903Y16972D01*
X9020Y16956D01*
X9520D01*
X9637Y16972D01*
X9715Y17004D01*
X9757Y16976D01*
Y13747D01*
X9533D01*
X9428Y13733D01*
X9331Y13693D01*
X9248Y13629D01*
X9184Y13565D01*
X9135Y13573D01*
X9080Y13676D01*
X9006Y13766D01*
X8915Y13841D01*
X8811Y13896D01*
X8699Y13930D01*
X8583Y13941D01*
X8466Y13930D01*
X8354Y13896D01*
X8250Y13841D01*
X8160Y13766D01*
X8144Y13747D01*
X6603D01*
X6603Y13747D01*
X6499Y13733D01*
X6402Y13693D01*
X6318Y13629D01*
X6318Y13629D01*
X6190Y13500D01*
X6143Y13519D01*
Y16870D01*
X7750D01*
Y17042D01*
X8761D01*
X8793Y17017D01*
D02*
G37*
G36*
X23169Y26021D02*
X22502Y25354D01*
X20973D01*
X20952Y25399D01*
X21010Y25470D01*
X21068Y25579D01*
X21104Y25696D01*
X21116Y25819D01*
X21104Y25941D01*
X21078Y26027D01*
X21108Y26067D01*
X23150D01*
X23169Y26021D01*
D02*
G37*
G36*
X11918Y26636D02*
X12006Y26599D01*
X12100Y26587D01*
X13820D01*
X13947Y26460D01*
Y26377D01*
X13902Y26356D01*
X13897Y26360D01*
X13777Y26424D01*
X13646Y26464D01*
X13510Y26477D01*
X13374Y26464D01*
X13243Y26424D01*
X13123Y26360D01*
X13017Y26273D01*
X12930Y26167D01*
X12913Y26135D01*
X12863Y26131D01*
X12862Y26132D01*
X12759Y26211D01*
X12639Y26261D01*
X12560Y26271D01*
Y25780D01*
X12510D01*
Y25730D01*
X12019D01*
X12029Y25651D01*
X12079Y25531D01*
X12158Y25428D01*
X12261Y25349D01*
X12325Y25322D01*
X12315Y25273D01*
X11880D01*
X11873Y25280D01*
Y26614D01*
X11918Y26636D01*
X11918Y26636D01*
D02*
G37*
G36*
X885Y59465D02*
X862Y59458D01*
X753Y59400D01*
X658Y59322D01*
X580Y59227D01*
X522Y59118D01*
X486Y59000D01*
X474Y58878D01*
X486Y58755D01*
X522Y58638D01*
X580Y58529D01*
X658Y58434D01*
Y58403D01*
X580Y58308D01*
X522Y58200D01*
X486Y58082D01*
X474Y57959D01*
X486Y57837D01*
X522Y57719D01*
X580Y57610D01*
X658Y57515D01*
Y57485D01*
X580Y57390D01*
X522Y57281D01*
X486Y57163D01*
X474Y57041D01*
X486Y56918D01*
X522Y56800D01*
X580Y56692D01*
X658Y56597D01*
Y56566D01*
X580Y56471D01*
X522Y56362D01*
X486Y56245D01*
X474Y56122D01*
X486Y56000D01*
X522Y55882D01*
X580Y55773D01*
X658Y55678D01*
X753Y55600D01*
X862Y55542D01*
X980Y55506D01*
X1102Y55494D01*
X1225Y55506D01*
X1342Y55542D01*
X1451Y55600D01*
X1546Y55678D01*
X1579Y55719D01*
X3381D01*
X3414Y55678D01*
X3437Y55659D01*
Y54760D01*
X3437Y54760D01*
X3450Y54656D01*
X3491Y54558D01*
X3555Y54475D01*
X3855Y54175D01*
X3938Y54111D01*
X4036Y54070D01*
X4140Y54057D01*
X5167D01*
Y50270D01*
X5167Y50270D01*
X5180Y50166D01*
X5221Y50068D01*
X5285Y49985D01*
X6292Y48978D01*
X6268Y48934D01*
X6132Y48961D01*
X5906Y48976D01*
X5679Y48961D01*
X5457Y48917D01*
X5243Y48844D01*
X5040Y48744D01*
X4851Y48618D01*
X4681Y48469D01*
X4532Y48298D01*
X4406Y48110D01*
X4306Y47907D01*
X4233Y47692D01*
X4189Y47470D01*
X4174Y47244D01*
X4189Y47018D01*
X4233Y46796D01*
X4306Y46581D01*
X4406Y46378D01*
X4532Y46190D01*
X4681Y46020D01*
X4851Y45870D01*
X5040Y45744D01*
X5243Y45644D01*
X5457Y45571D01*
X5679Y45527D01*
X5906Y45512D01*
X6132Y45527D01*
X6354Y45571D01*
X6568Y45644D01*
X6771Y45744D01*
X6960Y45870D01*
X7130Y46020D01*
X7279Y46190D01*
X7405Y46378D01*
X7505Y46581D01*
X7578Y46796D01*
X7622Y47018D01*
X7637Y47244D01*
X7622Y47470D01*
X7595Y47607D01*
X7639Y47630D01*
X8266Y47003D01*
Y46845D01*
X8120D01*
Y45845D01*
Y44995D01*
X8307D01*
Y43916D01*
X8277Y43877D01*
X8232Y43767D01*
X8216Y43650D01*
Y43150D01*
X8232Y43033D01*
X8206Y42994D01*
X7578D01*
X6840Y43732D01*
X6746Y43804D01*
X6637Y43849D01*
X6519Y43865D01*
X4344D01*
X4322Y43910D01*
X4380Y43980D01*
X4438Y44089D01*
X4474Y44207D01*
X4486Y44329D01*
X4474Y44452D01*
X4438Y44570D01*
X4380Y44678D01*
X4302Y44773D01*
Y44804D01*
X4380Y44899D01*
X4438Y45008D01*
X4474Y45126D01*
X4486Y45248D01*
X4474Y45371D01*
X4438Y45488D01*
X4380Y45597D01*
X4302Y45692D01*
X4207Y45770D01*
X4098Y45828D01*
X3980Y45864D01*
X3858Y45876D01*
X3735Y45864D01*
X3618Y45828D01*
X3509Y45770D01*
X3414Y45692D01*
X3336Y45597D01*
X3278Y45488D01*
X3242Y45371D01*
X3230Y45248D01*
X3242Y45126D01*
X3278Y45008D01*
X3336Y44899D01*
X3414Y44804D01*
Y44773D01*
X3336Y44678D01*
X3278Y44570D01*
X3242Y44452D01*
X3230Y44329D01*
X3242Y44207D01*
X3278Y44089D01*
X3336Y43980D01*
X3414Y43885D01*
Y43855D01*
X3336Y43760D01*
X3278Y43651D01*
X3242Y43533D01*
X3230Y43411D01*
X3242Y43288D01*
X3278Y43170D01*
X3336Y43062D01*
X3414Y42967D01*
Y42936D01*
X3336Y42841D01*
X3278Y42732D01*
X3242Y42615D01*
X3230Y42492D01*
X3242Y42370D01*
X3278Y42252D01*
X3336Y42143D01*
X3414Y42048D01*
X3509Y41970D01*
X3618Y41912D01*
X3735Y41876D01*
X3858Y41864D01*
X3980Y41876D01*
X4098Y41912D01*
X4207Y41970D01*
X4302Y42048D01*
X4380Y42143D01*
X4438Y42252D01*
X4474Y42370D01*
X4486Y42492D01*
X4474Y42615D01*
X4438Y42732D01*
X4380Y42841D01*
X4322Y42912D01*
X4344Y42957D01*
X6331D01*
X7069Y42219D01*
X7069D01*
X7069Y42219D01*
X7069Y42219D01*
Y42219D01*
X7163Y42147D01*
X7273Y42102D01*
X7390Y42086D01*
X11720D01*
X11837Y42102D01*
X11902Y42128D01*
X11947Y42147D01*
X12041Y42219D01*
X12041Y42219D01*
X12041Y42219D01*
X12491Y42669D01*
X12491Y42669D01*
X12491Y42669D01*
X12563Y42763D01*
X12608Y42873D01*
X12624Y42990D01*
Y43400D01*
Y43650D01*
X12608Y43767D01*
X12563Y43877D01*
X12491Y43971D01*
X12441Y44010D01*
X12457Y44057D01*
X13330D01*
X13424Y44069D01*
X13512Y44106D01*
X13587Y44163D01*
X13587Y44163D01*
X13587Y44163D01*
X13720Y44296D01*
X13720Y44296D01*
X13720Y44296D01*
X13778Y44372D01*
X13788Y44397D01*
X13814Y44459D01*
X13826Y44553D01*
X13826Y44553D01*
Y44995D01*
X14013D01*
Y45845D01*
Y45942D01*
X15728D01*
X16057Y45613D01*
Y36660D01*
X16057Y36660D01*
X16070Y36556D01*
X16111Y36458D01*
X16175Y36375D01*
X16745Y35805D01*
X16745Y35805D01*
X16828Y35741D01*
X16828Y35741D01*
X16828Y35741D01*
D01*
X16828Y35741D01*
X16828Y35741D01*
X16926Y35700D01*
X17030Y35687D01*
X17030Y35687D01*
X22363D01*
X22717Y35333D01*
Y31427D01*
X22643Y31353D01*
X20990D01*
X20932Y31424D01*
X20837Y31502D01*
X20728Y31561D01*
X20610Y31596D01*
X20488Y31608D01*
X20365Y31596D01*
X20248Y31561D01*
X20139Y31502D01*
X20044Y31424D01*
X20010Y31384D01*
X18209D01*
X18176Y31424D01*
X18081Y31502D01*
X17972Y31561D01*
X17873Y31591D01*
X17881Y31640D01*
X17995D01*
Y31940D01*
X17695D01*
Y32040D01*
X17995D01*
Y32087D01*
X20590D01*
X20684Y32099D01*
X20772Y32136D01*
X20847Y32193D01*
X20957Y32303D01*
X20957Y32303D01*
X21008Y32370D01*
X21195D01*
Y33470D01*
X20991D01*
X20952Y33522D01*
X20743Y33730D01*
Y33895D01*
X20772Y33918D01*
X20860Y34033D01*
X20916Y34166D01*
X20935Y34310D01*
X20916Y34454D01*
X20860Y34587D01*
X20772Y34702D01*
X20657Y34790D01*
X20524Y34846D01*
X20380Y34865D01*
X20236Y34846D01*
X20103Y34790D01*
X19988Y34702D01*
X19900Y34587D01*
X19844Y34454D01*
X19825Y34310D01*
X19844Y34166D01*
X19900Y34033D01*
X19988Y33918D01*
X20017Y33895D01*
Y33580D01*
X20029Y33486D01*
X20066Y33398D01*
X20123Y33323D01*
X20130Y33316D01*
X20111Y33270D01*
X19895D01*
Y32920D01*
X19845D01*
Y32870D01*
X19545D01*
Y32813D01*
X19415D01*
Y32860D01*
X18815D01*
Y32813D01*
X18765D01*
Y33460D01*
X18743D01*
Y33895D01*
X18772Y33918D01*
X18860Y34033D01*
X18916Y34166D01*
X18935Y34310D01*
X18916Y34454D01*
X18860Y34587D01*
X18772Y34702D01*
X18657Y34790D01*
X18524Y34846D01*
X18380Y34865D01*
X18236Y34846D01*
X18103Y34790D01*
X17988Y34702D01*
X17900Y34587D01*
X17844Y34454D01*
X17825Y34310D01*
X17844Y34166D01*
X17900Y34033D01*
X17988Y33918D01*
X18017Y33895D01*
Y33590D01*
X18008Y33582D01*
X17951Y33507D01*
X17931Y33460D01*
X17765D01*
Y33273D01*
X16622D01*
X16614Y33331D01*
X16571Y33434D01*
X16546Y33467D01*
X16584Y33559D01*
X16599Y33670D01*
X16584Y33781D01*
X16541Y33884D01*
X16518Y33915D01*
X16544Y33979D01*
X16559Y34090D01*
X16544Y34201D01*
X16501Y34304D01*
X16433Y34393D01*
X16344Y34461D01*
X16241Y34504D01*
X16130Y34519D01*
X16019Y34504D01*
X15916Y34461D01*
X15827Y34393D01*
X15759Y34304D01*
X15716Y34201D01*
X15714Y34188D01*
X15490Y33963D01*
X14800D01*
X14752Y33957D01*
X14717Y33992D01*
X14723Y34040D01*
Y34880D01*
X14710Y34979D01*
X14672Y35072D01*
X14611Y35151D01*
X14532Y35212D01*
X14439Y35250D01*
X14393Y35256D01*
Y36315D01*
X14401Y36326D01*
X14444Y36429D01*
X14459Y36540D01*
X14444Y36651D01*
X14401Y36754D01*
X14333Y36843D01*
X14244Y36911D01*
X14141Y36954D01*
X14030Y36969D01*
X13919Y36954D01*
X13816Y36911D01*
X13731Y36846D01*
X13703Y36883D01*
X13614Y36951D01*
X13511Y36994D01*
X13400Y37009D01*
X13308Y36997D01*
X13270Y37029D01*
Y37180D01*
X12270D01*
Y36080D01*
X12407D01*
Y35602D01*
X12361Y35583D01*
X12007Y35937D01*
X11932Y35994D01*
X11844Y36031D01*
X11750Y36043D01*
X10390D01*
X10353Y36080D01*
Y38450D01*
X10687Y38783D01*
X10687Y38783D01*
X10687Y38783D01*
X10720Y38826D01*
X11917Y40023D01*
X11917Y40023D01*
X11974Y40098D01*
X11985Y40124D01*
X12011Y40186D01*
X12023Y40280D01*
X12023Y40280D01*
Y40371D01*
X12062Y40422D01*
X12072Y40415D01*
X12120Y40405D01*
Y40620D01*
X12124Y40650D01*
Y40900D01*
Y41150D01*
X12120Y41180D01*
Y41395D01*
X12072Y41385D01*
X12062Y41378D01*
X11991Y41471D01*
X11897Y41543D01*
X11787Y41588D01*
X11670Y41604D01*
X11553Y41588D01*
X11443Y41543D01*
X11420Y41525D01*
X11397Y41543D01*
X11287Y41588D01*
X11170Y41604D01*
X11053Y41588D01*
X10943Y41543D01*
X10920Y41525D01*
X10897Y41543D01*
X10787Y41588D01*
X10670Y41604D01*
X10553Y41588D01*
X10443Y41543D01*
X10420Y41525D01*
X10397Y41543D01*
X10287Y41588D01*
X10170Y41604D01*
X10053Y41588D01*
X9943Y41543D01*
X9920Y41525D01*
X9897Y41543D01*
X9787Y41588D01*
X9670Y41604D01*
X9553Y41588D01*
X9443Y41543D01*
X9420Y41525D01*
X9397Y41543D01*
X9287Y41588D01*
X9170Y41604D01*
X9123Y41598D01*
X9120Y41600D01*
Y41600D01*
X8220D01*
Y40200D01*
X8307D01*
Y33751D01*
X8319Y33657D01*
X8356Y33570D01*
X8413Y33494D01*
X8721Y33186D01*
X8702Y33140D01*
X7930D01*
Y32250D01*
X7920Y32250D01*
D01*
X7915D01*
X7880Y32285D01*
Y32540D01*
X7630D01*
Y32240D01*
X7880D01*
Y32240D01*
X7885D01*
X7920Y32205D01*
Y31150D01*
X8447D01*
X8480Y31112D01*
X8477Y31091D01*
Y28660D01*
X8489Y28566D01*
X8526Y28478D01*
X8583Y28403D01*
X8583Y28403D01*
X8583Y28403D01*
D01*
X8583D01*
Y28403D01*
D01*
X8993Y27993D01*
X8993Y27993D01*
X9068Y27936D01*
X9105Y27921D01*
X9156Y27899D01*
X9250Y27887D01*
X9250Y27887D01*
X9670D01*
X9677Y27880D01*
Y23900D01*
X9689Y23806D01*
X9726Y23718D01*
X9783Y23643D01*
X9783Y23643D01*
X9783Y23643D01*
X10173Y23253D01*
X10248Y23196D01*
X10336Y23159D01*
X10430Y23147D01*
X12220D01*
X12407Y22960D01*
Y20773D01*
X12286D01*
X12248Y20802D01*
X12256Y20812D01*
X12265Y20860D01*
X12050D01*
X12020Y20864D01*
X11520D01*
X11490Y20860D01*
X11275D01*
X11285Y20812D01*
X11292Y20802D01*
X11199Y20731D01*
X11127Y20637D01*
X11082Y20527D01*
X11066Y20410D01*
X11082Y20293D01*
X11127Y20183D01*
X11145Y20160D01*
X11127Y20137D01*
X11082Y20027D01*
X11066Y19910D01*
X11082Y19793D01*
X11127Y19683D01*
X11145Y19660D01*
X11127Y19637D01*
X11082Y19527D01*
X11066Y19410D01*
X11082Y19293D01*
X11127Y19183D01*
X11145Y19160D01*
X11127Y19137D01*
X11082Y19027D01*
X11066Y18910D01*
X11082Y18793D01*
X11127Y18683D01*
X11145Y18660D01*
X11127Y18637D01*
X11082Y18527D01*
X11066Y18410D01*
X11082Y18293D01*
X11127Y18183D01*
X11145Y18160D01*
X11127Y18137D01*
X11082Y18027D01*
X11066Y17910D01*
X11072Y17863D01*
X11070Y17860D01*
X11070D01*
Y16960D01*
X12470D01*
Y17047D01*
X13860D01*
X13909Y17053D01*
X13947Y17020D01*
Y9420D01*
X13807Y9280D01*
X12406D01*
X12368Y9309D01*
X12375Y9320D01*
X12385Y9367D01*
X12169D01*
X12140Y9371D01*
X11640D01*
X11610Y9367D01*
X11395D01*
X11404Y9320D01*
X11411Y9309D01*
X11319Y9238D01*
X11247Y9144D01*
X11201Y9035D01*
X11186Y8917D01*
X11201Y8800D01*
X11247Y8690D01*
X11264Y8667D01*
X11247Y8644D01*
X11201Y8535D01*
X11186Y8417D01*
X11201Y8300D01*
X11247Y8190D01*
X11264Y8167D01*
X11247Y8144D01*
X11201Y8035D01*
X11186Y7917D01*
X11201Y7800D01*
X11247Y7690D01*
X11264Y7667D01*
X11247Y7644D01*
X11201Y7535D01*
X11186Y7417D01*
X11201Y7300D01*
X11247Y7190D01*
X11264Y7167D01*
X11247Y7144D01*
X11201Y7035D01*
X11186Y6917D01*
X11201Y6800D01*
X11247Y6690D01*
X11264Y6667D01*
X11247Y6644D01*
X11201Y6535D01*
X11186Y6417D01*
X11192Y6370D01*
X11190Y6367D01*
X11190D01*
Y5683D01*
X10075D01*
X10047Y5725D01*
X10078Y5800D01*
X10094Y5917D01*
X10078Y6035D01*
X10033Y6144D01*
X10015Y6167D01*
X10033Y6190D01*
X10078Y6300D01*
X10094Y6417D01*
X10078Y6535D01*
X10033Y6644D01*
X10015Y6667D01*
X10033Y6690D01*
X10078Y6800D01*
X10094Y6917D01*
X10078Y7035D01*
X10033Y7144D01*
X10015Y7167D01*
X10033Y7190D01*
X10078Y7300D01*
X10094Y7417D01*
X10078Y7535D01*
X10033Y7644D01*
X10015Y7667D01*
X10033Y7690D01*
X10078Y7800D01*
X10094Y7917D01*
X10078Y8035D01*
X10033Y8144D01*
X10015Y8167D01*
X10033Y8190D01*
X10078Y8300D01*
X10094Y8417D01*
X10078Y8535D01*
X10033Y8644D01*
X10015Y8667D01*
X10033Y8690D01*
X10078Y8800D01*
X10094Y8917D01*
X10078Y9035D01*
X10033Y9144D01*
X10015Y9167D01*
X10033Y9190D01*
X10078Y9300D01*
X10094Y9417D01*
X10078Y9535D01*
X10033Y9644D01*
X9961Y9738D01*
X9867Y9810D01*
X9793Y9841D01*
Y12940D01*
X10944D01*
X10960Y12920D01*
X11050Y12846D01*
X11154Y12791D01*
X11266Y12757D01*
X11383Y12745D01*
X11499Y12757D01*
X11611Y12791D01*
X11715Y12846D01*
X11806Y12920D01*
X11880Y13011D01*
X11935Y13114D01*
X11969Y13227D01*
X11981Y13343D01*
X11969Y13460D01*
X11935Y13572D01*
X11880Y13676D01*
X11806Y13766D01*
X11715Y13841D01*
X11611Y13896D01*
X11499Y13930D01*
X11383Y13941D01*
X11266Y13930D01*
X11154Y13896D01*
X11050Y13841D01*
X10960Y13766D01*
X10944Y13747D01*
X10563D01*
Y20640D01*
X10563Y20640D01*
X10550Y20744D01*
X10509Y20842D01*
X10445Y20925D01*
X10445Y20925D01*
X10175Y21195D01*
X10092Y21259D01*
X9994Y21300D01*
X9890Y21313D01*
X9890Y21313D01*
X9722D01*
X9637Y21348D01*
X9520Y21364D01*
X9020D01*
X8926Y21351D01*
X8888Y21384D01*
Y22260D01*
X8875Y22358D01*
X8838Y22449D01*
X8777Y22527D01*
X8667Y22637D01*
X8589Y22698D01*
X8498Y22735D01*
X8400Y22748D01*
X7730D01*
Y22920D01*
X6153D01*
Y27880D01*
X6153Y27880D01*
X6140Y27984D01*
X6099Y28082D01*
X6035Y28165D01*
X5911Y28289D01*
X5932Y28335D01*
X6043Y28327D01*
X6269Y28342D01*
X6491Y28386D01*
X6706Y28459D01*
X6909Y28559D01*
X7097Y28685D01*
X7268Y28835D01*
X7417Y29005D01*
X7543Y29193D01*
X7643Y29396D01*
X7716Y29611D01*
X7760Y29833D01*
X7775Y30059D01*
X7760Y30285D01*
X7716Y30507D01*
X7643Y30722D01*
X7543Y30925D01*
X7417Y31113D01*
X7268Y31284D01*
X7097Y31433D01*
X6909Y31559D01*
X6706Y31659D01*
X6491Y31732D01*
X6269Y31776D01*
X6043Y31791D01*
X5817Y31776D01*
X5595Y31732D01*
X5381Y31659D01*
X5177Y31559D01*
X4989Y31433D01*
X4819Y31284D01*
X4669Y31113D01*
X4544Y30925D01*
X4527Y30890D01*
X4478Y30904D01*
X4486Y30980D01*
X4474Y31103D01*
X4438Y31221D01*
X4380Y31329D01*
X4302Y31424D01*
X4207Y31502D01*
X4098Y31561D01*
X3980Y31596D01*
X3858Y31608D01*
X3735Y31596D01*
X3618Y31561D01*
X3509Y31502D01*
X3414Y31424D01*
X3381Y31384D01*
X3380D01*
X3276Y31370D01*
X3179Y31330D01*
X3142Y31302D01*
X3095Y31266D01*
X3095Y31266D01*
X2865Y31035D01*
X2801Y30952D01*
X2772Y30884D01*
X2723Y30894D01*
Y40010D01*
X2723Y40010D01*
X2710Y40114D01*
X2669Y40212D01*
X2605Y40295D01*
X2605Y40295D01*
X1505Y41395D01*
Y42015D01*
X1546Y42048D01*
X1624Y42143D01*
X1682Y42252D01*
X1718Y42370D01*
X1730Y42492D01*
X1718Y42615D01*
X1682Y42732D01*
X1624Y42841D01*
X1546Y42936D01*
Y42967D01*
X1624Y43062D01*
X1682Y43170D01*
X1718Y43288D01*
X1730Y43411D01*
X1718Y43533D01*
X1682Y43651D01*
X1624Y43760D01*
X1546Y43855D01*
Y43885D01*
X1624Y43980D01*
X1682Y44089D01*
X1718Y44207D01*
X1730Y44329D01*
X1718Y44452D01*
X1682Y44570D01*
X1624Y44678D01*
X1546Y44773D01*
Y44804D01*
X1624Y44899D01*
X1682Y45008D01*
X1718Y45126D01*
X1730Y45248D01*
X1718Y45371D01*
X1682Y45488D01*
X1624Y45597D01*
X1546Y45692D01*
X1451Y45770D01*
X1342Y45828D01*
X1225Y45864D01*
X1102Y45876D01*
X980Y45864D01*
X862Y45828D01*
X753Y45770D01*
X658Y45692D01*
X580Y45597D01*
X522Y45488D01*
X486Y45371D01*
X474Y45248D01*
X486Y45126D01*
X522Y45008D01*
X580Y44899D01*
X658Y44804D01*
Y44773D01*
X580Y44678D01*
X522Y44570D01*
X486Y44452D01*
X474Y44329D01*
X486Y44207D01*
X522Y44089D01*
X580Y43980D01*
X658Y43885D01*
Y43855D01*
X580Y43760D01*
X522Y43651D01*
X486Y43533D01*
X474Y43411D01*
X486Y43288D01*
X522Y43170D01*
X580Y43062D01*
X658Y42967D01*
Y42936D01*
X580Y42841D01*
X522Y42732D01*
X486Y42615D01*
X474Y42492D01*
X486Y42370D01*
X522Y42252D01*
X580Y42143D01*
X658Y42048D01*
X699Y42015D01*
Y41228D01*
X699Y41228D01*
X712Y41124D01*
X753Y41026D01*
X817Y40943D01*
X1135Y40625D01*
X1113Y40580D01*
X1102Y40581D01*
X980Y40569D01*
X862Y40533D01*
X753Y40475D01*
X658Y40397D01*
X580Y40302D01*
X522Y40193D01*
X486Y40075D01*
X474Y39953D01*
X486Y39830D01*
X522Y39712D01*
X580Y39604D01*
X658Y39509D01*
Y39478D01*
X580Y39383D01*
X522Y39274D01*
X486Y39157D01*
X474Y39034D01*
X486Y38912D01*
X522Y38794D01*
X580Y38685D01*
X658Y38590D01*
Y38560D01*
X580Y38464D01*
X522Y38356D01*
X486Y38238D01*
X474Y38115D01*
X486Y37993D01*
X522Y37875D01*
X580Y37767D01*
X658Y37671D01*
Y37641D01*
X580Y37546D01*
X522Y37437D01*
X486Y37319D01*
X474Y37197D01*
X486Y37074D01*
X522Y36957D01*
X580Y36848D01*
X658Y36753D01*
X753Y36675D01*
X862Y36617D01*
X980Y36581D01*
X1102Y36569D01*
X1154Y36574D01*
X1487Y36242D01*
Y31532D01*
X1444Y31506D01*
X1342Y31561D01*
X1225Y31596D01*
X1102Y31608D01*
X980Y31596D01*
X862Y31561D01*
X753Y31502D01*
X658Y31424D01*
X580Y31329D01*
X522Y31221D01*
X486Y31103D01*
X474Y30980D01*
X486Y30858D01*
X522Y30740D01*
X580Y30631D01*
X658Y30536D01*
Y30506D01*
X580Y30411D01*
X522Y30302D01*
X486Y30184D01*
X474Y30062D01*
X486Y29939D01*
X522Y29821D01*
X580Y29713D01*
X658Y29618D01*
Y29587D01*
X580Y29492D01*
X522Y29383D01*
X486Y29266D01*
X474Y29143D01*
X486Y29021D01*
X522Y28903D01*
X580Y28794D01*
X658Y28699D01*
Y28668D01*
X580Y28573D01*
X522Y28465D01*
X486Y28347D01*
X474Y28224D01*
X486Y28102D01*
X522Y27984D01*
X580Y27875D01*
X658Y27780D01*
X753Y27702D01*
X862Y27644D01*
X980Y27608D01*
X1102Y27596D01*
X1225Y27608D01*
X1342Y27644D01*
X1444Y27698D01*
X1487Y27673D01*
Y27510D01*
X1487Y27510D01*
X1500Y27406D01*
X1541Y27308D01*
X1605Y27225D01*
X2095Y26735D01*
X2095Y26735D01*
X2178Y26671D01*
X2178Y26671D01*
X2178Y26671D01*
D01*
X2178Y26671D01*
X2178Y26671D01*
X2276Y26630D01*
X2380Y26617D01*
X2380Y26617D01*
X4173D01*
X4521Y26269D01*
X4502Y26222D01*
X4335D01*
X4302Y26263D01*
X4207Y26341D01*
X4098Y26399D01*
X3980Y26435D01*
X3858Y26447D01*
X3735Y26435D01*
X3618Y26399D01*
X3509Y26341D01*
X3414Y26263D01*
X3381Y26222D01*
X1579D01*
X1546Y26263D01*
X1451Y26341D01*
X1342Y26399D01*
X1225Y26435D01*
X1102Y26447D01*
X980Y26435D01*
X862Y26399D01*
X753Y26341D01*
X658Y26263D01*
X580Y26168D01*
X522Y26059D01*
X486Y25941D01*
X474Y25819D01*
X486Y25696D01*
X522Y25579D01*
X580Y25470D01*
X658Y25375D01*
Y25344D01*
X580Y25249D01*
X522Y25141D01*
X486Y25023D01*
X474Y24900D01*
X486Y24778D01*
X522Y24660D01*
X580Y24551D01*
X658Y24456D01*
Y24426D01*
X580Y24331D01*
X522Y24222D01*
X486Y24104D01*
X474Y23982D01*
X486Y23859D01*
X522Y23741D01*
X580Y23633D01*
X658Y23538D01*
Y23507D01*
X580Y23412D01*
X522Y23303D01*
X486Y23186D01*
X474Y23063D01*
X486Y22940D01*
X522Y22823D01*
X580Y22714D01*
X658Y22619D01*
X753Y22541D01*
X862Y22483D01*
X980Y22447D01*
X1102Y22435D01*
X1225Y22447D01*
X1342Y22483D01*
X1451Y22541D01*
X1546Y22619D01*
X1579Y22660D01*
X2034D01*
X2042Y22659D01*
X2050Y22660D01*
X3381D01*
X3414Y22619D01*
X3509Y22541D01*
X3618Y22483D01*
X3735Y22447D01*
X3858Y22435D01*
X3980Y22447D01*
X4098Y22483D01*
X4207Y22541D01*
X4302Y22619D01*
X4380Y22714D01*
X4398Y22748D01*
X4447Y22735D01*
Y21061D01*
X4335D01*
X4302Y21102D01*
X4207Y21180D01*
X4098Y21238D01*
X3980Y21273D01*
X3858Y21286D01*
X3735Y21273D01*
X3618Y21238D01*
X3509Y21180D01*
X3414Y21102D01*
X3381Y21061D01*
X2104D01*
X2100Y21061D01*
X2096Y21061D01*
X1579D01*
X1546Y21102D01*
X1451Y21180D01*
X1342Y21238D01*
X1225Y21273D01*
X1102Y21286D01*
X980Y21273D01*
X862Y21238D01*
X753Y21180D01*
X658Y21102D01*
X580Y21006D01*
X522Y20898D01*
X486Y20780D01*
X474Y20657D01*
X486Y20535D01*
X522Y20417D01*
X580Y20309D01*
X658Y20213D01*
Y20183D01*
X580Y20088D01*
X522Y19979D01*
X486Y19861D01*
X474Y19739D01*
X486Y19616D01*
X522Y19498D01*
X580Y19390D01*
X658Y19295D01*
Y19264D01*
X580Y19169D01*
X522Y19061D01*
X486Y18943D01*
X474Y18820D01*
X486Y18698D01*
X522Y18580D01*
X580Y18471D01*
X658Y18376D01*
Y18346D01*
X580Y18250D01*
X522Y18142D01*
X486Y18024D01*
X474Y17902D01*
X486Y17779D01*
X522Y17661D01*
X580Y17553D01*
X658Y17457D01*
X753Y17379D01*
X862Y17321D01*
X980Y17286D01*
X1102Y17274D01*
X1225Y17286D01*
X1342Y17321D01*
X1451Y17379D01*
X1546Y17457D01*
X1579Y17498D01*
X3381D01*
X3414Y17457D01*
X3509Y17379D01*
X3618Y17321D01*
X3735Y17286D01*
X3858Y17274D01*
X3980Y17286D01*
X4098Y17321D01*
X4207Y17379D01*
X4302Y17457D01*
X4380Y17553D01*
X4438Y17661D01*
X4474Y17779D01*
X4486Y17902D01*
X4474Y18024D01*
X4438Y18142D01*
X4380Y18250D01*
X4302Y18346D01*
Y18376D01*
X4380Y18471D01*
X4438Y18580D01*
X4474Y18698D01*
X4485Y18810D01*
X4532Y18827D01*
X4555Y18805D01*
X4638Y18741D01*
X4736Y18700D01*
X4840Y18687D01*
X4840Y18687D01*
X5783D01*
X5793Y18638D01*
X5714Y18605D01*
X5630Y18541D01*
X5085Y17995D01*
X5021Y17912D01*
X4980Y17814D01*
X4967Y17710D01*
X4967Y17710D01*
Y15913D01*
X4953Y15900D01*
X4335D01*
X4302Y15940D01*
X4207Y16018D01*
X4098Y16076D01*
X3980Y16112D01*
X3858Y16124D01*
X3735Y16112D01*
X3618Y16076D01*
X3509Y16018D01*
X3414Y15940D01*
X3381Y15900D01*
X2270D01*
X2270Y15900D01*
X2270Y15900D01*
X1579D01*
X1546Y15940D01*
X1451Y16018D01*
X1342Y16076D01*
X1225Y16112D01*
X1102Y16124D01*
X980Y16112D01*
X862Y16076D01*
X753Y16018D01*
X658Y15940D01*
X580Y15845D01*
X522Y15736D01*
X486Y15619D01*
X474Y15496D01*
X486Y15374D01*
X522Y15256D01*
X580Y15147D01*
X658Y15052D01*
Y15022D01*
X580Y14926D01*
X522Y14818D01*
X486Y14700D01*
X474Y14577D01*
X486Y14455D01*
X522Y14337D01*
X580Y14229D01*
X658Y14133D01*
Y14103D01*
X580Y14008D01*
X522Y13899D01*
X486Y13781D01*
X474Y13659D01*
X486Y13536D01*
X522Y13418D01*
X580Y13310D01*
X658Y13215D01*
Y13184D01*
X580Y13089D01*
X522Y12980D01*
X486Y12863D01*
X474Y12740D01*
X486Y12618D01*
X522Y12500D01*
X580Y12391D01*
X658Y12296D01*
X753Y12218D01*
X862Y12160D01*
X980Y12124D01*
X1102Y12112D01*
X1225Y12124D01*
X1342Y12160D01*
X1451Y12218D01*
X1546Y12296D01*
X1579Y12337D01*
X3381D01*
X3414Y12296D01*
X3509Y12218D01*
X3618Y12160D01*
X3735Y12124D01*
X3858Y12112D01*
X3980Y12124D01*
X4098Y12160D01*
X4207Y12218D01*
X4302Y12296D01*
X4380Y12391D01*
X4438Y12500D01*
X4474Y12618D01*
X4486Y12740D01*
X4474Y12863D01*
X4438Y12980D01*
X4380Y13089D01*
X4302Y13184D01*
Y13215D01*
X4380Y13310D01*
X4438Y13418D01*
X4474Y13536D01*
X4486Y13659D01*
X4474Y13781D01*
X4438Y13899D01*
X4380Y14008D01*
X4302Y14103D01*
Y14133D01*
X4380Y14229D01*
X4438Y14337D01*
X4474Y14455D01*
X4486Y14577D01*
X4474Y14700D01*
X4438Y14818D01*
X4380Y14926D01*
X4302Y15022D01*
Y15052D01*
X4335Y15093D01*
X5120D01*
X5120Y15093D01*
X5224Y15106D01*
X5295Y15136D01*
X5337Y15108D01*
Y11127D01*
X4948Y10738D01*
X4335D01*
X4302Y10779D01*
X4207Y10857D01*
X4098Y10915D01*
X3980Y10951D01*
X3858Y10963D01*
X3735Y10951D01*
X3618Y10915D01*
X3509Y10857D01*
X3414Y10779D01*
X3381Y10738D01*
X2290D01*
X2290Y10738D01*
X2290Y10738D01*
X1579D01*
X1546Y10779D01*
X1451Y10857D01*
X1342Y10915D01*
X1225Y10951D01*
X1102Y10963D01*
X980Y10951D01*
X862Y10915D01*
X753Y10857D01*
X658Y10779D01*
X580Y10684D01*
X522Y10575D01*
X486Y10457D01*
X474Y10335D01*
X486Y10212D01*
X522Y10094D01*
X580Y9986D01*
X658Y9891D01*
Y9860D01*
X580Y9765D01*
X522Y9656D01*
X486Y9539D01*
X474Y9416D01*
X486Y9293D01*
X522Y9176D01*
X580Y9067D01*
X658Y8972D01*
Y8941D01*
X580Y8846D01*
X522Y8738D01*
X486Y8620D01*
X474Y8497D01*
X486Y8375D01*
X522Y8257D01*
X580Y8148D01*
X658Y8053D01*
Y8023D01*
X580Y7928D01*
X522Y7819D01*
X486Y7701D01*
X474Y7579D01*
X486Y7456D01*
X522Y7338D01*
X580Y7230D01*
X658Y7135D01*
X753Y7057D01*
X862Y6999D01*
X980Y6963D01*
X1102Y6951D01*
X1225Y6963D01*
X1342Y6999D01*
X1451Y7057D01*
X1546Y7135D01*
X1579Y7175D01*
X3381D01*
X3414Y7135D01*
X3509Y7057D01*
X3618Y6999D01*
X3735Y6963D01*
X3858Y6951D01*
X3980Y6963D01*
X4086Y6995D01*
X4127Y6965D01*
Y5787D01*
X4086Y5757D01*
X3980Y5789D01*
X3858Y5801D01*
X3735Y5789D01*
X3618Y5753D01*
X3509Y5695D01*
X3414Y5617D01*
X3381Y5577D01*
X1579D01*
X1546Y5617D01*
X1451Y5695D01*
X1342Y5753D01*
X1225Y5789D01*
X1102Y5801D01*
X980Y5789D01*
X862Y5753D01*
X753Y5695D01*
X658Y5617D01*
X580Y5522D01*
X522Y5414D01*
X486Y5296D01*
X474Y5173D01*
X486Y5051D01*
X522Y4933D01*
X580Y4824D01*
X658Y4729D01*
Y4699D01*
X580Y4604D01*
X522Y4495D01*
X486Y4377D01*
X474Y4255D01*
X486Y4132D01*
X522Y4014D01*
X580Y3906D01*
X658Y3811D01*
Y3780D01*
X580Y3685D01*
X522Y3576D01*
X486Y3458D01*
X474Y3336D01*
X486Y3213D01*
X522Y3096D01*
X580Y2987D01*
X658Y2892D01*
Y2861D01*
X580Y2766D01*
X522Y2658D01*
X486Y2540D01*
X474Y2417D01*
X486Y2295D01*
X522Y2177D01*
X580Y2068D01*
X658Y1973D01*
X753Y1895D01*
X862Y1837D01*
X980Y1801D01*
X1102Y1789D01*
X1225Y1801D01*
X1342Y1837D01*
X1451Y1895D01*
X1546Y1973D01*
X1579Y2014D01*
X3381D01*
X3414Y1973D01*
X3509Y1895D01*
X3618Y1837D01*
X3735Y1801D01*
X3858Y1789D01*
X3980Y1801D01*
X4098Y1837D01*
X4207Y1895D01*
X4302Y1973D01*
X4347Y2028D01*
X4391Y2004D01*
X4371Y1944D01*
X4326Y1722D01*
X4312Y1496D01*
X4326Y1270D01*
X4371Y1048D01*
X4443Y833D01*
X4489Y741D01*
X4435Y642D01*
X4311Y489D01*
X4158Y365D01*
X4090Y328D01*
X710D01*
X642Y365D01*
X489Y489D01*
X365Y642D01*
X328Y710D01*
Y50254D01*
X371Y50280D01*
X442Y50242D01*
X572Y50202D01*
X708Y50189D01*
X844Y50202D01*
X975Y50242D01*
X1096Y50306D01*
X1201Y50393D01*
X1288Y50499D01*
X1352Y50619D01*
X1392Y50750D01*
X1405Y50886D01*
X1392Y51022D01*
X1352Y51153D01*
X1288Y51273D01*
X1201Y51379D01*
X1096Y51465D01*
X975Y51530D01*
X844Y51569D01*
X708Y51583D01*
X572Y51569D01*
X442Y51530D01*
X371Y51492D01*
X328Y51518D01*
Y59090D01*
X365Y59158D01*
X489Y59311D01*
X642Y59435D01*
X790Y59515D01*
X878D01*
X885Y59465D01*
D02*
G37*
G36*
X12050Y54930D02*
X11945Y54825D01*
X11881Y54742D01*
X11840Y54644D01*
X11827Y54540D01*
X11827Y54540D01*
Y51508D01*
X11784Y51483D01*
X11696Y51530D01*
X11565Y51569D01*
X11429Y51583D01*
X11293Y51569D01*
X11162Y51530D01*
X11042Y51465D01*
X10936Y51379D01*
X10849Y51273D01*
X10785Y51153D01*
X10745Y51022D01*
X10732Y50886D01*
X10745Y50750D01*
X10785Y50619D01*
X10849Y50499D01*
X10936Y50393D01*
X11042Y50306D01*
X11162Y50242D01*
X11293Y50202D01*
X11429Y50189D01*
X11565Y50202D01*
X11696Y50242D01*
X11784Y50289D01*
X11827Y50263D01*
Y48647D01*
X10776Y47597D01*
X10712Y47513D01*
X10672Y47416D01*
X10658Y47312D01*
X10658Y47312D01*
Y47257D01*
X10611Y47241D01*
X10550Y47321D01*
X10550Y47321D01*
X10203Y47667D01*
Y48016D01*
X10249Y48038D01*
X10328Y47973D01*
X10430Y47918D01*
X10541Y47884D01*
X10607Y47878D01*
Y48486D01*
Y49094D01*
X10541Y49087D01*
X10430Y49054D01*
X10328Y48999D01*
X10249Y48934D01*
X10203Y48955D01*
Y52816D01*
X10249Y52838D01*
X10328Y52773D01*
X10430Y52718D01*
X10541Y52684D01*
X10607Y52678D01*
Y53286D01*
Y53894D01*
X10541Y53887D01*
X10430Y53854D01*
X10328Y53799D01*
X10249Y53734D01*
X10203Y53755D01*
Y54553D01*
X10627Y54977D01*
X12031D01*
X12050Y54930D01*
D02*
G37*
G36*
X17288Y25375D02*
Y25344D01*
X17210Y25249D01*
X17152Y25141D01*
X17116Y25023D01*
X17104Y24900D01*
X17116Y24778D01*
X17152Y24660D01*
X17210Y24551D01*
X17288Y24456D01*
Y24426D01*
X17210Y24331D01*
X17152Y24222D01*
X17116Y24104D01*
X17104Y23982D01*
X17116Y23859D01*
X17152Y23741D01*
X17210Y23633D01*
X17288Y23538D01*
Y23507D01*
X17210Y23412D01*
X17152Y23303D01*
X17116Y23186D01*
X17104Y23063D01*
X17116Y22940D01*
X17152Y22823D01*
X17210Y22714D01*
X17288Y22619D01*
X17383Y22541D01*
X17492Y22483D01*
X17609Y22447D01*
X17732Y22435D01*
X17854Y22447D01*
X17972Y22483D01*
X18081Y22541D01*
X18176Y22619D01*
X18209Y22660D01*
X20010D01*
X20044Y22619D01*
X20139Y22541D01*
X20248Y22483D01*
X20365Y22447D01*
X20488Y22435D01*
X20610Y22447D01*
X20728Y22483D01*
X20837Y22541D01*
X20932Y22619D01*
X21010Y22714D01*
X21068Y22823D01*
X21104Y22940D01*
X21116Y23063D01*
X21104Y23186D01*
X21068Y23303D01*
X21010Y23412D01*
X20932Y23507D01*
Y23538D01*
X21010Y23633D01*
X21068Y23741D01*
X21104Y23859D01*
X21116Y23982D01*
X21104Y24104D01*
X21068Y24222D01*
X21010Y24331D01*
X20952Y24401D01*
X20973Y24446D01*
X22690D01*
X22808Y24462D01*
X22917Y24507D01*
X23011Y24579D01*
X23011Y24579D01*
X23011Y24579D01*
X23818Y25386D01*
X28382D01*
X28486Y25282D01*
Y16338D01*
X28382Y16234D01*
X26740D01*
Y16455D01*
X25738D01*
Y16600D01*
X25725Y16698D01*
X25688Y16789D01*
X25627Y16867D01*
X25477Y17017D01*
X25481Y17067D01*
X25487Y17073D01*
X25627Y17213D01*
X25688Y17291D01*
X25725Y17382D01*
X25738Y17480D01*
Y17516D01*
X25769Y17590D01*
X25784Y17700D01*
Y18260D01*
X25769Y18370D01*
X25727Y18472D01*
X25660Y18560D01*
X25572Y18627D01*
X25470Y18669D01*
X25360Y18684D01*
X25276Y18673D01*
X25238Y18706D01*
Y18783D01*
X25517Y19063D01*
X25578Y19141D01*
X25615Y19232D01*
X25615Y19232D01*
X25615Y19232D01*
X25628Y19330D01*
Y19450D01*
X25800D01*
Y20300D01*
Y21300D01*
X25613D01*
Y21905D01*
X25621Y21916D01*
X25664Y22019D01*
X25679Y22130D01*
X25664Y22241D01*
X25621Y22344D01*
X25553Y22433D01*
X25464Y22501D01*
X25361Y22544D01*
X25250Y22559D01*
X25139Y22544D01*
X25036Y22501D01*
X24947Y22433D01*
X24879Y22344D01*
X24847Y22268D01*
X24797D01*
X24761Y22354D01*
X24693Y22443D01*
X24604Y22511D01*
X24501Y22554D01*
X24390Y22569D01*
X24279Y22554D01*
X24176Y22511D01*
X24087Y22443D01*
X24019Y22354D01*
X23994Y22294D01*
X23944Y22300D01*
X23944Y22301D01*
X23901Y22404D01*
X23833Y22493D01*
X23744Y22561D01*
X23641Y22604D01*
X23530Y22619D01*
X23419Y22604D01*
X23316Y22561D01*
X23227Y22493D01*
X23159Y22404D01*
X23116Y22301D01*
X23101Y22190D01*
X23116Y22079D01*
X23159Y21976D01*
X23167Y21965D01*
Y21310D01*
X22980D01*
Y20310D01*
Y19460D01*
X23152D01*
Y17570D01*
X23152Y17570D01*
X23152D01*
X23165Y17472D01*
X23202Y17381D01*
X23263Y17303D01*
X23430Y17135D01*
X23293Y16997D01*
X23232Y16919D01*
X23195Y16828D01*
X23182Y16730D01*
Y14790D01*
X23010D01*
Y13790D01*
Y12940D01*
X23182D01*
Y12267D01*
X22640D01*
Y11817D01*
Y11367D01*
X23182D01*
Y10467D01*
X21621D01*
Y9167D01*
X22106D01*
Y9041D01*
X21590D01*
Y7968D01*
X22541D01*
X22560Y7922D01*
X22239Y7600D01*
X22166Y7506D01*
X22148Y7461D01*
X22121Y7397D01*
X22106Y7279D01*
Y7151D01*
X21590D01*
Y6079D01*
X25409D01*
Y6161D01*
X26271D01*
X26307Y6117D01*
X26413Y6030D01*
X26533Y5966D01*
X26664Y5926D01*
X26800Y5913D01*
X26936Y5926D01*
X27067Y5966D01*
X27187Y6030D01*
X27293Y6117D01*
X27380Y6223D01*
X27444Y6343D01*
X27484Y6474D01*
X27497Y6610D01*
X27484Y6746D01*
X27444Y6877D01*
X27380Y6997D01*
X27293Y7103D01*
Y7117D01*
X27380Y7223D01*
X27444Y7343D01*
X27484Y7474D01*
X27497Y7610D01*
X27484Y7746D01*
X27444Y7877D01*
X27380Y7997D01*
X27293Y8103D01*
Y8117D01*
X27325Y8156D01*
X28520D01*
X28637Y8172D01*
X28702Y8198D01*
X28747Y8217D01*
X28841Y8289D01*
X29154Y8602D01*
X29200Y8583D01*
Y4198D01*
X29111Y4089D01*
X28958Y3965D01*
X28785Y3872D01*
X28596Y3814D01*
X28405Y3796D01*
X28400Y3800D01*
Y3800D01*
X27200D01*
X25600Y3805D01*
X25404Y3786D01*
X25215Y3728D01*
X25042Y3635D01*
X24889Y3511D01*
X24765Y3358D01*
X24672Y3185D01*
X24614Y2996D01*
X24595Y2800D01*
X24600D01*
X24603Y800D01*
X24591Y682D01*
X24557Y569D01*
X24501Y465D01*
X24426Y374D01*
X24370Y328D01*
X8430D01*
X8374Y374D01*
X8299Y465D01*
X8243Y569D01*
X8209Y682D01*
X8197Y797D01*
X8200Y800D01*
X8200D01*
Y1600D01*
X8203Y2400D01*
X8191Y2518D01*
X8157Y2631D01*
X8101Y2735D01*
X8026Y2826D01*
X8016Y2835D01*
X8033Y2882D01*
X17246D01*
X17268Y2837D01*
X17210Y2766D01*
X17152Y2658D01*
X17116Y2540D01*
X17104Y2417D01*
X17116Y2295D01*
X17152Y2177D01*
X17210Y2068D01*
X17288Y1973D01*
X17383Y1895D01*
X17492Y1837D01*
X17609Y1801D01*
X17732Y1789D01*
X17854Y1801D01*
X17972Y1837D01*
X18081Y1895D01*
X18176Y1973D01*
X18209Y2014D01*
X20010D01*
X20044Y1973D01*
X20139Y1895D01*
X20248Y1837D01*
X20365Y1801D01*
X20488Y1789D01*
X20610Y1801D01*
X20728Y1837D01*
X20837Y1895D01*
X20932Y1973D01*
X21010Y2068D01*
X21068Y2177D01*
X21104Y2295D01*
X21116Y2417D01*
X21104Y2540D01*
X21068Y2658D01*
X21010Y2766D01*
X20932Y2861D01*
Y2892D01*
X21010Y2987D01*
X21068Y3096D01*
X21104Y3213D01*
X21116Y3336D01*
X21104Y3458D01*
X21068Y3576D01*
X21010Y3685D01*
X20932Y3780D01*
Y3811D01*
X21010Y3906D01*
X21068Y4014D01*
X21104Y4132D01*
X21116Y4255D01*
X21104Y4377D01*
X21068Y4495D01*
X21010Y4604D01*
X20932Y4699D01*
Y4729D01*
X21010Y4824D01*
X21068Y4933D01*
X21104Y5051D01*
X21116Y5173D01*
X21104Y5296D01*
X21068Y5414D01*
X21010Y5522D01*
X20932Y5617D01*
X20837Y5695D01*
X20728Y5753D01*
X20610Y5789D01*
X20488Y5801D01*
X20365Y5789D01*
X20248Y5753D01*
X20139Y5695D01*
X20044Y5617D01*
X20010Y5577D01*
X18209D01*
X18176Y5617D01*
X18081Y5695D01*
X17972Y5753D01*
X17854Y5789D01*
X17732Y5801D01*
X17609Y5789D01*
X17492Y5753D01*
X17383Y5695D01*
X17299Y5626D01*
X17253Y5648D01*
Y7020D01*
X17299Y7041D01*
X17373Y6980D01*
X17482Y6922D01*
X17600Y6886D01*
X17722Y6874D01*
X17845Y6886D01*
X17962Y6922D01*
X18071Y6980D01*
X18166Y7058D01*
X18199Y7099D01*
X20001D01*
X20034Y7058D01*
X20129Y6980D01*
X20238Y6922D01*
X20355Y6886D01*
X20478Y6874D01*
X20600Y6886D01*
X20718Y6922D01*
X20827Y6980D01*
X20922Y7058D01*
X21000Y7153D01*
X21058Y7262D01*
X21094Y7380D01*
X21106Y7502D01*
X21094Y7625D01*
X21058Y7742D01*
X21000Y7851D01*
X20922Y7946D01*
Y7977D01*
X21000Y8072D01*
X21058Y8180D01*
X21094Y8298D01*
X21106Y8421D01*
X21094Y8543D01*
X21058Y8661D01*
X21000Y8770D01*
X20922Y8865D01*
Y8895D01*
X21000Y8990D01*
X21058Y9099D01*
X21094Y9217D01*
X21106Y9339D01*
X21094Y9462D01*
X21058Y9580D01*
X21000Y9688D01*
X20922Y9783D01*
Y9814D01*
X21000Y9909D01*
X21058Y10018D01*
X21094Y10135D01*
X21106Y10258D01*
X21094Y10380D01*
X21058Y10498D01*
X21000Y10607D01*
X20922Y10702D01*
X20827Y10780D01*
X20718Y10838D01*
X20600Y10874D01*
X20478Y10886D01*
X20355Y10874D01*
X20238Y10838D01*
X20129Y10780D01*
X20034Y10702D01*
X20001Y10661D01*
X18199D01*
X18166Y10702D01*
X18071Y10780D01*
X17962Y10838D01*
X17845Y10874D01*
X17722Y10886D01*
X17600Y10874D01*
X17482Y10838D01*
X17373Y10780D01*
X17278Y10702D01*
X17245Y10661D01*
X16972D01*
X16972Y10661D01*
X16953Y10678D01*
Y15063D01*
X16983Y15093D01*
X17255D01*
X17288Y15052D01*
Y15022D01*
X17210Y14926D01*
X17152Y14818D01*
X17116Y14700D01*
X17104Y14577D01*
X17116Y14455D01*
X17152Y14337D01*
X17210Y14229D01*
X17288Y14133D01*
Y14103D01*
X17210Y14008D01*
X17152Y13899D01*
X17116Y13781D01*
X17104Y13659D01*
X17116Y13536D01*
X17152Y13418D01*
X17210Y13310D01*
X17288Y13215D01*
Y13184D01*
X17210Y13089D01*
X17152Y12980D01*
X17116Y12863D01*
X17104Y12740D01*
X17116Y12618D01*
X17152Y12500D01*
X17210Y12391D01*
X17288Y12296D01*
X17383Y12218D01*
X17492Y12160D01*
X17609Y12124D01*
X17732Y12112D01*
X17854Y12124D01*
X17972Y12160D01*
X18081Y12218D01*
X18176Y12296D01*
X18209Y12337D01*
X20010D01*
X20044Y12296D01*
X20139Y12218D01*
X20248Y12160D01*
X20365Y12124D01*
X20488Y12112D01*
X20610Y12124D01*
X20728Y12160D01*
X20837Y12218D01*
X20932Y12296D01*
X21010Y12391D01*
X21068Y12500D01*
X21104Y12618D01*
X21116Y12740D01*
X21104Y12863D01*
X21068Y12980D01*
X21010Y13089D01*
X20932Y13184D01*
Y13215D01*
X21010Y13310D01*
X21068Y13418D01*
X21104Y13536D01*
X21116Y13659D01*
X21104Y13781D01*
X21068Y13899D01*
X21010Y14008D01*
X20932Y14103D01*
Y14133D01*
X21010Y14229D01*
X21068Y14337D01*
X21104Y14455D01*
X21116Y14577D01*
X21104Y14700D01*
X21068Y14818D01*
X21010Y14926D01*
X20932Y15022D01*
Y15052D01*
X21010Y15147D01*
X21068Y15256D01*
X21104Y15374D01*
X21116Y15496D01*
X21104Y15619D01*
X21068Y15736D01*
X21010Y15845D01*
X20932Y15940D01*
X20837Y16018D01*
X20728Y16076D01*
X20610Y16112D01*
X20488Y16124D01*
X20365Y16112D01*
X20248Y16076D01*
X20139Y16018D01*
X20044Y15940D01*
X20010Y15900D01*
X18209D01*
X18176Y15940D01*
X18081Y16018D01*
X17972Y16076D01*
X17854Y16112D01*
X17732Y16124D01*
X17609Y16112D01*
X17492Y16076D01*
X17383Y16018D01*
X17288Y15940D01*
X17255Y15900D01*
X16816D01*
X16712Y15886D01*
X16665Y15866D01*
X16623Y15894D01*
Y20183D01*
X16695Y20254D01*
X17255D01*
X17288Y20213D01*
Y20183D01*
X17210Y20088D01*
X17152Y19979D01*
X17116Y19861D01*
X17104Y19739D01*
X17116Y19616D01*
X17152Y19498D01*
X17210Y19390D01*
X17288Y19295D01*
Y19264D01*
X17210Y19169D01*
X17152Y19061D01*
X17116Y18943D01*
X17104Y18820D01*
X17116Y18698D01*
X17152Y18580D01*
X17210Y18471D01*
X17288Y18376D01*
Y18346D01*
X17210Y18250D01*
X17152Y18142D01*
X17116Y18024D01*
X17104Y17902D01*
X17116Y17779D01*
X17152Y17661D01*
X17210Y17553D01*
X17288Y17457D01*
X17383Y17379D01*
X17492Y17321D01*
X17609Y17286D01*
X17732Y17274D01*
X17854Y17286D01*
X17972Y17321D01*
X18081Y17379D01*
X18176Y17457D01*
X18209Y17498D01*
X20010D01*
X20044Y17457D01*
X20139Y17379D01*
X20248Y17321D01*
X20365Y17286D01*
X20488Y17274D01*
X20610Y17286D01*
X20728Y17321D01*
X20837Y17379D01*
X20932Y17457D01*
X21010Y17553D01*
X21068Y17661D01*
X21104Y17779D01*
X21116Y17902D01*
X21104Y18024D01*
X21068Y18142D01*
X21010Y18250D01*
X20932Y18346D01*
Y18376D01*
X21010Y18471D01*
X21068Y18580D01*
X21104Y18698D01*
X21116Y18820D01*
X21104Y18943D01*
X21068Y19061D01*
X21010Y19169D01*
X20932Y19264D01*
Y19295D01*
X21010Y19390D01*
X21068Y19498D01*
X21104Y19616D01*
X21116Y19739D01*
X21104Y19861D01*
X21068Y19979D01*
X21010Y20088D01*
X20932Y20183D01*
Y20213D01*
X21010Y20309D01*
X21068Y20417D01*
X21104Y20535D01*
X21116Y20657D01*
X21104Y20780D01*
X21068Y20898D01*
X21010Y21006D01*
X20932Y21102D01*
X20837Y21180D01*
X20728Y21238D01*
X20610Y21273D01*
X20488Y21286D01*
X20365Y21273D01*
X20248Y21238D01*
X20139Y21180D01*
X20044Y21102D01*
X20010Y21061D01*
X18209D01*
X18176Y21102D01*
X18081Y21180D01*
X17972Y21238D01*
X17854Y21273D01*
X17732Y21286D01*
X17609Y21273D01*
X17492Y21238D01*
X17383Y21180D01*
X17288Y21102D01*
X17255Y21061D01*
X16527D01*
X16527Y21061D01*
X16423Y21047D01*
X16335Y21011D01*
X16293Y21038D01*
Y25243D01*
X16467Y25417D01*
X17254D01*
X17288Y25375D01*
D02*
G37*
G36*
X7757Y56692D02*
X7835Y56597D01*
Y56566D01*
X7757Y56471D01*
X7699Y56362D01*
X7663Y56245D01*
X7651Y56122D01*
X7663Y56000D01*
X7699Y55882D01*
X7757Y55773D01*
X7835Y55678D01*
X7876Y55645D01*
Y54601D01*
X7876Y54601D01*
X7890Y54496D01*
X7930Y54399D01*
X7994Y54316D01*
X8270Y54040D01*
X8262Y53990D01*
X8216Y53966D01*
X8096Y53867D01*
X7997Y53747D01*
X7924Y53610D01*
X7879Y53461D01*
X7863Y53306D01*
Y53266D01*
X7879Y53111D01*
X7924Y52962D01*
X7997Y52825D01*
X8096Y52705D01*
X8216Y52606D01*
X8353Y52532D01*
X8502Y52487D01*
X8657Y52472D01*
X8812Y52487D01*
X8961Y52532D01*
X9021Y52564D01*
X9064Y52539D01*
Y49233D01*
X9021Y49207D01*
X8961Y49239D01*
X8812Y49284D01*
X8657Y49300D01*
X8502Y49284D01*
X8353Y49239D01*
X8216Y49166D01*
X8096Y49067D01*
X7997Y48947D01*
X7924Y48810D01*
X7879Y48661D01*
X7873Y48602D01*
X7826Y48585D01*
X5973Y50437D01*
Y54240D01*
X5973Y54240D01*
X5960Y54344D01*
X5919Y54442D01*
X5855Y54525D01*
X5635Y54745D01*
X5552Y54809D01*
X5454Y54850D01*
X5350Y54863D01*
X5350Y54863D01*
X4307D01*
X4243Y54927D01*
Y55630D01*
X4302Y55678D01*
X4380Y55773D01*
X4438Y55882D01*
X4474Y56000D01*
X4486Y56122D01*
X4475Y56230D01*
X4522Y56247D01*
X4630Y56086D01*
X4780Y55915D01*
X4950Y55766D01*
X5138Y55640D01*
X5342Y55540D01*
X5556Y55467D01*
X5778Y55423D01*
X6004Y55408D01*
X6230Y55423D01*
X6452Y55467D01*
X6667Y55540D01*
X6870Y55640D01*
X7058Y55766D01*
X7229Y55915D01*
X7378Y56086D01*
X7504Y56274D01*
X7604Y56477D01*
X7677Y56692D01*
X7684Y56728D01*
X7734Y56736D01*
X7757Y56692D01*
D02*
G37*
G36*
X16661Y59465D02*
X16637Y59458D01*
X16529Y59400D01*
X16434Y59322D01*
X16355Y59227D01*
X16297Y59118D01*
X16262Y59000D01*
X16250Y58878D01*
X16262Y58755D01*
X16297Y58638D01*
X16355Y58529D01*
X16434Y58434D01*
Y58403D01*
X16355Y58308D01*
X16297Y58200D01*
X16262Y58082D01*
X16250Y57959D01*
X16262Y57837D01*
X16297Y57719D01*
X16355Y57610D01*
X16434Y57515D01*
Y57485D01*
X16355Y57390D01*
X16297Y57281D01*
X16262Y57163D01*
X16250Y57041D01*
X16262Y56918D01*
X16297Y56800D01*
X16355Y56692D01*
X16434Y56597D01*
Y56566D01*
X16355Y56471D01*
X16297Y56362D01*
X16262Y56245D01*
X16250Y56122D01*
X16262Y56000D01*
X16297Y55882D01*
X16327Y55826D01*
X16301Y55783D01*
X11611D01*
X11586Y55826D01*
X11615Y55882D01*
X11651Y56000D01*
X11663Y56122D01*
X11651Y56245D01*
X11615Y56362D01*
X11557Y56471D01*
X11479Y56566D01*
Y56597D01*
X11557Y56692D01*
X11615Y56800D01*
X11651Y56918D01*
X11663Y57041D01*
X11651Y57163D01*
X11615Y57281D01*
X11557Y57390D01*
X11479Y57485D01*
Y57515D01*
X11557Y57610D01*
X11615Y57719D01*
X11651Y57837D01*
X11663Y57959D01*
X11651Y58082D01*
X11615Y58200D01*
X11557Y58308D01*
X11479Y58403D01*
Y58434D01*
X11557Y58529D01*
X11615Y58638D01*
X11651Y58755D01*
X11663Y58878D01*
X11651Y59000D01*
X11615Y59118D01*
X11557Y59227D01*
X11479Y59322D01*
X11384Y59400D01*
X11275Y59458D01*
X11252Y59465D01*
X11259Y59515D01*
X16653D01*
X16661Y59465D01*
D02*
G37*
G36*
X16926Y39603D02*
X17023Y39563D01*
X17127Y39549D01*
X17127Y39549D01*
X17255D01*
X17288Y39509D01*
Y39478D01*
X17210Y39383D01*
X17152Y39274D01*
X17116Y39157D01*
X17104Y39034D01*
X17116Y38912D01*
X17152Y38794D01*
X17210Y38685D01*
X17288Y38590D01*
Y38560D01*
X17210Y38464D01*
X17152Y38356D01*
X17116Y38238D01*
X17104Y38115D01*
X17116Y37993D01*
X17152Y37875D01*
X17210Y37767D01*
X17288Y37671D01*
Y37641D01*
X17210Y37546D01*
X17152Y37437D01*
X17116Y37319D01*
X17104Y37197D01*
X17116Y37074D01*
X17152Y36957D01*
X17210Y36848D01*
X17288Y36753D01*
X17383Y36675D01*
X17492Y36617D01*
X17609Y36581D01*
X17732Y36569D01*
X17854Y36581D01*
X17972Y36617D01*
X18081Y36675D01*
X18176Y36753D01*
X18209Y36793D01*
X20010D01*
X20044Y36753D01*
X20139Y36675D01*
X20248Y36617D01*
X20365Y36581D01*
X20488Y36569D01*
X20610Y36581D01*
X20728Y36617D01*
X20837Y36675D01*
X20932Y36753D01*
X21010Y36848D01*
X21068Y36957D01*
X21104Y37074D01*
X21116Y37197D01*
X21104Y37319D01*
X21068Y37437D01*
X21010Y37546D01*
X20952Y37616D01*
X20973Y37662D01*
X23027D01*
X23336Y37352D01*
Y35920D01*
X23290Y35901D01*
X22815Y36375D01*
X22732Y36439D01*
X22634Y36480D01*
X22530Y36493D01*
X22530Y36493D01*
X17197D01*
X16863Y36827D01*
Y39594D01*
X16908Y39617D01*
X16926Y39603D01*
D02*
G37*
G36*
X23838Y59465D02*
X23814Y59458D01*
X23706Y59400D01*
X23611Y59322D01*
X23533Y59227D01*
X23475Y59118D01*
X23439Y59000D01*
X23427Y58878D01*
X23439Y58755D01*
X23475Y58638D01*
X23533Y58529D01*
X23611Y58434D01*
Y58403D01*
X23533Y58308D01*
X23475Y58200D01*
X23439Y58082D01*
X23427Y57959D01*
X23439Y57837D01*
X23475Y57719D01*
X23533Y57610D01*
X23611Y57515D01*
Y57485D01*
X23533Y57390D01*
X23475Y57281D01*
X23439Y57163D01*
X23427Y57041D01*
X23439Y56918D01*
X23475Y56800D01*
X23533Y56692D01*
X23611Y56597D01*
Y56566D01*
X23533Y56471D01*
X23475Y56362D01*
X23439Y56245D01*
X23427Y56122D01*
X23439Y56000D01*
X23475Y55882D01*
X23533Y55773D01*
X23611Y55678D01*
X23651Y55645D01*
Y55512D01*
X23623Y55483D01*
X19852D01*
X19845Y55533D01*
X19874Y55542D01*
X19982Y55600D01*
X20078Y55678D01*
X20156Y55773D01*
X20214Y55882D01*
X20250Y56000D01*
X20262Y56122D01*
X20250Y56245D01*
X20214Y56362D01*
X20156Y56471D01*
X20078Y56566D01*
Y56597D01*
X20156Y56692D01*
X20214Y56800D01*
X20250Y56918D01*
X20262Y57041D01*
X20250Y57163D01*
X20214Y57281D01*
X20156Y57390D01*
X20078Y57485D01*
Y57515D01*
X20156Y57610D01*
X20214Y57719D01*
X20250Y57837D01*
X20262Y57959D01*
X20250Y58082D01*
X20214Y58200D01*
X20156Y58308D01*
X20078Y58403D01*
Y58434D01*
X20156Y58529D01*
X20214Y58638D01*
X20250Y58755D01*
X20262Y58878D01*
X20250Y59000D01*
X20214Y59118D01*
X20156Y59227D01*
X20078Y59322D01*
X19982Y59400D01*
X19874Y59458D01*
X19851Y59465D01*
X19858Y59515D01*
X23830D01*
X23838Y59465D01*
D02*
G37*
%LPC*%
G36*
X19795Y33270D02*
X19545D01*
Y32970D01*
X19795D01*
Y33270D01*
D02*
G37*
G36*
X28211Y29680D02*
X27810D01*
Y29352D01*
X27839D01*
X27937Y29365D01*
X28028Y29402D01*
X28107Y29463D01*
X28167Y29541D01*
X28205Y29632D01*
X28211Y29680D01*
D02*
G37*
G36*
X28211Y30680D02*
X27810D01*
Y30352D01*
X27839D01*
X27937Y30365D01*
X28028Y30402D01*
X28107Y30463D01*
X28167Y30541D01*
X28205Y30632D01*
X28211Y30680D01*
D02*
G37*
G36*
X27839Y30108D02*
X27810D01*
Y29780D01*
X28211D01*
X28205Y29828D01*
X28167Y29919D01*
X28107Y29997D01*
X28028Y30058D01*
X27937Y30095D01*
X27839Y30108D01*
D02*
G37*
G36*
X11870Y36580D02*
X11620D01*
Y36280D01*
X11870D01*
Y36580D01*
D02*
G37*
G36*
X28211Y28680D02*
X27810D01*
Y28352D01*
X27839D01*
X27937Y28365D01*
X28028Y28402D01*
X28107Y28463D01*
X28167Y28541D01*
X28205Y28632D01*
X28211Y28680D01*
D02*
G37*
G36*
X27839Y29108D02*
X27810D01*
Y28780D01*
X28211D01*
X28205Y28828D01*
X28167Y28919D01*
X28107Y28997D01*
X28028Y29058D01*
X27937Y29095D01*
X27839Y29108D01*
D02*
G37*
G36*
X12220Y36580D02*
X11970D01*
Y36280D01*
X12220D01*
Y36580D01*
D02*
G37*
G36*
X19415Y33260D02*
X19165D01*
Y32960D01*
X19415D01*
Y33260D01*
D02*
G37*
G36*
X7520Y32050D02*
X7270D01*
Y31750D01*
X7520D01*
Y32050D01*
D02*
G37*
G36*
X7870Y31650D02*
X7620D01*
Y31350D01*
X7870D01*
Y31650D01*
D02*
G37*
G36*
X7530Y32540D02*
X7280D01*
Y32240D01*
X7530D01*
Y32540D01*
D02*
G37*
G36*
X7870Y32050D02*
X7620D01*
Y31750D01*
X7870D01*
Y32050D01*
D02*
G37*
G36*
X7520Y31650D02*
X7270D01*
Y31350D01*
X7520D01*
Y31650D01*
D02*
G37*
G36*
X7880Y32940D02*
X7630D01*
Y32640D01*
X7880D01*
Y32940D01*
D02*
G37*
G36*
X19065Y33260D02*
X18815D01*
Y32960D01*
X19065D01*
Y33260D01*
D02*
G37*
G36*
X27839Y31108D02*
X27810D01*
Y30780D01*
X28211D01*
X28205Y30828D01*
X28167Y30919D01*
X28107Y30997D01*
X28028Y31058D01*
X27937Y31095D01*
X27839Y31108D01*
D02*
G37*
G36*
X7530Y32940D02*
X7280D01*
Y32640D01*
X7530D01*
Y32940D01*
D02*
G37*
G36*
X27839Y28108D02*
X27810D01*
Y27780D01*
X28211D01*
X28205Y27828D01*
X28167Y27919D01*
X28107Y27997D01*
X28028Y28058D01*
X27937Y28095D01*
X27839Y28108D01*
D02*
G37*
G36*
X22540Y12267D02*
X21821D01*
Y11867D01*
X22540D01*
Y12267D01*
D02*
G37*
G36*
X25199Y11767D02*
X24480D01*
Y11367D01*
X25199D01*
Y11767D01*
D02*
G37*
G36*
Y12267D02*
X24480D01*
Y11867D01*
X25199D01*
Y12267D01*
D02*
G37*
G36*
X26080Y13740D02*
X25780D01*
Y13490D01*
X26080D01*
Y13740D01*
D02*
G37*
G36*
Y13390D02*
X25780D01*
Y13140D01*
X26080D01*
Y13390D01*
D02*
G37*
G36*
X22540Y11767D02*
X21821D01*
Y11367D01*
X22540D01*
Y11767D01*
D02*
G37*
G36*
X11840Y9672D02*
X11640D01*
X11542Y9653D01*
X11460Y9598D01*
X11404Y9515D01*
X11395Y9467D01*
X11840D01*
Y9672D01*
D02*
G37*
G36*
X1358Y1643D02*
X1229Y1626D01*
X1108Y1576D01*
X1004Y1496D01*
X924Y1392D01*
X874Y1271D01*
X857Y1142D01*
X874Y1012D01*
X924Y891D01*
X1004Y787D01*
X1108Y708D01*
X1229Y658D01*
X1358Y641D01*
X1488Y658D01*
X1609Y708D01*
X1713Y787D01*
X1792Y891D01*
X1842Y1012D01*
X1859Y1142D01*
X1842Y1271D01*
X1792Y1392D01*
X1713Y1496D01*
X1609Y1576D01*
X1488Y1626D01*
X1358Y1643D01*
D02*
G37*
G36*
X12140Y9672D02*
X11940D01*
Y9467D01*
X12385D01*
X12375Y9515D01*
X12320Y9598D01*
X12237Y9653D01*
X12140Y9672D01*
D02*
G37*
G36*
X26850Y10101D02*
Y9660D01*
X27291D01*
X27281Y9739D01*
X27231Y9859D01*
X27152Y9962D01*
X27049Y10041D01*
X26929Y10091D01*
X26850Y10101D01*
D02*
G37*
G36*
X26750D02*
X26671Y10091D01*
X26551Y10041D01*
X26448Y9962D01*
X26369Y9859D01*
X26319Y9739D01*
X26309Y9660D01*
X26750D01*
Y10101D01*
D02*
G37*
G36*
X26540Y17105D02*
X26240D01*
Y16855D01*
X26540D01*
Y17105D01*
D02*
G37*
G36*
X26140D02*
X25840D01*
Y16855D01*
X26140D01*
Y17105D01*
D02*
G37*
G36*
X11720Y21165D02*
X11520D01*
X11422Y21146D01*
X11340Y21090D01*
X11285Y21008D01*
X11275Y20960D01*
X11720D01*
Y21165D01*
D02*
G37*
G36*
X12460Y26271D02*
X12381Y26261D01*
X12261Y26211D01*
X12158Y26132D01*
X12079Y26029D01*
X12029Y25909D01*
X12019Y25830D01*
X12460D01*
Y26271D01*
D02*
G37*
G36*
X12020Y21165D02*
X11820D01*
Y20960D01*
X12265D01*
X12256Y21008D01*
X12200Y21090D01*
X12118Y21146D01*
X12020Y21165D01*
D02*
G37*
G36*
X26540Y16755D02*
X26240D01*
Y16505D01*
X26540D01*
Y16755D01*
D02*
G37*
G36*
X27381Y14260D02*
X26940D01*
Y13819D01*
X27019Y13829D01*
X27139Y13879D01*
X27242Y13958D01*
X27321Y14061D01*
X27371Y14181D01*
X27381Y14260D01*
D02*
G37*
G36*
X26840D02*
X26399D01*
X26409Y14181D01*
X26459Y14061D01*
X26538Y13958D01*
X26641Y13879D01*
X26761Y13829D01*
X26840Y13819D01*
Y14260D01*
D02*
G37*
G36*
Y14801D02*
X26761Y14791D01*
X26641Y14741D01*
X26538Y14662D01*
X26459Y14559D01*
X26409Y14439D01*
X26399Y14360D01*
X26840D01*
Y14801D01*
D02*
G37*
G36*
X26140Y16755D02*
X25840D01*
Y16505D01*
X26140D01*
Y16755D01*
D02*
G37*
G36*
X26940Y14801D02*
Y14360D01*
X27381D01*
X27371Y14439D01*
X27321Y14559D01*
X27242Y14662D01*
X27139Y14741D01*
X27019Y14791D01*
X26940Y14801D01*
D02*
G37*
G36*
X17845Y53236D02*
X17306D01*
Y52678D01*
X17371Y52684D01*
X17482Y52718D01*
X17585Y52773D01*
X17675Y52847D01*
X17749Y52936D01*
X17803Y53039D01*
X17837Y53150D01*
X17845Y53236D01*
D02*
G37*
G36*
X17206D02*
X16666D01*
X16674Y53150D01*
X16708Y53039D01*
X16763Y52936D01*
X16836Y52847D01*
X16926Y52773D01*
X17029Y52718D01*
X17140Y52684D01*
X17206Y52678D01*
Y53236D01*
D02*
G37*
G36*
X11247D02*
X10707D01*
Y52678D01*
X10773Y52684D01*
X10884Y52718D01*
X10987Y52773D01*
X11076Y52847D01*
X11150Y52936D01*
X11205Y53039D01*
X11239Y53150D01*
X11247Y53236D01*
D02*
G37*
G36*
X1530Y53894D02*
Y53336D01*
X2070D01*
X2061Y53421D01*
X2028Y53533D01*
X1973Y53635D01*
X1899Y53725D01*
X1809Y53799D01*
X1707Y53854D01*
X1596Y53887D01*
X1530Y53894D01*
D02*
G37*
G36*
X1430D02*
X1364Y53887D01*
X1253Y53854D01*
X1151Y53799D01*
X1061Y53725D01*
X987Y53635D01*
X932Y53533D01*
X899Y53421D01*
X890Y53336D01*
X1430D01*
Y53894D01*
D02*
G37*
G36*
X26373Y53236D02*
X25833D01*
X25841Y53150D01*
X25875Y53039D01*
X25930Y52936D01*
X26004Y52847D01*
X26093Y52773D01*
X26196Y52718D01*
X26307Y52684D01*
X26373Y52678D01*
Y53236D01*
D02*
G37*
G36*
X19256Y54100D02*
X19101Y54084D01*
X18952Y54039D01*
X18815Y53966D01*
X18694Y53867D01*
X18596Y53747D01*
X18522Y53610D01*
X18477Y53461D01*
X18462Y53306D01*
Y53266D01*
X18477Y53111D01*
X18522Y52962D01*
X18596Y52825D01*
X18694Y52705D01*
X18815Y52606D01*
X18952Y52532D01*
X19101Y52487D01*
X19256Y52472D01*
X19410Y52487D01*
X19559Y52532D01*
X19697Y52606D01*
X19817Y52705D01*
X19916Y52825D01*
X19989Y52962D01*
X20034Y53111D01*
X20049Y53266D01*
Y53306D01*
X20034Y53461D01*
X19989Y53610D01*
X19916Y53747D01*
X19817Y53867D01*
X19697Y53966D01*
X19559Y54039D01*
X19410Y54084D01*
X19256Y54100D01*
D02*
G37*
G36*
X3480D02*
X3325Y54084D01*
X3176Y54039D01*
X3039Y53966D01*
X2919Y53867D01*
X2820Y53747D01*
X2747Y53610D01*
X2701Y53461D01*
X2686Y53306D01*
Y53266D01*
X2701Y53111D01*
X2747Y52962D01*
X2820Y52825D01*
X2919Y52705D01*
X3039Y52606D01*
X3176Y52532D01*
X3325Y52487D01*
X3480Y52472D01*
X3635Y52487D01*
X3784Y52532D01*
X3921Y52606D01*
X4041Y52705D01*
X4140Y52825D01*
X4213Y52962D01*
X4259Y53111D01*
X4274Y53266D01*
Y53306D01*
X4259Y53461D01*
X4213Y53610D01*
X4140Y53747D01*
X4041Y53867D01*
X3921Y53966D01*
X3784Y54039D01*
X3635Y54084D01*
X3480Y54100D01*
D02*
G37*
G36*
X27194Y51583D02*
X27058Y51569D01*
X26928Y51530D01*
X26807Y51465D01*
X26702Y51379D01*
X26615Y51273D01*
X26550Y51153D01*
X26511Y51022D01*
X26497Y50886D01*
X26511Y50750D01*
X26550Y50619D01*
X26615Y50499D01*
X26702Y50393D01*
X26807Y50306D01*
X26928Y50242D01*
X27058Y50202D01*
X27194Y50189D01*
X27330Y50202D01*
X27461Y50242D01*
X27582Y50306D01*
X27687Y50393D01*
X27774Y50499D01*
X27838Y50619D01*
X27878Y50750D01*
X27891Y50886D01*
X27878Y51022D01*
X27838Y51153D01*
X27774Y51273D01*
X27687Y51379D01*
X27582Y51465D01*
X27461Y51530D01*
X27330Y51569D01*
X27194Y51583D01*
D02*
G37*
G36*
X2070Y53236D02*
X1530D01*
Y52678D01*
X1596Y52684D01*
X1707Y52718D01*
X1809Y52773D01*
X1899Y52847D01*
X1973Y52936D01*
X2028Y53039D01*
X2061Y53150D01*
X2070Y53236D01*
D02*
G37*
G36*
X1430D02*
X890D01*
X899Y53150D01*
X932Y53039D01*
X987Y52936D01*
X1061Y52847D01*
X1151Y52773D01*
X1253Y52718D01*
X1364Y52684D01*
X1430Y52678D01*
Y53236D01*
D02*
G37*
G36*
X24423Y54100D02*
X24268Y54084D01*
X24119Y54039D01*
X23982Y53966D01*
X23861Y53867D01*
X23763Y53747D01*
X23689Y53610D01*
X23644Y53461D01*
X23629Y53306D01*
Y53266D01*
X23644Y53111D01*
X23689Y52962D01*
X23763Y52825D01*
X23861Y52705D01*
X23982Y52606D01*
X24119Y52532D01*
X24268Y52487D01*
X24423Y52472D01*
X24578Y52487D01*
X24727Y52532D01*
X24864Y52606D01*
X24984Y52705D01*
X25083Y52825D01*
X25156Y52962D01*
X25201Y53111D01*
X25217Y53266D01*
Y53306D01*
X25201Y53461D01*
X25156Y53610D01*
X25083Y53747D01*
X24984Y53867D01*
X24864Y53966D01*
X24727Y54039D01*
X24578Y54084D01*
X24423Y54100D01*
D02*
G37*
G36*
X12420Y59417D02*
X12366Y59410D01*
X12268Y59369D01*
X12185Y59305D01*
X12121Y59222D01*
X12080Y59124D01*
X12073Y59070D01*
X12420D01*
Y59417D01*
D02*
G37*
G36*
X13717Y58970D02*
X13370D01*
Y58623D01*
X13424Y58630D01*
X13522Y58671D01*
X13605Y58735D01*
X13669Y58818D01*
X13710Y58916D01*
X13717Y58970D01*
D02*
G37*
G36*
X13270D02*
X12923D01*
X12930Y58916D01*
X12971Y58818D01*
X13035Y58735D01*
X13118Y58671D01*
X13216Y58630D01*
X13270Y58623D01*
Y58970D01*
D02*
G37*
G36*
X13370Y59417D02*
Y59070D01*
X13717D01*
X13710Y59124D01*
X13669Y59222D01*
X13605Y59305D01*
X13522Y59369D01*
X13424Y59410D01*
X13370Y59417D01*
D02*
G37*
G36*
X13270D02*
X13216Y59410D01*
X13118Y59369D01*
X13035Y59305D01*
X12971Y59222D01*
X12930Y59124D01*
X12923Y59070D01*
X13270D01*
Y59417D01*
D02*
G37*
G36*
X12520D02*
Y59070D01*
X12867D01*
X12860Y59124D01*
X12819Y59222D01*
X12755Y59305D01*
X12672Y59369D01*
X12574Y59410D01*
X12520Y59417D01*
D02*
G37*
G36*
X17306Y53894D02*
Y53336D01*
X17845D01*
X17837Y53421D01*
X17803Y53533D01*
X17749Y53635D01*
X17675Y53725D01*
X17585Y53799D01*
X17482Y53854D01*
X17371Y53887D01*
X17306Y53894D01*
D02*
G37*
G36*
X17206D02*
X17140Y53887D01*
X17029Y53854D01*
X16926Y53799D01*
X16836Y53725D01*
X16763Y53635D01*
X16708Y53533D01*
X16674Y53421D01*
X16666Y53336D01*
X17206D01*
Y53894D01*
D02*
G37*
G36*
X10707D02*
Y53336D01*
X11247D01*
X11239Y53421D01*
X11205Y53533D01*
X11150Y53635D01*
X11076Y53725D01*
X10987Y53799D01*
X10884Y53854D01*
X10773Y53887D01*
X10707Y53894D01*
D02*
G37*
G36*
X12867Y58970D02*
X12520D01*
Y58623D01*
X12574Y58630D01*
X12672Y58671D01*
X12755Y58735D01*
X12819Y58818D01*
X12860Y58916D01*
X12867Y58970D01*
D02*
G37*
G36*
X12420D02*
X12073D01*
X12080Y58916D01*
X12121Y58818D01*
X12185Y58735D01*
X12268Y58671D01*
X12366Y58630D01*
X12420Y58623D01*
Y58970D01*
D02*
G37*
G36*
X1269Y55362D02*
X1140Y55345D01*
X1019Y55295D01*
X915Y55215D01*
X835Y55111D01*
X785Y54990D01*
X768Y54861D01*
X785Y54731D01*
X835Y54610D01*
X915Y54506D01*
X1019Y54427D01*
X1140Y54377D01*
X1269Y54360D01*
X1399Y54377D01*
X1520Y54427D01*
X1624Y54506D01*
X1703Y54610D01*
X1753Y54731D01*
X1770Y54861D01*
X1753Y54990D01*
X1703Y55111D01*
X1624Y55215D01*
X1520Y55295D01*
X1399Y55345D01*
X1269Y55362D01*
D02*
G37*
G36*
X23651Y51583D02*
X23515Y51569D01*
X23384Y51530D01*
X23264Y51465D01*
X23158Y51379D01*
X23072Y51273D01*
X23007Y51153D01*
X22967Y51022D01*
X22954Y50886D01*
X22967Y50750D01*
X23007Y50619D01*
X23072Y50499D01*
X23158Y50393D01*
X23264Y50306D01*
X23384Y50242D01*
X23515Y50202D01*
X23651Y50189D01*
X23787Y50202D01*
X23918Y50242D01*
X24038Y50306D01*
X24144Y50393D01*
X24231Y50499D01*
X24295Y50619D01*
X24335Y50750D01*
X24348Y50886D01*
X24335Y51022D01*
X24295Y51153D01*
X24231Y51273D01*
X24144Y51379D01*
X24038Y51465D01*
X23918Y51530D01*
X23787Y51569D01*
X23651Y51583D01*
D02*
G37*
G36*
X1430Y48436D02*
X890D01*
X899Y48350D01*
X932Y48239D01*
X987Y48136D01*
X1061Y48047D01*
X1151Y47973D01*
X1253Y47918D01*
X1364Y47884D01*
X1430Y47878D01*
Y48436D01*
D02*
G37*
G36*
X24423Y49300D02*
X24268Y49284D01*
X24119Y49239D01*
X23982Y49166D01*
X23861Y49067D01*
X23763Y48947D01*
X23689Y48810D01*
X23644Y48661D01*
X23629Y48506D01*
Y48466D01*
X23644Y48311D01*
X23689Y48162D01*
X23763Y48025D01*
X23861Y47905D01*
X23982Y47806D01*
X24119Y47732D01*
X24268Y47687D01*
X24423Y47672D01*
X24578Y47687D01*
X24727Y47732D01*
X24864Y47806D01*
X24984Y47905D01*
X25083Y48025D01*
X25156Y48162D01*
X25201Y48311D01*
X25217Y48466D01*
Y48506D01*
X25201Y48661D01*
X25156Y48810D01*
X25083Y48947D01*
X24984Y49067D01*
X24864Y49166D01*
X24727Y49239D01*
X24578Y49284D01*
X24423Y49300D01*
D02*
G37*
G36*
X19256D02*
X19101Y49284D01*
X18952Y49239D01*
X18815Y49166D01*
X18694Y49067D01*
X18596Y48947D01*
X18522Y48810D01*
X18477Y48661D01*
X18462Y48506D01*
Y48466D01*
X18477Y48311D01*
X18522Y48162D01*
X18596Y48025D01*
X18694Y47905D01*
X18815Y47806D01*
X18952Y47732D01*
X19101Y47687D01*
X19256Y47672D01*
X19410Y47687D01*
X19559Y47732D01*
X19697Y47806D01*
X19817Y47905D01*
X19916Y48025D01*
X19989Y48162D01*
X20034Y48311D01*
X20049Y48466D01*
Y48506D01*
X20034Y48661D01*
X19989Y48810D01*
X19916Y48947D01*
X19817Y49067D01*
X19697Y49166D01*
X19559Y49239D01*
X19410Y49284D01*
X19256Y49300D01*
D02*
G37*
G36*
X26373Y48436D02*
X25833D01*
X25841Y48350D01*
X25875Y48239D01*
X25930Y48136D01*
X26004Y48047D01*
X26093Y47973D01*
X26196Y47918D01*
X26307Y47884D01*
X26373Y47878D01*
Y48436D01*
D02*
G37*
G36*
X11247D02*
X10707D01*
Y47878D01*
X10773Y47884D01*
X10884Y47918D01*
X10987Y47973D01*
X11076Y48047D01*
X11150Y48136D01*
X11205Y48239D01*
X11239Y48350D01*
X11247Y48436D01*
D02*
G37*
G36*
X2070D02*
X1530D01*
Y47878D01*
X1596Y47884D01*
X1707Y47918D01*
X1809Y47973D01*
X1899Y48047D01*
X1973Y48136D01*
X2028Y48239D01*
X2061Y48350D01*
X2070Y48436D01*
D02*
G37*
G36*
X12220Y36980D02*
X11970D01*
Y36680D01*
X12220D01*
Y36980D01*
D02*
G37*
G36*
X11870D02*
X11620D01*
Y36680D01*
X11870D01*
Y36980D01*
D02*
G37*
G36*
X3858Y40581D02*
X3735Y40569D01*
X3618Y40533D01*
X3509Y40475D01*
X3414Y40397D01*
X3336Y40302D01*
X3278Y40193D01*
X3242Y40075D01*
X3230Y39953D01*
X3242Y39830D01*
X3278Y39712D01*
X3336Y39604D01*
X3414Y39509D01*
Y39478D01*
X3336Y39383D01*
X3278Y39274D01*
X3242Y39157D01*
X3230Y39034D01*
X3242Y38912D01*
X3278Y38794D01*
X3336Y38685D01*
X3414Y38590D01*
Y38560D01*
X3336Y38464D01*
X3278Y38356D01*
X3242Y38238D01*
X3230Y38115D01*
X3242Y37993D01*
X3278Y37875D01*
X3336Y37767D01*
X3414Y37671D01*
Y37641D01*
X3336Y37546D01*
X3278Y37437D01*
X3242Y37319D01*
X3230Y37197D01*
X3242Y37074D01*
X3278Y36957D01*
X3336Y36848D01*
X3414Y36753D01*
X3509Y36675D01*
X3618Y36617D01*
X3735Y36581D01*
X3858Y36569D01*
X3980Y36581D01*
X4098Y36617D01*
X4207Y36675D01*
X4302Y36753D01*
X4380Y36848D01*
X4438Y36957D01*
X4474Y37074D01*
X4486Y37197D01*
X4474Y37319D01*
X4438Y37437D01*
X4380Y37546D01*
X4302Y37641D01*
Y37671D01*
X4380Y37767D01*
X4438Y37875D01*
X4474Y37993D01*
X4486Y38115D01*
X4474Y38238D01*
X4438Y38356D01*
X4380Y38464D01*
X4302Y38560D01*
Y38590D01*
X4380Y38685D01*
X4438Y38794D01*
X4474Y38912D01*
X4486Y39034D01*
X4474Y39157D01*
X4438Y39274D01*
X4380Y39383D01*
X4302Y39478D01*
Y39509D01*
X4380Y39604D01*
X4438Y39712D01*
X4474Y39830D01*
X4486Y39953D01*
X4474Y40075D01*
X4438Y40193D01*
X4380Y40302D01*
X4302Y40397D01*
X4207Y40475D01*
X4098Y40533D01*
X3980Y40569D01*
X3858Y40581D01*
D02*
G37*
G36*
X3480Y49300D02*
X3325Y49284D01*
X3176Y49239D01*
X3039Y49166D01*
X2919Y49067D01*
X2820Y48947D01*
X2747Y48810D01*
X2701Y48661D01*
X2686Y48506D01*
Y48466D01*
X2701Y48311D01*
X2747Y48162D01*
X2820Y48025D01*
X2919Y47905D01*
X3039Y47806D01*
X3176Y47732D01*
X3325Y47687D01*
X3480Y47672D01*
X3635Y47687D01*
X3784Y47732D01*
X3921Y47806D01*
X4041Y47905D01*
X4140Y48025D01*
X4213Y48162D01*
X4259Y48311D01*
X4274Y48466D01*
Y48506D01*
X4259Y48661D01*
X4213Y48810D01*
X4140Y48947D01*
X4041Y49067D01*
X3921Y49166D01*
X3784Y49239D01*
X3635Y49284D01*
X3480Y49300D01*
D02*
G37*
G36*
X12220Y41395D02*
Y40950D01*
X12425D01*
Y41150D01*
X12406Y41248D01*
X12350Y41330D01*
X12268Y41385D01*
X12220Y41395D01*
D02*
G37*
G36*
X12425Y40850D02*
X12220D01*
Y40405D01*
X12268Y40415D01*
X12350Y40470D01*
X12406Y40552D01*
X12425Y40650D01*
Y40850D01*
D02*
G37*
G36*
X4252Y51583D02*
X4116Y51569D01*
X3985Y51530D01*
X3864Y51465D01*
X3759Y51379D01*
X3672Y51273D01*
X3608Y51153D01*
X3568Y51022D01*
X3555Y50886D01*
X3568Y50750D01*
X3608Y50619D01*
X3672Y50499D01*
X3759Y50393D01*
X3864Y50306D01*
X3985Y50242D01*
X4116Y50202D01*
X4252Y50189D01*
X4388Y50202D01*
X4518Y50242D01*
X4639Y50306D01*
X4745Y50393D01*
X4831Y50499D01*
X4896Y50619D01*
X4935Y50750D01*
X4949Y50886D01*
X4935Y51022D01*
X4896Y51153D01*
X4831Y51273D01*
X4745Y51379D01*
X4639Y51465D01*
X4518Y51530D01*
X4388Y51569D01*
X4252Y51583D01*
D02*
G37*
G36*
X26473Y49094D02*
Y48536D01*
X27013D01*
X27004Y48621D01*
X26970Y48733D01*
X26916Y48835D01*
X26842Y48925D01*
X26752Y48999D01*
X26650Y49054D01*
X26538Y49087D01*
X26473Y49094D01*
D02*
G37*
G36*
X26373D02*
X26307Y49087D01*
X26196Y49054D01*
X26093Y48999D01*
X26004Y48925D01*
X25930Y48835D01*
X25875Y48733D01*
X25841Y48621D01*
X25833Y48536D01*
X26373D01*
Y49094D01*
D02*
G37*
G36*
X20027Y51583D02*
X19891Y51569D01*
X19761Y51530D01*
X19640Y51465D01*
X19534Y51379D01*
X19448Y51273D01*
X19383Y51153D01*
X19344Y51022D01*
X19330Y50886D01*
X19344Y50750D01*
X19383Y50619D01*
X19448Y50499D01*
X19534Y50393D01*
X19640Y50306D01*
X19761Y50242D01*
X19891Y50202D01*
X20027Y50189D01*
X20163Y50202D01*
X20294Y50242D01*
X20415Y50306D01*
X20520Y50393D01*
X20607Y50499D01*
X20671Y50619D01*
X20711Y50750D01*
X20724Y50886D01*
X20711Y51022D01*
X20671Y51153D01*
X20607Y51273D01*
X20520Y51379D01*
X20415Y51465D01*
X20294Y51530D01*
X20163Y51569D01*
X20027Y51583D01*
D02*
G37*
G36*
X16484D02*
X16348Y51569D01*
X16217Y51530D01*
X16097Y51465D01*
X15991Y51379D01*
X15904Y51273D01*
X15840Y51153D01*
X15800Y51022D01*
X15787Y50886D01*
X15800Y50750D01*
X15840Y50619D01*
X15904Y50499D01*
X15991Y50393D01*
X16097Y50306D01*
X16217Y50242D01*
X16348Y50202D01*
X16484Y50189D01*
X16620Y50202D01*
X16751Y50242D01*
X16871Y50306D01*
X16977Y50393D01*
X17064Y50499D01*
X17128Y50619D01*
X17168Y50750D01*
X17181Y50886D01*
X17168Y51022D01*
X17128Y51153D01*
X17064Y51273D01*
X16977Y51379D01*
X16871Y51465D01*
X16751Y51530D01*
X16620Y51569D01*
X16484Y51583D01*
D02*
G37*
G36*
X7886D02*
X7750Y51569D01*
X7619Y51530D01*
X7498Y51465D01*
X7393Y51379D01*
X7306Y51273D01*
X7242Y51153D01*
X7202Y51022D01*
X7188Y50886D01*
X7202Y50750D01*
X7242Y50619D01*
X7306Y50499D01*
X7393Y50393D01*
X7498Y50306D01*
X7619Y50242D01*
X7750Y50202D01*
X7886Y50189D01*
X8021Y50202D01*
X8152Y50242D01*
X8273Y50306D01*
X8378Y50393D01*
X8465Y50499D01*
X8529Y50619D01*
X8569Y50750D01*
X8583Y50886D01*
X8569Y51022D01*
X8529Y51153D01*
X8465Y51273D01*
X8378Y51379D01*
X8273Y51465D01*
X8152Y51530D01*
X8021Y51569D01*
X7886Y51583D01*
D02*
G37*
G36*
X1530Y49094D02*
Y48536D01*
X2070D01*
X2061Y48621D01*
X2028Y48733D01*
X1973Y48835D01*
X1899Y48925D01*
X1809Y48999D01*
X1707Y49054D01*
X1596Y49087D01*
X1530Y49094D01*
D02*
G37*
G36*
X1430D02*
X1364Y49087D01*
X1253Y49054D01*
X1151Y48999D01*
X1061Y48925D01*
X987Y48835D01*
X932Y48733D01*
X899Y48621D01*
X890Y48536D01*
X1430D01*
Y49094D01*
D02*
G37*
G36*
X27013Y48436D02*
X26473D01*
Y47878D01*
X26538Y47884D01*
X26650Y47918D01*
X26752Y47973D01*
X26842Y48047D01*
X26916Y48136D01*
X26970Y48239D01*
X27004Y48350D01*
X27013Y48436D01*
D02*
G37*
G36*
X17306Y49094D02*
Y48536D01*
X17845D01*
X17837Y48621D01*
X17803Y48733D01*
X17749Y48835D01*
X17675Y48925D01*
X17585Y48999D01*
X17482Y49054D01*
X17371Y49087D01*
X17306Y49094D01*
D02*
G37*
G36*
X17206D02*
X17140Y49087D01*
X17029Y49054D01*
X16926Y48999D01*
X16836Y48925D01*
X16763Y48835D01*
X16708Y48733D01*
X16674Y48621D01*
X16666Y48536D01*
X17206D01*
Y49094D01*
D02*
G37*
G36*
X10707D02*
Y48536D01*
X11247D01*
X11239Y48621D01*
X11205Y48733D01*
X11150Y48835D01*
X11076Y48925D01*
X10987Y48999D01*
X10884Y49054D01*
X10773Y49087D01*
X10707Y49094D01*
D02*
G37*
%LPD*%
D10*
X1358Y1142D02*
D03*
X28927Y58808D02*
D03*
X1269Y54861D02*
D03*
D11*
X26190Y16805D02*
D03*
Y15955D02*
D03*
X23560Y13440D02*
D03*
Y14290D02*
D03*
X24850Y13440D02*
D03*
Y14290D02*
D03*
X25730D02*
D03*
Y13440D02*
D03*
X23530Y20810D02*
D03*
Y19960D02*
D03*
X24390Y20790D02*
D03*
Y19940D02*
D03*
X25250Y20800D02*
D03*
Y19950D02*
D03*
X8670Y45495D02*
D03*
Y46345D02*
D03*
X9467Y45495D02*
D03*
Y46345D02*
D03*
X10264Y45495D02*
D03*
Y46345D02*
D03*
X11062Y45495D02*
D03*
Y46345D02*
D03*
X11859Y45495D02*
D03*
Y46345D02*
D03*
X12666Y45495D02*
D03*
Y46345D02*
D03*
X13463Y45495D02*
D03*
Y46345D02*
D03*
X16720Y29470D02*
D03*
Y30320D02*
D03*
D12*
X7230Y22370D02*
D03*
X6380D02*
D03*
X7230Y21560D02*
D03*
X6380D02*
D03*
X7240Y20730D02*
D03*
X6390D02*
D03*
X7240Y19920D02*
D03*
X6390D02*
D03*
X7230Y19090D02*
D03*
X6380D02*
D03*
X7227Y18255D02*
D03*
X6377D02*
D03*
X7250Y17420D02*
D03*
X6400D02*
D03*
X7234Y5932D02*
D03*
X6384D02*
D03*
X7234Y6749D02*
D03*
X6384D02*
D03*
X7234Y7575D02*
D03*
X6384D02*
D03*
X7234Y8392D02*
D03*
X6384D02*
D03*
X6381Y10863D02*
D03*
X7231D02*
D03*
X7234Y9219D02*
D03*
X6384D02*
D03*
X7234Y10036D02*
D03*
X6384D02*
D03*
X8430Y32590D02*
D03*
X7580D02*
D03*
X8420Y31700D02*
D03*
X7570D02*
D03*
X11920Y36630D02*
D03*
X12770D02*
D03*
X19845Y32920D02*
D03*
X20695D02*
D03*
X18265Y32910D02*
D03*
X19115D02*
D03*
X16845Y31990D02*
D03*
X17695D02*
D03*
D13*
X9270Y17410D02*
D03*
Y17910D02*
D03*
Y20910D02*
D03*
X11770Y17910D02*
D03*
Y18410D02*
D03*
Y18910D02*
D03*
Y19410D02*
D03*
Y19910D02*
D03*
Y20410D02*
D03*
Y20910D02*
D03*
X9270Y20410D02*
D03*
Y19910D02*
D03*
Y19410D02*
D03*
Y18910D02*
D03*
Y18410D02*
D03*
X9390Y5917D02*
D03*
Y6417D02*
D03*
Y9417D02*
D03*
X11890Y6417D02*
D03*
Y6917D02*
D03*
Y7417D02*
D03*
Y7917D02*
D03*
Y8417D02*
D03*
Y8917D02*
D03*
Y9417D02*
D03*
X9390Y8917D02*
D03*
Y8417D02*
D03*
Y7917D02*
D03*
Y7417D02*
D03*
Y6917D02*
D03*
D14*
X11770Y17410D02*
D03*
X11890Y5917D02*
D03*
D15*
X22590Y9817D02*
D03*
Y11817D02*
D03*
X24430Y9817D02*
D03*
Y11817D02*
D03*
D16*
X22559Y6615D02*
D03*
X24440D02*
D03*
D17*
X22559Y8504D02*
D03*
X24440D02*
D03*
D18*
X13251Y27669D02*
D03*
X12649Y28271D02*
D03*
D19*
X13080Y34460D02*
D03*
X13400D02*
D03*
X13710Y34460D02*
D03*
X14030Y34460D02*
D03*
X11200D02*
D03*
X11510Y34460D02*
D03*
X11830Y34460D02*
D03*
X12140D02*
D03*
X12460D02*
D03*
X12770D02*
D03*
X14340D02*
D03*
Y29560D02*
D03*
X14030D02*
D03*
X13710D02*
D03*
X13400D02*
D03*
X13080Y29560D02*
D03*
X12770Y29560D02*
D03*
X12460D02*
D03*
X12140D02*
D03*
X11830D02*
D03*
X11510Y29560D02*
D03*
X11200Y29560D02*
D03*
D20*
X10320Y30440D02*
D03*
Y30750D02*
D03*
Y31070D02*
D03*
X10320Y31380D02*
D03*
X10320Y31700D02*
D03*
Y32010D02*
D03*
Y32320D02*
D03*
Y32640D02*
D03*
Y32950D02*
D03*
Y33270D02*
D03*
X10320Y33580D02*
D03*
X15220D02*
D03*
X15220Y33270D02*
D03*
X15220Y32950D02*
D03*
Y32640D02*
D03*
X15220Y32320D02*
D03*
X15220Y32010D02*
D03*
Y31700D02*
D03*
Y31380D02*
D03*
Y31070D02*
D03*
Y30750D02*
D03*
Y30440D02*
D03*
D21*
X8670Y43400D02*
D03*
X9170D02*
D03*
X12170D02*
D03*
X9170Y40900D02*
D03*
X9670D02*
D03*
X10170D02*
D03*
X10670D02*
D03*
X11170D02*
D03*
X11670D02*
D03*
X12170D02*
D03*
X11670Y43400D02*
D03*
X11170D02*
D03*
X10670D02*
D03*
X10170D02*
D03*
X9670D02*
D03*
D22*
X8670Y40900D02*
D03*
D23*
X25360Y15780D02*
D03*
X24860D02*
D03*
X24360D02*
D03*
X23860D02*
D03*
Y17980D02*
D03*
X24360D02*
D03*
X24860D02*
D03*
X25360D02*
D03*
D24*
X22559Y8504D02*
Y9100D01*
X22586Y9640D01*
X22414Y9634D02*
X22559Y9100D01*
Y8504D02*
Y9100D01*
Y8504D02*
Y9100D01*
X22757Y9627D01*
X22559Y8566D02*
Y9100D01*
X22590Y9817D01*
X22390Y9806D02*
X22559Y9100D01*
Y8566D02*
Y9100D01*
Y8566D02*
Y9100D01*
X22789Y9797D01*
X22559Y8504D02*
Y9100D01*
X20500Y24726D02*
X21713Y24900D01*
X20500Y25075D02*
X21713Y24900D01*
X16507Y3336D02*
X17732D01*
X16507D02*
X17719Y3511D01*
X16507Y3336D02*
X17719Y3161D01*
X3870Y43236D02*
X5083Y43411D01*
X3870Y43585D02*
X5083Y43411D01*
X20500Y28968D02*
X21713Y29143D01*
X20500Y29318D02*
X21713Y29143D01*
X28890Y14310D02*
X28940Y13014D01*
X28648Y14278D02*
X28940Y13014D01*
X29133Y14296D01*
X28890Y14310D02*
X28940Y15410D01*
X29133Y14326D01*
X28649Y14348D02*
X28940Y15410D01*
X26823Y8367D02*
X28094Y8610D01*
X26823Y8853D02*
X28094Y8610D01*
X25506Y6615D02*
X26800Y6610D01*
X25506Y6615D02*
X26778Y6853D01*
X25506Y6615D02*
X26776Y6367D01*
X25506Y7610D02*
X26800D01*
X25506D02*
X26777Y7853D01*
X25506Y7610D02*
X26777Y7367D01*
X3870Y3161D02*
X5083Y3336D01*
X3870Y3511D02*
X5083Y3336D01*
X20500Y37941D02*
X21713Y38115D01*
X20500Y38290D02*
X21713Y38115D01*
X27760Y26730D02*
X27780Y26170D01*
X11720Y42540D02*
X12170Y43150D01*
Y42990D02*
Y43150D01*
Y42990D02*
Y43150D01*
X24259Y9630D02*
X24440Y8504D01*
X24431Y9641D02*
X24440Y8504D01*
X24603Y9632D01*
X24873Y6615D02*
X26009D01*
X22559Y8504D02*
X22586Y9640D01*
X22414Y9634D02*
X22559Y8504D01*
X22757Y9627D01*
X24430Y9817D02*
X24440Y8567D01*
X24230Y9800D02*
X24440Y8567D01*
X24629Y9803D01*
X22559Y8566D02*
X22590Y9817D01*
X22390Y9806D02*
X22559Y8566D01*
X22789Y9797D01*
X25360Y15780D02*
X26140Y15955D01*
X26240D02*
X27385Y15780D01*
X24440Y6615D02*
X26795D01*
X26800Y6610D01*
X22890Y7610D02*
X26800D01*
X22559Y7279D02*
X22890Y7610D01*
X22559Y6615D02*
Y7279D01*
X28940Y9030D02*
Y15410D01*
X26800Y8610D02*
X28520D01*
X28940Y9030D01*
X28110Y25840D02*
X28570D01*
X27780D02*
X28110D01*
X28220D01*
X27780Y26170D02*
X28110Y25840D01*
X27450D02*
X27780D01*
X23630D02*
X27450D01*
X27780Y26170D02*
Y26710D01*
Y25840D02*
Y26170D01*
X27450Y25840D02*
X27780Y26170D01*
X28570Y25840D02*
X28940Y25470D01*
Y16150D02*
Y25470D01*
X27760Y26730D02*
X27780Y26710D01*
X22559Y8504D02*
Y9719D01*
X23790Y29890D02*
Y37540D01*
X20488Y38115D02*
X23215D01*
X23790Y37540D01*
X20488Y29143D02*
X23043D01*
X23790Y29890D01*
X22559Y8504D02*
Y8504D01*
X24440D02*
Y9808D01*
X20488Y24900D02*
X22690D01*
X23630Y25840D01*
X28570Y15780D02*
X28940Y16150D01*
X28570Y15780D02*
X28940Y15410D01*
X25360Y15780D02*
X28570D01*
X3858Y43411D02*
X6519D01*
X7390Y42540D01*
X11720D01*
X12170Y42990D01*
Y43400D01*
X3858Y3336D02*
X17732D01*
D25*
X23860Y15780D02*
Y16260D01*
Y16060D02*
Y16260D01*
X24850Y14960D02*
X24957Y14393D01*
X24850Y14385D02*
Y14960D01*
X24860Y15500D01*
X24743Y14393D02*
X24850Y14960D01*
X15415Y32010D02*
X15990D01*
X15640D02*
X15990D01*
X12350D02*
X12573Y32168D01*
X13218Y32010D01*
X12736D02*
X13373Y32168D01*
X14016Y32010D01*
X13530D02*
X14173Y32168D01*
X14809Y32010D01*
X14173Y32168D02*
X14270Y32010D01*
X14173Y32168D02*
X14800Y32010D01*
X25360Y17480D02*
Y17700D01*
X24860Y18260D02*
Y18830D01*
X24330Y18690D02*
X24360Y18260D01*
X23860D02*
Y18830D01*
Y16060D02*
Y16260D01*
X24360Y14930D02*
Y15500D01*
X24850Y14930D02*
X24860Y15500D01*
X25360Y16060D02*
Y16600D01*
X12460Y29980D02*
Y30280D01*
X12770Y28915D02*
Y29140D01*
X14490Y31700D02*
X14800D01*
X14270Y32010D02*
X14800D01*
X15640D02*
X15990D01*
X12760Y33700D02*
X12770Y34040D01*
X10740Y32320D02*
X11080D01*
X9410Y32010D02*
X9900D01*
X12630Y27540D02*
X13215Y27634D01*
X12630Y27540D02*
X13182Y27755D01*
X12630Y27540D02*
X13222Y27509D01*
X13251Y28402D02*
X13286Y27705D01*
X13251Y28402D02*
X13410Y27722D01*
X13161Y27710D02*
X13251Y28402D01*
X25250Y19330D02*
Y19950D01*
X25126Y19937D02*
X25250Y19330D01*
X25374Y19937D01*
X24390Y19530D02*
Y19940D01*
X24266Y19921D02*
X24390Y19530D01*
X24514Y19921D01*
X23530Y19310D02*
Y19960D01*
X23406Y19948D02*
X23530Y19310D01*
X23654Y19948D01*
X25030Y14290D02*
X25680D01*
X25030D02*
X25668Y14414D01*
X25030Y14290D02*
X25668Y14166D01*
X25030Y14189D02*
X25680Y14290D01*
X25030Y14189D02*
X25649Y14411D01*
X25030Y14189D02*
X25687Y14165D01*
X25030Y14391D02*
X25680Y14290D01*
X25030Y14391D02*
X25687Y14415D01*
X25030Y14391D02*
X25649Y14169D01*
X25030Y14290D02*
X25680D01*
X25030D02*
X25668Y14414D01*
X25030Y14290D02*
X25668Y14166D01*
X24900Y14290D02*
X25550D01*
X24912Y14166D02*
X25550Y14290D01*
X24912Y14414D02*
X25550Y14290D01*
X24850Y14940D02*
X24974Y14302D01*
X24726D02*
X24850Y14940D01*
X24150Y13440D02*
X24800D01*
X24150D02*
X24788Y13564D01*
X24150Y13440D02*
X24788Y13316D01*
X24350Y13650D02*
X24800Y13440D01*
X24350Y13650D02*
X24838Y13559D01*
X24350Y13650D02*
X24733Y13334D01*
X24530Y13470D02*
X24800Y13440D01*
X24530Y13470D02*
X24785Y13564D01*
X24530Y13470D02*
X24758Y13322D01*
X23560Y14940D02*
X23684Y14302D01*
X23436D02*
X23560Y14940D01*
X23610Y13440D02*
X24260D01*
X23622Y13316D02*
X24260Y13440D01*
X23622Y13564D02*
X24260Y13440D01*
X23560Y12790D02*
Y13440D01*
X23436Y13428D02*
X23560Y12790D01*
X23684Y13428D01*
X23723Y9817D02*
X24110D01*
X23723D02*
X24090Y9941D01*
X23723Y9817D02*
X24090Y9694D01*
X23723Y9817D02*
X24013Y10075D01*
X23723Y9817D02*
X24013Y9560D01*
X23560Y9980D02*
X24110Y9817D01*
X23560Y9980D02*
X24133Y9941D01*
X23560Y9980D02*
X24062Y9702D01*
X23560Y9980D02*
X24123Y10092D01*
X23560Y9980D02*
X23972Y9580D01*
X23723Y9817D02*
X24110D01*
X23723D02*
X24090Y9941D01*
X23723Y9817D02*
X24090Y9694D01*
X23723Y9817D02*
X24013Y10075D01*
X23723Y9817D02*
X24013Y9560D01*
X7247Y9912D02*
X7884Y10036D01*
X7247Y10160D02*
X7884Y10036D01*
X7247Y9095D02*
X7884Y9219D01*
X7247Y9344D02*
X7884Y9219D01*
X7243Y10738D02*
X7881Y10863D01*
X7243Y10987D02*
X7881Y10863D01*
X8540Y6917D02*
X9140D01*
X8593Y7417D02*
X9140D01*
X8540Y7917D02*
X9140D01*
X8663Y8417D02*
X9140D01*
X8780Y8917D02*
X9140D01*
X8540Y6417D02*
X9140D01*
X8540Y5917D02*
X9140D01*
X7255Y8269D02*
X7618Y8392D01*
X7255Y8516D02*
X7618Y8392D01*
X7251Y7452D02*
X7695Y7575D01*
X7251Y7699D02*
X7695Y7575D01*
X7248Y6624D02*
X7799Y6749D01*
X7248Y6873D02*
X7799Y6749D01*
X7234Y5932D02*
X7885Y5917D01*
X7244Y5807D02*
X7885Y5917D01*
X7249Y6056D02*
X7885Y5917D01*
X7262Y17296D02*
X7900Y17420D01*
X7262Y17544D02*
X7900Y17420D01*
X7227Y18205D02*
X7770Y17910D01*
X7179Y18090D02*
X7770Y17910D01*
X7298Y18309D02*
X7770Y17910D01*
X7230Y19040D02*
X7849Y18661D01*
X7174Y18928D02*
X7849Y18661D01*
X7304Y19141D02*
X7849Y18661D01*
X7260Y19797D02*
X7630Y19920D01*
X7260Y20043D02*
X7630Y19920D01*
X7252Y20606D02*
X7890Y20730D01*
X7252Y20854D02*
X7890Y20730D01*
X8420Y18410D02*
X9020D01*
X8420Y18910D02*
X9020D01*
X8420Y19410D02*
X9020D01*
X8420Y19910D02*
X9020D01*
X8710Y20410D02*
X9020D01*
X8420Y17910D02*
X9020D01*
X8420Y17420D02*
X9020Y17410D01*
X7242Y21436D02*
X7880Y21560D01*
X7242Y21684D02*
X7880Y21560D01*
X7242Y22246D02*
X7880Y22370D01*
X7242Y22494D02*
X7880Y22370D01*
X24850Y14290D02*
Y15770D01*
X23723Y9817D02*
X24430D01*
X24350Y13650D02*
X24530Y13470D01*
X24360Y13450D02*
Y15780D01*
X24180Y13480D02*
X24360Y13660D01*
X23560Y9980D02*
X23723Y9817D01*
X23560Y9980D02*
Y13440D01*
X24850D01*
Y15770D02*
X24860Y15780D01*
X24850Y14290D02*
X25730D01*
X11260Y30280D02*
X12460D01*
X11090Y30450D02*
Y33490D01*
Y30450D02*
X11260Y30280D01*
X12460Y29560D02*
Y30280D01*
X12460Y30280D01*
X12760Y33700D02*
Y34130D01*
X11300Y33700D02*
X12760D01*
X11090Y33490D02*
X11300Y33700D01*
X25360Y15780D02*
Y16600D01*
X7234Y9219D02*
X7941D01*
X8030Y8404D02*
Y9130D01*
X8517Y7917D02*
X9390D01*
X7941Y9219D02*
X8030Y9130D01*
Y8404D02*
X8517Y7917D01*
X8224Y10036D02*
X8330Y9930D01*
Y8750D02*
Y9930D01*
X8630Y9067D02*
Y10620D01*
X8387Y10863D02*
X8630Y10620D01*
X7234Y10036D02*
X8224D01*
X7231Y10863D02*
X8387D01*
X8630Y9067D02*
X8780Y8917D01*
X9390D01*
X8663Y8417D02*
X9390D01*
X8330Y8750D02*
X8663Y8417D01*
X7234Y8392D02*
X7618D01*
X8593Y7417D01*
X9390D01*
X7695Y7575D02*
X8353Y6917D01*
X7234Y7575D02*
X7695D01*
X8353Y6917D02*
X9390D01*
X7249Y5917D02*
X9390D01*
X7234Y5932D02*
X7249Y5917D01*
X8130Y6417D02*
X9390D01*
X7799Y6749D02*
X8130Y6417D01*
X7234Y6749D02*
X7799D01*
X7250Y17420D02*
X9260D01*
X7770Y17910D02*
X9270D01*
X7425Y18255D02*
X7770Y17910D01*
X7227Y18255D02*
X7425D01*
X8100Y18410D02*
X9270D01*
X7420Y19090D02*
X8100Y18410D01*
X7230Y19090D02*
X7420D01*
X7230Y22370D02*
X8400D01*
X8510Y22260D01*
X8090Y21560D02*
X8260Y21390D01*
X7230Y21560D02*
X8090D01*
X7240Y20730D02*
X7890D01*
X8010Y20610D01*
Y19640D02*
Y20610D01*
Y19640D02*
X8240Y19410D01*
X9270D01*
X8260Y20020D02*
X8370Y19910D01*
X8260Y20020D02*
Y21390D01*
X8370Y19910D02*
X9270D01*
X8710Y20410D02*
X9270D01*
X8510Y20610D02*
Y22260D01*
Y20610D02*
X8710Y20410D01*
X8030Y18910D02*
X9270D01*
X7760Y19180D02*
X8030Y18910D01*
X7760Y19180D02*
Y19790D01*
X7630Y19920D02*
X7760Y19790D01*
X7240Y19920D02*
X7630D01*
X23860Y17980D02*
Y19000D01*
X24390Y19530D01*
Y19940D01*
X23530Y17570D02*
Y19960D01*
Y17570D02*
X23760Y17340D01*
X25220D01*
X25360Y17480D01*
Y17980D01*
X24860D02*
Y18940D01*
X25250Y19330D01*
Y19950D01*
X24330Y18360D02*
Y18690D01*
X24580Y18940D01*
X24860D01*
X23560Y16730D02*
X23740Y16910D01*
X23560Y14290D02*
Y16730D01*
X23740Y16910D02*
X25050D01*
X25040Y16920D02*
X25360Y16600D01*
X12460Y30280D02*
X14040D01*
X14240Y30480D01*
Y31450D01*
X14490Y31700D01*
X15220D01*
X10950Y32320D02*
X11040Y32230D01*
X10940Y32320D02*
X11030Y32410D01*
X10320Y32320D02*
X11080D01*
X12350Y32010D02*
X15220D01*
X15990D01*
X23860Y15780D02*
Y16260D01*
X12770Y28915D02*
Y29560D01*
X12630Y27540D02*
X13121D01*
X13251Y27669D01*
Y28434D01*
X12770Y28915D02*
X13251Y28434D01*
X9410Y32010D02*
X10320D01*
D26*
X8864Y32585D02*
X9345Y32647D01*
X8865Y32715D02*
X9345Y32647D01*
X8860Y31111D02*
Y31330D01*
X8796Y31320D02*
X8860Y31111D01*
X8924Y31320D01*
X15930Y32950D02*
X16200Y33220D01*
X15930Y32950D02*
X16150Y33262D01*
X15930Y32950D02*
X16242Y33170D01*
X15790Y33290D02*
X16170Y33670D01*
X15790Y33290D02*
X16121Y33713D01*
X15790Y33290D02*
X16213Y33621D01*
X15693Y33829D02*
X16130Y34090D01*
X15693Y33829D02*
X16093Y34144D01*
X15693Y33829D02*
X16160Y34032D01*
X15750Y33710D02*
X16130Y34090D01*
X15750Y33710D02*
X16081Y34133D01*
X15750Y33710D02*
X16173Y34041D01*
X14030Y36055D02*
Y36540D01*
X13965Y36536D02*
X14030Y36055D01*
X14095Y36536D01*
X13710Y35415D02*
Y35900D01*
X13645Y35896D02*
X13710Y35415D01*
X13775Y35896D01*
X13400Y36095D02*
Y36580D01*
X13335Y36576D02*
X13400Y36095D01*
X13465Y36576D01*
X13015Y35906D02*
X13080Y35425D01*
X13145Y35906D01*
X23530Y21705D02*
Y22190D01*
X23465Y22186D02*
X23530Y21705D01*
X23595Y22186D01*
X24390Y21655D02*
Y22140D01*
X24325Y22136D02*
X24390Y21655D01*
X24455Y22136D01*
X25250Y21645D02*
Y22130D01*
X25185Y22126D02*
X25250Y21645D01*
X25315Y22126D01*
X25200Y28285D02*
Y28770D01*
X25135Y28766D02*
X25200Y28285D01*
X25265Y28766D01*
X25490Y29182D02*
Y29667D01*
X25425Y29663D02*
X25490Y29182D01*
X25555Y29663D01*
X12173Y36168D02*
X12460Y35940D01*
X12137Y36113D02*
X12460Y35940D01*
X12217Y36215D02*
X12460Y35940D01*
X25920Y30245D02*
X25930Y30730D01*
X25865Y30727D02*
X25920Y30245D01*
X25995Y30724D01*
X20380Y33700D02*
Y34310D01*
X20310Y34306D02*
X20380Y33700D01*
X20450Y34306D01*
X20192Y34280D02*
X20380Y33700D01*
X20568Y34280D01*
X18380Y33700D02*
Y34310D01*
X18310Y34306D02*
X18380Y33700D01*
X18450Y34306D01*
X18192Y34280D02*
X18380Y33700D01*
X18568Y34280D01*
X16770Y30320D02*
X17050D01*
X16805Y30184D02*
X17050Y30320D01*
X16805Y30456D02*
X17050Y30320D01*
X13463Y44935D02*
Y45495D01*
X13324Y45478D02*
X13463Y44935D01*
X13602Y45478D01*
X12666Y44935D02*
Y45495D01*
X12527Y45478D02*
X12666Y44935D01*
X12805Y45478D01*
X11859Y45009D02*
Y45495D01*
X11720Y45475D02*
X11859Y45009D01*
X11997Y45475D01*
X11062Y45172D02*
Y45495D01*
X10925Y45465D02*
X11062Y45172D01*
X11198Y45465D01*
X10264Y45144D02*
Y45495D01*
X10127Y45467D02*
X10264Y45144D01*
X10401Y45467D01*
X9467Y45127D02*
Y45495D01*
X9330Y45469D02*
X9467Y45127D01*
X9604Y45469D01*
X8670Y45495D02*
X8670Y44935D01*
X8531Y45478D02*
X8670Y44935D01*
X8809Y45478D01*
X16327Y31990D02*
X16845D01*
X16327D02*
X16826Y32129D01*
X16327Y31990D02*
X16826Y31851D01*
X17705Y32910D02*
X18265D01*
X17705D02*
X18247Y33049D01*
X17705Y32910D02*
X18247Y32771D01*
X18265Y32960D02*
Y33325D01*
X18402Y32987D01*
X18128D02*
X18265Y33325D01*
X20695Y32870D02*
X20700Y32560D01*
X20559Y32836D02*
X20700Y32560D01*
X20832Y32841D01*
X20695Y32970D02*
Y33265D01*
X20831Y33003D01*
X20559D02*
X20695Y33265D01*
X9670Y43650D02*
Y44160D01*
X9760Y43658D01*
X9580D02*
X9670Y44160D01*
X10170Y43650D02*
Y44160D01*
X10260Y43658D01*
X10080D02*
X10170Y44160D01*
X10670Y43650D02*
Y44160D01*
X10760Y43658D01*
X10580D02*
X10670Y44160D01*
X11170Y43650D02*
Y44160D01*
X11260Y43658D01*
X11080D02*
X11170Y44160D01*
X11670Y43650D02*
Y44160D01*
X11760Y43658D01*
X11580D02*
X11670Y44160D01*
X11660Y40280D02*
X11670Y40650D01*
X11580Y40641D02*
X11660Y40280D01*
X11759Y40637D01*
X11170Y40270D02*
Y40650D01*
X11081Y40639D02*
X11170Y40270D01*
X11259Y40639D01*
X10670Y40210D02*
Y40650D01*
X10580Y40641D02*
X10670Y40210D01*
X10760Y40641D01*
X10170Y40140D02*
Y40650D01*
X10080Y40642D02*
X10170Y40140D01*
X10260Y40642D01*
X9670Y40140D02*
Y40650D01*
X9580Y40642D02*
X9670Y40140D01*
X9760Y40642D01*
X9170Y40140D02*
Y40650D01*
X9080Y40642D02*
X9170Y40140D01*
X9260Y40642D01*
X8670Y40140D02*
Y40650D01*
X8580Y40642D02*
X8670Y40140D01*
X8760Y40642D01*
X9170Y43650D02*
Y44160D01*
X9260Y43658D01*
X9080D02*
X9170Y44160D01*
X8670Y43650D02*
Y44160D01*
X8760Y43658D01*
X8580D02*
X8670Y44160D01*
X12770Y36020D02*
Y36580D01*
X12631Y36562D02*
X12770Y36020D01*
X12909Y36562D01*
X11200Y28700D02*
Y29140D01*
X11510Y29140D02*
X11510Y28700D01*
X11830Y28700D02*
Y29140D01*
X12140Y28700D02*
Y29140D01*
X12460Y28700D02*
Y29140D01*
X13080Y28937D02*
Y29140D01*
X13400Y28928D02*
Y29140D01*
X13710Y28930D02*
Y29140D01*
X14030Y28980D02*
Y29140D01*
X15640Y30440D02*
X15850Y30250D01*
X15640Y30750D02*
X15940D01*
X15640Y31070D02*
X16080D01*
X15640Y31380D02*
X16080D01*
X15640Y31700D02*
X16037D01*
X15640Y32320D02*
X16080D01*
X15640Y32640D02*
X16050D01*
X15640Y32950D02*
X15930D01*
X15640Y33270D02*
X15770D01*
X15640D02*
X15770D01*
X15220Y33580D02*
X16065Y34025D01*
X12770Y34880D02*
Y35320D01*
X12460Y34880D02*
Y35320D01*
X12140Y34880D02*
Y35290D01*
X11830Y34880D02*
Y35130D01*
X11273Y35207D02*
X11510Y34880D01*
Y34970D01*
Y34880D02*
Y34970D01*
X10760Y34460D02*
X11200D01*
X9700Y33580D02*
X9900D01*
X9641Y33270D02*
X9900D01*
X9471Y32950D02*
X9900D01*
X9460Y32646D02*
X9900Y32640D01*
X9460Y32320D02*
X9900D01*
X9460Y31700D02*
X9900D01*
X9460Y31380D02*
X9900D01*
X9600Y31070D02*
X9900D01*
X9720Y30750D02*
X9900D01*
X10320Y30000D02*
Y30440D01*
X14030Y34880D02*
Y35320D01*
X13710Y34880D02*
Y35320D01*
X13400Y34880D02*
Y35320D01*
X13080D02*
X13080Y34880D01*
X8438Y31561D02*
X8980Y31700D01*
X8438Y31839D02*
X8980Y31700D01*
X8430Y32540D02*
X8700Y32320D01*
X8365Y32416D02*
X8700Y32320D01*
X8538Y32629D02*
X8700Y32320D01*
X12460Y28460D02*
X12649Y28271D01*
X12460Y28460D02*
X12719Y28392D01*
X12460Y28460D02*
X12528Y28201D01*
X25250Y21360D02*
X25389Y20817D01*
X25111D02*
X25250Y21360D01*
X24390Y21350D02*
X24529Y20807D01*
X24251D02*
X24390Y21350D01*
X23530Y21370D02*
X23669Y20828D01*
X23391D02*
X23530Y21370D01*
X12140Y8917D02*
X12650D01*
X12148Y8828D02*
X12650Y8917D01*
X12148Y9007D02*
X12650Y8917D01*
X12140Y8417D02*
X12650D01*
X12148Y8328D02*
X12650Y8417D01*
X12148Y8507D02*
X12650Y8417D01*
X12140Y7917D02*
X12650D01*
X12148Y7828D02*
X12650Y7917D01*
X12148Y8007D02*
X12650Y7917D01*
X12140Y7417D02*
X12650D01*
X12148Y7328D02*
X12650Y7417D01*
X12148Y7507D02*
X12650Y7417D01*
X12140Y6917D02*
X12650D01*
X12148Y6828D02*
X12650Y6917D01*
X12148Y7007D02*
X12650Y6917D01*
X12140Y6417D02*
X12650D01*
X12148Y6328D02*
X12650Y6417D01*
X12148Y6507D02*
X12650Y6417D01*
X12140Y5917D02*
X12650D01*
X12148Y5828D02*
X12650Y5917D01*
X12148Y6007D02*
X12650Y5917D01*
X12020Y20410D02*
X12530D01*
X12028Y20320D02*
X12530Y20410D01*
X12028Y20500D02*
X12530Y20410D01*
X12020Y19910D02*
X12530D01*
X12028Y19820D02*
X12530Y19910D01*
X12028Y20000D02*
X12530Y19910D01*
X12020Y19410D02*
X12530D01*
X12028Y19320D02*
X12530Y19410D01*
X12028Y19500D02*
X12530Y19410D01*
X12020Y18910D02*
X12530D01*
X12028Y18820D02*
X12530Y18910D01*
X12028Y19000D02*
X12530Y18910D01*
X12020Y18410D02*
X12530D01*
X12028Y18320D02*
X12530Y18410D01*
X12028Y18500D02*
X12530Y18410D01*
X12020Y17910D02*
X12530D01*
X12028Y17820D02*
X12530Y17910D01*
X12028Y18000D02*
X12530Y17910D01*
X12020Y17410D02*
X12530D01*
X12028Y17320D02*
X12530Y17410D01*
X12028Y17500D02*
X12530Y17410D01*
X16870Y27380D02*
X24890D01*
X25200Y27690D01*
Y28770D01*
X25490Y27330D02*
Y29667D01*
X25190Y27030D02*
X25490Y27330D01*
X16660Y27030D02*
X25190D01*
X25920Y26940D02*
Y30720D01*
X25750Y26770D02*
X25920Y26940D01*
X16290Y27400D02*
X16660Y27030D01*
X16070Y27050D02*
X16350Y26770D01*
X25750D01*
X16070Y27050D02*
Y30620D01*
X17140Y28800D02*
Y30230D01*
X16600Y27650D02*
X16870Y27380D01*
X16600Y27650D02*
Y28260D01*
X17140Y28800D01*
X16290Y27400D02*
Y30890D01*
X16060Y26430D02*
X26460D01*
X15850Y26640D02*
Y30250D01*
Y26640D02*
X16060Y26430D01*
X26460D02*
X26760Y26730D01*
X20700Y32560D02*
Y32920D01*
X20380Y33580D02*
Y34310D01*
Y33580D02*
X20695Y33265D01*
Y32920D02*
Y33265D01*
X18380Y33440D02*
Y34310D01*
X18265Y33325D02*
X18380Y33440D01*
X18265Y32910D02*
Y33325D01*
X15930Y32950D02*
X16200Y33220D01*
X15220Y32950D02*
X15930D01*
X15770Y33270D02*
X16170Y33670D01*
X15220Y33270D02*
X15770D01*
X15620Y33580D02*
X16130Y34090D01*
X15220Y33580D02*
X15620D01*
X16320Y32910D02*
X18265D01*
X16050Y32640D02*
X16320Y32910D01*
X15220Y32640D02*
X16050D01*
X20590Y32450D02*
X20700Y32560D01*
X16380Y32450D02*
X20590D01*
X16250Y32320D02*
X16380Y32450D01*
X15220Y32320D02*
X16250D01*
X8840Y28660D02*
Y31091D01*
X8860Y31111D01*
Y31330D01*
Y32650D02*
X10320Y32640D01*
X8430Y32590D02*
X8700Y32320D01*
X10320D01*
X8420Y31700D02*
X10320D01*
X15220Y31380D02*
X16550D01*
X15220Y31070D02*
X16120D01*
X16720Y30320D02*
Y31210D01*
X16550Y31380D02*
X16720Y31210D01*
X17050Y30320D02*
X17140Y30230D01*
X16720Y30320D02*
X17050D01*
X16120Y31060D02*
Y31070D01*
Y31060D02*
X16290Y30890D01*
X15940Y30750D02*
X16070Y30620D01*
X15220Y30750D02*
X15940D01*
X15220Y30440D02*
X15660D01*
X15850Y30250D01*
X14340Y29560D02*
X15120D01*
X15630Y29050D01*
X11890Y5917D02*
X15297D01*
X15630Y6250D01*
Y29050D01*
X11890Y6417D02*
X15067D01*
X15410Y6760D01*
X14497Y7417D02*
X14970Y7890D01*
X11890Y7417D02*
X14497D01*
X11890Y6917D02*
X14747D01*
X15190Y7360D01*
X11890Y7917D02*
X14227D01*
X14750Y8440D01*
X14057Y8417D02*
X14530Y8890D01*
X11890Y8417D02*
X14057D01*
X11890Y8917D02*
X13957D01*
X14310Y9270D01*
X12430Y27170D02*
X14250D01*
X14530Y26890D01*
X12140Y27460D02*
X12430Y27170D01*
X12140Y27460D02*
Y29560D01*
X14530Y8890D02*
Y26890D01*
X13970Y26950D02*
X14310Y26610D01*
Y9270D02*
Y26610D01*
X12100Y26950D02*
X13970D01*
X13860Y17410D02*
X14090Y17640D01*
X11770Y17410D02*
X13860D01*
X13700Y24910D02*
X14090Y24520D01*
Y17640D02*
Y24520D01*
X11770Y17910D02*
X13670D01*
X13870Y18110D01*
Y24260D01*
X13440Y24690D02*
X13870Y24260D01*
X11200Y24870D02*
X11380Y24690D01*
X11200Y24870D02*
Y29560D01*
X11380Y24690D02*
X13440D01*
X11510Y25130D02*
X11730Y24910D01*
X11510Y25130D02*
Y29670D01*
X11730Y24910D02*
X13700D01*
X10320Y29810D02*
Y30440D01*
Y29810D02*
X10960Y29170D01*
X11220Y24440D02*
X13290D01*
X13650Y24080D01*
Y18720D02*
Y24080D01*
X13340Y18410D02*
X13650Y18720D01*
X11770Y18410D02*
X13340D01*
X10960Y24700D02*
X11220Y24440D01*
X10960Y24700D02*
Y29170D01*
X11770Y18910D02*
X13170D01*
X13430Y19170D01*
Y23790D01*
X13000Y24220D02*
X13430Y23790D01*
X11060Y24220D02*
X13000D01*
X10720Y24560D02*
X11060Y24220D01*
X9590Y30620D02*
X9720Y30750D01*
X10320D01*
X9590Y29210D02*
X9750Y29050D01*
X10540D02*
X10720Y28870D01*
X9750Y29050D02*
X10540D01*
X10720Y24560D02*
Y28870D01*
X9590Y29210D02*
Y30620D01*
X9600Y31070D02*
X10320D01*
X9290Y30760D02*
X9600Y31070D01*
X9290Y29050D02*
Y30760D01*
Y29050D02*
X9530Y28810D01*
X10280D01*
X10500Y28590D01*
Y24350D02*
Y28590D01*
Y24350D02*
X10880Y23970D01*
X12850D01*
X13210Y23610D01*
Y19660D02*
Y23610D01*
X12960Y19410D02*
X13210Y19660D01*
X11770Y19410D02*
X12960D01*
X11770Y19910D02*
X12790D01*
X12990Y20110D01*
Y23410D01*
X12670Y23730D02*
X12990Y23410D01*
X10650Y23730D02*
X12670D01*
X10270Y24110D02*
X10650Y23730D01*
X10270Y24110D02*
Y28290D01*
X10020Y28540D02*
X10270Y28290D01*
X9350Y28540D02*
X10020D01*
X9060Y28830D02*
X9350Y28540D01*
X9440Y31380D02*
X10320D01*
X9060Y31000D02*
X9440Y31380D01*
X9060Y28830D02*
Y31000D01*
X11770Y20410D02*
X12640D01*
X12770Y20540D01*
Y23110D01*
X12370Y23510D02*
X12770Y23110D01*
X10430Y23510D02*
X12370D01*
X10040Y23900D02*
X10430Y23510D01*
X10040Y23900D02*
Y28030D01*
X9820Y28250D02*
X10040Y28030D01*
X9250Y28250D02*
X9820D01*
X8840Y28660D02*
X9250Y28250D01*
X9700Y33580D02*
X10320D01*
X9110Y34170D02*
X9700Y33580D01*
X8890Y34021D02*
X9641Y33270D01*
X10320D01*
X8670Y33751D02*
X9471Y32950D01*
X8670Y33751D02*
Y40900D01*
X9471Y32950D02*
X10320D01*
X9750Y34460D02*
X11200D01*
X9330Y34880D02*
X9750Y34460D01*
X11510Y34460D02*
Y34970D01*
X11260Y35220D02*
X11510Y34970D01*
X9790Y35220D02*
X11260D01*
X9550Y35460D02*
X9790Y35220D01*
X9770Y35690D02*
X10020Y35440D01*
X11520D01*
X11830Y35130D01*
Y34460D02*
Y35130D01*
X12140Y34460D02*
Y35290D01*
X11750Y35680D02*
X12140Y35290D01*
X10240Y35680D02*
X11750D01*
X9990Y35930D02*
X10240Y35680D01*
X9990Y35930D02*
Y38600D01*
X9330Y34880D02*
Y39290D01*
X10170Y40130D01*
Y40900D01*
X10670Y40210D02*
Y40900D01*
X8890Y39840D02*
X9170Y40120D01*
Y40900D01*
X8890Y34021D02*
Y39840D01*
X9110Y39560D02*
X9670Y40120D01*
X9110Y34170D02*
Y39560D01*
X9670Y40120D02*
Y40970D01*
X9550Y35460D02*
Y39090D01*
X10670Y40210D01*
X9770Y38870D02*
X11170Y40270D01*
X9770Y35690D02*
Y38870D01*
X11170Y40270D02*
Y41010D01*
X10430Y39050D02*
X11660Y40280D01*
Y40890D01*
X9990Y38600D02*
X10430Y39040D01*
Y39050D01*
X11670Y40890D02*
Y40900D01*
X8670Y43400D02*
Y45495D01*
X9467Y45127D02*
Y45495D01*
X9170Y44830D02*
X9467Y45127D01*
X9170Y43400D02*
Y44830D01*
X9670Y43400D02*
Y44550D01*
X10264Y45144D01*
Y45495D01*
X10670Y43400D02*
Y44469D01*
X11061Y44860D01*
X11710D01*
X11859Y45009D01*
Y45495D01*
X11170Y43400D02*
Y44410D01*
X11400Y44640D01*
X12460D01*
X12666Y44846D01*
Y45495D01*
X11670Y43400D02*
Y44200D01*
X11890Y44420D01*
X13330D01*
X13463Y44553D01*
Y45495D01*
X10170Y44610D02*
X10490Y44930D01*
X10820D02*
X11062Y45172D01*
Y45495D01*
X10490Y44930D02*
X10820D01*
X10170Y43400D02*
Y44610D01*
X13080Y35910D02*
X13080Y34460D01*
X13710Y34460D02*
Y35900D01*
X13400Y34460D02*
Y36580D01*
X14030Y34460D02*
Y36540D01*
X25250Y19950D02*
X25290Y19910D01*
X23530Y20810D02*
Y22190D01*
X24390Y20790D02*
Y22140D01*
X25250Y20800D02*
Y22130D01*
X12460Y34460D02*
Y35940D01*
X12200Y36200D02*
X12460Y35940D01*
X13080Y28937D02*
Y29560D01*
X13400Y28928D02*
Y29560D01*
X12460Y28460D02*
X12649Y28271D01*
X12460Y28460D02*
Y29560D01*
X13080Y28937D02*
X14750Y27267D01*
Y8440D02*
Y27267D01*
X13400Y28928D02*
X14970Y27358D01*
Y7890D02*
Y27358D01*
X13710Y28930D02*
Y29560D01*
Y28930D02*
X15190Y27450D01*
Y7360D02*
Y27450D01*
X14030Y28980D02*
Y29560D01*
Y28980D02*
X15410Y27600D01*
Y6760D02*
Y27600D01*
X11830Y27220D02*
Y29560D01*
Y27220D02*
X12100Y26950D01*
X11820Y29560D02*
Y29660D01*
X12770Y34460D02*
Y36630D01*
X16037Y31700D02*
X16327Y31990D01*
X16845D01*
X15220Y31700D02*
X16037D01*
D27*
X19563Y23063D02*
X20488D01*
X19563D02*
X20461Y23286D01*
X19563Y23063D02*
X20461Y22840D01*
X19563Y25819D02*
X20488D01*
X19563D02*
X20461Y26042D01*
X19563Y25819D02*
X20461Y25596D01*
X17759D02*
X18657Y25819D01*
X17759Y26042D02*
X18657Y25819D01*
X16807Y25820D02*
X17732Y25819D01*
X16807Y25820D02*
X17705Y26042D01*
X16807Y25820D02*
X17704Y25596D01*
X17759Y22840D02*
X18657Y23063D01*
X17759Y23286D02*
X18657Y23063D01*
X17759Y17678D02*
X18657Y17902D01*
X17759Y18125D02*
X18657Y17902D01*
X16807Y20657D02*
X17732D01*
X16807D02*
X17705Y20881D01*
X16807Y20657D02*
X17705Y20434D01*
X17759D02*
X18657Y20657D01*
X17759Y20881D02*
X18657Y20657D01*
X19563D02*
X20488D01*
X19563D02*
X20461Y20881D01*
X19563Y20657D02*
X20461Y20434D01*
X19563Y17902D02*
X20488D01*
X19563D02*
X20461Y18125D01*
X19563Y17902D02*
X20461Y17678D01*
X19563Y12740D02*
X20488D01*
X19563D02*
X20461Y12963D01*
X19563Y12740D02*
X20461Y12517D01*
X19563Y15496D02*
X20488D01*
X19563D02*
X20461Y15719D01*
X19563Y15496D02*
X20461Y15273D01*
X16816Y15496D02*
X17732D01*
X16816D02*
X17704Y15719D01*
X16816Y15496D02*
X17704Y15273D01*
X17759Y15273D02*
X18657Y15496D01*
X17759Y15719D02*
X18657Y15496D01*
X17759Y12517D02*
X18657Y12740D01*
X17759Y12963D02*
X18657Y12740D01*
X17749Y7279D02*
X18647Y7502D01*
X17749Y7725D02*
X18647Y7502D01*
X16972Y10258D02*
X17722D01*
X16972D02*
X17688Y10480D01*
X16972Y10258D02*
X17688Y10036D01*
X17749Y10035D02*
X18647Y10258D01*
X17749Y10481D02*
X18647Y10258D01*
X19553D02*
X20478D01*
X19553D02*
X20451Y10481D01*
X19553Y10258D02*
X20451Y10035D01*
X19553Y7502D02*
X20478D01*
X19553D02*
X20451Y7725D01*
X19553Y7502D02*
X20451Y7279D01*
X19563Y2417D02*
X20488D01*
X19563D02*
X20461Y2641D01*
X19563Y2417D02*
X20461Y2194D01*
X19563Y5173D02*
X20488D01*
X19563D02*
X20461Y5397D01*
X19563Y5173D02*
X20461Y4950D01*
X17759D02*
X18657Y5173D01*
X17759Y5397D02*
X18657Y5173D01*
X16983Y4424D02*
X17732Y5173D01*
X16983Y4424D02*
X17557Y5315D01*
X16983Y4424D02*
X17873Y4998D01*
X17759Y2194D02*
X18657Y2417D01*
X17759Y2641D02*
X18657Y2417D01*
X1129Y17678D02*
X2027Y17902D01*
X1129Y18125D02*
X2027Y17902D01*
X1129Y20434D02*
X2027Y20657D01*
X1129Y20881D02*
X2027Y20657D01*
X2933D02*
X3858D01*
X2933D02*
X3831Y20881D01*
X2933Y20657D02*
X3831Y20434D01*
X3901Y20437D02*
X4453Y20657D01*
X3901Y20878D02*
X4453Y20657D01*
X2933Y17902D02*
X3858D01*
X2933D02*
X3831Y18125D01*
X2933Y17902D02*
X3831Y17678D01*
X1129Y22840D02*
X2027Y23063D01*
X1129Y23286D02*
X2027Y23063D01*
X1129Y25596D02*
X2027Y25819D01*
X1129Y26042D02*
X2027Y25819D01*
X2933D02*
X3858D01*
X2933D02*
X3831Y26042D01*
X2933Y25819D02*
X3831Y25596D01*
X3892Y25596D02*
X4611Y25819D01*
X3892Y26041D02*
X4611Y25819D01*
X2933Y23063D02*
X3858D01*
X2933D02*
X3831Y23286D01*
X2933Y23063D02*
X3831Y22840D01*
X3150Y28550D02*
X3858Y28224D01*
X3150Y28550D02*
X3921Y28440D01*
X3150Y28550D02*
X3735Y28036D01*
X3476Y28224D02*
X3858D01*
X3476D02*
X3792Y28439D01*
X3476Y28224D02*
X3792Y28009D01*
X3476Y28224D02*
X3858D01*
X3476D02*
X3792Y28439D01*
X3476Y28224D02*
X3792Y28009D01*
X3885Y28001D02*
X4783Y28224D01*
X3885Y28448D02*
X4783Y28224D01*
X3380Y30980D02*
X3858D01*
X3380D02*
X3805Y31199D01*
X3380Y30980D02*
X3805Y30762D01*
X961Y37022D02*
X1851Y36448D01*
X1277Y37338D02*
X1851Y36448D01*
X1102Y41567D02*
Y42492D01*
X879Y42465D02*
X1102Y41567D01*
X1325Y42465D01*
X24082Y55899D02*
X24980Y56122D01*
X24082Y56345D02*
X24980Y56122D01*
X24055Y55345D02*
Y56122D01*
X23832Y56089D02*
X24055Y55345D01*
X24277Y56089D01*
X24082Y58655D02*
X24980Y58878D01*
X24082Y59101D02*
X24980Y58878D01*
X25886D02*
X26783Y59101D01*
X25886Y58878D02*
X26783Y58655D01*
X25886Y56122D02*
X26811D01*
X25886D02*
X26783Y56345D01*
X25886Y56122D02*
X26783Y55899D01*
X18709Y56122D02*
X19634D01*
X18709D02*
X19606Y56345D01*
X18709Y56122D02*
X19606Y55899D01*
X18709Y58878D02*
X19634D01*
X18709D02*
X19606Y59101D01*
X18709Y58878D02*
X19606Y58655D01*
X16905D02*
X17803Y58878D01*
X16905Y59101D02*
X17803Y58878D01*
X16905Y55899D02*
X17803Y56122D01*
X16905Y56345D02*
X17803Y56122D01*
X16878Y55588D02*
Y56122D01*
X16658Y56075D02*
X16878Y55588D01*
X17098Y56075D01*
X8307Y55899D02*
X9204Y56122D01*
X8307Y56345D02*
X9204Y56122D01*
X8279Y55197D02*
Y56122D01*
X8056Y56095D02*
X8279Y55197D01*
X8503Y56095D01*
X8307Y58655D02*
X9204Y58878D01*
X8307Y59101D02*
X9204Y58878D01*
X10110D02*
X11035D01*
X10110D02*
X11008Y59101D01*
X10110Y58878D02*
X11008Y58655D01*
X10110Y56122D02*
X11035D01*
X10110D02*
X11008Y56345D01*
X10110Y56122D02*
X11008Y55899D01*
X2933Y56122D02*
X3858D01*
X2933D02*
X3831Y56345D01*
X2933Y56122D02*
X3831Y55899D01*
X3840Y55197D02*
X3858Y56122D01*
X3634Y56099D02*
X3840Y55197D01*
X4081Y56090D01*
X2933Y58878D02*
X3858D01*
X2933D02*
X3831Y59101D01*
X2933Y58878D02*
X3831Y58655D01*
X1129D02*
X2027Y58878D01*
X1129Y59101D02*
X2027Y58878D01*
X1129Y55899D02*
X2027Y56122D01*
X1129Y56345D02*
X2027Y56122D01*
X17759Y28001D02*
X18657Y28224D01*
X17759Y28448D02*
X18657Y28224D01*
X17759Y30757D02*
X18657Y30980D01*
X17759Y31204D02*
X18657Y30980D01*
X20488D02*
X21414Y30950D01*
X20508Y30756D02*
X21414Y30950D01*
X20522Y31203D02*
X21414Y30950D01*
X19563Y30980D02*
X20488D01*
X19563D02*
X20461Y31204D01*
X19563Y30980D02*
X20461Y30757D01*
X19563Y28224D02*
X20488D01*
X19563D02*
X20461Y28448D01*
X19563Y28224D02*
X20461Y28001D01*
X1129Y12517D02*
X2027Y12740D01*
X1129Y12963D02*
X2027Y12740D01*
X1129Y15273D02*
X2027Y15496D01*
X1129Y15719D02*
X2027Y15496D01*
X2933D02*
X3858D01*
X2933D02*
X3831Y15719D01*
X2933Y15496D02*
X3831Y15273D01*
X3885D02*
X4783Y15496D01*
X3885Y15719D02*
X4783Y15496D01*
X2933Y12740D02*
X3858D01*
X2933D02*
X3831Y12963D01*
X2933Y12740D02*
X3831Y12517D01*
X1129Y7355D02*
X2027Y7579D01*
X1129Y7802D02*
X2027Y7579D01*
X1129Y10111D02*
X2027Y10335D01*
X1129Y10558D02*
X2027Y10335D01*
X2933D02*
X3858D01*
X2933D02*
X3831Y10558D01*
X2933Y10335D02*
X3831Y10111D01*
X3885D02*
X4783Y10335D01*
X3885Y10558D02*
X4783Y10335D01*
X2933Y7579D02*
X3858D01*
X2933D02*
X3831Y7802D01*
X2933Y7579D02*
X3831Y7355D01*
X1129Y2194D02*
X2027Y2417D01*
X1129Y2641D02*
X2027Y2417D01*
X1129Y4950D02*
X2027Y5173D01*
X1129Y5397D02*
X2027Y5173D01*
X2933D02*
X3858D01*
X2933D02*
X3831Y5397D01*
X2933Y5173D02*
X3831Y4950D01*
X3904Y4953D02*
X4403Y5173D01*
X3904Y5393D02*
X4403Y5173D01*
X2933Y2417D02*
X3858D01*
X2933D02*
X3831Y2641D01*
X2933Y2417D02*
X3831Y2194D01*
X10487Y13343D02*
X11383D01*
X10487D02*
X11361Y13537D01*
X10487Y13343D02*
X11361Y13149D01*
X7687Y13343D02*
X8583D01*
X7687D02*
X8561Y13537D01*
X7687Y13343D02*
X8561Y13149D01*
X17759Y42269D02*
X18657Y42492D01*
X17759Y42715D02*
X18657Y42492D01*
X17759Y45025D02*
X18657Y45248D01*
X17759Y45471D02*
X18657Y45248D01*
X17732Y46173D02*
X17955Y45275D01*
X17509D02*
X17732Y46173D01*
X19563Y45248D02*
X20488D01*
X19563D02*
X20461Y45471D01*
X19563Y45248D02*
X20461Y45025D01*
X19563Y42492D02*
X20488D01*
X19563D02*
X20461Y42715D01*
X19563Y42492D02*
X20461Y42269D01*
X17759Y36974D02*
X18657Y37197D01*
X17759Y37420D02*
X18657Y37197D01*
X17127Y39953D02*
X17732D01*
X17127D02*
X17690Y40174D01*
X17127Y39953D02*
X17690Y39732D01*
X17759Y39729D02*
X18657Y39953D01*
X17759Y40176D02*
X18657Y39953D01*
X19563D02*
X20488D01*
X19563D02*
X20461Y40176D01*
X19563Y39953D02*
X20461Y39729D01*
X19563Y37197D02*
X20488D01*
X19563D02*
X20461Y37420D01*
X19563Y37197D02*
X20461Y36974D01*
X16720Y29060D02*
Y29470D01*
X13513Y46345D02*
X14313D01*
X16845Y31453D02*
Y31940D01*
X5584Y10036D02*
X6384D01*
X5584Y9219D02*
X6384D01*
X6381Y10913D02*
Y11713D01*
X5622Y8392D02*
X6384D01*
X5895Y7575D02*
X6384D01*
X6049Y6749D02*
X6384D01*
Y5386D02*
Y5882D01*
X6050Y17420D02*
X6400D01*
X5915Y18255D02*
X6377D01*
X5580Y19090D02*
X6380D01*
X5590Y19920D02*
X6390D01*
X5590Y20730D02*
X6390D01*
X9520Y20910D02*
X9890D01*
X5610Y21560D02*
X6380D01*
X5990Y22370D02*
X6380D01*
X16369Y3810D02*
X17732Y5173D01*
X5270Y3810D02*
X16369D01*
X4830Y4250D02*
X5270Y3810D01*
X16230Y4170D02*
X16850Y4790D01*
X5530Y4170D02*
X16230D01*
X5200Y4500D02*
X5530Y4170D01*
X15920Y4510D02*
X16550Y5140D01*
X5930Y4510D02*
X15920D01*
X5550Y4890D02*
X5930Y4510D01*
X22530Y36090D02*
X23120Y35500D01*
X17030Y36090D02*
X22530D01*
X16720Y29060D02*
Y29470D01*
X2038Y25758D02*
X2288Y25508D01*
X2298Y25500D02*
X2548Y25750D01*
X2042Y23062D02*
X2292Y23312D01*
X2300Y23322D02*
X2550Y23072D01*
X2100Y20658D02*
X2350Y20408D01*
X2368Y20390D02*
X2618Y20640D01*
X2112Y17922D02*
X2362Y18172D01*
X2370Y18182D02*
X2620Y17932D01*
X2058Y15458D02*
X2308Y15208D01*
X2318Y15200D02*
X2568Y15450D01*
X2062Y12762D02*
X2312Y13012D01*
X2320Y13022D02*
X2570Y12772D01*
X2050Y10288D02*
X2300Y10038D01*
X2318Y10040D02*
X2568Y10290D01*
X2062Y7592D02*
X2312Y7842D01*
X2320Y7852D02*
X2570Y7602D01*
X2100Y5158D02*
X2350Y4908D01*
X2368Y4910D02*
X2618Y5160D01*
X2370Y2712D02*
X2620Y2462D01*
X2102Y2460D02*
X2352Y2710D01*
X19210Y2702D02*
X19460Y2452D01*
X18942Y2450D02*
X19192Y2700D01*
X19208Y4890D02*
X19458Y5140D01*
X18940Y5138D02*
X19190Y4888D01*
X19040Y7782D02*
X19290Y7532D01*
X18772Y7520D02*
X19022Y7770D01*
X19028Y9958D02*
X19278Y10208D01*
X18770Y10198D02*
X19020Y9948D01*
X19022Y13032D02*
X19272Y12782D01*
X18762Y12790D02*
X19012Y13040D01*
X19020Y15220D02*
X19270Y15470D01*
X18770D02*
X19020Y15220D01*
X19070Y18182D02*
X19320Y17932D01*
X18802Y17930D02*
X19052Y18180D01*
X19068Y20390D02*
X19318Y20640D01*
X18800Y20648D02*
X19050Y20398D01*
X18992Y23322D02*
X19242Y23072D01*
X18732Y23080D02*
X18982Y23330D01*
X18998Y25540D02*
X19248Y25790D01*
X18730Y25808D02*
X18980Y25558D01*
X19098Y28476D02*
X19348Y28226D01*
X18838Y28234D02*
X19088Y28484D01*
Y30670D02*
X19338Y30920D01*
X18820Y30972D02*
X19070Y30722D01*
X19110Y37452D02*
X19360Y37202D01*
X18842Y37230D02*
X19092Y37480D01*
X19100Y39700D02*
X19350Y39950D01*
X18840Y39948D02*
X19090Y39698D01*
X19148Y42744D02*
X19398Y42494D01*
X18888Y42502D02*
X19138Y42752D01*
X19128Y44980D02*
X19378Y45230D01*
X18860Y45248D02*
X19110Y44998D01*
X17732Y45248D02*
X20488D01*
X17732Y42492D02*
X20488D01*
X19120D02*
Y45228D01*
X5450Y21720D02*
Y26960D01*
X2320Y27920D02*
Y40010D01*
X4980Y27390D02*
X5450Y26920D01*
X1102Y41228D02*
Y42492D01*
Y41228D02*
X2320Y40010D01*
X3476Y28224D02*
X5406D01*
X3150Y28550D02*
X3476Y28224D01*
X3150Y28550D02*
Y30750D01*
X3380Y30980D01*
X3858D01*
X5406Y28224D02*
X5750Y27880D01*
Y22610D02*
Y27880D01*
X2320Y27920D02*
X2850Y27390D01*
X4980D01*
X5150Y20890D02*
Y26210D01*
X4340Y27020D02*
X5150Y26210D01*
X1890Y27510D02*
X2380Y27020D01*
X4340D01*
X11062Y46345D02*
Y47312D01*
X6384Y5386D02*
X6490Y5280D01*
X15520D01*
X15890Y5650D01*
Y25410D02*
X16300Y25820D01*
X15890Y5650D02*
Y25410D01*
X6049Y6749D02*
X6384D01*
X5890Y6590D02*
X6049Y6749D01*
X5890Y5160D02*
Y6590D01*
Y5160D02*
X6160Y4890D01*
X6384Y5386D02*
Y5932D01*
X15630Y4890D02*
X16220Y5480D01*
X6160Y4890D02*
X15630D01*
X5895Y7575D02*
X6384D01*
X5550Y7230D02*
X5895Y7575D01*
X5550Y4890D02*
Y7230D01*
X5622Y8392D02*
X6384D01*
X5200Y7970D02*
X5622Y8392D01*
X5200Y4500D02*
Y7970D01*
X16300Y25820D02*
X17731D01*
X17732Y25819D01*
X16220Y20350D02*
X16527Y20657D01*
X16220Y5480D02*
Y20350D01*
X16550Y5140D02*
Y15230D01*
X16816Y15496D01*
X16850Y10136D02*
X16972Y10258D01*
X16850Y4790D02*
Y10136D01*
X4830Y8849D02*
X5200Y9219D01*
X6384D01*
X4830Y4250D02*
Y8849D01*
X5216Y10036D02*
X6384D01*
X4530Y9350D02*
X5216Y10036D01*
X4530Y5300D02*
Y9350D01*
X4403Y5173D02*
X4530Y5300D01*
X5115Y10335D02*
X5740Y10960D01*
Y17110D01*
X6050Y17420D01*
X6400D01*
X5915Y18255D02*
X6377D01*
X5370Y17710D02*
X5915Y18255D01*
X5120Y15496D02*
X5370Y15746D01*
Y17710D01*
X4550Y19380D02*
X4840Y19090D01*
X6380D01*
X5120Y19920D02*
X6390D01*
X4850Y20190D02*
X5120Y19920D01*
X5310Y20730D02*
X6390D01*
X5150Y20890D02*
X5310Y20730D01*
X5450Y21720D02*
X5610Y21560D01*
X6380D01*
X5750Y22610D02*
X5990Y22370D01*
X6380D01*
X4611Y25819D02*
X4850Y25580D01*
Y20190D02*
Y25580D01*
X1102Y25819D02*
X4611D01*
X4453Y20657D02*
X4550Y20560D01*
Y19380D02*
Y20560D01*
X6381Y13121D02*
X6603Y13343D01*
X6381Y10863D02*
Y13121D01*
X6603Y13343D02*
X8583D01*
X2310Y7579D02*
Y10315D01*
X2290Y10335D02*
X2310Y10315D01*
X1102Y7579D02*
X3858D01*
X1102Y10335D02*
X5115D01*
X2360Y2417D02*
Y5163D01*
X2370Y5173D01*
X1102Y2417D02*
X3858D01*
X1102Y5173D02*
X4403D01*
X2310Y12740D02*
Y15456D01*
X2270Y15496D02*
X2310Y15456D01*
X1102Y12740D02*
X3858D01*
X1102Y15496D02*
X5120D01*
X2360Y17922D02*
Y20657D01*
X1102Y17902D02*
X3858D01*
X1102Y20657D02*
X4453D01*
X2290Y23063D02*
Y25789D01*
X1102Y23063D02*
X3858D01*
X18990Y23073D02*
Y25819D01*
X17732Y23063D02*
X20488D01*
X17732Y25819D02*
X20488D01*
X19060Y17922D02*
Y20657D01*
X17732Y17902D02*
X20488D01*
X16527Y20657D02*
X20488D01*
X19020Y12760D02*
Y15496D01*
X17732Y12740D02*
X20488D01*
X16816Y15496D02*
X20488D01*
X19030Y7512D02*
Y10258D01*
X17722Y7502D02*
X20478D01*
X16972Y10258D02*
X20478D01*
X19200Y2417D02*
Y5173D01*
X17732Y2417D02*
X20488D01*
X17732Y5173D02*
X20488D01*
X5570Y50270D02*
X8670Y47170D01*
Y46345D02*
Y47170D01*
X5350Y54460D02*
X5570Y54240D01*
Y50270D02*
Y54240D01*
X10264Y46345D02*
Y47036D01*
X9800Y47500D02*
Y54720D01*
X10460Y55380D01*
X9800Y47500D02*
X10264Y47036D01*
X12230Y54540D02*
X12770Y55080D01*
X12230Y48480D02*
Y54540D01*
X11062Y47312D02*
X12230Y48480D01*
X3840Y56104D02*
X3858Y56122D01*
X3840Y54760D02*
X4140Y54460D01*
X3840Y54760D02*
Y56104D01*
X4140Y54460D02*
X5350D01*
X2340Y56142D02*
Y58878D01*
X1102Y56122D02*
X3858D01*
X1102Y58878D02*
X3858D01*
X8279Y54601D02*
X8680Y54200D01*
X8279Y54601D02*
Y56122D01*
X9640Y56142D02*
Y58878D01*
Y56142D02*
X9660Y56122D01*
X8279D02*
X11035D01*
X8279Y58878D02*
X11035D01*
X9467Y46345D02*
Y53903D01*
X9170Y54200D02*
X9467Y53903D01*
X8680Y54200D02*
X9170D01*
X16878Y56122D02*
X19634D01*
X24055Y55345D02*
Y56122D01*
X23790Y55080D02*
X24055Y55345D01*
X25570Y56122D02*
Y58878D01*
X12770Y55080D02*
X23790D01*
X24055Y56122D02*
X26811D01*
X24055Y58878D02*
X26811D01*
X16878Y55588D02*
Y56122D01*
X16670Y55380D02*
X16878Y55588D01*
X18190Y56132D02*
Y58878D01*
X10460Y55380D02*
X16670D01*
X16878Y58878D02*
X19634D01*
X12666Y46960D02*
X12986Y47280D01*
X12666Y46345D02*
Y46960D01*
X12239Y47720D02*
X17260D01*
X17732Y47248D01*
Y45248D02*
Y47248D01*
X11859Y47340D02*
X12239Y47720D01*
X11859Y46345D02*
Y47340D01*
X16270Y47280D02*
X16840Y46710D01*
X12986Y47280D02*
X16270D01*
X13463Y46345D02*
X15895D01*
X16460Y45780D01*
Y36660D02*
X17030Y36090D01*
X23120Y31260D02*
Y35500D01*
X22810Y30950D02*
X23120Y31260D01*
X16460Y36660D02*
Y45780D01*
X20488Y30980D02*
X20518Y30950D01*
X22810D01*
X19080Y28224D02*
Y30980D01*
X17732Y28224D02*
X20488D01*
X17732Y30980D02*
X20488D01*
X16840Y40240D02*
X17127Y39953D01*
X16840Y40240D02*
Y46710D01*
X19100Y37197D02*
Y39953D01*
X17732Y37197D02*
X20488D01*
X17127Y39953D02*
X20488D01*
X9270Y20910D02*
X9890D01*
X10160Y20640D01*
X9390Y13200D02*
X9533Y13343D01*
X10160D02*
Y20640D01*
X9390Y9417D02*
Y13200D01*
X9533Y13343D02*
X11383D01*
X17732Y30062D02*
Y30158D01*
X16980Y30910D02*
X17732Y30158D01*
X16980Y30910D02*
Y31318D01*
X16845Y31453D02*
X16980Y31318D01*
X16845Y31453D02*
Y31990D01*
X1102Y37197D02*
X1890Y36409D01*
Y27510D02*
Y36409D01*
D28*
X28150Y0D02*
G03*
X29528Y1378I0J1378D01*
G01*
X0D02*
G03*
X1378Y0I1378J0D01*
G01*
X29528Y58465D02*
G03*
X28150Y59843I-1378J0D01*
G01*
X1378D02*
G03*
X0Y58465I0J-1378D01*
G01*
Y59843D02*
X29528D01*
Y0D02*
Y59843D01*
X28560Y0D02*
X29528D01*
X0D02*
X28560D01*
X0D02*
Y59843D01*
D29*
X6831Y1496D02*
G03*
X6831Y1496I-787J0D01*
G01*
Y30059D02*
G03*
X6831Y30059I-787J0D01*
G01*
X6792Y57140D02*
G03*
X6792Y57140I-787J0D01*
G01*
X22441Y47244D02*
G03*
X22441Y47244I-787J0D01*
G01*
X28898Y1441D02*
G03*
X28898Y1441I-787J0D01*
G01*
X28874Y54390D02*
G03*
X28874Y54390I-787J0D01*
G01*
X6693Y47244D02*
G03*
X6693Y47244I-787J0D01*
G01*
D30*
X20488Y37197D02*
D03*
Y39953D02*
D03*
X17732D02*
D03*
Y37197D02*
D03*
X20488Y39034D02*
D03*
Y38115D02*
D03*
X17732D02*
D03*
Y39034D02*
D03*
X20488Y42492D02*
D03*
Y45248D02*
D03*
X17732D02*
D03*
Y42492D02*
D03*
X20488Y44329D02*
D03*
Y43411D02*
D03*
X17732D02*
D03*
Y44329D02*
D03*
X1102Y4255D02*
D03*
Y3336D02*
D03*
X3858D02*
D03*
Y4255D02*
D03*
Y2417D02*
D03*
Y5173D02*
D03*
X1102D02*
D03*
Y2417D02*
D03*
Y9416D02*
D03*
Y8497D02*
D03*
X3858D02*
D03*
Y9416D02*
D03*
Y7579D02*
D03*
Y10335D02*
D03*
X1102D02*
D03*
Y7579D02*
D03*
Y14577D02*
D03*
Y13659D02*
D03*
X3858D02*
D03*
Y14577D02*
D03*
Y12740D02*
D03*
Y15496D02*
D03*
X1102D02*
D03*
Y12740D02*
D03*
X20488Y28224D02*
D03*
Y30980D02*
D03*
X17732D02*
D03*
Y28224D02*
D03*
X20488Y30062D02*
D03*
Y29143D02*
D03*
X17732D02*
D03*
Y30062D02*
D03*
X708Y50886D02*
D03*
X4252D02*
D03*
X11429D02*
D03*
X7886D02*
D03*
X16484D02*
D03*
X20027D02*
D03*
X27194D02*
D03*
X23651D02*
D03*
X1102Y56122D02*
D03*
Y58878D02*
D03*
X3858D02*
D03*
Y56122D02*
D03*
X1102Y57959D02*
D03*
Y57041D02*
D03*
X3858D02*
D03*
Y57959D02*
D03*
X11035Y56122D02*
D03*
Y58878D02*
D03*
X8279D02*
D03*
Y56122D02*
D03*
Y57959D02*
D03*
Y57041D02*
D03*
X11035D02*
D03*
Y57959D02*
D03*
X16878Y56122D02*
D03*
Y58878D02*
D03*
X19634D02*
D03*
Y56122D02*
D03*
X16878Y57959D02*
D03*
Y57041D02*
D03*
X19634D02*
D03*
Y57959D02*
D03*
X26811Y56122D02*
D03*
Y58878D02*
D03*
X24055D02*
D03*
Y56122D02*
D03*
X26811Y57959D02*
D03*
Y57041D02*
D03*
X24055D02*
D03*
Y57959D02*
D03*
X1102Y42492D02*
D03*
Y45248D02*
D03*
X3858D02*
D03*
Y42492D02*
D03*
X1102Y44329D02*
D03*
Y43411D02*
D03*
X3858D02*
D03*
Y44329D02*
D03*
X1102Y37197D02*
D03*
Y39953D02*
D03*
X3858D02*
D03*
Y37197D02*
D03*
X1102Y39034D02*
D03*
Y38115D02*
D03*
X3858D02*
D03*
Y39034D02*
D03*
X1102Y28224D02*
D03*
Y30980D02*
D03*
X3858D02*
D03*
Y28224D02*
D03*
X1102Y30062D02*
D03*
Y29143D02*
D03*
X3858D02*
D03*
Y30062D02*
D03*
X1102Y24900D02*
D03*
Y23982D02*
D03*
X3858D02*
D03*
Y24900D02*
D03*
Y23063D02*
D03*
Y25819D02*
D03*
X1102D02*
D03*
Y23063D02*
D03*
Y19739D02*
D03*
Y18820D02*
D03*
X3858D02*
D03*
Y19739D02*
D03*
Y17902D02*
D03*
Y20657D02*
D03*
X1102D02*
D03*
Y17902D02*
D03*
X20488Y4255D02*
D03*
Y3336D02*
D03*
X17732D02*
D03*
Y4255D02*
D03*
Y2417D02*
D03*
Y5173D02*
D03*
X20488D02*
D03*
Y2417D02*
D03*
X20478Y7502D02*
D03*
Y10258D02*
D03*
X17722D02*
D03*
Y7502D02*
D03*
X20478Y9339D02*
D03*
Y8421D02*
D03*
X17722D02*
D03*
Y9339D02*
D03*
X20488Y14577D02*
D03*
Y13659D02*
D03*
X17732D02*
D03*
Y14577D02*
D03*
Y12740D02*
D03*
Y15496D02*
D03*
X20488D02*
D03*
Y12740D02*
D03*
Y17902D02*
D03*
Y20657D02*
D03*
X17732D02*
D03*
Y17902D02*
D03*
X20488Y19739D02*
D03*
Y18820D02*
D03*
X17732D02*
D03*
Y19739D02*
D03*
X20488Y24900D02*
D03*
Y23982D02*
D03*
X17732D02*
D03*
Y24900D02*
D03*
Y23063D02*
D03*
Y25819D02*
D03*
X20488D02*
D03*
Y23063D02*
D03*
D31*
X26760Y26730D02*
D03*
Y27730D02*
D03*
X26760Y28730D02*
D03*
Y29730D02*
D03*
Y30730D02*
D03*
D32*
X27760Y26730D02*
D03*
Y27730D02*
D03*
Y28730D02*
D03*
X27760Y29730D02*
D03*
X27760Y30730D02*
D03*
D33*
X18380Y34310D02*
D03*
X20380D02*
D03*
D34*
X8583Y13343D02*
D03*
X11383D02*
D03*
D35*
X26800Y9610D02*
D03*
Y7610D02*
D03*
Y6610D02*
D03*
Y8610D02*
D03*
D36*
X28890Y14310D02*
D03*
X26890D02*
D03*
X13510Y25780D02*
D03*
X12510D02*
D03*
D37*
X1480Y53286D02*
D03*
X1480Y48486D02*
D03*
X3480Y53286D02*
D03*
Y48486D02*
D03*
X10657D02*
D03*
X10657Y53286D02*
D03*
X8657Y48486D02*
D03*
Y53286D02*
D03*
X17256D02*
D03*
X17256Y48486D02*
D03*
X19256Y53286D02*
D03*
Y48486D02*
D03*
X26423D02*
D03*
X26423Y53286D02*
D03*
X24423Y48486D02*
D03*
Y53286D02*
D03*
D38*
X12470Y59020D02*
D03*
X13320D02*
D03*
X27900Y57850D02*
D03*
X27910Y57130D02*
D03*
D39*
X25930Y30730D02*
D03*
X28173Y52168D02*
D03*
X28573Y51368D02*
D03*
X28173Y50568D02*
D03*
X28573Y49768D02*
D03*
X28173Y48968D02*
D03*
X28573Y48168D02*
D03*
X28173Y47368D02*
D03*
X28573Y46568D02*
D03*
X28173Y45768D02*
D03*
X28573Y44968D02*
D03*
X28173Y44168D02*
D03*
X28573Y43368D02*
D03*
X28173Y42568D02*
D03*
X28573Y41768D02*
D03*
X28173Y40968D02*
D03*
X28573Y40168D02*
D03*
X28173Y39368D02*
D03*
X28573Y38568D02*
D03*
X28173Y37768D02*
D03*
X28573Y36968D02*
D03*
X28173Y36168D02*
D03*
X28573Y35368D02*
D03*
X28173Y34568D02*
D03*
X28573Y33768D02*
D03*
X28173Y32968D02*
D03*
X28573Y32168D02*
D03*
X28173Y31368D02*
D03*
X28573Y30568D02*
D03*
Y28968D02*
D03*
X28173Y28168D02*
D03*
X28573Y27368D02*
D03*
X28173Y24968D02*
D03*
Y23368D02*
D03*
Y21768D02*
D03*
Y20168D02*
D03*
Y18568D02*
D03*
Y16968D02*
D03*
Y13768D02*
D03*
Y12168D02*
D03*
Y10568D02*
D03*
Y7368D02*
D03*
X28573Y6568D02*
D03*
X28173Y5768D02*
D03*
X28573Y4968D02*
D03*
X28173Y4168D02*
D03*
X27373Y52168D02*
D03*
X27773Y49768D02*
D03*
X27373Y48968D02*
D03*
X27773Y48168D02*
D03*
X27373Y47368D02*
D03*
X27773Y46568D02*
D03*
X27373Y45768D02*
D03*
X27773Y44968D02*
D03*
X27373Y44168D02*
D03*
X27773Y43368D02*
D03*
X27373Y42568D02*
D03*
X27773Y41768D02*
D03*
X27373Y40968D02*
D03*
X27773Y40168D02*
D03*
X27373Y39368D02*
D03*
X27773Y38568D02*
D03*
X27373Y37768D02*
D03*
X27773Y36968D02*
D03*
X27373Y36168D02*
D03*
X27773Y35368D02*
D03*
X27373Y34568D02*
D03*
X27773Y33768D02*
D03*
X27373Y32968D02*
D03*
X27773Y32168D02*
D03*
X27373Y31368D02*
D03*
Y28168D02*
D03*
Y24968D02*
D03*
X27773Y24168D02*
D03*
X27373Y23368D02*
D03*
X27773Y22568D02*
D03*
X27373Y21768D02*
D03*
X27773Y20968D02*
D03*
X27373Y20168D02*
D03*
X27773Y19368D02*
D03*
X27373Y18568D02*
D03*
X27773Y17768D02*
D03*
X27373Y16968D02*
D03*
X27773Y14568D02*
D03*
X27373Y13768D02*
D03*
X27773Y12968D02*
D03*
X27373Y12168D02*
D03*
X27773Y11368D02*
D03*
X27373Y10568D02*
D03*
X27773Y9768D02*
D03*
Y6568D02*
D03*
X27373Y5768D02*
D03*
X27773Y4968D02*
D03*
X27373Y4168D02*
D03*
X26573Y52168D02*
D03*
X26973Y49768D02*
D03*
X26573Y47368D02*
D03*
X26973Y46568D02*
D03*
X26573Y45768D02*
D03*
X26973Y44968D02*
D03*
X26573Y44168D02*
D03*
X26973Y43368D02*
D03*
X26573Y42568D02*
D03*
X26973Y41768D02*
D03*
X26573Y40968D02*
D03*
X26973Y40168D02*
D03*
X26573Y39368D02*
D03*
X26973Y38568D02*
D03*
X26573Y37768D02*
D03*
X26973Y36968D02*
D03*
X26573Y36168D02*
D03*
X26973Y35368D02*
D03*
X26573Y34568D02*
D03*
X26973Y33768D02*
D03*
X26573Y32968D02*
D03*
X26973Y32168D02*
D03*
X26573Y24968D02*
D03*
X26973Y24168D02*
D03*
X26573Y23368D02*
D03*
X26973Y22568D02*
D03*
X26573Y21768D02*
D03*
X26973Y20968D02*
D03*
X26573Y20168D02*
D03*
X26973Y19368D02*
D03*
X26573Y18568D02*
D03*
X26973Y17768D02*
D03*
X26573Y13768D02*
D03*
X26973Y12968D02*
D03*
X26573Y12168D02*
D03*
X26973Y11368D02*
D03*
X26573Y10568D02*
D03*
Y5768D02*
D03*
X26973Y4968D02*
D03*
X26573Y4168D02*
D03*
X25773Y55368D02*
D03*
X26173Y54568D02*
D03*
X25773Y53768D02*
D03*
Y52168D02*
D03*
X26173Y51368D02*
D03*
X25773Y50568D02*
D03*
X26173Y49768D02*
D03*
X25773Y48968D02*
D03*
Y47368D02*
D03*
X26173Y46568D02*
D03*
X25773Y45768D02*
D03*
X26173Y44968D02*
D03*
X25773Y44168D02*
D03*
X26173Y43368D02*
D03*
X25773Y42568D02*
D03*
X26173Y41768D02*
D03*
X25773Y40968D02*
D03*
X26173Y40168D02*
D03*
X25773Y39368D02*
D03*
X26173Y38568D02*
D03*
X25773Y37768D02*
D03*
X26173Y36968D02*
D03*
X25773Y36168D02*
D03*
X26173Y35368D02*
D03*
X25773Y34568D02*
D03*
X26173Y33768D02*
D03*
X25773Y32968D02*
D03*
X26173Y32168D02*
D03*
X25773Y31368D02*
D03*
Y24968D02*
D03*
X26173Y24168D02*
D03*
X25773Y23368D02*
D03*
X26173Y22568D02*
D03*
X25773Y21768D02*
D03*
X26173Y20968D02*
D03*
Y19368D02*
D03*
X25773Y18568D02*
D03*
X26173Y17768D02*
D03*
Y12968D02*
D03*
X25773Y12168D02*
D03*
X26173Y11368D02*
D03*
X25773Y10568D02*
D03*
X26173Y9768D02*
D03*
X25773Y8968D02*
D03*
Y5768D02*
D03*
X26173Y4968D02*
D03*
X25773Y4168D02*
D03*
X24973Y55368D02*
D03*
X25373Y54568D02*
D03*
Y52968D02*
D03*
X24973Y52168D02*
D03*
X25373Y51368D02*
D03*
X24973Y50568D02*
D03*
X25373Y49768D02*
D03*
Y48168D02*
D03*
X24973Y47368D02*
D03*
X25373Y46568D02*
D03*
X24973Y45768D02*
D03*
X25373Y44968D02*
D03*
X24973Y44168D02*
D03*
X25373Y43368D02*
D03*
X24973Y42568D02*
D03*
X25373Y41768D02*
D03*
X24973Y40968D02*
D03*
X25373Y40168D02*
D03*
X24973Y39368D02*
D03*
X25373Y38568D02*
D03*
X24973Y37768D02*
D03*
X25373Y36968D02*
D03*
X24973Y36168D02*
D03*
X25373Y35368D02*
D03*
X24973Y34568D02*
D03*
X25373Y33768D02*
D03*
Y32168D02*
D03*
Y30568D02*
D03*
Y24168D02*
D03*
Y11368D02*
D03*
X24973Y10568D02*
D03*
Y5768D02*
D03*
X25373Y4968D02*
D03*
X24973Y4168D02*
D03*
X24173Y47368D02*
D03*
X24573Y46568D02*
D03*
X24173Y45768D02*
D03*
X24573Y44968D02*
D03*
X24173Y44168D02*
D03*
X24573Y43368D02*
D03*
X24173Y42568D02*
D03*
X24573Y41768D02*
D03*
X24173Y40968D02*
D03*
X24573Y40168D02*
D03*
X24173Y39368D02*
D03*
X24573Y38568D02*
D03*
Y36968D02*
D03*
Y35368D02*
D03*
Y33768D02*
D03*
X24173Y10568D02*
D03*
Y5768D02*
D03*
X24573Y4968D02*
D03*
X24173Y4168D02*
D03*
X24573Y3368D02*
D03*
X24173Y2568D02*
D03*
Y968D02*
D03*
X23373Y58568D02*
D03*
Y53768D02*
D03*
Y52168D02*
D03*
X23773Y49768D02*
D03*
X23373Y48968D02*
D03*
X23773Y46568D02*
D03*
X23373Y45768D02*
D03*
X23773Y44968D02*
D03*
X23373Y44168D02*
D03*
X23773Y43368D02*
D03*
X23373Y42568D02*
D03*
X23773Y41768D02*
D03*
X23373Y40968D02*
D03*
X23773Y40168D02*
D03*
X23373Y39368D02*
D03*
X23773Y38568D02*
D03*
X23373Y28168D02*
D03*
Y23368D02*
D03*
Y5768D02*
D03*
X23773Y4968D02*
D03*
X23373Y4168D02*
D03*
X23773Y3368D02*
D03*
X23373Y2568D02*
D03*
X23773Y1768D02*
D03*
X23373Y968D02*
D03*
X22573Y58568D02*
D03*
Y56968D02*
D03*
X22973Y56168D02*
D03*
X22573Y53768D02*
D03*
X22973Y52968D02*
D03*
X22573Y52168D02*
D03*
X22973Y51368D02*
D03*
X22573Y50568D02*
D03*
X22973Y49768D02*
D03*
X22573Y48968D02*
D03*
X22973Y44968D02*
D03*
X22573Y44168D02*
D03*
X22973Y43368D02*
D03*
X22573Y42568D02*
D03*
X22973Y41768D02*
D03*
X22573Y40968D02*
D03*
X22973Y40168D02*
D03*
X22573Y39368D02*
D03*
X22973Y36968D02*
D03*
X22573Y34568D02*
D03*
Y28168D02*
D03*
X22973Y24168D02*
D03*
X22573Y23368D02*
D03*
X22973Y22568D02*
D03*
X22573Y21768D02*
D03*
Y20168D02*
D03*
X22973Y19368D02*
D03*
X22573Y18568D02*
D03*
X22973Y17768D02*
D03*
X22573Y16968D02*
D03*
X22973Y16168D02*
D03*
X22573Y13768D02*
D03*
Y10568D02*
D03*
Y5768D02*
D03*
X22973Y4968D02*
D03*
X22573Y4168D02*
D03*
X22973Y3368D02*
D03*
X22573Y2568D02*
D03*
X22973Y1768D02*
D03*
X22573Y968D02*
D03*
X21773Y58568D02*
D03*
Y56968D02*
D03*
X22173Y56168D02*
D03*
X21773Y53768D02*
D03*
X22173Y52968D02*
D03*
X21773Y52168D02*
D03*
X22173Y51368D02*
D03*
X21773Y50568D02*
D03*
X22173Y49768D02*
D03*
Y44968D02*
D03*
Y43368D02*
D03*
Y41768D02*
D03*
Y40168D02*
D03*
Y36968D02*
D03*
Y35368D02*
D03*
X21773Y34568D02*
D03*
X22173Y33768D02*
D03*
Y25768D02*
D03*
Y24168D02*
D03*
Y22568D02*
D03*
Y20968D02*
D03*
Y19368D02*
D03*
Y17768D02*
D03*
Y16168D02*
D03*
Y12968D02*
D03*
Y4968D02*
D03*
Y3368D02*
D03*
X21773Y2568D02*
D03*
X22173Y1768D02*
D03*
X21773Y968D02*
D03*
X20973Y58568D02*
D03*
X21373Y56168D02*
D03*
X20973Y53768D02*
D03*
X21373Y52968D02*
D03*
X20973Y52168D02*
D03*
X21373Y51368D02*
D03*
X20973Y50568D02*
D03*
X21373Y49768D02*
D03*
X20973Y48968D02*
D03*
X21373Y44968D02*
D03*
Y36968D02*
D03*
Y35368D02*
D03*
Y33768D02*
D03*
Y3368D02*
D03*
Y1768D02*
D03*
X20973Y968D02*
D03*
X20573Y56168D02*
D03*
X20173Y53768D02*
D03*
X20573Y52968D02*
D03*
X20173Y52168D02*
D03*
X20573Y49768D02*
D03*
X20173Y48968D02*
D03*
X20573Y41768D02*
D03*
X20173Y40968D02*
D03*
X20573Y35368D02*
D03*
X20173Y21768D02*
D03*
Y16968D02*
D03*
X20573Y11368D02*
D03*
Y6568D02*
D03*
X20173Y968D02*
D03*
X19773Y49768D02*
D03*
X19373Y47368D02*
D03*
X19773Y46568D02*
D03*
X19373Y45768D02*
D03*
X19773Y41768D02*
D03*
X19373Y40968D02*
D03*
X19773Y35368D02*
D03*
X19373Y34568D02*
D03*
X19773Y33768D02*
D03*
Y22568D02*
D03*
X19373Y21768D02*
D03*
Y16968D02*
D03*
X19773Y16168D02*
D03*
X19373Y12168D02*
D03*
X19773Y11368D02*
D03*
Y6568D02*
D03*
X19373Y5768D02*
D03*
X19773Y1768D02*
D03*
X19373Y968D02*
D03*
X18573Y52168D02*
D03*
Y50568D02*
D03*
Y47368D02*
D03*
X18973Y46568D02*
D03*
X18573Y45768D02*
D03*
X18973Y41768D02*
D03*
X18573Y40968D02*
D03*
X18973Y35368D02*
D03*
Y33768D02*
D03*
Y22568D02*
D03*
X18573Y21768D02*
D03*
Y16968D02*
D03*
X18973Y16168D02*
D03*
X18573Y12168D02*
D03*
X18973Y11368D02*
D03*
Y6568D02*
D03*
X18573Y5768D02*
D03*
X18973Y1768D02*
D03*
X18573Y968D02*
D03*
X17773Y53768D02*
D03*
X18173Y52968D02*
D03*
X17773Y52168D02*
D03*
X18173Y51368D02*
D03*
X17773Y50568D02*
D03*
X18173Y49768D02*
D03*
X17773Y48968D02*
D03*
X18173Y48168D02*
D03*
Y41768D02*
D03*
X17773Y40968D02*
D03*
X18173Y35368D02*
D03*
X17773Y21768D02*
D03*
Y16968D02*
D03*
X18173Y16168D02*
D03*
Y11368D02*
D03*
Y6568D02*
D03*
Y1768D02*
D03*
X17773Y968D02*
D03*
X16973Y52168D02*
D03*
X17373Y51368D02*
D03*
Y49768D02*
D03*
Y41768D02*
D03*
X16973Y39368D02*
D03*
Y37768D02*
D03*
X17373Y35368D02*
D03*
X16973Y34568D02*
D03*
X17373Y33768D02*
D03*
X16973Y24968D02*
D03*
Y23368D02*
D03*
Y21768D02*
D03*
Y20168D02*
D03*
Y18568D02*
D03*
Y16968D02*
D03*
X17373Y16168D02*
D03*
Y11368D02*
D03*
Y6568D02*
D03*
X16973Y2568D02*
D03*
X17373Y1768D02*
D03*
X16973Y968D02*
D03*
X16173Y58568D02*
D03*
Y56968D02*
D03*
Y53768D02*
D03*
X16573Y52968D02*
D03*
X16173Y52168D02*
D03*
X16573Y49768D02*
D03*
X16173Y48968D02*
D03*
Y36168D02*
D03*
X16573Y35368D02*
D03*
Y24168D02*
D03*
Y22568D02*
D03*
X16173Y2568D02*
D03*
X16573Y1768D02*
D03*
X16173Y968D02*
D03*
X15373Y58568D02*
D03*
Y56968D02*
D03*
X15773Y56168D02*
D03*
X15373Y53768D02*
D03*
X15773Y52968D02*
D03*
X15373Y52168D02*
D03*
X15773Y51368D02*
D03*
X15373Y50568D02*
D03*
X15773Y49768D02*
D03*
X15373Y48968D02*
D03*
Y45768D02*
D03*
X15773Y44968D02*
D03*
X15373Y44168D02*
D03*
X15773Y43368D02*
D03*
X15373Y42568D02*
D03*
X15773Y41768D02*
D03*
X15373Y40968D02*
D03*
X15773Y40168D02*
D03*
X15373Y39368D02*
D03*
X15773Y38568D02*
D03*
X15373Y37768D02*
D03*
X15773Y36968D02*
D03*
X15373Y36168D02*
D03*
X15773Y35368D02*
D03*
X15373Y34568D02*
D03*
Y2568D02*
D03*
X15773Y1768D02*
D03*
X15373Y968D02*
D03*
X14573Y58568D02*
D03*
Y56968D02*
D03*
X14973Y56168D02*
D03*
X14573Y53768D02*
D03*
X14973Y52968D02*
D03*
X14573Y52168D02*
D03*
X14973Y51368D02*
D03*
X14573Y50568D02*
D03*
X14973Y49768D02*
D03*
X14573Y48968D02*
D03*
Y45768D02*
D03*
X14973Y44968D02*
D03*
X14573Y44168D02*
D03*
X14973Y43368D02*
D03*
X14573Y42568D02*
D03*
X14973Y41768D02*
D03*
X14573Y40968D02*
D03*
X14973Y40168D02*
D03*
X14573Y39368D02*
D03*
X14973Y38568D02*
D03*
X14573Y37768D02*
D03*
X14973Y36968D02*
D03*
X14573Y36168D02*
D03*
X14973Y35368D02*
D03*
X14573Y2568D02*
D03*
X14973Y1768D02*
D03*
X14573Y968D02*
D03*
X13773Y58568D02*
D03*
Y56968D02*
D03*
X14173Y56168D02*
D03*
X13773Y32968D02*
D03*
X14173Y32168D02*
D03*
X13773Y31368D02*
D03*
Y12168D02*
D03*
Y10568D02*
D03*
Y2568D02*
D03*
X14173Y1768D02*
D03*
X13773Y968D02*
D03*
X12973Y58568D02*
D03*
X13373Y56168D02*
D03*
X12973Y32968D02*
D03*
X13373Y32168D02*
D03*
X12973Y31368D02*
D03*
Y16968D02*
D03*
Y15368D02*
D03*
Y12168D02*
D03*
X13373Y11368D02*
D03*
X12973Y10568D02*
D03*
X13373Y9768D02*
D03*
X12973Y2568D02*
D03*
X13373Y1768D02*
D03*
X12973Y968D02*
D03*
X12173Y58568D02*
D03*
Y56968D02*
D03*
X12573Y56168D02*
D03*
Y41768D02*
D03*
Y40168D02*
D03*
X12173Y39368D02*
D03*
X12573Y38568D02*
D03*
X12173Y37768D02*
D03*
Y36168D02*
D03*
Y32968D02*
D03*
X12573Y32168D02*
D03*
X12173Y31368D02*
D03*
Y21768D02*
D03*
X12573Y16168D02*
D03*
X12173Y15368D02*
D03*
X12573Y14568D02*
D03*
X12173Y12168D02*
D03*
X12573Y11368D02*
D03*
X12173Y10568D02*
D03*
X12573Y9768D02*
D03*
X12173Y2568D02*
D03*
X12573Y1768D02*
D03*
X12173Y968D02*
D03*
X11773Y56168D02*
D03*
X11373Y53768D02*
D03*
Y52168D02*
D03*
Y48968D02*
D03*
X11773Y41768D02*
D03*
X11373Y39368D02*
D03*
X11773Y38568D02*
D03*
X11373Y37768D02*
D03*
Y36168D02*
D03*
X11773Y32168D02*
D03*
Y22568D02*
D03*
X11373Y21768D02*
D03*
X11773Y16168D02*
D03*
X11373Y15368D02*
D03*
Y12168D02*
D03*
X11773Y11368D02*
D03*
X11373Y10568D02*
D03*
X11773Y9768D02*
D03*
X11373Y2568D02*
D03*
X11773Y1768D02*
D03*
X11373Y968D02*
D03*
X10573Y52168D02*
D03*
Y50568D02*
D03*
X10973Y49768D02*
D03*
Y41768D02*
D03*
Y38568D02*
D03*
X10573Y37768D02*
D03*
X10973Y36968D02*
D03*
X10573Y36168D02*
D03*
X10973Y22568D02*
D03*
X10573Y21768D02*
D03*
X10973Y20968D02*
D03*
Y19368D02*
D03*
Y17768D02*
D03*
Y16168D02*
D03*
X10573Y12168D02*
D03*
X10973Y11368D02*
D03*
X10573Y10568D02*
D03*
X10973Y9768D02*
D03*
X10573Y8968D02*
D03*
X10973Y8168D02*
D03*
X10573Y7368D02*
D03*
X10973Y6568D02*
D03*
X10573Y5768D02*
D03*
Y2568D02*
D03*
X10973Y1768D02*
D03*
X10573Y968D02*
D03*
X10173Y41768D02*
D03*
X9773Y23368D02*
D03*
X10173Y22568D02*
D03*
X9773Y21768D02*
D03*
X10173Y11368D02*
D03*
Y9768D02*
D03*
Y8168D02*
D03*
Y6568D02*
D03*
X9773Y2568D02*
D03*
X10173Y1768D02*
D03*
X9773Y968D02*
D03*
X9373Y41768D02*
D03*
Y27368D02*
D03*
X8973Y26568D02*
D03*
X9373Y25768D02*
D03*
X8973Y24968D02*
D03*
X9373Y24168D02*
D03*
X8973Y23368D02*
D03*
X9373Y22568D02*
D03*
X8973Y21768D02*
D03*
X9373Y16168D02*
D03*
X8973Y15368D02*
D03*
Y2568D02*
D03*
X9373Y1768D02*
D03*
X8973Y968D02*
D03*
X8173Y52168D02*
D03*
Y44168D02*
D03*
X8573Y41768D02*
D03*
X8173Y39368D02*
D03*
Y37768D02*
D03*
Y36168D02*
D03*
Y34568D02*
D03*
Y29768D02*
D03*
Y28168D02*
D03*
X8573Y27368D02*
D03*
X8173Y26568D02*
D03*
X8573Y25768D02*
D03*
X8173Y24968D02*
D03*
X8573Y24168D02*
D03*
X8173Y23368D02*
D03*
X8573Y16168D02*
D03*
X8173Y15368D02*
D03*
X8573Y1768D02*
D03*
X7773Y54568D02*
D03*
X7373Y53768D02*
D03*
X7773Y52968D02*
D03*
X7373Y52168D02*
D03*
X7773Y49768D02*
D03*
Y46568D02*
D03*
X7373Y45768D02*
D03*
X7773Y44968D02*
D03*
X7373Y44168D02*
D03*
X7773Y43368D02*
D03*
Y41768D02*
D03*
X7373Y40968D02*
D03*
X7773Y40168D02*
D03*
X7373Y39368D02*
D03*
X7773Y38568D02*
D03*
X7373Y37768D02*
D03*
X7773Y36968D02*
D03*
X7373Y36168D02*
D03*
X7773Y35368D02*
D03*
X7373Y34568D02*
D03*
X7773Y33768D02*
D03*
Y28968D02*
D03*
X7373Y28168D02*
D03*
X7773Y27368D02*
D03*
X7373Y26568D02*
D03*
X7773Y25768D02*
D03*
X7373Y24968D02*
D03*
X7773Y24168D02*
D03*
X7373Y23368D02*
D03*
X7773Y16168D02*
D03*
X7373Y15368D02*
D03*
X6973Y54568D02*
D03*
X6573Y53768D02*
D03*
X6973Y52968D02*
D03*
X6573Y52168D02*
D03*
X6973Y51368D02*
D03*
X6573Y50568D02*
D03*
X6973Y49768D02*
D03*
Y44968D02*
D03*
X6573Y44168D02*
D03*
Y42568D02*
D03*
X6973Y41768D02*
D03*
X6573Y40968D02*
D03*
X6973Y40168D02*
D03*
X6573Y39368D02*
D03*
X6973Y38568D02*
D03*
X6573Y37768D02*
D03*
X6973Y36968D02*
D03*
X6573Y36168D02*
D03*
X6973Y35368D02*
D03*
X6573Y34568D02*
D03*
X6973Y33768D02*
D03*
X6573Y32968D02*
D03*
X6973Y32168D02*
D03*
X6573Y28168D02*
D03*
X6973Y27368D02*
D03*
X6573Y26568D02*
D03*
X6973Y25768D02*
D03*
X6573Y24968D02*
D03*
X6973Y24168D02*
D03*
X6573Y23368D02*
D03*
X6973Y16168D02*
D03*
X6573Y15368D02*
D03*
X6173Y54568D02*
D03*
Y52968D02*
D03*
Y51368D02*
D03*
Y44968D02*
D03*
X5773Y44168D02*
D03*
Y42568D02*
D03*
X6173Y41768D02*
D03*
X5773Y40968D02*
D03*
X6173Y40168D02*
D03*
X5773Y39368D02*
D03*
X6173Y38568D02*
D03*
X5773Y37768D02*
D03*
X6173Y36968D02*
D03*
X5773Y36168D02*
D03*
X6173Y35368D02*
D03*
X5773Y34568D02*
D03*
X6173Y33768D02*
D03*
X5773Y32968D02*
D03*
X6173Y32168D02*
D03*
X4973Y53768D02*
D03*
Y52168D02*
D03*
Y50568D02*
D03*
X5373Y49768D02*
D03*
X4973Y48968D02*
D03*
X5373Y44968D02*
D03*
Y41768D02*
D03*
X4973Y40968D02*
D03*
X5373Y40168D02*
D03*
X4973Y39368D02*
D03*
X5373Y38568D02*
D03*
X4973Y37768D02*
D03*
X5373Y36968D02*
D03*
X4973Y36168D02*
D03*
X5373Y35368D02*
D03*
X4973Y34568D02*
D03*
X5373Y33768D02*
D03*
X4973Y32968D02*
D03*
X5373Y32168D02*
D03*
X4973Y18568D02*
D03*
Y13768D02*
D03*
Y12168D02*
D03*
X4573Y52968D02*
D03*
X4173Y52168D02*
D03*
X4573Y49768D02*
D03*
Y41768D02*
D03*
X4173Y40968D02*
D03*
Y36168D02*
D03*
X4573Y35368D02*
D03*
X4173Y34568D02*
D03*
X4573Y33768D02*
D03*
X4173Y32968D02*
D03*
X4573Y32168D02*
D03*
X4173Y21768D02*
D03*
X4573Y17768D02*
D03*
X4173Y16968D02*
D03*
X4573Y16168D02*
D03*
Y12968D02*
D03*
Y11368D02*
D03*
X3373Y47368D02*
D03*
X3773Y46568D02*
D03*
X3373Y45768D02*
D03*
X3773Y41768D02*
D03*
X3373Y40968D02*
D03*
Y36168D02*
D03*
X3773Y35368D02*
D03*
X3373Y34568D02*
D03*
X3773Y33768D02*
D03*
X3373Y32968D02*
D03*
X3773Y32168D02*
D03*
X3373Y21768D02*
D03*
Y16968D02*
D03*
Y12168D02*
D03*
X3773Y11368D02*
D03*
Y6568D02*
D03*
X3373Y5768D02*
D03*
X2973Y46568D02*
D03*
X2573Y45768D02*
D03*
X2973Y41768D02*
D03*
X2573Y40968D02*
D03*
X2973Y35368D02*
D03*
Y33768D02*
D03*
Y32168D02*
D03*
Y22568D02*
D03*
X2573Y21768D02*
D03*
Y16968D02*
D03*
X2973Y16168D02*
D03*
X2573Y12168D02*
D03*
X2973Y11368D02*
D03*
Y6568D02*
D03*
X2573Y5768D02*
D03*
X1773Y55368D02*
D03*
Y52168D02*
D03*
Y50568D02*
D03*
Y45768D02*
D03*
X2173Y41768D02*
D03*
X1773Y26568D02*
D03*
X2173Y22568D02*
D03*
X1773Y21768D02*
D03*
Y16968D02*
D03*
X2173Y16168D02*
D03*
X1773Y12168D02*
D03*
X2173Y11368D02*
D03*
Y6568D02*
D03*
X1773Y5768D02*
D03*
X973Y55368D02*
D03*
Y53768D02*
D03*
Y52168D02*
D03*
X1373Y51368D02*
D03*
Y49768D02*
D03*
X973Y48968D02*
D03*
Y36168D02*
D03*
X1373Y35368D02*
D03*
X973Y34568D02*
D03*
X1373Y33768D02*
D03*
X973Y32968D02*
D03*
X1373Y32168D02*
D03*
Y27368D02*
D03*
X973Y26568D02*
D03*
Y21768D02*
D03*
Y16968D02*
D03*
X1373Y16168D02*
D03*
Y11368D02*
D03*
Y6568D02*
D03*
X25490Y29667D02*
D03*
X25200Y28770D02*
D03*
X25250Y22130D02*
D03*
X24390Y22140D02*
D03*
X23530Y22190D02*
D03*
X13080Y35910D02*
D03*
X13400Y36580D02*
D03*
X13710Y35900D02*
D03*
X14030Y36540D02*
D03*
X16130Y34090D02*
D03*
X16170Y33670D02*
D03*
X16200Y33220D02*
D03*
X16720Y29060D02*
D03*
X15990Y32010D02*
D03*
X8860Y31330D02*
D03*
Y32650D02*
D03*
X18000Y32000D02*
D03*
X12630Y27540D02*
D03*
X24400Y12400D02*
D03*
X22600D02*
D03*
X26200Y17200D02*
D03*
X9410Y32010D02*
D03*
X24850Y14960D02*
D03*
X23860Y16260D02*
D03*
X22559Y9100D02*
D03*
X22450Y31540D02*
D03*
X21990D02*
D03*
X21570Y31520D02*
D03*
X7480Y15900D02*
D03*
X6490Y13710D02*
D03*
X8920Y16150D02*
D03*
X22600Y29990D02*
D03*
Y26080D02*
D03*
X22400Y36670D02*
D03*
X1290Y34910D02*
D03*
X6510Y52920D02*
D03*
X13190Y57050D02*
D03*
X20940Y56880D02*
D03*
X21410Y59030D02*
D03*
M02*
