M48
;Layer_Color=9474304
;FILE_FORMAT=2:4
INCH,TZ
;TYPE=PLATED
T1F00S00C0.0150
T2F00S00C0.0300
T3F00S00C0.0320
T4F00S00C0.0354
T5F00S00C0.0360
T6F00S00C0.0394
T7F00S00C0.0550
;TYPE=NON_PLATED
T8F00S00C0.0787
%
T01
X26573Y4168
X27373
X28173
X28573Y4968
X27773
X26973
X27373Y5768
X28173
X28573Y6568
X27773
X28173Y7368
X27773Y9768
X28173Y10568
X27373
X26573
X26973Y11368
X27773
X28173Y12168
X27373
X26573
X26973Y12968
X27773
X28173Y13768
X27373
X26573
X27773Y14568
X26573Y5768
X25773
X24973
X24173
X23373
X22573
X22973Y4968
X23773
X24573
X25373
X26173
X25773Y4168
X24973
X24173
X23373
X22573
X22973Y3368
X23773
X24573
X24173Y2568
X23373
X22573
X21773
X22173Y3368
X21373
Y1768
X22173
X22973
X23773
X24173Y968
X23373
X22573
X21773
X20973
X20173
X19373
X18573
X17773
X16973
X16173
X15373
X14573
X13773
X12973
X12173
X11373
X11773Y1768
X12573
X13373
X14173
X14973
X15773
X16573
X17373
X18173
X18973
X19773
X16973Y2568
X16173
X15373
X14573
X13773
X12973
X12173
X11373
X10973Y1768
Y6568
Y8168
Y9768
X11773
X12573
X13373
X13773Y10568
X12973
X12173
X11373
X11773Y11368
X12573
X13373
X13773Y12168
X12973
X12173
X11373
X10973Y11368
X11373Y15368
X12173
X12973
X12573Y14568
X17373Y11368
X18173
X18973
X19773
X20573
X19373Y12168
X18573
X22600Y12400
X22173Y12968
X22573Y13768
X24400Y12400
X25773Y12168
X26173Y12968
Y11368
X25373
X25773Y10568
X24973
X24173
X22573
X22559Y9100
X25773Y8968
X26173Y9768
X24850Y14960
X22173Y4968
X20573Y6568
X19773
X18973
X18173
X17373
X18573Y5768
X19373
X10573
X10173Y6568
X10573Y7368
X10173Y8168
X10573Y8968
X10173Y9768
X10573Y10568
X10173Y11368
X10573Y12168
X8973Y15368
X8173
X7373
X6573
X6490Y13710
X4973Y13768
X4573Y12968
X4973Y12168
X4573Y11368
X3773
X2973
X2173
X1373
X1773Y12168
X2573
X3373
X3773Y6568
X2973
X2173
X1373
X1773Y5768
X2573
X3373
X8973Y2568
X9773
X10573
X10173Y1768
X9373
X8573
X8973Y968
X9773
X10573
X9373Y16168
X8920Y16150
X8573Y16168
X7773
X7480Y15900
X6973Y16168
X4573
X4173Y16968
X3373
X2573
X1773
X973
X1373Y16168
X2173
X2973
X4573Y17768
X4973Y18568
X4173Y21768
X3373
X2573
X1773
X973
X2173Y22568
X2973
X6573Y23368
X7373
X8173
X8973
X9773
X10173Y22568
X9373
X9773Y21768
X10573
X8973
X9373Y24168
X8573
X7773
X6973
X7373Y24968
X8173
X8973
X9373Y25768
X8573
X7773
X6973
X7373Y26568
X8173
X8973
X9373Y27368
X8573
X7773
X6973
X7373Y28168
X8173
X7773Y28968
X8173Y29768
X6573Y28168
Y26568
Y24968
X1773Y26568
X973
X1373Y27368
X12630Y27540
X16720Y29060
X16973Y24968
X16573Y24168
X16973Y23368
X16573Y22568
X16973Y21768
X17773
X18573
X19373
X20173
X19773Y22568
X18973
X22173
X22973
X23530Y22190
X24390Y22140
X25250Y22130
X25773Y21768
X26173Y22568
X25773Y23368
X26173Y24168
X25373
X25773Y24968
X22973Y24168
X22173
X22573Y23368
X23373
X22573Y21768
X22173Y20968
X22573Y20168
X22973Y19368
X22173
X22573Y18568
X22973Y17768
X22173
X22573Y16968
X22973Y16168
X22173
X23860Y16260
X26200Y17200
X26173Y17768
X25773Y18568
X26173Y19368
Y20968
X22600Y26080
X22173Y25768
X22573Y28168
X23373
X25200Y28770
X25490Y29667
X25373Y30568
X25930Y30730
X22600Y29990
X20173Y16968
X19373
X18573
X17773
X16973
X17373Y16168
X18173
X18973
X19773
X16973Y18568
Y20168
X12173Y21768
X11373
X11773Y22568
X10973
Y20968
Y19368
Y17768
Y16168
X11773
X12573
X12973Y16968
X27373
X28173
X27773Y17768
X26973
X27373Y18568
X28173
X27773Y19368
X26973
X27373Y20168
X28173
X27773Y20968
X26973
X27373Y21768
X28173
X27773Y22568
X26973
X27373Y23368
X28173
X27773Y24168
X26973
X27373Y24968
X28173
X26573
Y23368
Y21768
Y20168
Y18568
X27373Y28168
X28173
X28573Y28968
Y30568
Y27368
X28173Y31368
X27373
X27773Y32168
X28573
X28173Y32968
X27373
X26573
X26973Y33768
X27773
X28573
X28173Y34568
X27373
X26573
X26973Y35368
X27773
X28573
X28173Y36168
X27373
X26573
X26973Y36968
X27773
X28573
X28173Y37768
X27373
X26573
X26973Y38568
X27773
X28573
X28173Y39368
X27373
X26573
X26973Y40168
X27773
X28573
X28173Y40968
X27373
X26573
X26973Y41768
X27773
X28573
X28173Y42568
X27373
X26573
X26973Y43368
X27773
X28573
X28173Y44168
X27373
X26573
X26973Y44968
X27773
X28573
X28173Y45768
X27373
X26573
X26973Y46568
X27773
X28573
X26973Y32168
X26173
X25373
X25773Y32968
X26173Y33768
X25373
X24573
X24973Y34568
X25773
X26173Y35368
X25373
X24573
X24973Y36168
X25773
X26173Y36968
X25373
X24573
X24973Y37768
X25773
X26173Y38568
X25373
X24573
X23773
X24173Y39368
X24973
X25773
X26173Y40168
X25373
X24573
X23773
X22973
X22173
X22573Y40968
X23373
X24173
X24973
X25773
X26173Y41768
X25373
X24573
X23773
X22973
X22173
X22573Y42568
X23373
X24173
X24973
X25773
X26173Y43368
X25373
X24573
X23773
X22973
X22173
X22573Y44168
X23373
X24173
X24973
X25773
X26173Y44968
X25373
X24573
X23773
X22973
X22173
X21373
X23373Y45768
X24173
X24973
X25773
X26173Y46568
X25373
X24573
X23773
X19773
X18973
X19373Y45768
X18573
X15373
X14573
X14973Y44968
X15773
X15373Y44168
X14573
X14973Y43368
X15773
X15373Y42568
X14573
X14973Y41768
X15773
X15373Y40968
X14573
X14973Y40168
X15773
X15373Y39368
X14573
X14973Y38568
X15773
X15373Y37768
X14573
X14973Y36968
X15773
X16173Y36168
X15373
X14573
X14030Y36540
X13400Y36580
X13080Y35910
X13710Y35900
X14973Y35368
X15773
X16573
X17373
X18173
X18973
X19773
X20573
X21373
X22173
X22573Y34568
X21773
X22173Y33768
X21373
X19773
X18973
X19373Y34568
X16973
X17373Y33768
X16170Y33670
X16130Y34090
X16200Y33220
X15990Y32010
X14173Y32168
X13373
X12573
X11773
X12173Y32968
X12973
X13773
Y31368
X12973
X12173
Y36168
X11373
X10973Y36968
X11373Y37768
X12173
X12573Y38568
X11773
X10973
X11373Y39368
X12173
X12573Y40168
Y41768
X11773
X10973
X17373
X18173
X18973
X19773
X20573
X20173Y40968
X19373
X18573
X17773
X16973Y39368
Y37768
X15373Y34568
X18000Y32000
X21570Y31520
X21990Y31540
X22450
X25773Y31368
X22973Y36968
X22173
X22400Y36670
X21373Y36968
X22573Y39368
X23373
X10573Y37768
Y36168
X8173
X7373
X6573
X5773
X4973
X4173
X3373
X3773Y35368
X4573
X5373
X6173
X6973
X7773
X8173Y34568
X7373
X6573
X5773
X4973
X4173
X3373
X3773Y33768
X4573
X5373
X6173
X6973
X7773
X6573Y32968
X5773
X4973
X4173
X3373
X3773Y32168
X4573
X5373
X6173
X6973
X8860Y32650
X9410Y32010
X8860Y31330
X7773Y36968
X6973
X6173
X5373
X5773Y37768
X6573
X7373
X8173
X7773Y38568
X6973
X6173
X5373
X5773Y39368
X6573
X7373
X8173
X7773Y40168
X6973
X6173
X5373
X5773Y40968
X6573
X7373
X7773Y41768
X8573
X9373
X10173
X6973
X6173
X5373
X4573
X3773
X2973
X2173
X2573Y40968
X3373
X4173
X4973
Y39368
Y37768
X2973Y35368
Y33768
Y32168
X1373
X973Y32968
X1373Y33768
X973Y34568
X1290Y34910
X1373Y35368
X973Y36168
X1773Y45768
X2573
X3373
X3773Y46568
X2973
X5373Y44968
X6173
X6973
X7773
X8173Y44168
X7373
X6573
X5773
Y42568
X6573
X7773Y43368
X7373Y45768
X7773Y46568
Y49768
X6973
X6573Y50568
X6973Y51368
X6173
X6573Y52168
X7373
X8173
X7773Y52968
X6973
X6510Y52920
X6173Y52968
X6573Y53768
X7373
X7773Y54568
X6973
X6173
X4973Y53768
X4573Y52968
X4973Y52168
X4173
X4973Y50568
X5373Y49768
X4573
X4973Y48968
X3373Y47368
X973Y48968
X1373Y49768
X1773Y50568
X1373Y51368
X1773Y52168
X973
Y53768
Y55368
X1773
X10573Y52168
Y50568
X10973Y49768
X11373Y48968
X14573
X15373
X16173
X16573Y49768
X17373
X18173
X18573Y50568
X17773
X18173Y51368
X17373
X17773Y52168
X18573
X18173Y52968
X17773Y53768
X16173
X15373
X14573
X14973Y52968
X15773
X16573
X16973Y52168
X16173
X15373
X14573
X14973Y51368
X15773
X15373Y50568
X14573
X14973Y49768
X15773
X17773Y48968
X18173Y48168
X18573Y47368
X19373
X20173Y48968
X20973
X21373Y49768
X22173
X22973
X23773
X23373Y48968
X22573
Y50568
X21773
X20973
X21373Y51368
X22173
X22973
X23373Y52168
X22573
X21773
X20973
X20173
X20573Y52968
X21373
X22173
X22973
X23373Y53768
X22573
X21773
X20973
X20173
X20573Y56168
X21373
X22173
X22973
X22573Y56968
X21773
X20940Y56880
X20973Y58568
X21773
X22573
X23373
X21410Y59030
X16173Y58568
X15373
X14573
X13773
X12973
X12173
Y56968
X13190Y57050
X13773Y56968
X14573
X15373
X16173
X15773Y56168
X14973
X14173
X13373
X12573
X11773
X11373Y53768
Y52168
X19773Y49768
X20573
X25373
X26173
X25773Y50568
X24973
X25373Y51368
X26173
X25773Y52168
X24973
X25373Y52968
X25773Y53768
X26173Y54568
X25373
X25773Y55368
X24973
X25773Y48968
X25373Y48168
X25773Y47368
X24973
X24173
X26573
X27373
X28173
X28573Y48168
X27773
X28173Y48968
X27373
X27773Y49768
X28573
X28173Y50568
X28573Y51368
X28173Y52168
X27373
X26573
X26973Y49768
T02
X12470Y59020
X13320
X27900Y57850
X27910Y57130
T03
X18380Y34310
X20380
T04
X12510Y25780
X13510
T05
X17732Y2417
Y3336
Y4255
Y5173
X17722Y7502
Y8421
Y9339
Y10258
X17732Y12740
Y13659
Y14577
Y15496
X20488
Y14577
Y13659
Y12740
X20478Y10258
Y9339
Y8421
Y7502
X20488Y5173
Y4255
Y3336
Y2417
X3858
Y3336
Y4255
Y5173
Y7579
Y8497
Y9416
Y10335
Y12740
Y13659
Y14577
Y15496
X1102
Y14577
Y13659
Y12740
Y10335
Y9416
Y8497
Y7579
Y5173
Y4255
Y3336
Y2417
Y17902
Y18820
Y19739
Y20657
Y23063
Y23982
Y24900
Y25819
Y28224
Y29143
Y30062
Y30980
X3858
Y30062
Y29143
Y28224
Y25819
Y24900
Y23982
Y23063
Y20657
Y19739
Y18820
Y17902
X17732
Y18820
Y19739
Y20657
Y23063
Y23982
Y24900
Y25819
Y28224
Y29143
Y30062
Y30980
X20488
Y30062
Y29143
Y28224
Y25819
Y24900
Y23982
Y23063
Y20657
Y19739
Y18820
Y17902
X26760Y26730
Y27730
X26760Y28730
X27760
Y27730
Y26730
X27760Y29730
X26760Y29730
Y30730
X27760Y30730
X20488Y37197
Y38115
Y39034
Y39953
Y42492
Y43411
Y44329
Y45248
X17732
Y44329
Y43411
Y42492
Y39953
Y39034
Y38115
Y37197
X3858
Y38115
Y39034
Y39953
Y42492
Y43411
Y44329
Y45248
X1102
Y44329
Y43411
Y42492
Y39953
Y39034
Y38115
Y37197
Y56122
Y57041
Y57959
Y58878
X3858
Y57959
Y57041
Y56122
X8279
Y57041
Y57959
Y58878
X11035
Y57959
Y57041
Y56122
X16878
Y57041
Y57959
Y58878
X19634
Y57959
Y57041
Y56122
X24055
Y57041
Y57959
Y58878
X26811
Y57959
Y57041
Y56122
T06
X26800Y6610
Y7610
Y8610
Y9610
X26890Y14310
X28890
X11383Y13343
X8583
T07
X1480Y48486
X3480
Y53286
X1480
X8657
X10657
X10657Y48486
X8657
X17256
X19256
Y53286
X17256
X24423
X26423
X26423Y48486
X24423
T08
X708Y50886
X4252
X7886
X11429
X16484
X20027
X23651
X27194
M30
