%FSLAX24Y24*%
%MOIN*%
G70*
G01*
G75*
%ADD10C,0.0394*%
%ADD11R,0.0500X0.0400*%
%ADD12R,0.0400X0.0500*%
%ADD13O,0.0800X0.0300*%
%ADD14R,0.0800X0.0300*%
%ADD15R,0.1339X0.0700*%
%ADD16R,0.1339X0.0472*%
%ADD17R,0.1339X0.0472*%
G04:AMPARAMS|DCode=18|XSize=40mil|YSize=50mil|CornerRadius=0mil|HoleSize=0mil|Usage=FLASHONLY|Rotation=135.000|XOffset=0mil|YOffset=0mil|HoleType=Round|Shape=Rectangle|*
%AMROTATEDRECTD18*
4,1,4,0.0318,0.0035,-0.0035,-0.0318,-0.0318,-0.0035,0.0035,0.0318,0.0318,0.0035,0.0*
%
%ADD18ROTATEDRECTD18*%

%ADD19O,0.0160X0.1000*%
%ADD20O,0.1000X0.0160*%
%ADD21O,0.0300X0.0800*%
%ADD22R,0.0300X0.0800*%
%ADD23O,0.0240X0.0800*%
%ADD24C,0.0300*%
%ADD25C,0.0150*%
%ADD26C,0.0120*%
%ADD27C,0.0200*%
%ADD28C,0.0050*%
%ADD29C,0.0100*%
%ADD30C,0.0650*%
%ADD31C,0.0709*%
%ADD32O,0.0709X0.0550*%
%ADD33C,0.0500*%
%ADD34C,0.0591*%
%ADD35C,0.0787*%
%ADD36C,0.0787*%
%ADD37O,0.0980X0.1020*%
%ADD38C,0.0600*%
%ADD39C,0.0250*%
%ADD40C,0.0984*%
%ADD41C,0.0080*%
%ADD42C,0.0060*%
%ADD43C,0.0061*%
%ADD44C,0.0079*%
%ADD45R,0.1575X0.0153*%
%ADD46C,0.0866*%
%ADD47C,0.0474*%
%ADD48R,0.0580X0.0480*%
%ADD49R,0.0480X0.0580*%
%ADD50O,0.0880X0.0380*%
%ADD51R,0.0880X0.0380*%
%ADD52R,0.1419X0.0780*%
%ADD53R,0.1419X0.0552*%
%ADD54R,0.1419X0.0552*%
G04:AMPARAMS|DCode=55|XSize=48mil|YSize=58mil|CornerRadius=0mil|HoleSize=0mil|Usage=FLASHONLY|Rotation=135.000|XOffset=0mil|YOffset=0mil|HoleType=Round|Shape=Rectangle|*
%AMROTATEDRECTD55*
4,1,4,0.0375,0.0035,-0.0035,-0.0375,-0.0375,-0.0035,0.0035,0.0375,0.0375,0.0035,0.0*
%
%ADD55ROTATEDRECTD55*%

%ADD56O,0.0240X0.1080*%
%ADD57O,0.1080X0.0240*%
%ADD58O,0.0380X0.0880*%
%ADD59R,0.0380X0.0880*%
%ADD60O,0.0320X0.0880*%
%ADD61C,0.0730*%
%ADD62C,0.0789*%
%ADD63O,0.0789X0.0630*%
%ADD64C,0.0580*%
%ADD65C,0.0671*%
%ADD66C,0.0867*%
%ADD67C,0.0867*%
%ADD68O,0.1060X0.1100*%
%ADD69C,0.0680*%
%ADD70C,0.1064*%
%ADD71C,0.0020*%
%ADD72C,0.0197*%
%ADD73R,0.0667X0.1929*%
%ADD74C,0.0160*%
D28*
X28150Y0D02*
G03*
X29528Y1378I0J1378D01*
G01*
X0D02*
G03*
X1378Y0I1378J0D01*
G01*
X29528Y58465D02*
G03*
X28150Y59843I-1378J0D01*
G01*
X1378D02*
G03*
X0Y58465I0J-1378D01*
G01*
Y59843D02*
X29528D01*
Y0D02*
Y59843D01*
X28560Y0D02*
X29528D01*
X0D02*
X28560D01*
X0D02*
Y59843D01*
X20308Y37197D02*
X20668D01*
X20488Y37017D02*
Y37377D01*
X20308Y39953D02*
X20668D01*
X20488Y39773D02*
Y40133D01*
X17552Y39953D02*
X17912D01*
X17732Y39773D02*
Y40133D01*
X17552Y37197D02*
X17912D01*
X17732Y37017D02*
Y37377D01*
X20308Y39034D02*
X20668D01*
X20488Y38854D02*
Y39214D01*
X20308Y38115D02*
X20668D01*
X20488Y37935D02*
Y38295D01*
X17552Y38115D02*
X17912D01*
X17732Y37935D02*
Y38295D01*
X17552Y39034D02*
X17912D01*
X17732Y38854D02*
Y39214D01*
X20308Y42492D02*
X20668D01*
X20488Y42312D02*
Y42672D01*
X20308Y45248D02*
X20668D01*
X20488Y45068D02*
Y45428D01*
X17552Y45248D02*
X17912D01*
X17732Y45068D02*
Y45428D01*
X17552Y42492D02*
X17912D01*
X17732Y42312D02*
Y42672D01*
X20308Y44329D02*
X20668D01*
X20488Y44149D02*
Y44509D01*
X20308Y43411D02*
X20668D01*
X20488Y43231D02*
Y43591D01*
X17552Y43411D02*
X17912D01*
X17732Y43231D02*
Y43591D01*
X17552Y44329D02*
X17912D01*
X17732Y44149D02*
Y44509D01*
X26580Y26730D02*
X26940D01*
X26760Y26550D02*
Y26910D01*
X26580Y27730D02*
X26940D01*
X26760Y27550D02*
Y27910D01*
X26580Y28730D02*
X26940D01*
X26760Y28550D02*
Y28910D01*
X26580Y29730D02*
X26940D01*
X26760Y29550D02*
Y29910D01*
X26580Y30730D02*
X26940D01*
X26760Y30550D02*
Y30910D01*
X27580Y26730D02*
X27940D01*
X27760Y26550D02*
Y26910D01*
X27580Y27730D02*
X27940D01*
X27760Y27550D02*
Y27910D01*
X27580Y28730D02*
X27940D01*
X27760Y28550D02*
Y28910D01*
X27580Y29730D02*
X27940D01*
X27760Y29550D02*
Y29910D01*
X27580Y30730D02*
X27940D01*
X27760Y30550D02*
Y30910D01*
X18220Y34310D02*
X18540D01*
X18380Y34150D02*
Y34470D01*
X20220Y34310D02*
X20540D01*
X20380Y34150D02*
Y34470D01*
X8386Y13343D02*
X8779D01*
X8583Y13146D02*
Y13540D01*
X11186Y13343D02*
X11579D01*
X11383Y13146D02*
Y13540D01*
X922Y4255D02*
X1282D01*
X1102Y4075D02*
Y4435D01*
X922Y3336D02*
X1282D01*
X1102Y3156D02*
Y3516D01*
X3678Y3336D02*
X4038D01*
X3858Y3156D02*
Y3516D01*
X3678Y4255D02*
X4038D01*
X3858Y4075D02*
Y4435D01*
X3678Y2417D02*
X4038D01*
X3858Y2237D02*
Y2597D01*
X3678Y5173D02*
X4038D01*
X3858Y4993D02*
Y5353D01*
X922Y5173D02*
X1282D01*
X1102Y4993D02*
Y5353D01*
X922Y2417D02*
X1282D01*
X1102Y2237D02*
Y2597D01*
X922Y9416D02*
X1282D01*
X1102Y9236D02*
Y9596D01*
X922Y8497D02*
X1282D01*
X1102Y8317D02*
Y8677D01*
X3678Y8497D02*
X4038D01*
X3858Y8317D02*
Y8677D01*
X3678Y9416D02*
X4038D01*
X3858Y9236D02*
Y9596D01*
X3678Y7579D02*
X4038D01*
X3858Y7399D02*
Y7759D01*
X3678Y10335D02*
X4038D01*
X3858Y10155D02*
Y10515D01*
X922Y10335D02*
X1282D01*
X1102Y10155D02*
Y10515D01*
X922Y7579D02*
X1282D01*
X1102Y7399D02*
Y7759D01*
X922Y14577D02*
X1282D01*
X1102Y14397D02*
Y14757D01*
X922Y13659D02*
X1282D01*
X1102Y13479D02*
Y13839D01*
X3678Y13659D02*
X4038D01*
X3858Y13479D02*
Y13839D01*
X3678Y14577D02*
X4038D01*
X3858Y14397D02*
Y14757D01*
X3678Y12740D02*
X4038D01*
X3858Y12560D02*
Y12920D01*
X3678Y15496D02*
X4038D01*
X3858Y15316D02*
Y15676D01*
X922Y15496D02*
X1282D01*
X1102Y15316D02*
Y15676D01*
X922Y12740D02*
X1282D01*
X1102Y12560D02*
Y12920D01*
X26603Y9610D02*
X26997D01*
X26800Y9413D02*
Y9807D01*
X26603Y7610D02*
X26997D01*
X26800Y7413D02*
Y7807D01*
X26603Y6610D02*
X26997D01*
X26800Y6413D02*
Y6807D01*
X26603Y8610D02*
X26997D01*
X26800Y8413D02*
Y8807D01*
X28693Y14310D02*
X29087D01*
X28890Y14113D02*
Y14507D01*
X26693Y14310D02*
X27087D01*
X26890Y14113D02*
Y14507D01*
X13333Y25780D02*
X13687D01*
X13510Y25603D02*
Y25957D01*
X12333Y25780D02*
X12687D01*
X12510Y25603D02*
Y25957D01*
X20308Y28224D02*
X20668D01*
X20488Y28044D02*
Y28404D01*
X20308Y30980D02*
X20668D01*
X20488Y30800D02*
Y31160D01*
X17552Y30980D02*
X17912D01*
X17732Y30800D02*
Y31160D01*
X17552Y28224D02*
X17912D01*
X17732Y28044D02*
Y28404D01*
X20308Y30062D02*
X20668D01*
X20488Y29882D02*
Y30242D01*
X20308Y29143D02*
X20668D01*
X20488Y28963D02*
Y29323D01*
X17552Y29143D02*
X17912D01*
X17732Y28963D02*
Y29323D01*
X17552Y30062D02*
X17912D01*
X17732Y29882D02*
Y30242D01*
X1205Y53286D02*
X1755D01*
X1480Y53011D02*
Y53561D01*
X1205Y48486D02*
X1755D01*
X1480Y48211D02*
Y48761D01*
X3205Y53286D02*
X3755D01*
X3480Y53011D02*
Y53561D01*
X3205Y48486D02*
X3755D01*
X3480Y48211D02*
Y48761D01*
X315Y50886D02*
X1102D01*
X708Y50492D02*
Y51280D01*
X3858Y50886D02*
X4645D01*
X4252Y50492D02*
Y51280D01*
X10382Y48486D02*
X10932D01*
X10657Y48211D02*
Y48761D01*
X10382Y53286D02*
X10932D01*
X10657Y53011D02*
Y53561D01*
X8382Y48486D02*
X8932D01*
X8657Y48211D02*
Y48761D01*
X8382Y53286D02*
X8932D01*
X8657Y53011D02*
Y53561D01*
X11035Y50886D02*
X11823D01*
X11429Y50492D02*
Y51280D01*
X7492Y50886D02*
X8279D01*
X7886Y50492D02*
Y51280D01*
X16981Y53286D02*
X17531D01*
X17256Y53011D02*
Y53561D01*
X16981Y48486D02*
X17531D01*
X17256Y48211D02*
Y48761D01*
X18981Y53286D02*
X19531D01*
X19256Y53011D02*
Y53561D01*
X18981Y48486D02*
X19531D01*
X19256Y48211D02*
Y48761D01*
X16090Y50886D02*
X16878D01*
X16484Y50492D02*
Y51280D01*
X19634Y50886D02*
X20421D01*
X20027Y50492D02*
Y51280D01*
X26148Y48486D02*
X26698D01*
X26423Y48211D02*
Y48761D01*
X26148Y53286D02*
X26698D01*
X26423Y53011D02*
Y53561D01*
X24148Y48486D02*
X24698D01*
X24423Y48211D02*
Y48761D01*
X24148Y53286D02*
X24698D01*
X24423Y53011D02*
Y53561D01*
X26801Y50886D02*
X27588D01*
X27194Y50492D02*
Y51280D01*
X23257Y50886D02*
X24045D01*
X23651Y50492D02*
Y51280D01*
X922Y56122D02*
X1282D01*
X1102Y55942D02*
Y56302D01*
X922Y58878D02*
X1282D01*
X1102Y58698D02*
Y59058D01*
X3678Y58878D02*
X4038D01*
X3858Y58698D02*
Y59058D01*
X3678Y56122D02*
X4038D01*
X3858Y55942D02*
Y56302D01*
X922Y57959D02*
X1282D01*
X1102Y57779D02*
Y58139D01*
X922Y57041D02*
X1282D01*
X1102Y56861D02*
Y57221D01*
X3678Y57041D02*
X4038D01*
X3858Y56861D02*
Y57221D01*
X3678Y57959D02*
X4038D01*
X3858Y57779D02*
Y58139D01*
X10855Y56122D02*
X11215D01*
X11035Y55942D02*
Y56302D01*
X10855Y58878D02*
X11215D01*
X11035Y58698D02*
Y59058D01*
X8099Y58878D02*
X8459D01*
X8279Y58698D02*
Y59058D01*
X8099Y56122D02*
X8459D01*
X8279Y55942D02*
Y56302D01*
X8099Y57959D02*
X8459D01*
X8279Y57779D02*
Y58139D01*
X8099Y57041D02*
X8459D01*
X8279Y56861D02*
Y57221D01*
X10855Y57041D02*
X11215D01*
X11035Y56861D02*
Y57221D01*
X10855Y57959D02*
X11215D01*
X11035Y57779D02*
Y58139D01*
X16698Y56122D02*
X17058D01*
X16878Y55942D02*
Y56302D01*
X16698Y58878D02*
X17058D01*
X16878Y58698D02*
Y59058D01*
X19454Y58878D02*
X19814D01*
X19634Y58698D02*
Y59058D01*
X19454Y56122D02*
X19814D01*
X19634Y55942D02*
Y56302D01*
X16698Y57959D02*
X17058D01*
X16878Y57779D02*
Y58139D01*
X16698Y57041D02*
X17058D01*
X16878Y56861D02*
Y57221D01*
X19454Y57041D02*
X19814D01*
X19634Y56861D02*
Y57221D01*
X19454Y57959D02*
X19814D01*
X19634Y57779D02*
Y58139D01*
X26631Y56122D02*
X26991D01*
X26811Y55942D02*
Y56302D01*
X26631Y58878D02*
X26991D01*
X26811Y58698D02*
Y59058D01*
X23875Y58878D02*
X24235D01*
X24055Y58698D02*
Y59058D01*
X23875Y56122D02*
X24235D01*
X24055Y55942D02*
Y56302D01*
X26631Y57959D02*
X26991D01*
X26811Y57779D02*
Y58139D01*
X26631Y57041D02*
X26991D01*
X26811Y56861D02*
Y57221D01*
X23875Y57041D02*
X24235D01*
X24055Y56861D02*
Y57221D01*
X23875Y57959D02*
X24235D01*
X24055Y57779D02*
Y58139D01*
X922Y42492D02*
X1282D01*
X1102Y42312D02*
Y42672D01*
X922Y45248D02*
X1282D01*
X1102Y45068D02*
Y45428D01*
X3678Y45248D02*
X4038D01*
X3858Y45068D02*
Y45428D01*
X3678Y42492D02*
X4038D01*
X3858Y42312D02*
Y42672D01*
X922Y44329D02*
X1282D01*
X1102Y44149D02*
Y44509D01*
X922Y43411D02*
X1282D01*
X1102Y43231D02*
Y43591D01*
X3678Y43411D02*
X4038D01*
X3858Y43231D02*
Y43591D01*
X3678Y44329D02*
X4038D01*
X3858Y44149D02*
Y44509D01*
X922Y37197D02*
X1282D01*
X1102Y37017D02*
Y37377D01*
X922Y39953D02*
X1282D01*
X1102Y39773D02*
Y40133D01*
X3678Y39953D02*
X4038D01*
X3858Y39773D02*
Y40133D01*
X3678Y37197D02*
X4038D01*
X3858Y37017D02*
Y37377D01*
X922Y39034D02*
X1282D01*
X1102Y38854D02*
Y39214D01*
X922Y38115D02*
X1282D01*
X1102Y37935D02*
Y38295D01*
X3678Y38115D02*
X4038D01*
X3858Y37935D02*
Y38295D01*
X3678Y39034D02*
X4038D01*
X3858Y38854D02*
Y39214D01*
X922Y28224D02*
X1282D01*
X1102Y28044D02*
Y28404D01*
X922Y30980D02*
X1282D01*
X1102Y30800D02*
Y31160D01*
X3678Y30980D02*
X4038D01*
X3858Y30800D02*
Y31160D01*
X3678Y28224D02*
X4038D01*
X3858Y28044D02*
Y28404D01*
X922Y30062D02*
X1282D01*
X1102Y29882D02*
Y30242D01*
X922Y29143D02*
X1282D01*
X1102Y28963D02*
Y29323D01*
X3678Y29143D02*
X4038D01*
X3858Y28963D02*
Y29323D01*
X3678Y30062D02*
X4038D01*
X3858Y29882D02*
Y30242D01*
X922Y24900D02*
X1282D01*
X1102Y24720D02*
Y25080D01*
X922Y23982D02*
X1282D01*
X1102Y23802D02*
Y24162D01*
X3678Y23982D02*
X4038D01*
X3858Y23802D02*
Y24162D01*
X3678Y24900D02*
X4038D01*
X3858Y24720D02*
Y25080D01*
X3678Y23063D02*
X4038D01*
X3858Y22883D02*
Y23243D01*
X3678Y25819D02*
X4038D01*
X3858Y25639D02*
Y25999D01*
X922Y25819D02*
X1282D01*
X1102Y25639D02*
Y25999D01*
X922Y23063D02*
X1282D01*
X1102Y22883D02*
Y23243D01*
X922Y19739D02*
X1282D01*
X1102Y19559D02*
Y19919D01*
X922Y18820D02*
X1282D01*
X1102Y18640D02*
Y19000D01*
X3678Y18820D02*
X4038D01*
X3858Y18640D02*
Y19000D01*
X3678Y19739D02*
X4038D01*
X3858Y19559D02*
Y19919D01*
X3678Y17902D02*
X4038D01*
X3858Y17722D02*
Y18082D01*
X3678Y20657D02*
X4038D01*
X3858Y20477D02*
Y20837D01*
X922Y20657D02*
X1282D01*
X1102Y20477D02*
Y20837D01*
X922Y17902D02*
X1282D01*
X1102Y17722D02*
Y18082D01*
X20308Y4255D02*
X20668D01*
X20488Y4075D02*
Y4435D01*
X20308Y3336D02*
X20668D01*
X20488Y3156D02*
Y3516D01*
X17552Y3336D02*
X17912D01*
X17732Y3156D02*
Y3516D01*
X17552Y4255D02*
X17912D01*
X17732Y4075D02*
Y4435D01*
X17552Y2417D02*
X17912D01*
X17732Y2237D02*
Y2597D01*
X17552Y5173D02*
X17912D01*
X17732Y4993D02*
Y5353D01*
X20308Y5173D02*
X20668D01*
X20488Y4993D02*
Y5353D01*
X20308Y2417D02*
X20668D01*
X20488Y2237D02*
Y2597D01*
X20298Y7502D02*
X20658D01*
X20478Y7322D02*
Y7682D01*
X20298Y10258D02*
X20658D01*
X20478Y10078D02*
Y10438D01*
X17542Y10258D02*
X17902D01*
X17722Y10078D02*
Y10438D01*
X17542Y7502D02*
X17902D01*
X17722Y7322D02*
Y7682D01*
X20298Y9339D02*
X20658D01*
X20478Y9159D02*
Y9519D01*
X20298Y8421D02*
X20658D01*
X20478Y8241D02*
Y8601D01*
X17542Y8421D02*
X17902D01*
X17722Y8241D02*
Y8601D01*
X17542Y9339D02*
X17902D01*
X17722Y9159D02*
Y9519D01*
X20308Y14577D02*
X20668D01*
X20488Y14397D02*
Y14757D01*
X20308Y13659D02*
X20668D01*
X20488Y13479D02*
Y13839D01*
X17552Y13659D02*
X17912D01*
X17732Y13479D02*
Y13839D01*
X17552Y14577D02*
X17912D01*
X17732Y14397D02*
Y14757D01*
X17552Y12740D02*
X17912D01*
X17732Y12560D02*
Y12920D01*
X17552Y15496D02*
X17912D01*
X17732Y15316D02*
Y15676D01*
X20308Y15496D02*
X20668D01*
X20488Y15316D02*
Y15676D01*
X20308Y12740D02*
X20668D01*
X20488Y12560D02*
Y12920D01*
X20308Y17902D02*
X20668D01*
X20488Y17722D02*
Y18082D01*
X20308Y20657D02*
X20668D01*
X20488Y20477D02*
Y20837D01*
X17552Y20657D02*
X17912D01*
X17732Y20477D02*
Y20837D01*
X17552Y17902D02*
X17912D01*
X17732Y17722D02*
Y18082D01*
X20308Y19739D02*
X20668D01*
X20488Y19559D02*
Y19919D01*
X20308Y18820D02*
X20668D01*
X20488Y18640D02*
Y19000D01*
X17552Y18820D02*
X17912D01*
X17732Y18640D02*
Y19000D01*
X17552Y19739D02*
X17912D01*
X17732Y19559D02*
Y19919D01*
X20308Y24900D02*
X20668D01*
X20488Y24720D02*
Y25080D01*
X20308Y23982D02*
X20668D01*
X20488Y23802D02*
Y24162D01*
X17552Y23982D02*
X17912D01*
X17732Y23802D02*
Y24162D01*
X17552Y24900D02*
X17912D01*
X17732Y24720D02*
Y25080D01*
X17552Y23063D02*
X17912D01*
X17732Y22883D02*
Y23243D01*
X17552Y25819D02*
X17912D01*
X17732Y25639D02*
Y25999D01*
X20308Y25819D02*
X20668D01*
X20488Y25639D02*
Y25999D01*
X20308Y23063D02*
X20668D01*
X20488Y22883D02*
Y23243D01*
X12320Y59020D02*
X12620D01*
X12470Y58870D02*
Y59170D01*
X13170Y59020D02*
X13470D01*
X13320Y58870D02*
Y59170D01*
X27750Y57850D02*
X28050D01*
X27900Y57700D02*
Y58000D01*
X27760Y57130D02*
X28060D01*
X27910Y56980D02*
Y57280D01*
X25855Y30730D02*
X26005D01*
X25930Y30655D02*
Y30805D01*
X28098Y52168D02*
X28248D01*
X28173Y52093D02*
Y52243D01*
X28498Y51368D02*
X28648D01*
X28573Y51293D02*
Y51443D01*
X28098Y50568D02*
X28248D01*
X28173Y50493D02*
Y50643D01*
X28498Y49768D02*
X28648D01*
X28573Y49693D02*
Y49843D01*
X28098Y48968D02*
X28248D01*
X28173Y48893D02*
Y49043D01*
X28498Y48168D02*
X28648D01*
X28573Y48093D02*
Y48243D01*
X28098Y47368D02*
X28248D01*
X28173Y47293D02*
Y47443D01*
X28498Y46568D02*
X28648D01*
X28573Y46493D02*
Y46643D01*
X28098Y45768D02*
X28248D01*
X28173Y45693D02*
Y45843D01*
X28498Y44968D02*
X28648D01*
X28573Y44893D02*
Y45043D01*
X28098Y44168D02*
X28248D01*
X28173Y44093D02*
Y44243D01*
X28498Y43368D02*
X28648D01*
X28573Y43293D02*
Y43443D01*
X28098Y42568D02*
X28248D01*
X28173Y42493D02*
Y42643D01*
X28498Y41768D02*
X28648D01*
X28573Y41693D02*
Y41843D01*
X28098Y40968D02*
X28248D01*
X28173Y40893D02*
Y41043D01*
X28498Y40168D02*
X28648D01*
X28573Y40093D02*
Y40243D01*
X28098Y39368D02*
X28248D01*
X28173Y39293D02*
Y39443D01*
X28498Y38568D02*
X28648D01*
X28573Y38493D02*
Y38643D01*
X28098Y37768D02*
X28248D01*
X28173Y37693D02*
Y37843D01*
X28498Y36968D02*
X28648D01*
X28573Y36893D02*
Y37043D01*
X28098Y36168D02*
X28248D01*
X28173Y36093D02*
Y36243D01*
X28498Y35368D02*
X28648D01*
X28573Y35293D02*
Y35443D01*
X28098Y34568D02*
X28248D01*
X28173Y34493D02*
Y34643D01*
X28498Y33768D02*
X28648D01*
X28573Y33693D02*
Y33843D01*
X28098Y32968D02*
X28248D01*
X28173Y32893D02*
Y33043D01*
X28498Y32168D02*
X28648D01*
X28573Y32093D02*
Y32243D01*
X28098Y31368D02*
X28248D01*
X28173Y31293D02*
Y31443D01*
X28498Y30568D02*
X28648D01*
X28573Y30493D02*
Y30643D01*
X28498Y28968D02*
X28648D01*
X28573Y28893D02*
Y29043D01*
X28098Y28168D02*
X28248D01*
X28173Y28093D02*
Y28243D01*
X28498Y27368D02*
X28648D01*
X28573Y27293D02*
Y27443D01*
X28098Y24968D02*
X28248D01*
X28173Y24893D02*
Y25043D01*
X28098Y23368D02*
X28248D01*
X28173Y23293D02*
Y23443D01*
X28098Y21768D02*
X28248D01*
X28173Y21693D02*
Y21843D01*
X28098Y20168D02*
X28248D01*
X28173Y20093D02*
Y20243D01*
X28098Y18568D02*
X28248D01*
X28173Y18493D02*
Y18643D01*
X28098Y16968D02*
X28248D01*
X28173Y16893D02*
Y17043D01*
X28098Y13768D02*
X28248D01*
X28173Y13693D02*
Y13843D01*
X28098Y12168D02*
X28248D01*
X28173Y12093D02*
Y12243D01*
X28098Y10568D02*
X28248D01*
X28173Y10493D02*
Y10643D01*
X28098Y7368D02*
X28248D01*
X28173Y7293D02*
Y7443D01*
X28498Y6568D02*
X28648D01*
X28573Y6493D02*
Y6643D01*
X28098Y5768D02*
X28248D01*
X28173Y5693D02*
Y5843D01*
X28498Y4968D02*
X28648D01*
X28573Y4893D02*
Y5043D01*
X28098Y4168D02*
X28248D01*
X28173Y4093D02*
Y4243D01*
X27298Y52168D02*
X27448D01*
X27373Y52093D02*
Y52243D01*
X27698Y49768D02*
X27848D01*
X27773Y49693D02*
Y49843D01*
X27298Y48968D02*
X27448D01*
X27373Y48893D02*
Y49043D01*
X27698Y48168D02*
X27848D01*
X27773Y48093D02*
Y48243D01*
X27298Y47368D02*
X27448D01*
X27373Y47293D02*
Y47443D01*
X27698Y46568D02*
X27848D01*
X27773Y46493D02*
Y46643D01*
X27298Y45768D02*
X27448D01*
X27373Y45693D02*
Y45843D01*
X27698Y44968D02*
X27848D01*
X27773Y44893D02*
Y45043D01*
X27298Y44168D02*
X27448D01*
X27373Y44093D02*
Y44243D01*
X27698Y43368D02*
X27848D01*
X27773Y43293D02*
Y43443D01*
X27298Y42568D02*
X27448D01*
X27373Y42493D02*
Y42643D01*
X27698Y41768D02*
X27848D01*
X27773Y41693D02*
Y41843D01*
X27298Y40968D02*
X27448D01*
X27373Y40893D02*
Y41043D01*
X27698Y40168D02*
X27848D01*
X27773Y40093D02*
Y40243D01*
X27298Y39368D02*
X27448D01*
X27373Y39293D02*
Y39443D01*
X27698Y38568D02*
X27848D01*
X27773Y38493D02*
Y38643D01*
X27298Y37768D02*
X27448D01*
X27373Y37693D02*
Y37843D01*
X27698Y36968D02*
X27848D01*
X27773Y36893D02*
Y37043D01*
X27298Y36168D02*
X27448D01*
X27373Y36093D02*
Y36243D01*
X27698Y35368D02*
X27848D01*
X27773Y35293D02*
Y35443D01*
X27298Y34568D02*
X27448D01*
X27373Y34493D02*
Y34643D01*
X27698Y33768D02*
X27848D01*
X27773Y33693D02*
Y33843D01*
X27298Y32968D02*
X27448D01*
X27373Y32893D02*
Y33043D01*
X27698Y32168D02*
X27848D01*
X27773Y32093D02*
Y32243D01*
X27298Y31368D02*
X27448D01*
X27373Y31293D02*
Y31443D01*
X27298Y28168D02*
X27448D01*
X27373Y28093D02*
Y28243D01*
X27298Y24968D02*
X27448D01*
X27373Y24893D02*
Y25043D01*
X27698Y24168D02*
X27848D01*
X27773Y24093D02*
Y24243D01*
X27298Y23368D02*
X27448D01*
X27373Y23293D02*
Y23443D01*
X27698Y22568D02*
X27848D01*
X27773Y22493D02*
Y22643D01*
X27298Y21768D02*
X27448D01*
X27373Y21693D02*
Y21843D01*
X27698Y20968D02*
X27848D01*
X27773Y20893D02*
Y21043D01*
X27298Y20168D02*
X27448D01*
X27373Y20093D02*
Y20243D01*
X27698Y19368D02*
X27848D01*
X27773Y19293D02*
Y19443D01*
X27298Y18568D02*
X27448D01*
X27373Y18493D02*
Y18643D01*
X27698Y17768D02*
X27848D01*
X27773Y17693D02*
Y17843D01*
X27298Y16968D02*
X27448D01*
X27373Y16893D02*
Y17043D01*
X27698Y14568D02*
X27848D01*
X27773Y14493D02*
Y14643D01*
X27298Y13768D02*
X27448D01*
X27373Y13693D02*
Y13843D01*
X27698Y12968D02*
X27848D01*
X27773Y12893D02*
Y13043D01*
X27298Y12168D02*
X27448D01*
X27373Y12093D02*
Y12243D01*
X27698Y11368D02*
X27848D01*
X27773Y11293D02*
Y11443D01*
X27298Y10568D02*
X27448D01*
X27373Y10493D02*
Y10643D01*
X27698Y9768D02*
X27848D01*
X27773Y9693D02*
Y9843D01*
X27698Y6568D02*
X27848D01*
X27773Y6493D02*
Y6643D01*
X27298Y5768D02*
X27448D01*
X27373Y5693D02*
Y5843D01*
X27698Y4968D02*
X27848D01*
X27773Y4893D02*
Y5043D01*
X27298Y4168D02*
X27448D01*
X27373Y4093D02*
Y4243D01*
X26498Y52168D02*
X26648D01*
X26573Y52093D02*
Y52243D01*
X26898Y49768D02*
X27048D01*
X26973Y49693D02*
Y49843D01*
X26498Y47368D02*
X26648D01*
X26573Y47293D02*
Y47443D01*
X26898Y46568D02*
X27048D01*
X26973Y46493D02*
Y46643D01*
X26498Y45768D02*
X26648D01*
X26573Y45693D02*
Y45843D01*
X26898Y44968D02*
X27048D01*
X26973Y44893D02*
Y45043D01*
X26498Y44168D02*
X26648D01*
X26573Y44093D02*
Y44243D01*
X26898Y43368D02*
X27048D01*
X26973Y43293D02*
Y43443D01*
X26498Y42568D02*
X26648D01*
X26573Y42493D02*
Y42643D01*
X26898Y41768D02*
X27048D01*
X26973Y41693D02*
Y41843D01*
X26498Y40968D02*
X26648D01*
X26573Y40893D02*
Y41043D01*
X26898Y40168D02*
X27048D01*
X26973Y40093D02*
Y40243D01*
X26498Y39368D02*
X26648D01*
X26573Y39293D02*
Y39443D01*
X26898Y38568D02*
X27048D01*
X26973Y38493D02*
Y38643D01*
X26498Y37768D02*
X26648D01*
X26573Y37693D02*
Y37843D01*
X26898Y36968D02*
X27048D01*
X26973Y36893D02*
Y37043D01*
X26498Y36168D02*
X26648D01*
X26573Y36093D02*
Y36243D01*
X26898Y35368D02*
X27048D01*
X26973Y35293D02*
Y35443D01*
X26498Y34568D02*
X26648D01*
X26573Y34493D02*
Y34643D01*
X26898Y33768D02*
X27048D01*
X26973Y33693D02*
Y33843D01*
X26498Y32968D02*
X26648D01*
X26573Y32893D02*
Y33043D01*
X26898Y32168D02*
X27048D01*
X26973Y32093D02*
Y32243D01*
X26498Y24968D02*
X26648D01*
X26573Y24893D02*
Y25043D01*
X26898Y24168D02*
X27048D01*
X26973Y24093D02*
Y24243D01*
X26498Y23368D02*
X26648D01*
X26573Y23293D02*
Y23443D01*
X26898Y22568D02*
X27048D01*
X26973Y22493D02*
Y22643D01*
X26498Y21768D02*
X26648D01*
X26573Y21693D02*
Y21843D01*
X26898Y20968D02*
X27048D01*
X26973Y20893D02*
Y21043D01*
X26498Y20168D02*
X26648D01*
X26573Y20093D02*
Y20243D01*
X26898Y19368D02*
X27048D01*
X26973Y19293D02*
Y19443D01*
X26498Y18568D02*
X26648D01*
X26573Y18493D02*
Y18643D01*
X26898Y17768D02*
X27048D01*
X26973Y17693D02*
Y17843D01*
X26498Y13768D02*
X26648D01*
X26573Y13693D02*
Y13843D01*
X26898Y12968D02*
X27048D01*
X26973Y12893D02*
Y13043D01*
X26498Y12168D02*
X26648D01*
X26573Y12093D02*
Y12243D01*
X26898Y11368D02*
X27048D01*
X26973Y11293D02*
Y11443D01*
X26498Y10568D02*
X26648D01*
X26573Y10493D02*
Y10643D01*
X26498Y5768D02*
X26648D01*
X26573Y5693D02*
Y5843D01*
X26898Y4968D02*
X27048D01*
X26973Y4893D02*
Y5043D01*
X26498Y4168D02*
X26648D01*
X26573Y4093D02*
Y4243D01*
X25698Y55368D02*
X25848D01*
X25773Y55293D02*
Y55443D01*
X26098Y54568D02*
X26248D01*
X26173Y54493D02*
Y54643D01*
X25698Y53768D02*
X25848D01*
X25773Y53693D02*
Y53843D01*
X25698Y52168D02*
X25848D01*
X25773Y52093D02*
Y52243D01*
X26098Y51368D02*
X26248D01*
X26173Y51293D02*
Y51443D01*
X25698Y50568D02*
X25848D01*
X25773Y50493D02*
Y50643D01*
X26098Y49768D02*
X26248D01*
X26173Y49693D02*
Y49843D01*
X25698Y48968D02*
X25848D01*
X25773Y48893D02*
Y49043D01*
X25698Y47368D02*
X25848D01*
X25773Y47293D02*
Y47443D01*
X26098Y46568D02*
X26248D01*
X26173Y46493D02*
Y46643D01*
X25698Y45768D02*
X25848D01*
X25773Y45693D02*
Y45843D01*
X26098Y44968D02*
X26248D01*
X26173Y44893D02*
Y45043D01*
X25698Y44168D02*
X25848D01*
X25773Y44093D02*
Y44243D01*
X26098Y43368D02*
X26248D01*
X26173Y43293D02*
Y43443D01*
X25698Y42568D02*
X25848D01*
X25773Y42493D02*
Y42643D01*
X26098Y41768D02*
X26248D01*
X26173Y41693D02*
Y41843D01*
X25698Y40968D02*
X25848D01*
X25773Y40893D02*
Y41043D01*
X26098Y40168D02*
X26248D01*
X26173Y40093D02*
Y40243D01*
X25698Y39368D02*
X25848D01*
X25773Y39293D02*
Y39443D01*
X26098Y38568D02*
X26248D01*
X26173Y38493D02*
Y38643D01*
X25698Y37768D02*
X25848D01*
X25773Y37693D02*
Y37843D01*
X26098Y36968D02*
X26248D01*
X26173Y36893D02*
Y37043D01*
X25698Y36168D02*
X25848D01*
X25773Y36093D02*
Y36243D01*
X26098Y35368D02*
X26248D01*
X26173Y35293D02*
Y35443D01*
X25698Y34568D02*
X25848D01*
X25773Y34493D02*
Y34643D01*
X26098Y33768D02*
X26248D01*
X26173Y33693D02*
Y33843D01*
X25698Y32968D02*
X25848D01*
X25773Y32893D02*
Y33043D01*
X26098Y32168D02*
X26248D01*
X26173Y32093D02*
Y32243D01*
X25698Y31368D02*
X25848D01*
X25773Y31293D02*
Y31443D01*
X25698Y24968D02*
X25848D01*
X25773Y24893D02*
Y25043D01*
X26098Y24168D02*
X26248D01*
X26173Y24093D02*
Y24243D01*
X25698Y23368D02*
X25848D01*
X25773Y23293D02*
Y23443D01*
X26098Y22568D02*
X26248D01*
X26173Y22493D02*
Y22643D01*
X25698Y21768D02*
X25848D01*
X25773Y21693D02*
Y21843D01*
X26098Y20968D02*
X26248D01*
X26173Y20893D02*
Y21043D01*
X26098Y19368D02*
X26248D01*
X26173Y19293D02*
Y19443D01*
X25698Y18568D02*
X25848D01*
X25773Y18493D02*
Y18643D01*
X26098Y17768D02*
X26248D01*
X26173Y17693D02*
Y17843D01*
X26098Y12968D02*
X26248D01*
X26173Y12893D02*
Y13043D01*
X25698Y12168D02*
X25848D01*
X25773Y12093D02*
Y12243D01*
X26098Y11368D02*
X26248D01*
X26173Y11293D02*
Y11443D01*
X25698Y10568D02*
X25848D01*
X25773Y10493D02*
Y10643D01*
X26098Y9768D02*
X26248D01*
X26173Y9693D02*
Y9843D01*
X25698Y8968D02*
X25848D01*
X25773Y8893D02*
Y9043D01*
X25698Y5768D02*
X25848D01*
X25773Y5693D02*
Y5843D01*
X26098Y4968D02*
X26248D01*
X26173Y4893D02*
Y5043D01*
X25698Y4168D02*
X25848D01*
X25773Y4093D02*
Y4243D01*
X24898Y55368D02*
X25048D01*
X24973Y55293D02*
Y55443D01*
X25298Y54568D02*
X25448D01*
X25373Y54493D02*
Y54643D01*
X25298Y52968D02*
X25448D01*
X25373Y52893D02*
Y53043D01*
X24898Y52168D02*
X25048D01*
X24973Y52093D02*
Y52243D01*
X25298Y51368D02*
X25448D01*
X25373Y51293D02*
Y51443D01*
X24898Y50568D02*
X25048D01*
X24973Y50493D02*
Y50643D01*
X25298Y49768D02*
X25448D01*
X25373Y49693D02*
Y49843D01*
X25298Y48168D02*
X25448D01*
X25373Y48093D02*
Y48243D01*
X24898Y47368D02*
X25048D01*
X24973Y47293D02*
Y47443D01*
X25298Y46568D02*
X25448D01*
X25373Y46493D02*
Y46643D01*
X24898Y45768D02*
X25048D01*
X24973Y45693D02*
Y45843D01*
X25298Y44968D02*
X25448D01*
X25373Y44893D02*
Y45043D01*
X24898Y44168D02*
X25048D01*
X24973Y44093D02*
Y44243D01*
X25298Y43368D02*
X25448D01*
X25373Y43293D02*
Y43443D01*
X24898Y42568D02*
X25048D01*
X24973Y42493D02*
Y42643D01*
X25298Y41768D02*
X25448D01*
X25373Y41693D02*
Y41843D01*
X24898Y40968D02*
X25048D01*
X24973Y40893D02*
Y41043D01*
X25298Y40168D02*
X25448D01*
X25373Y40093D02*
Y40243D01*
X24898Y39368D02*
X25048D01*
X24973Y39293D02*
Y39443D01*
X25298Y38568D02*
X25448D01*
X25373Y38493D02*
Y38643D01*
X24898Y37768D02*
X25048D01*
X24973Y37693D02*
Y37843D01*
X25298Y36968D02*
X25448D01*
X25373Y36893D02*
Y37043D01*
X24898Y36168D02*
X25048D01*
X24973Y36093D02*
Y36243D01*
X25298Y35368D02*
X25448D01*
X25373Y35293D02*
Y35443D01*
X24898Y34568D02*
X25048D01*
X24973Y34493D02*
Y34643D01*
X25298Y33768D02*
X25448D01*
X25373Y33693D02*
Y33843D01*
X25298Y32168D02*
X25448D01*
X25373Y32093D02*
Y32243D01*
X25298Y30568D02*
X25448D01*
X25373Y30493D02*
Y30643D01*
X25298Y24168D02*
X25448D01*
X25373Y24093D02*
Y24243D01*
X25298Y11368D02*
X25448D01*
X25373Y11293D02*
Y11443D01*
X24898Y10568D02*
X25048D01*
X24973Y10493D02*
Y10643D01*
X24898Y5768D02*
X25048D01*
X24973Y5693D02*
Y5843D01*
X25298Y4968D02*
X25448D01*
X25373Y4893D02*
Y5043D01*
X24898Y4168D02*
X25048D01*
X24973Y4093D02*
Y4243D01*
X24098Y47368D02*
X24248D01*
X24173Y47293D02*
Y47443D01*
X24498Y46568D02*
X24648D01*
X24573Y46493D02*
Y46643D01*
X24098Y45768D02*
X24248D01*
X24173Y45693D02*
Y45843D01*
X24498Y44968D02*
X24648D01*
X24573Y44893D02*
Y45043D01*
X24098Y44168D02*
X24248D01*
X24173Y44093D02*
Y44243D01*
X24498Y43368D02*
X24648D01*
X24573Y43293D02*
Y43443D01*
X24098Y42568D02*
X24248D01*
X24173Y42493D02*
Y42643D01*
X24498Y41768D02*
X24648D01*
X24573Y41693D02*
Y41843D01*
X24098Y40968D02*
X24248D01*
X24173Y40893D02*
Y41043D01*
X24498Y40168D02*
X24648D01*
X24573Y40093D02*
Y40243D01*
X24098Y39368D02*
X24248D01*
X24173Y39293D02*
Y39443D01*
X24498Y38568D02*
X24648D01*
X24573Y38493D02*
Y38643D01*
X24498Y36968D02*
X24648D01*
X24573Y36893D02*
Y37043D01*
X24498Y35368D02*
X24648D01*
X24573Y35293D02*
Y35443D01*
X24498Y33768D02*
X24648D01*
X24573Y33693D02*
Y33843D01*
X24098Y10568D02*
X24248D01*
X24173Y10493D02*
Y10643D01*
X24098Y5768D02*
X24248D01*
X24173Y5693D02*
Y5843D01*
X24498Y4968D02*
X24648D01*
X24573Y4893D02*
Y5043D01*
X24098Y4168D02*
X24248D01*
X24173Y4093D02*
Y4243D01*
X24498Y3368D02*
X24648D01*
X24573Y3293D02*
Y3443D01*
X24098Y2568D02*
X24248D01*
X24173Y2493D02*
Y2643D01*
X24098Y968D02*
X24248D01*
X24173Y893D02*
Y1043D01*
X23298Y58568D02*
X23448D01*
X23373Y58493D02*
Y58643D01*
X23298Y53768D02*
X23448D01*
X23373Y53693D02*
Y53843D01*
X23298Y52168D02*
X23448D01*
X23373Y52093D02*
Y52243D01*
X23698Y49768D02*
X23848D01*
X23773Y49693D02*
Y49843D01*
X23298Y48968D02*
X23448D01*
X23373Y48893D02*
Y49043D01*
X23698Y46568D02*
X23848D01*
X23773Y46493D02*
Y46643D01*
X23298Y45768D02*
X23448D01*
X23373Y45693D02*
Y45843D01*
X23698Y44968D02*
X23848D01*
X23773Y44893D02*
Y45043D01*
X23298Y44168D02*
X23448D01*
X23373Y44093D02*
Y44243D01*
X23698Y43368D02*
X23848D01*
X23773Y43293D02*
Y43443D01*
X23298Y42568D02*
X23448D01*
X23373Y42493D02*
Y42643D01*
X23698Y41768D02*
X23848D01*
X23773Y41693D02*
Y41843D01*
X23298Y40968D02*
X23448D01*
X23373Y40893D02*
Y41043D01*
X23698Y40168D02*
X23848D01*
X23773Y40093D02*
Y40243D01*
X23298Y39368D02*
X23448D01*
X23373Y39293D02*
Y39443D01*
X23698Y38568D02*
X23848D01*
X23773Y38493D02*
Y38643D01*
X23298Y28168D02*
X23448D01*
X23373Y28093D02*
Y28243D01*
X23298Y23368D02*
X23448D01*
X23373Y23293D02*
Y23443D01*
X23298Y5768D02*
X23448D01*
X23373Y5693D02*
Y5843D01*
X23698Y4968D02*
X23848D01*
X23773Y4893D02*
Y5043D01*
X23298Y4168D02*
X23448D01*
X23373Y4093D02*
Y4243D01*
X23698Y3368D02*
X23848D01*
X23773Y3293D02*
Y3443D01*
X23298Y2568D02*
X23448D01*
X23373Y2493D02*
Y2643D01*
X23698Y1768D02*
X23848D01*
X23773Y1693D02*
Y1843D01*
X23298Y968D02*
X23448D01*
X23373Y893D02*
Y1043D01*
X22498Y58568D02*
X22648D01*
X22573Y58493D02*
Y58643D01*
X22498Y56968D02*
X22648D01*
X22573Y56893D02*
Y57043D01*
X22898Y56168D02*
X23048D01*
X22973Y56093D02*
Y56243D01*
X22498Y53768D02*
X22648D01*
X22573Y53693D02*
Y53843D01*
X22898Y52968D02*
X23048D01*
X22973Y52893D02*
Y53043D01*
X22498Y52168D02*
X22648D01*
X22573Y52093D02*
Y52243D01*
X22898Y51368D02*
X23048D01*
X22973Y51293D02*
Y51443D01*
X22498Y50568D02*
X22648D01*
X22573Y50493D02*
Y50643D01*
X22898Y49768D02*
X23048D01*
X22973Y49693D02*
Y49843D01*
X22498Y48968D02*
X22648D01*
X22573Y48893D02*
Y49043D01*
X22898Y44968D02*
X23048D01*
X22973Y44893D02*
Y45043D01*
X22498Y44168D02*
X22648D01*
X22573Y44093D02*
Y44243D01*
X22898Y43368D02*
X23048D01*
X22973Y43293D02*
Y43443D01*
X22498Y42568D02*
X22648D01*
X22573Y42493D02*
Y42643D01*
X22898Y41768D02*
X23048D01*
X22973Y41693D02*
Y41843D01*
X22498Y40968D02*
X22648D01*
X22573Y40893D02*
Y41043D01*
X22898Y40168D02*
X23048D01*
X22973Y40093D02*
Y40243D01*
X22498Y39368D02*
X22648D01*
X22573Y39293D02*
Y39443D01*
X22898Y36968D02*
X23048D01*
X22973Y36893D02*
Y37043D01*
X22498Y34568D02*
X22648D01*
X22573Y34493D02*
Y34643D01*
X22498Y28168D02*
X22648D01*
X22573Y28093D02*
Y28243D01*
X22898Y24168D02*
X23048D01*
X22973Y24093D02*
Y24243D01*
X22498Y23368D02*
X22648D01*
X22573Y23293D02*
Y23443D01*
X22898Y22568D02*
X23048D01*
X22973Y22493D02*
Y22643D01*
X22498Y21768D02*
X22648D01*
X22573Y21693D02*
Y21843D01*
X22498Y20168D02*
X22648D01*
X22573Y20093D02*
Y20243D01*
X22898Y19368D02*
X23048D01*
X22973Y19293D02*
Y19443D01*
X22498Y18568D02*
X22648D01*
X22573Y18493D02*
Y18643D01*
X22898Y17768D02*
X23048D01*
X22973Y17693D02*
Y17843D01*
X22498Y16968D02*
X22648D01*
X22573Y16893D02*
Y17043D01*
X22898Y16168D02*
X23048D01*
X22973Y16093D02*
Y16243D01*
X22498Y13768D02*
X22648D01*
X22573Y13693D02*
Y13843D01*
X22498Y10568D02*
X22648D01*
X22573Y10493D02*
Y10643D01*
X22498Y5768D02*
X22648D01*
X22573Y5693D02*
Y5843D01*
X22898Y4968D02*
X23048D01*
X22973Y4893D02*
Y5043D01*
X22498Y4168D02*
X22648D01*
X22573Y4093D02*
Y4243D01*
X22898Y3368D02*
X23048D01*
X22973Y3293D02*
Y3443D01*
X22498Y2568D02*
X22648D01*
X22573Y2493D02*
Y2643D01*
X22898Y1768D02*
X23048D01*
X22973Y1693D02*
Y1843D01*
X22498Y968D02*
X22648D01*
X22573Y893D02*
Y1043D01*
X21698Y58568D02*
X21848D01*
X21773Y58493D02*
Y58643D01*
X21698Y56968D02*
X21848D01*
X21773Y56893D02*
Y57043D01*
X22098Y56168D02*
X22248D01*
X22173Y56093D02*
Y56243D01*
X21698Y53768D02*
X21848D01*
X21773Y53693D02*
Y53843D01*
X22098Y52968D02*
X22248D01*
X22173Y52893D02*
Y53043D01*
X21698Y52168D02*
X21848D01*
X21773Y52093D02*
Y52243D01*
X22098Y51368D02*
X22248D01*
X22173Y51293D02*
Y51443D01*
X21698Y50568D02*
X21848D01*
X21773Y50493D02*
Y50643D01*
X22098Y49768D02*
X22248D01*
X22173Y49693D02*
Y49843D01*
X22098Y44968D02*
X22248D01*
X22173Y44893D02*
Y45043D01*
X22098Y43368D02*
X22248D01*
X22173Y43293D02*
Y43443D01*
X22098Y41768D02*
X22248D01*
X22173Y41693D02*
Y41843D01*
X22098Y40168D02*
X22248D01*
X22173Y40093D02*
Y40243D01*
X22098Y36968D02*
X22248D01*
X22173Y36893D02*
Y37043D01*
X22098Y35368D02*
X22248D01*
X22173Y35293D02*
Y35443D01*
X21698Y34568D02*
X21848D01*
X21773Y34493D02*
Y34643D01*
X22098Y33768D02*
X22248D01*
X22173Y33693D02*
Y33843D01*
X22098Y25768D02*
X22248D01*
X22173Y25693D02*
Y25843D01*
X22098Y24168D02*
X22248D01*
X22173Y24093D02*
Y24243D01*
X22098Y22568D02*
X22248D01*
X22173Y22493D02*
Y22643D01*
X22098Y20968D02*
X22248D01*
X22173Y20893D02*
Y21043D01*
X22098Y19368D02*
X22248D01*
X22173Y19293D02*
Y19443D01*
X22098Y17768D02*
X22248D01*
X22173Y17693D02*
Y17843D01*
X22098Y16168D02*
X22248D01*
X22173Y16093D02*
Y16243D01*
X22098Y12968D02*
X22248D01*
X22173Y12893D02*
Y13043D01*
X22098Y4968D02*
X22248D01*
X22173Y4893D02*
Y5043D01*
X22098Y3368D02*
X22248D01*
X22173Y3293D02*
Y3443D01*
X21698Y2568D02*
X21848D01*
X21773Y2493D02*
Y2643D01*
X22098Y1768D02*
X22248D01*
X22173Y1693D02*
Y1843D01*
X21698Y968D02*
X21848D01*
X21773Y893D02*
Y1043D01*
X20898Y58568D02*
X21048D01*
X20973Y58493D02*
Y58643D01*
X21298Y56168D02*
X21448D01*
X21373Y56093D02*
Y56243D01*
X20898Y53768D02*
X21048D01*
X20973Y53693D02*
Y53843D01*
X21298Y52968D02*
X21448D01*
X21373Y52893D02*
Y53043D01*
X20898Y52168D02*
X21048D01*
X20973Y52093D02*
Y52243D01*
X21298Y51368D02*
X21448D01*
X21373Y51293D02*
Y51443D01*
X20898Y50568D02*
X21048D01*
X20973Y50493D02*
Y50643D01*
X21298Y49768D02*
X21448D01*
X21373Y49693D02*
Y49843D01*
X20898Y48968D02*
X21048D01*
X20973Y48893D02*
Y49043D01*
X21298Y44968D02*
X21448D01*
X21373Y44893D02*
Y45043D01*
X21298Y36968D02*
X21448D01*
X21373Y36893D02*
Y37043D01*
X21298Y35368D02*
X21448D01*
X21373Y35293D02*
Y35443D01*
X21298Y33768D02*
X21448D01*
X21373Y33693D02*
Y33843D01*
X21298Y3368D02*
X21448D01*
X21373Y3293D02*
Y3443D01*
X21298Y1768D02*
X21448D01*
X21373Y1693D02*
Y1843D01*
X20898Y968D02*
X21048D01*
X20973Y893D02*
Y1043D01*
X20498Y56168D02*
X20648D01*
X20573Y56093D02*
Y56243D01*
X20098Y53768D02*
X20248D01*
X20173Y53693D02*
Y53843D01*
X20498Y52968D02*
X20648D01*
X20573Y52893D02*
Y53043D01*
X20098Y52168D02*
X20248D01*
X20173Y52093D02*
Y52243D01*
X20498Y49768D02*
X20648D01*
X20573Y49693D02*
Y49843D01*
X20098Y48968D02*
X20248D01*
X20173Y48893D02*
Y49043D01*
X20498Y41768D02*
X20648D01*
X20573Y41693D02*
Y41843D01*
X20098Y40968D02*
X20248D01*
X20173Y40893D02*
Y41043D01*
X20498Y35368D02*
X20648D01*
X20573Y35293D02*
Y35443D01*
X20098Y21768D02*
X20248D01*
X20173Y21693D02*
Y21843D01*
X20098Y16968D02*
X20248D01*
X20173Y16893D02*
Y17043D01*
X20498Y11368D02*
X20648D01*
X20573Y11293D02*
Y11443D01*
X20498Y6568D02*
X20648D01*
X20573Y6493D02*
Y6643D01*
X20098Y968D02*
X20248D01*
X20173Y893D02*
Y1043D01*
X19698Y49768D02*
X19848D01*
X19773Y49693D02*
Y49843D01*
X19298Y47368D02*
X19448D01*
X19373Y47293D02*
Y47443D01*
X19698Y46568D02*
X19848D01*
X19773Y46493D02*
Y46643D01*
X19298Y45768D02*
X19448D01*
X19373Y45693D02*
Y45843D01*
X19698Y41768D02*
X19848D01*
X19773Y41693D02*
Y41843D01*
X19298Y40968D02*
X19448D01*
X19373Y40893D02*
Y41043D01*
X19698Y35368D02*
X19848D01*
X19773Y35293D02*
Y35443D01*
X19298Y34568D02*
X19448D01*
X19373Y34493D02*
Y34643D01*
X19698Y33768D02*
X19848D01*
X19773Y33693D02*
Y33843D01*
X19698Y22568D02*
X19848D01*
X19773Y22493D02*
Y22643D01*
X19298Y21768D02*
X19448D01*
X19373Y21693D02*
Y21843D01*
X19298Y16968D02*
X19448D01*
X19373Y16893D02*
Y17043D01*
X19698Y16168D02*
X19848D01*
X19773Y16093D02*
Y16243D01*
X19298Y12168D02*
X19448D01*
X19373Y12093D02*
Y12243D01*
X19698Y11368D02*
X19848D01*
X19773Y11293D02*
Y11443D01*
X19698Y6568D02*
X19848D01*
X19773Y6493D02*
Y6643D01*
X19298Y5768D02*
X19448D01*
X19373Y5693D02*
Y5843D01*
X19698Y1768D02*
X19848D01*
X19773Y1693D02*
Y1843D01*
X19298Y968D02*
X19448D01*
X19373Y893D02*
Y1043D01*
X18498Y52168D02*
X18648D01*
X18573Y52093D02*
Y52243D01*
X18498Y50568D02*
X18648D01*
X18573Y50493D02*
Y50643D01*
X18498Y47368D02*
X18648D01*
X18573Y47293D02*
Y47443D01*
X18898Y46568D02*
X19048D01*
X18973Y46493D02*
Y46643D01*
X18498Y45768D02*
X18648D01*
X18573Y45693D02*
Y45843D01*
X18898Y41768D02*
X19048D01*
X18973Y41693D02*
Y41843D01*
X18498Y40968D02*
X18648D01*
X18573Y40893D02*
Y41043D01*
X18898Y35368D02*
X19048D01*
X18973Y35293D02*
Y35443D01*
X18898Y33768D02*
X19048D01*
X18973Y33693D02*
Y33843D01*
X18898Y22568D02*
X19048D01*
X18973Y22493D02*
Y22643D01*
X18498Y21768D02*
X18648D01*
X18573Y21693D02*
Y21843D01*
X18498Y16968D02*
X18648D01*
X18573Y16893D02*
Y17043D01*
X18898Y16168D02*
X19048D01*
X18973Y16093D02*
Y16243D01*
X18498Y12168D02*
X18648D01*
X18573Y12093D02*
Y12243D01*
X18898Y11368D02*
X19048D01*
X18973Y11293D02*
Y11443D01*
X18898Y6568D02*
X19048D01*
X18973Y6493D02*
Y6643D01*
X18498Y5768D02*
X18648D01*
X18573Y5693D02*
Y5843D01*
X18898Y1768D02*
X19048D01*
X18973Y1693D02*
Y1843D01*
X18498Y968D02*
X18648D01*
X18573Y893D02*
Y1043D01*
X17698Y53768D02*
X17848D01*
X17773Y53693D02*
Y53843D01*
X18098Y52968D02*
X18248D01*
X18173Y52893D02*
Y53043D01*
X17698Y52168D02*
X17848D01*
X17773Y52093D02*
Y52243D01*
X18098Y51368D02*
X18248D01*
X18173Y51293D02*
Y51443D01*
X17698Y50568D02*
X17848D01*
X17773Y50493D02*
Y50643D01*
X18098Y49768D02*
X18248D01*
X18173Y49693D02*
Y49843D01*
X17698Y48968D02*
X17848D01*
X17773Y48893D02*
Y49043D01*
X18098Y48168D02*
X18248D01*
X18173Y48093D02*
Y48243D01*
X18098Y41768D02*
X18248D01*
X18173Y41693D02*
Y41843D01*
X17698Y40968D02*
X17848D01*
X17773Y40893D02*
Y41043D01*
X18098Y35368D02*
X18248D01*
X18173Y35293D02*
Y35443D01*
X17698Y21768D02*
X17848D01*
X17773Y21693D02*
Y21843D01*
X17698Y16968D02*
X17848D01*
X17773Y16893D02*
Y17043D01*
X18098Y16168D02*
X18248D01*
X18173Y16093D02*
Y16243D01*
X18098Y11368D02*
X18248D01*
X18173Y11293D02*
Y11443D01*
X18098Y6568D02*
X18248D01*
X18173Y6493D02*
Y6643D01*
X18098Y1768D02*
X18248D01*
X18173Y1693D02*
Y1843D01*
X17698Y968D02*
X17848D01*
X17773Y893D02*
Y1043D01*
X16898Y52168D02*
X17048D01*
X16973Y52093D02*
Y52243D01*
X17298Y51368D02*
X17448D01*
X17373Y51293D02*
Y51443D01*
X17298Y49768D02*
X17448D01*
X17373Y49693D02*
Y49843D01*
X17298Y41768D02*
X17448D01*
X17373Y41693D02*
Y41843D01*
X16898Y39368D02*
X17048D01*
X16973Y39293D02*
Y39443D01*
X16898Y37768D02*
X17048D01*
X16973Y37693D02*
Y37843D01*
X17298Y35368D02*
X17448D01*
X17373Y35293D02*
Y35443D01*
X16898Y34568D02*
X17048D01*
X16973Y34493D02*
Y34643D01*
X17298Y33768D02*
X17448D01*
X17373Y33693D02*
Y33843D01*
X16898Y24968D02*
X17048D01*
X16973Y24893D02*
Y25043D01*
X16898Y23368D02*
X17048D01*
X16973Y23293D02*
Y23443D01*
X16898Y21768D02*
X17048D01*
X16973Y21693D02*
Y21843D01*
X16898Y20168D02*
X17048D01*
X16973Y20093D02*
Y20243D01*
X16898Y18568D02*
X17048D01*
X16973Y18493D02*
Y18643D01*
X16898Y16968D02*
X17048D01*
X16973Y16893D02*
Y17043D01*
X17298Y16168D02*
X17448D01*
X17373Y16093D02*
Y16243D01*
X17298Y11368D02*
X17448D01*
X17373Y11293D02*
Y11443D01*
X17298Y6568D02*
X17448D01*
X17373Y6493D02*
Y6643D01*
X16898Y2568D02*
X17048D01*
X16973Y2493D02*
Y2643D01*
X17298Y1768D02*
X17448D01*
X17373Y1693D02*
Y1843D01*
X16898Y968D02*
X17048D01*
X16973Y893D02*
Y1043D01*
X16098Y58568D02*
X16248D01*
X16173Y58493D02*
Y58643D01*
X16098Y56968D02*
X16248D01*
X16173Y56893D02*
Y57043D01*
X16098Y53768D02*
X16248D01*
X16173Y53693D02*
Y53843D01*
X16498Y52968D02*
X16648D01*
X16573Y52893D02*
Y53043D01*
X16098Y52168D02*
X16248D01*
X16173Y52093D02*
Y52243D01*
X16498Y49768D02*
X16648D01*
X16573Y49693D02*
Y49843D01*
X16098Y48968D02*
X16248D01*
X16173Y48893D02*
Y49043D01*
X16098Y36168D02*
X16248D01*
X16173Y36093D02*
Y36243D01*
X16498Y35368D02*
X16648D01*
X16573Y35293D02*
Y35443D01*
X16498Y24168D02*
X16648D01*
X16573Y24093D02*
Y24243D01*
X16498Y22568D02*
X16648D01*
X16573Y22493D02*
Y22643D01*
X16098Y2568D02*
X16248D01*
X16173Y2493D02*
Y2643D01*
X16498Y1768D02*
X16648D01*
X16573Y1693D02*
Y1843D01*
X16098Y968D02*
X16248D01*
X16173Y893D02*
Y1043D01*
X15298Y58568D02*
X15448D01*
X15373Y58493D02*
Y58643D01*
X15298Y56968D02*
X15448D01*
X15373Y56893D02*
Y57043D01*
X15698Y56168D02*
X15848D01*
X15773Y56093D02*
Y56243D01*
X15298Y53768D02*
X15448D01*
X15373Y53693D02*
Y53843D01*
X15698Y52968D02*
X15848D01*
X15773Y52893D02*
Y53043D01*
X15298Y52168D02*
X15448D01*
X15373Y52093D02*
Y52243D01*
X15698Y51368D02*
X15848D01*
X15773Y51293D02*
Y51443D01*
X15298Y50568D02*
X15448D01*
X15373Y50493D02*
Y50643D01*
X15698Y49768D02*
X15848D01*
X15773Y49693D02*
Y49843D01*
X15298Y48968D02*
X15448D01*
X15373Y48893D02*
Y49043D01*
X15298Y45768D02*
X15448D01*
X15373Y45693D02*
Y45843D01*
X15698Y44968D02*
X15848D01*
X15773Y44893D02*
Y45043D01*
X15298Y44168D02*
X15448D01*
X15373Y44093D02*
Y44243D01*
X15698Y43368D02*
X15848D01*
X15773Y43293D02*
Y43443D01*
X15298Y42568D02*
X15448D01*
X15373Y42493D02*
Y42643D01*
X15698Y41768D02*
X15848D01*
X15773Y41693D02*
Y41843D01*
X15298Y40968D02*
X15448D01*
X15373Y40893D02*
Y41043D01*
X15698Y40168D02*
X15848D01*
X15773Y40093D02*
Y40243D01*
X15298Y39368D02*
X15448D01*
X15373Y39293D02*
Y39443D01*
X15698Y38568D02*
X15848D01*
X15773Y38493D02*
Y38643D01*
X15298Y37768D02*
X15448D01*
X15373Y37693D02*
Y37843D01*
X15698Y36968D02*
X15848D01*
X15773Y36893D02*
Y37043D01*
X15298Y36168D02*
X15448D01*
X15373Y36093D02*
Y36243D01*
X15698Y35368D02*
X15848D01*
X15773Y35293D02*
Y35443D01*
X15298Y34568D02*
X15448D01*
X15373Y34493D02*
Y34643D01*
X15298Y2568D02*
X15448D01*
X15373Y2493D02*
Y2643D01*
X15698Y1768D02*
X15848D01*
X15773Y1693D02*
Y1843D01*
X15298Y968D02*
X15448D01*
X15373Y893D02*
Y1043D01*
X14498Y58568D02*
X14648D01*
X14573Y58493D02*
Y58643D01*
X14498Y56968D02*
X14648D01*
X14573Y56893D02*
Y57043D01*
X14898Y56168D02*
X15048D01*
X14973Y56093D02*
Y56243D01*
X14498Y53768D02*
X14648D01*
X14573Y53693D02*
Y53843D01*
X14898Y52968D02*
X15048D01*
X14973Y52893D02*
Y53043D01*
X14498Y52168D02*
X14648D01*
X14573Y52093D02*
Y52243D01*
X14898Y51368D02*
X15048D01*
X14973Y51293D02*
Y51443D01*
X14498Y50568D02*
X14648D01*
X14573Y50493D02*
Y50643D01*
X14898Y49768D02*
X15048D01*
X14973Y49693D02*
Y49843D01*
X14498Y48968D02*
X14648D01*
X14573Y48893D02*
Y49043D01*
X14498Y45768D02*
X14648D01*
X14573Y45693D02*
Y45843D01*
X14898Y44968D02*
X15048D01*
X14973Y44893D02*
Y45043D01*
X14498Y44168D02*
X14648D01*
X14573Y44093D02*
Y44243D01*
X14898Y43368D02*
X15048D01*
X14973Y43293D02*
Y43443D01*
X14498Y42568D02*
X14648D01*
X14573Y42493D02*
Y42643D01*
X14898Y41768D02*
X15048D01*
X14973Y41693D02*
Y41843D01*
X14498Y40968D02*
X14648D01*
X14573Y40893D02*
Y41043D01*
X14898Y40168D02*
X15048D01*
X14973Y40093D02*
Y40243D01*
X14498Y39368D02*
X14648D01*
X14573Y39293D02*
Y39443D01*
X14898Y38568D02*
X15048D01*
X14973Y38493D02*
Y38643D01*
X14498Y37768D02*
X14648D01*
X14573Y37693D02*
Y37843D01*
X14898Y36968D02*
X15048D01*
X14973Y36893D02*
Y37043D01*
X14498Y36168D02*
X14648D01*
X14573Y36093D02*
Y36243D01*
X14898Y35368D02*
X15048D01*
X14973Y35293D02*
Y35443D01*
X14498Y2568D02*
X14648D01*
X14573Y2493D02*
Y2643D01*
X14898Y1768D02*
X15048D01*
X14973Y1693D02*
Y1843D01*
X14498Y968D02*
X14648D01*
X14573Y893D02*
Y1043D01*
X13698Y58568D02*
X13848D01*
X13773Y58493D02*
Y58643D01*
X13698Y56968D02*
X13848D01*
X13773Y56893D02*
Y57043D01*
X14098Y56168D02*
X14248D01*
X14173Y56093D02*
Y56243D01*
X13698Y32968D02*
X13848D01*
X13773Y32893D02*
Y33043D01*
X14098Y32168D02*
X14248D01*
X14173Y32093D02*
Y32243D01*
X13698Y31368D02*
X13848D01*
X13773Y31293D02*
Y31443D01*
X13698Y12168D02*
X13848D01*
X13773Y12093D02*
Y12243D01*
X13698Y10568D02*
X13848D01*
X13773Y10493D02*
Y10643D01*
X13698Y2568D02*
X13848D01*
X13773Y2493D02*
Y2643D01*
X14098Y1768D02*
X14248D01*
X14173Y1693D02*
Y1843D01*
X13698Y968D02*
X13848D01*
X13773Y893D02*
Y1043D01*
X12898Y58568D02*
X13048D01*
X12973Y58493D02*
Y58643D01*
X13298Y56168D02*
X13448D01*
X13373Y56093D02*
Y56243D01*
X12898Y32968D02*
X13048D01*
X12973Y32893D02*
Y33043D01*
X13298Y32168D02*
X13448D01*
X13373Y32093D02*
Y32243D01*
X12898Y31368D02*
X13048D01*
X12973Y31293D02*
Y31443D01*
X12898Y16968D02*
X13048D01*
X12973Y16893D02*
Y17043D01*
X12898Y15368D02*
X13048D01*
X12973Y15293D02*
Y15443D01*
X12898Y12168D02*
X13048D01*
X12973Y12093D02*
Y12243D01*
X13298Y11368D02*
X13448D01*
X13373Y11293D02*
Y11443D01*
X12898Y10568D02*
X13048D01*
X12973Y10493D02*
Y10643D01*
X13298Y9768D02*
X13448D01*
X13373Y9693D02*
Y9843D01*
X12898Y2568D02*
X13048D01*
X12973Y2493D02*
Y2643D01*
X13298Y1768D02*
X13448D01*
X13373Y1693D02*
Y1843D01*
X12898Y968D02*
X13048D01*
X12973Y893D02*
Y1043D01*
X12098Y58568D02*
X12248D01*
X12173Y58493D02*
Y58643D01*
X12098Y56968D02*
X12248D01*
X12173Y56893D02*
Y57043D01*
X12498Y56168D02*
X12648D01*
X12573Y56093D02*
Y56243D01*
X12498Y41768D02*
X12648D01*
X12573Y41693D02*
Y41843D01*
X12498Y40168D02*
X12648D01*
X12573Y40093D02*
Y40243D01*
X12098Y39368D02*
X12248D01*
X12173Y39293D02*
Y39443D01*
X12498Y38568D02*
X12648D01*
X12573Y38493D02*
Y38643D01*
X12098Y37768D02*
X12248D01*
X12173Y37693D02*
Y37843D01*
X12098Y36168D02*
X12248D01*
X12173Y36093D02*
Y36243D01*
X12098Y32968D02*
X12248D01*
X12173Y32893D02*
Y33043D01*
X12498Y32168D02*
X12648D01*
X12573Y32093D02*
Y32243D01*
X12098Y31368D02*
X12248D01*
X12173Y31293D02*
Y31443D01*
X12098Y21768D02*
X12248D01*
X12173Y21693D02*
Y21843D01*
X12498Y16168D02*
X12648D01*
X12573Y16093D02*
Y16243D01*
X12098Y15368D02*
X12248D01*
X12173Y15293D02*
Y15443D01*
X12498Y14568D02*
X12648D01*
X12573Y14493D02*
Y14643D01*
X12098Y12168D02*
X12248D01*
X12173Y12093D02*
Y12243D01*
X12498Y11368D02*
X12648D01*
X12573Y11293D02*
Y11443D01*
X12098Y10568D02*
X12248D01*
X12173Y10493D02*
Y10643D01*
X12498Y9768D02*
X12648D01*
X12573Y9693D02*
Y9843D01*
X12098Y2568D02*
X12248D01*
X12173Y2493D02*
Y2643D01*
X12498Y1768D02*
X12648D01*
X12573Y1693D02*
Y1843D01*
X12098Y968D02*
X12248D01*
X12173Y893D02*
Y1043D01*
X11698Y56168D02*
X11848D01*
X11773Y56093D02*
Y56243D01*
X11298Y53768D02*
X11448D01*
X11373Y53693D02*
Y53843D01*
X11298Y52168D02*
X11448D01*
X11373Y52093D02*
Y52243D01*
X11298Y48968D02*
X11448D01*
X11373Y48893D02*
Y49043D01*
X11698Y41768D02*
X11848D01*
X11773Y41693D02*
Y41843D01*
X11298Y39368D02*
X11448D01*
X11373Y39293D02*
Y39443D01*
X11698Y38568D02*
X11848D01*
X11773Y38493D02*
Y38643D01*
X11298Y37768D02*
X11448D01*
X11373Y37693D02*
Y37843D01*
X11298Y36168D02*
X11448D01*
X11373Y36093D02*
Y36243D01*
X11698Y32168D02*
X11848D01*
X11773Y32093D02*
Y32243D01*
X11698Y22568D02*
X11848D01*
X11773Y22493D02*
Y22643D01*
X11298Y21768D02*
X11448D01*
X11373Y21693D02*
Y21843D01*
X11698Y16168D02*
X11848D01*
X11773Y16093D02*
Y16243D01*
X11298Y15368D02*
X11448D01*
X11373Y15293D02*
Y15443D01*
X11298Y12168D02*
X11448D01*
X11373Y12093D02*
Y12243D01*
X11698Y11368D02*
X11848D01*
X11773Y11293D02*
Y11443D01*
X11298Y10568D02*
X11448D01*
X11373Y10493D02*
Y10643D01*
X11698Y9768D02*
X11848D01*
X11773Y9693D02*
Y9843D01*
X11298Y2568D02*
X11448D01*
X11373Y2493D02*
Y2643D01*
X11698Y1768D02*
X11848D01*
X11773Y1693D02*
Y1843D01*
X11298Y968D02*
X11448D01*
X11373Y893D02*
Y1043D01*
X10498Y52168D02*
X10648D01*
X10573Y52093D02*
Y52243D01*
X10498Y50568D02*
X10648D01*
X10573Y50493D02*
Y50643D01*
X10898Y49768D02*
X11048D01*
X10973Y49693D02*
Y49843D01*
X10898Y41768D02*
X11048D01*
X10973Y41693D02*
Y41843D01*
X10898Y38568D02*
X11048D01*
X10973Y38493D02*
Y38643D01*
X10498Y37768D02*
X10648D01*
X10573Y37693D02*
Y37843D01*
X10898Y36968D02*
X11048D01*
X10973Y36893D02*
Y37043D01*
X10498Y36168D02*
X10648D01*
X10573Y36093D02*
Y36243D01*
X10898Y22568D02*
X11048D01*
X10973Y22493D02*
Y22643D01*
X10498Y21768D02*
X10648D01*
X10573Y21693D02*
Y21843D01*
X10898Y20968D02*
X11048D01*
X10973Y20893D02*
Y21043D01*
X10898Y19368D02*
X11048D01*
X10973Y19293D02*
Y19443D01*
X10898Y17768D02*
X11048D01*
X10973Y17693D02*
Y17843D01*
X10898Y16168D02*
X11048D01*
X10973Y16093D02*
Y16243D01*
X10498Y12168D02*
X10648D01*
X10573Y12093D02*
Y12243D01*
X10898Y11368D02*
X11048D01*
X10973Y11293D02*
Y11443D01*
X10498Y10568D02*
X10648D01*
X10573Y10493D02*
Y10643D01*
X10898Y9768D02*
X11048D01*
X10973Y9693D02*
Y9843D01*
X10498Y8968D02*
X10648D01*
X10573Y8893D02*
Y9043D01*
X10898Y8168D02*
X11048D01*
X10973Y8093D02*
Y8243D01*
X10498Y7368D02*
X10648D01*
X10573Y7293D02*
Y7443D01*
X10898Y6568D02*
X11048D01*
X10973Y6493D02*
Y6643D01*
X10498Y5768D02*
X10648D01*
X10573Y5693D02*
Y5843D01*
X10498Y2568D02*
X10648D01*
X10573Y2493D02*
Y2643D01*
X10898Y1768D02*
X11048D01*
X10973Y1693D02*
Y1843D01*
X10498Y968D02*
X10648D01*
X10573Y893D02*
Y1043D01*
X10098Y41768D02*
X10248D01*
X10173Y41693D02*
Y41843D01*
X9698Y23368D02*
X9848D01*
X9773Y23293D02*
Y23443D01*
X10098Y22568D02*
X10248D01*
X10173Y22493D02*
Y22643D01*
X9698Y21768D02*
X9848D01*
X9773Y21693D02*
Y21843D01*
X10098Y11368D02*
X10248D01*
X10173Y11293D02*
Y11443D01*
X10098Y9768D02*
X10248D01*
X10173Y9693D02*
Y9843D01*
X10098Y8168D02*
X10248D01*
X10173Y8093D02*
Y8243D01*
X10098Y6568D02*
X10248D01*
X10173Y6493D02*
Y6643D01*
X9698Y2568D02*
X9848D01*
X9773Y2493D02*
Y2643D01*
X10098Y1768D02*
X10248D01*
X10173Y1693D02*
Y1843D01*
X9698Y968D02*
X9848D01*
X9773Y893D02*
Y1043D01*
X9298Y41768D02*
X9448D01*
X9373Y41693D02*
Y41843D01*
X9298Y27368D02*
X9448D01*
X9373Y27293D02*
Y27443D01*
X8898Y26568D02*
X9048D01*
X8973Y26493D02*
Y26643D01*
X9298Y25768D02*
X9448D01*
X9373Y25693D02*
Y25843D01*
X8898Y24968D02*
X9048D01*
X8973Y24893D02*
Y25043D01*
X9298Y24168D02*
X9448D01*
X9373Y24093D02*
Y24243D01*
X8898Y23368D02*
X9048D01*
X8973Y23293D02*
Y23443D01*
X9298Y22568D02*
X9448D01*
X9373Y22493D02*
Y22643D01*
X8898Y21768D02*
X9048D01*
X8973Y21693D02*
Y21843D01*
X9298Y16168D02*
X9448D01*
X9373Y16093D02*
Y16243D01*
X8898Y15368D02*
X9048D01*
X8973Y15293D02*
Y15443D01*
X8898Y2568D02*
X9048D01*
X8973Y2493D02*
Y2643D01*
X9298Y1768D02*
X9448D01*
X9373Y1693D02*
Y1843D01*
X8898Y968D02*
X9048D01*
X8973Y893D02*
Y1043D01*
X8098Y52168D02*
X8248D01*
X8173Y52093D02*
Y52243D01*
X8098Y44168D02*
X8248D01*
X8173Y44093D02*
Y44243D01*
X8498Y41768D02*
X8648D01*
X8573Y41693D02*
Y41843D01*
X8098Y39368D02*
X8248D01*
X8173Y39293D02*
Y39443D01*
X8098Y37768D02*
X8248D01*
X8173Y37693D02*
Y37843D01*
X8098Y36168D02*
X8248D01*
X8173Y36093D02*
Y36243D01*
X8098Y34568D02*
X8248D01*
X8173Y34493D02*
Y34643D01*
X8098Y29768D02*
X8248D01*
X8173Y29693D02*
Y29843D01*
X8098Y28168D02*
X8248D01*
X8173Y28093D02*
Y28243D01*
X8498Y27368D02*
X8648D01*
X8573Y27293D02*
Y27443D01*
X8098Y26568D02*
X8248D01*
X8173Y26493D02*
Y26643D01*
X8498Y25768D02*
X8648D01*
X8573Y25693D02*
Y25843D01*
X8098Y24968D02*
X8248D01*
X8173Y24893D02*
Y25043D01*
X8498Y24168D02*
X8648D01*
X8573Y24093D02*
Y24243D01*
X8098Y23368D02*
X8248D01*
X8173Y23293D02*
Y23443D01*
X8498Y16168D02*
X8648D01*
X8573Y16093D02*
Y16243D01*
X8098Y15368D02*
X8248D01*
X8173Y15293D02*
Y15443D01*
X8498Y1768D02*
X8648D01*
X8573Y1693D02*
Y1843D01*
X7698Y54568D02*
X7848D01*
X7773Y54493D02*
Y54643D01*
X7298Y53768D02*
X7448D01*
X7373Y53693D02*
Y53843D01*
X7698Y52968D02*
X7848D01*
X7773Y52893D02*
Y53043D01*
X7298Y52168D02*
X7448D01*
X7373Y52093D02*
Y52243D01*
X7698Y49768D02*
X7848D01*
X7773Y49693D02*
Y49843D01*
X7698Y46568D02*
X7848D01*
X7773Y46493D02*
Y46643D01*
X7298Y45768D02*
X7448D01*
X7373Y45693D02*
Y45843D01*
X7698Y44968D02*
X7848D01*
X7773Y44893D02*
Y45043D01*
X7298Y44168D02*
X7448D01*
X7373Y44093D02*
Y44243D01*
X7698Y43368D02*
X7848D01*
X7773Y43293D02*
Y43443D01*
X7698Y41768D02*
X7848D01*
X7773Y41693D02*
Y41843D01*
X7298Y40968D02*
X7448D01*
X7373Y40893D02*
Y41043D01*
X7698Y40168D02*
X7848D01*
X7773Y40093D02*
Y40243D01*
X7298Y39368D02*
X7448D01*
X7373Y39293D02*
Y39443D01*
X7698Y38568D02*
X7848D01*
X7773Y38493D02*
Y38643D01*
X7298Y37768D02*
X7448D01*
X7373Y37693D02*
Y37843D01*
X7698Y36968D02*
X7848D01*
X7773Y36893D02*
Y37043D01*
X7298Y36168D02*
X7448D01*
X7373Y36093D02*
Y36243D01*
X7698Y35368D02*
X7848D01*
X7773Y35293D02*
Y35443D01*
X7298Y34568D02*
X7448D01*
X7373Y34493D02*
Y34643D01*
X7698Y33768D02*
X7848D01*
X7773Y33693D02*
Y33843D01*
X7698Y28968D02*
X7848D01*
X7773Y28893D02*
Y29043D01*
X7298Y28168D02*
X7448D01*
X7373Y28093D02*
Y28243D01*
X7698Y27368D02*
X7848D01*
X7773Y27293D02*
Y27443D01*
X7298Y26568D02*
X7448D01*
X7373Y26493D02*
Y26643D01*
X7698Y25768D02*
X7848D01*
X7773Y25693D02*
Y25843D01*
X7298Y24968D02*
X7448D01*
X7373Y24893D02*
Y25043D01*
X7698Y24168D02*
X7848D01*
X7773Y24093D02*
Y24243D01*
X7298Y23368D02*
X7448D01*
X7373Y23293D02*
Y23443D01*
X7698Y16168D02*
X7848D01*
X7773Y16093D02*
Y16243D01*
X7298Y15368D02*
X7448D01*
X7373Y15293D02*
Y15443D01*
X6898Y54568D02*
X7048D01*
X6973Y54493D02*
Y54643D01*
X6498Y53768D02*
X6648D01*
X6573Y53693D02*
Y53843D01*
X6898Y52968D02*
X7048D01*
X6973Y52893D02*
Y53043D01*
X6498Y52168D02*
X6648D01*
X6573Y52093D02*
Y52243D01*
X6898Y51368D02*
X7048D01*
X6973Y51293D02*
Y51443D01*
X6498Y50568D02*
X6648D01*
X6573Y50493D02*
Y50643D01*
X6898Y49768D02*
X7048D01*
X6973Y49693D02*
Y49843D01*
X6898Y44968D02*
X7048D01*
X6973Y44893D02*
Y45043D01*
X6498Y44168D02*
X6648D01*
X6573Y44093D02*
Y44243D01*
X6498Y42568D02*
X6648D01*
X6573Y42493D02*
Y42643D01*
X6898Y41768D02*
X7048D01*
X6973Y41693D02*
Y41843D01*
X6498Y40968D02*
X6648D01*
X6573Y40893D02*
Y41043D01*
X6898Y40168D02*
X7048D01*
X6973Y40093D02*
Y40243D01*
X6498Y39368D02*
X6648D01*
X6573Y39293D02*
Y39443D01*
X6898Y38568D02*
X7048D01*
X6973Y38493D02*
Y38643D01*
X6498Y37768D02*
X6648D01*
X6573Y37693D02*
Y37843D01*
X6898Y36968D02*
X7048D01*
X6973Y36893D02*
Y37043D01*
X6498Y36168D02*
X6648D01*
X6573Y36093D02*
Y36243D01*
X6898Y35368D02*
X7048D01*
X6973Y35293D02*
Y35443D01*
X6498Y34568D02*
X6648D01*
X6573Y34493D02*
Y34643D01*
X6898Y33768D02*
X7048D01*
X6973Y33693D02*
Y33843D01*
X6498Y32968D02*
X6648D01*
X6573Y32893D02*
Y33043D01*
X6898Y32168D02*
X7048D01*
X6973Y32093D02*
Y32243D01*
X6498Y28168D02*
X6648D01*
X6573Y28093D02*
Y28243D01*
X6898Y27368D02*
X7048D01*
X6973Y27293D02*
Y27443D01*
X6498Y26568D02*
X6648D01*
X6573Y26493D02*
Y26643D01*
X6898Y25768D02*
X7048D01*
X6973Y25693D02*
Y25843D01*
X6498Y24968D02*
X6648D01*
X6573Y24893D02*
Y25043D01*
X6898Y24168D02*
X7048D01*
X6973Y24093D02*
Y24243D01*
X6498Y23368D02*
X6648D01*
X6573Y23293D02*
Y23443D01*
X6898Y16168D02*
X7048D01*
X6973Y16093D02*
Y16243D01*
X6498Y15368D02*
X6648D01*
X6573Y15293D02*
Y15443D01*
X6098Y54568D02*
X6248D01*
X6173Y54493D02*
Y54643D01*
X6098Y52968D02*
X6248D01*
X6173Y52893D02*
Y53043D01*
X6098Y51368D02*
X6248D01*
X6173Y51293D02*
Y51443D01*
X6098Y44968D02*
X6248D01*
X6173Y44893D02*
Y45043D01*
X5698Y44168D02*
X5848D01*
X5773Y44093D02*
Y44243D01*
X5698Y42568D02*
X5848D01*
X5773Y42493D02*
Y42643D01*
X6098Y41768D02*
X6248D01*
X6173Y41693D02*
Y41843D01*
X5698Y40968D02*
X5848D01*
X5773Y40893D02*
Y41043D01*
X6098Y40168D02*
X6248D01*
X6173Y40093D02*
Y40243D01*
X5698Y39368D02*
X5848D01*
X5773Y39293D02*
Y39443D01*
X6098Y38568D02*
X6248D01*
X6173Y38493D02*
Y38643D01*
X5698Y37768D02*
X5848D01*
X5773Y37693D02*
Y37843D01*
X6098Y36968D02*
X6248D01*
X6173Y36893D02*
Y37043D01*
X5698Y36168D02*
X5848D01*
X5773Y36093D02*
Y36243D01*
X6098Y35368D02*
X6248D01*
X6173Y35293D02*
Y35443D01*
X5698Y34568D02*
X5848D01*
X5773Y34493D02*
Y34643D01*
X6098Y33768D02*
X6248D01*
X6173Y33693D02*
Y33843D01*
X5698Y32968D02*
X5848D01*
X5773Y32893D02*
Y33043D01*
X6098Y32168D02*
X6248D01*
X6173Y32093D02*
Y32243D01*
X4898Y53768D02*
X5048D01*
X4973Y53693D02*
Y53843D01*
X4898Y52168D02*
X5048D01*
X4973Y52093D02*
Y52243D01*
X4898Y50568D02*
X5048D01*
X4973Y50493D02*
Y50643D01*
X5298Y49768D02*
X5448D01*
X5373Y49693D02*
Y49843D01*
X4898Y48968D02*
X5048D01*
X4973Y48893D02*
Y49043D01*
X5298Y44968D02*
X5448D01*
X5373Y44893D02*
Y45043D01*
X5298Y41768D02*
X5448D01*
X5373Y41693D02*
Y41843D01*
X4898Y40968D02*
X5048D01*
X4973Y40893D02*
Y41043D01*
X5298Y40168D02*
X5448D01*
X5373Y40093D02*
Y40243D01*
X4898Y39368D02*
X5048D01*
X4973Y39293D02*
Y39443D01*
X5298Y38568D02*
X5448D01*
X5373Y38493D02*
Y38643D01*
X4898Y37768D02*
X5048D01*
X4973Y37693D02*
Y37843D01*
X5298Y36968D02*
X5448D01*
X5373Y36893D02*
Y37043D01*
X4898Y36168D02*
X5048D01*
X4973Y36093D02*
Y36243D01*
X5298Y35368D02*
X5448D01*
X5373Y35293D02*
Y35443D01*
X4898Y34568D02*
X5048D01*
X4973Y34493D02*
Y34643D01*
X5298Y33768D02*
X5448D01*
X5373Y33693D02*
Y33843D01*
X4898Y32968D02*
X5048D01*
X4973Y32893D02*
Y33043D01*
X5298Y32168D02*
X5448D01*
X5373Y32093D02*
Y32243D01*
X4898Y18568D02*
X5048D01*
X4973Y18493D02*
Y18643D01*
X4898Y13768D02*
X5048D01*
X4973Y13693D02*
Y13843D01*
X4898Y12168D02*
X5048D01*
X4973Y12093D02*
Y12243D01*
X4498Y52968D02*
X4648D01*
X4573Y52893D02*
Y53043D01*
X4098Y52168D02*
X4248D01*
X4173Y52093D02*
Y52243D01*
X4498Y49768D02*
X4648D01*
X4573Y49693D02*
Y49843D01*
X4498Y41768D02*
X4648D01*
X4573Y41693D02*
Y41843D01*
X4098Y40968D02*
X4248D01*
X4173Y40893D02*
Y41043D01*
X4098Y36168D02*
X4248D01*
X4173Y36093D02*
Y36243D01*
X4498Y35368D02*
X4648D01*
X4573Y35293D02*
Y35443D01*
X4098Y34568D02*
X4248D01*
X4173Y34493D02*
Y34643D01*
X4498Y33768D02*
X4648D01*
X4573Y33693D02*
Y33843D01*
X4098Y32968D02*
X4248D01*
X4173Y32893D02*
Y33043D01*
X4498Y32168D02*
X4648D01*
X4573Y32093D02*
Y32243D01*
X4098Y21768D02*
X4248D01*
X4173Y21693D02*
Y21843D01*
X4498Y17768D02*
X4648D01*
X4573Y17693D02*
Y17843D01*
X4098Y16968D02*
X4248D01*
X4173Y16893D02*
Y17043D01*
X4498Y16168D02*
X4648D01*
X4573Y16093D02*
Y16243D01*
X4498Y12968D02*
X4648D01*
X4573Y12893D02*
Y13043D01*
X4498Y11368D02*
X4648D01*
X4573Y11293D02*
Y11443D01*
X3298Y47368D02*
X3448D01*
X3373Y47293D02*
Y47443D01*
X3698Y46568D02*
X3848D01*
X3773Y46493D02*
Y46643D01*
X3298Y45768D02*
X3448D01*
X3373Y45693D02*
Y45843D01*
X3698Y41768D02*
X3848D01*
X3773Y41693D02*
Y41843D01*
X3298Y40968D02*
X3448D01*
X3373Y40893D02*
Y41043D01*
X3298Y36168D02*
X3448D01*
X3373Y36093D02*
Y36243D01*
X3698Y35368D02*
X3848D01*
X3773Y35293D02*
Y35443D01*
X3298Y34568D02*
X3448D01*
X3373Y34493D02*
Y34643D01*
X3698Y33768D02*
X3848D01*
X3773Y33693D02*
Y33843D01*
X3298Y32968D02*
X3448D01*
X3373Y32893D02*
Y33043D01*
X3698Y32168D02*
X3848D01*
X3773Y32093D02*
Y32243D01*
X3298Y21768D02*
X3448D01*
X3373Y21693D02*
Y21843D01*
X3298Y16968D02*
X3448D01*
X3373Y16893D02*
Y17043D01*
X3298Y12168D02*
X3448D01*
X3373Y12093D02*
Y12243D01*
X3698Y11368D02*
X3848D01*
X3773Y11293D02*
Y11443D01*
X3698Y6568D02*
X3848D01*
X3773Y6493D02*
Y6643D01*
X3298Y5768D02*
X3448D01*
X3373Y5693D02*
Y5843D01*
X2898Y46568D02*
X3048D01*
X2973Y46493D02*
Y46643D01*
X2498Y45768D02*
X2648D01*
X2573Y45693D02*
Y45843D01*
X2898Y41768D02*
X3048D01*
X2973Y41693D02*
Y41843D01*
X2498Y40968D02*
X2648D01*
X2573Y40893D02*
Y41043D01*
X2898Y35368D02*
X3048D01*
X2973Y35293D02*
Y35443D01*
X2898Y33768D02*
X3048D01*
X2973Y33693D02*
Y33843D01*
X2898Y32168D02*
X3048D01*
X2973Y32093D02*
Y32243D01*
X2898Y22568D02*
X3048D01*
X2973Y22493D02*
Y22643D01*
X2498Y21768D02*
X2648D01*
X2573Y21693D02*
Y21843D01*
X2498Y16968D02*
X2648D01*
X2573Y16893D02*
Y17043D01*
X2898Y16168D02*
X3048D01*
X2973Y16093D02*
Y16243D01*
X2498Y12168D02*
X2648D01*
X2573Y12093D02*
Y12243D01*
X2898Y11368D02*
X3048D01*
X2973Y11293D02*
Y11443D01*
X2898Y6568D02*
X3048D01*
X2973Y6493D02*
Y6643D01*
X2498Y5768D02*
X2648D01*
X2573Y5693D02*
Y5843D01*
X1698Y55368D02*
X1848D01*
X1773Y55293D02*
Y55443D01*
X1698Y52168D02*
X1848D01*
X1773Y52093D02*
Y52243D01*
X1698Y50568D02*
X1848D01*
X1773Y50493D02*
Y50643D01*
X1698Y45768D02*
X1848D01*
X1773Y45693D02*
Y45843D01*
X2098Y41768D02*
X2248D01*
X2173Y41693D02*
Y41843D01*
X1698Y26568D02*
X1848D01*
X1773Y26493D02*
Y26643D01*
X2098Y22568D02*
X2248D01*
X2173Y22493D02*
Y22643D01*
X1698Y21768D02*
X1848D01*
X1773Y21693D02*
Y21843D01*
X1698Y16968D02*
X1848D01*
X1773Y16893D02*
Y17043D01*
X2098Y16168D02*
X2248D01*
X2173Y16093D02*
Y16243D01*
X1698Y12168D02*
X1848D01*
X1773Y12093D02*
Y12243D01*
X2098Y11368D02*
X2248D01*
X2173Y11293D02*
Y11443D01*
X2098Y6568D02*
X2248D01*
X2173Y6493D02*
Y6643D01*
X1698Y5768D02*
X1848D01*
X1773Y5693D02*
Y5843D01*
X898Y55368D02*
X1048D01*
X973Y55293D02*
Y55443D01*
X898Y53768D02*
X1048D01*
X973Y53693D02*
Y53843D01*
X898Y52168D02*
X1048D01*
X973Y52093D02*
Y52243D01*
X1298Y51368D02*
X1448D01*
X1373Y51293D02*
Y51443D01*
X1298Y49768D02*
X1448D01*
X1373Y49693D02*
Y49843D01*
X898Y48968D02*
X1048D01*
X973Y48893D02*
Y49043D01*
X898Y36168D02*
X1048D01*
X973Y36093D02*
Y36243D01*
X1298Y35368D02*
X1448D01*
X1373Y35293D02*
Y35443D01*
X898Y34568D02*
X1048D01*
X973Y34493D02*
Y34643D01*
X1298Y33768D02*
X1448D01*
X1373Y33693D02*
Y33843D01*
X898Y32968D02*
X1048D01*
X973Y32893D02*
Y33043D01*
X1298Y32168D02*
X1448D01*
X1373Y32093D02*
Y32243D01*
X1298Y27368D02*
X1448D01*
X1373Y27293D02*
Y27443D01*
X898Y26568D02*
X1048D01*
X973Y26493D02*
Y26643D01*
X898Y21768D02*
X1048D01*
X973Y21693D02*
Y21843D01*
X898Y16968D02*
X1048D01*
X973Y16893D02*
Y17043D01*
X1298Y16168D02*
X1448D01*
X1373Y16093D02*
Y16243D01*
X1298Y11368D02*
X1448D01*
X1373Y11293D02*
Y11443D01*
X1298Y6568D02*
X1448D01*
X1373Y6493D02*
Y6643D01*
X25415Y29667D02*
X25565D01*
X25490Y29592D02*
Y29742D01*
X25125Y28770D02*
X25275D01*
X25200Y28695D02*
Y28845D01*
X25175Y22130D02*
X25325D01*
X25250Y22055D02*
Y22205D01*
X24315Y22140D02*
X24465D01*
X24390Y22065D02*
Y22215D01*
X23455Y22190D02*
X23605D01*
X23530Y22115D02*
Y22265D01*
X13005Y35910D02*
X13155D01*
X13080Y35835D02*
Y35985D01*
X13325Y36580D02*
X13475D01*
X13400Y36505D02*
Y36655D01*
X13635Y35900D02*
X13785D01*
X13710Y35825D02*
Y35975D01*
X13955Y36540D02*
X14105D01*
X14030Y36465D02*
Y36615D01*
X16055Y34090D02*
X16205D01*
X16130Y34015D02*
Y34165D01*
X16095Y33670D02*
X16245D01*
X16170Y33595D02*
Y33745D01*
X16125Y33220D02*
X16275D01*
X16200Y33145D02*
Y33295D01*
X16645Y29060D02*
X16795D01*
X16720Y28985D02*
Y29135D01*
X15915Y32010D02*
X16065D01*
X15990Y31935D02*
Y32085D01*
X8785Y31330D02*
X8935D01*
X8860Y31255D02*
Y31405D01*
X8785Y32650D02*
X8935D01*
X8860Y32575D02*
Y32725D01*
X17925Y32000D02*
X18075D01*
X18000Y31925D02*
Y32075D01*
X12555Y27540D02*
X12705D01*
X12630Y27465D02*
Y27615D01*
X24325Y12400D02*
X24475D01*
X24400Y12325D02*
Y12475D01*
X22525Y12400D02*
X22675D01*
X22600Y12325D02*
Y12475D01*
X26125Y17200D02*
X26275D01*
X26200Y17125D02*
Y17275D01*
X9335Y32010D02*
X9485D01*
X9410Y31935D02*
Y32085D01*
X24775Y14960D02*
X24925D01*
X24850Y14885D02*
Y15035D01*
X23785Y16260D02*
X23935D01*
X23860Y16185D02*
Y16335D01*
X22484Y9100D02*
X22634D01*
X22559Y9025D02*
Y9175D01*
X22375Y31540D02*
X22525D01*
X22450Y31465D02*
Y31615D01*
X21915Y31540D02*
X22065D01*
X21990Y31465D02*
Y31615D01*
X21495Y31520D02*
X21645D01*
X21570Y31445D02*
Y31595D01*
X7405Y15900D02*
X7555D01*
X7480Y15825D02*
Y15975D01*
X6415Y13710D02*
X6565D01*
X6490Y13635D02*
Y13785D01*
X8845Y16150D02*
X8995D01*
X8920Y16075D02*
Y16225D01*
X22525Y29990D02*
X22675D01*
X22600Y29915D02*
Y30065D01*
X22525Y26080D02*
X22675D01*
X22600Y26005D02*
Y26155D01*
X22325Y36670D02*
X22475D01*
X22400Y36595D02*
Y36745D01*
X1215Y34910D02*
X1365D01*
X1290Y34835D02*
Y34985D01*
X6435Y52920D02*
X6585D01*
X6510Y52845D02*
Y52995D01*
X13115Y57050D02*
X13265D01*
X13190Y56975D02*
Y57125D01*
X20865Y56880D02*
X21015D01*
X20940Y56805D02*
Y56955D01*
X21335Y59030D02*
X21485D01*
X21410Y58955D02*
Y59105D01*
D29*
X6831Y1496D02*
G03*
X6831Y1496I-787J0D01*
G01*
Y30059D02*
G03*
X6831Y30059I-787J0D01*
G01*
X6792Y57140D02*
G03*
X6792Y57140I-787J0D01*
G01*
X22441Y47244D02*
G03*
X22441Y47244I-787J0D01*
G01*
X28898Y1441D02*
G03*
X28898Y1441I-787J0D01*
G01*
X28874Y54390D02*
G03*
X28874Y54390I-787J0D01*
G01*
X6693Y47244D02*
G03*
X6693Y47244I-787J0D01*
G01*
M02*
