%FSLAX24Y24*%
%MOIN*%
G70*
G01*
G75*
G04 Layer_Color=2752767*
%ADD10C,0.0394*%
%ADD11R,0.0500X0.0400*%
%ADD12R,0.0400X0.0500*%
%ADD13O,0.0800X0.0300*%
%ADD14R,0.0800X0.0300*%
%ADD15R,0.1339X0.0700*%
%ADD16R,0.1339X0.0472*%
%ADD17R,0.1339X0.0472*%
G04:AMPARAMS|DCode=18|XSize=40mil|YSize=50mil|CornerRadius=0mil|HoleSize=0mil|Usage=FLASHONLY|Rotation=135.000|XOffset=0mil|YOffset=0mil|HoleType=Round|Shape=Rectangle|*
%AMROTATEDRECTD18*
4,1,4,0.0318,0.0035,-0.0035,-0.0318,-0.0318,-0.0035,0.0035,0.0318,0.0318,0.0035,0.0*
%
%ADD18ROTATEDRECTD18*%

%ADD19O,0.0160X0.1000*%
%ADD20O,0.1000X0.0160*%
%ADD21O,0.0300X0.0800*%
%ADD22R,0.0300X0.0800*%
%ADD23O,0.0240X0.0800*%
%ADD24C,0.0300*%
%ADD25C,0.0150*%
%ADD26C,0.0120*%
%ADD27C,0.0200*%
%ADD28C,0.0050*%
%ADD29C,0.0100*%
%ADD30C,0.0650*%
%ADD31C,0.0709*%
%ADD32O,0.0709X0.0550*%
%ADD33C,0.0500*%
%ADD34C,0.0591*%
%ADD35C,0.0787*%
%ADD36C,0.0787*%
%ADD37O,0.0980X0.1020*%
%ADD38C,0.0600*%
%ADD39C,0.0250*%
%ADD40C,0.0984*%
%ADD41C,0.0080*%
%ADD42C,0.0060*%
%ADD43C,0.0061*%
%ADD44C,0.0079*%
%ADD45R,0.1575X0.0153*%
%ADD46C,0.0866*%
%ADD47C,0.0474*%
%ADD48R,0.0580X0.0480*%
%ADD49R,0.0480X0.0580*%
%ADD50O,0.0880X0.0380*%
%ADD51R,0.0880X0.0380*%
%ADD52R,0.1419X0.0780*%
%ADD53R,0.1419X0.0552*%
%ADD54R,0.1419X0.0552*%
G04:AMPARAMS|DCode=55|XSize=48mil|YSize=58mil|CornerRadius=0mil|HoleSize=0mil|Usage=FLASHONLY|Rotation=135.000|XOffset=0mil|YOffset=0mil|HoleType=Round|Shape=Rectangle|*
%AMROTATEDRECTD55*
4,1,4,0.0375,0.0035,-0.0035,-0.0375,-0.0375,-0.0035,0.0035,0.0375,0.0375,0.0035,0.0*
%
%ADD55ROTATEDRECTD55*%

%ADD56O,0.0240X0.1080*%
%ADD57O,0.1080X0.0240*%
%ADD58O,0.0380X0.0880*%
%ADD59R,0.0380X0.0880*%
%ADD60O,0.0320X0.0880*%
%ADD61C,0.0730*%
%ADD62C,0.0789*%
%ADD63O,0.0789X0.0630*%
%ADD64C,0.0580*%
%ADD65C,0.0671*%
%ADD66C,0.0867*%
%ADD67C,0.0867*%
%ADD68O,0.1060X0.1100*%
%ADD69C,0.0680*%
%ADD70C,0.1064*%
%ADD71C,0.0020*%
%ADD72C,0.0197*%
%ADD73R,0.0667X0.1929*%
%ADD74C,0.0160*%
D28*
X28150Y0D02*
G03*
X29528Y1378I0J1378D01*
G01*
X0D02*
G03*
X1378Y0I1378J0D01*
G01*
X29528Y58465D02*
G03*
X28150Y59843I-1378J0D01*
G01*
X1378D02*
G03*
X0Y58465I0J-1378D01*
G01*
Y59843D02*
X29528D01*
Y0D02*
Y59843D01*
X28560Y0D02*
X29528D01*
X0D02*
X28560D01*
X0D02*
Y59843D01*
X20488Y37197D02*
Y37530D01*
X20654Y37697D01*
X20821Y37530D01*
Y37197D01*
Y37447D01*
X20488D01*
Y39953D02*
Y40286D01*
X20654Y40453D01*
X20821Y40286D01*
Y39953D01*
Y40203D01*
X20488D01*
X17732Y39953D02*
Y40286D01*
X17899Y40453D01*
X18065Y40286D01*
Y39953D01*
Y40203D01*
X17732D01*
Y37197D02*
Y37530D01*
X17899Y37697D01*
X18065Y37530D01*
Y37197D01*
Y37447D01*
X17732D01*
X20488Y39034D02*
Y39367D01*
X20654Y39534D01*
X20821Y39367D01*
Y39034D01*
Y39284D01*
X20488D01*
Y38115D02*
Y38449D01*
X20654Y38615D01*
X20821Y38449D01*
Y38115D01*
Y38365D01*
X20488D01*
X17732Y38115D02*
Y38449D01*
X17899Y38615D01*
X18065Y38449D01*
Y38115D01*
Y38365D01*
X17732D01*
Y39034D02*
Y39367D01*
X17899Y39534D01*
X18065Y39367D01*
Y39034D01*
Y39284D01*
X17732D01*
X20488Y42492D02*
Y42825D01*
X20654Y42992D01*
X20821Y42825D01*
Y42492D01*
Y42742D01*
X20488D01*
Y45248D02*
Y45581D01*
X20654Y45748D01*
X20821Y45581D01*
Y45248D01*
Y45498D01*
X20488D01*
X17732Y45248D02*
Y45581D01*
X17899Y45748D01*
X18065Y45581D01*
Y45248D01*
Y45498D01*
X17732D01*
Y42492D02*
Y42825D01*
X17899Y42992D01*
X18065Y42825D01*
Y42492D01*
Y42742D01*
X17732D01*
X20488Y44329D02*
Y44663D01*
X20654Y44829D01*
X20821Y44663D01*
Y44329D01*
Y44579D01*
X20488D01*
Y43411D02*
Y43744D01*
X20654Y43911D01*
X20821Y43744D01*
Y43411D01*
Y43661D01*
X20488D01*
X17732Y43411D02*
Y43744D01*
X17899Y43911D01*
X18065Y43744D01*
Y43411D01*
Y43661D01*
X17732D01*
Y44329D02*
Y44663D01*
X17899Y44829D01*
X18065Y44663D01*
Y44329D01*
Y44579D01*
X17732D01*
X26760Y26730D02*
Y27063D01*
X26927Y27230D01*
X27093Y27063D01*
Y26730D01*
Y26980D01*
X26760D01*
Y27730D02*
Y28063D01*
X26927Y28230D01*
X27093Y28063D01*
Y27730D01*
Y27980D01*
X26760D01*
X26760Y28730D02*
Y29063D01*
X26927Y29230D01*
X27093Y29063D01*
Y28730D01*
Y28980D01*
X26760D01*
Y29730D02*
Y30063D01*
X26927Y30230D01*
X27093Y30063D01*
Y29730D01*
Y29980D01*
X26760D01*
Y30730D02*
Y31063D01*
X26927Y31230D01*
X27093Y31063D01*
Y30730D01*
Y30980D01*
X26760D01*
X27760Y26730D02*
Y27063D01*
X27927Y27230D01*
X28093Y27063D01*
Y26730D01*
Y26980D01*
X27760D01*
Y27730D02*
Y28063D01*
X27927Y28230D01*
X28093Y28063D01*
Y27730D01*
Y27980D01*
X27760D01*
Y28730D02*
Y29063D01*
X27927Y29230D01*
X28093Y29063D01*
Y28730D01*
Y28980D01*
X27760D01*
X27760Y29730D02*
Y30063D01*
X27927Y30230D01*
X28093Y30063D01*
Y29730D01*
Y29980D01*
X27760D01*
X27760Y30730D02*
Y31063D01*
X27927Y31230D01*
X28093Y31063D01*
Y30730D01*
Y30980D01*
X27760D01*
X18380Y34810D02*
Y34310D01*
X18630D01*
X18713Y34393D01*
Y34477D01*
X18630Y34560D01*
X18380D01*
X18630D01*
X18713Y34643D01*
Y34727D01*
X18630Y34810D01*
X18380D01*
X20380D02*
Y34310D01*
X20630D01*
X20713Y34393D01*
Y34477D01*
X20630Y34560D01*
X20380D01*
X20630D01*
X20713Y34643D01*
Y34727D01*
X20630Y34810D01*
X20380D01*
X8916Y13760D02*
X8832Y13843D01*
X8666D01*
X8583Y13760D01*
Y13427D01*
X8666Y13343D01*
X8832D01*
X8916Y13427D01*
X11716Y13760D02*
X11632Y13843D01*
X11466D01*
X11383Y13760D01*
Y13427D01*
X11466Y13343D01*
X11632D01*
X11716Y13427D01*
X1102Y4255D02*
Y4588D01*
X1269Y4754D01*
X1435Y4588D01*
Y4255D01*
Y4505D01*
X1102D01*
Y3336D02*
Y3669D01*
X1269Y3836D01*
X1435Y3669D01*
Y3336D01*
Y3586D01*
X1102D01*
X3858Y3336D02*
Y3669D01*
X4025Y3836D01*
X4191Y3669D01*
Y3336D01*
Y3586D01*
X3858D01*
Y4255D02*
Y4588D01*
X4025Y4754D01*
X4191Y4588D01*
Y4255D01*
Y4505D01*
X3858D01*
Y2417D02*
Y2751D01*
X4025Y2917D01*
X4191Y2751D01*
Y2417D01*
Y2667D01*
X3858D01*
Y5173D02*
Y5506D01*
X4025Y5673D01*
X4191Y5506D01*
Y5173D01*
Y5423D01*
X3858D01*
X1102Y5173D02*
Y5506D01*
X1269Y5673D01*
X1435Y5506D01*
Y5173D01*
Y5423D01*
X1102D01*
Y2417D02*
Y2751D01*
X1269Y2917D01*
X1435Y2751D01*
Y2417D01*
Y2667D01*
X1102D01*
Y9416D02*
Y9749D01*
X1269Y9916D01*
X1435Y9749D01*
Y9416D01*
Y9666D01*
X1102D01*
Y8497D02*
Y8831D01*
X1269Y8997D01*
X1435Y8831D01*
Y8497D01*
Y8747D01*
X1102D01*
X3858Y8497D02*
Y8831D01*
X4025Y8997D01*
X4191Y8831D01*
Y8497D01*
Y8747D01*
X3858D01*
Y9416D02*
Y9749D01*
X4025Y9916D01*
X4191Y9749D01*
Y9416D01*
Y9666D01*
X3858D01*
Y7579D02*
Y7912D01*
X4025Y8079D01*
X4191Y7912D01*
Y7579D01*
Y7829D01*
X3858D01*
Y10335D02*
Y10668D01*
X4025Y10834D01*
X4191Y10668D01*
Y10335D01*
Y10585D01*
X3858D01*
X1102Y10335D02*
Y10668D01*
X1269Y10834D01*
X1435Y10668D01*
Y10335D01*
Y10585D01*
X1102D01*
Y7579D02*
Y7912D01*
X1269Y8079D01*
X1435Y7912D01*
Y7579D01*
Y7829D01*
X1102D01*
Y14577D02*
Y14911D01*
X1269Y15077D01*
X1435Y14911D01*
Y14577D01*
Y14827D01*
X1102D01*
Y13659D02*
Y13992D01*
X1269Y14159D01*
X1435Y13992D01*
Y13659D01*
Y13909D01*
X1102D01*
X3858Y13659D02*
Y13992D01*
X4025Y14159D01*
X4191Y13992D01*
Y13659D01*
Y13909D01*
X3858D01*
Y14577D02*
Y14911D01*
X4025Y15077D01*
X4191Y14911D01*
Y14577D01*
Y14827D01*
X3858D01*
Y12740D02*
Y13073D01*
X4025Y13240D01*
X4191Y13073D01*
Y12740D01*
Y12990D01*
X3858D01*
Y15496D02*
Y15829D01*
X4025Y15996D01*
X4191Y15829D01*
Y15496D01*
Y15746D01*
X3858D01*
X1102Y15496D02*
Y15829D01*
X1269Y15996D01*
X1435Y15829D01*
Y15496D01*
Y15746D01*
X1102D01*
Y12740D02*
Y13073D01*
X1269Y13240D01*
X1435Y13073D01*
Y12740D01*
Y12990D01*
X1102D01*
X27133Y10027D02*
X27050Y10110D01*
X26883D01*
X26800Y10027D01*
Y9693D01*
X26883Y9610D01*
X27050D01*
X27133Y9693D01*
Y8027D02*
X27050Y8110D01*
X26883D01*
X26800Y8027D01*
Y7693D01*
X26883Y7610D01*
X27050D01*
X27133Y7693D01*
Y7027D02*
X27050Y7110D01*
X26883D01*
X26800Y7027D01*
Y6693D01*
X26883Y6610D01*
X27050D01*
X27133Y6693D01*
Y9027D02*
X27050Y9110D01*
X26883D01*
X26800Y9027D01*
Y8693D01*
X26883Y8610D01*
X27050D01*
X27133Y8693D01*
X29223Y14727D02*
X29140Y14810D01*
X28973D01*
X28890Y14727D01*
Y14393D01*
X28973Y14310D01*
X29140D01*
X29223Y14393D01*
X27223Y14727D02*
X27140Y14810D01*
X26973D01*
X26890Y14727D01*
Y14393D01*
X26973Y14310D01*
X27140D01*
X27223Y14393D01*
X13510Y26280D02*
Y25780D01*
X13760D01*
X13843Y25863D01*
Y26197D01*
X13760Y26280D01*
X13510D01*
X12510D02*
Y25780D01*
X12760D01*
X12843Y25863D01*
Y26197D01*
X12760Y26280D01*
X12510D01*
X20488Y28224D02*
Y28558D01*
X20654Y28724D01*
X20821Y28558D01*
Y28224D01*
Y28474D01*
X20488D01*
Y30980D02*
Y31314D01*
X20654Y31480D01*
X20821Y31314D01*
Y30980D01*
Y31230D01*
X20488D01*
X17732Y30980D02*
Y31314D01*
X17899Y31480D01*
X18065Y31314D01*
Y30980D01*
Y31230D01*
X17732D01*
Y28224D02*
Y28558D01*
X17899Y28724D01*
X18065Y28558D01*
Y28224D01*
Y28474D01*
X17732D01*
X20488Y30062D02*
Y30395D01*
X20654Y30562D01*
X20821Y30395D01*
Y30062D01*
Y30312D01*
X20488D01*
Y29143D02*
Y29476D01*
X20654Y29643D01*
X20821Y29476D01*
Y29143D01*
Y29393D01*
X20488D01*
X17732Y29143D02*
Y29476D01*
X17899Y29643D01*
X18065Y29476D01*
Y29143D01*
Y29393D01*
X17732D01*
Y30062D02*
Y30395D01*
X17899Y30562D01*
X18065Y30395D01*
Y30062D01*
Y30312D01*
X17732D01*
X1813Y53786D02*
X1480D01*
Y53286D01*
X1813D01*
X1480Y53536D02*
X1647D01*
X1813Y48986D02*
X1480D01*
Y48486D01*
X1813D01*
X1480Y48736D02*
X1647D01*
X3813Y53786D02*
X3480D01*
Y53286D01*
X3813D01*
X3480Y53536D02*
X3647D01*
X3813Y48986D02*
X3480D01*
Y48486D01*
X3813D01*
X3480Y48736D02*
X3647D01*
X1042Y51386D02*
X708D01*
Y51136D01*
X875D01*
X708D01*
Y50886D01*
X4585Y51386D02*
X4252D01*
Y51136D01*
X4418D01*
X4252D01*
Y50886D01*
X10990Y48986D02*
X10657D01*
Y48486D01*
X10990D01*
X10657Y48736D02*
X10824D01*
X10990Y53786D02*
X10657D01*
Y53286D01*
X10990D01*
X10657Y53536D02*
X10824D01*
X8990Y48986D02*
X8657D01*
Y48486D01*
X8990D01*
X8657Y48736D02*
X8824D01*
X8990Y53786D02*
X8657D01*
Y53286D01*
X8990D01*
X8657Y53536D02*
X8824D01*
X11762Y51386D02*
X11429D01*
Y51136D01*
X11595D01*
X11429D01*
Y50886D01*
X8219Y51386D02*
X7886D01*
Y51136D01*
X8052D01*
X7886D01*
Y50886D01*
X17589Y53786D02*
X17256D01*
Y53286D01*
X17589D01*
X17256Y53536D02*
X17422D01*
X17589Y48986D02*
X17256D01*
Y48486D01*
X17589D01*
X17256Y48736D02*
X17422D01*
X19589Y53786D02*
X19256D01*
Y53286D01*
X19589D01*
X19256Y53536D02*
X19422D01*
X19589Y48986D02*
X19256D01*
Y48486D01*
X19589D01*
X19256Y48736D02*
X19422D01*
X16817Y51386D02*
X16484D01*
Y51136D01*
X16651D01*
X16484D01*
Y50886D01*
X20360Y51386D02*
X20027D01*
Y51136D01*
X20194D01*
X20027D01*
Y50886D01*
X26756Y48986D02*
X26423D01*
Y48486D01*
X26756D01*
X26423Y48736D02*
X26589D01*
X26756Y53786D02*
X26423D01*
Y53286D01*
X26756D01*
X26423Y53536D02*
X26589D01*
X24756Y48986D02*
X24423D01*
Y48486D01*
X24756D01*
X24423Y48736D02*
X24589D01*
X24756Y53786D02*
X24423D01*
Y53286D01*
X24756D01*
X24423Y53536D02*
X24589D01*
X27528Y51386D02*
X27194D01*
Y51136D01*
X27361D01*
X27194D01*
Y50886D01*
X23984Y51386D02*
X23651D01*
Y51136D01*
X23818D01*
X23651D01*
Y50886D01*
X1102Y56122D02*
Y56455D01*
X1269Y56622D01*
X1435Y56455D01*
Y56122D01*
Y56372D01*
X1102D01*
Y58878D02*
Y59211D01*
X1269Y59378D01*
X1435Y59211D01*
Y58878D01*
Y59128D01*
X1102D01*
X3858Y58878D02*
Y59211D01*
X4025Y59378D01*
X4191Y59211D01*
Y58878D01*
Y59128D01*
X3858D01*
Y56122D02*
Y56455D01*
X4025Y56622D01*
X4191Y56455D01*
Y56122D01*
Y56372D01*
X3858D01*
X1102Y57959D02*
Y58293D01*
X1269Y58459D01*
X1435Y58293D01*
Y57959D01*
Y58209D01*
X1102D01*
Y57041D02*
Y57374D01*
X1269Y57541D01*
X1435Y57374D01*
Y57041D01*
Y57291D01*
X1102D01*
X3858Y57041D02*
Y57374D01*
X4025Y57541D01*
X4191Y57374D01*
Y57041D01*
Y57291D01*
X3858D01*
Y57959D02*
Y58293D01*
X4025Y58459D01*
X4191Y58293D01*
Y57959D01*
Y58209D01*
X3858D01*
X11035Y56122D02*
Y56455D01*
X11202Y56622D01*
X11368Y56455D01*
Y56122D01*
Y56372D01*
X11035D01*
Y58878D02*
Y59211D01*
X11202Y59378D01*
X11368Y59211D01*
Y58878D01*
Y59128D01*
X11035D01*
X8279Y58878D02*
Y59211D01*
X8446Y59378D01*
X8612Y59211D01*
Y58878D01*
Y59128D01*
X8279D01*
Y56122D02*
Y56455D01*
X8446Y56622D01*
X8612Y56455D01*
Y56122D01*
Y56372D01*
X8279D01*
Y57959D02*
Y58293D01*
X8446Y58459D01*
X8612Y58293D01*
Y57959D01*
Y58209D01*
X8279D01*
Y57041D02*
Y57374D01*
X8446Y57541D01*
X8612Y57374D01*
Y57041D01*
Y57291D01*
X8279D01*
X11035Y57041D02*
Y57374D01*
X11202Y57541D01*
X11368Y57374D01*
Y57041D01*
Y57291D01*
X11035D01*
Y57959D02*
Y58293D01*
X11202Y58459D01*
X11368Y58293D01*
Y57959D01*
Y58209D01*
X11035D01*
X16878Y56122D02*
Y56455D01*
X17044Y56622D01*
X17211Y56455D01*
Y56122D01*
Y56372D01*
X16878D01*
Y58878D02*
Y59211D01*
X17044Y59378D01*
X17211Y59211D01*
Y58878D01*
Y59128D01*
X16878D01*
X19634Y58878D02*
Y59211D01*
X19800Y59378D01*
X19967Y59211D01*
Y58878D01*
Y59128D01*
X19634D01*
Y56122D02*
Y56455D01*
X19800Y56622D01*
X19967Y56455D01*
Y56122D01*
Y56372D01*
X19634D01*
X16878Y57959D02*
Y58293D01*
X17044Y58459D01*
X17211Y58293D01*
Y57959D01*
Y58209D01*
X16878D01*
Y57041D02*
Y57374D01*
X17044Y57541D01*
X17211Y57374D01*
Y57041D01*
Y57291D01*
X16878D01*
X19634Y57041D02*
Y57374D01*
X19800Y57541D01*
X19967Y57374D01*
Y57041D01*
Y57291D01*
X19634D01*
Y57959D02*
Y58293D01*
X19800Y58459D01*
X19967Y58293D01*
Y57959D01*
Y58209D01*
X19634D01*
X26811Y56122D02*
Y56455D01*
X26977Y56622D01*
X27144Y56455D01*
Y56122D01*
Y56372D01*
X26811D01*
Y58878D02*
Y59211D01*
X26977Y59378D01*
X27144Y59211D01*
Y58878D01*
Y59128D01*
X26811D01*
X24055Y58878D02*
Y59211D01*
X24221Y59378D01*
X24388Y59211D01*
Y58878D01*
Y59128D01*
X24055D01*
Y56122D02*
Y56455D01*
X24221Y56622D01*
X24388Y56455D01*
Y56122D01*
Y56372D01*
X24055D01*
X26811Y57959D02*
Y58293D01*
X26977Y58459D01*
X27144Y58293D01*
Y57959D01*
Y58209D01*
X26811D01*
Y57041D02*
Y57374D01*
X26977Y57541D01*
X27144Y57374D01*
Y57041D01*
Y57291D01*
X26811D01*
X24055Y57041D02*
Y57374D01*
X24221Y57541D01*
X24388Y57374D01*
Y57041D01*
Y57291D01*
X24055D01*
Y57959D02*
Y58293D01*
X24221Y58459D01*
X24388Y58293D01*
Y57959D01*
Y58209D01*
X24055D01*
X1102Y42492D02*
Y42825D01*
X1269Y42992D01*
X1435Y42825D01*
Y42492D01*
Y42742D01*
X1102D01*
Y45248D02*
Y45581D01*
X1269Y45748D01*
X1435Y45581D01*
Y45248D01*
Y45498D01*
X1102D01*
X3858Y45248D02*
Y45581D01*
X4025Y45748D01*
X4191Y45581D01*
Y45248D01*
Y45498D01*
X3858D01*
Y42492D02*
Y42825D01*
X4025Y42992D01*
X4191Y42825D01*
Y42492D01*
Y42742D01*
X3858D01*
X1102Y44329D02*
Y44663D01*
X1269Y44829D01*
X1435Y44663D01*
Y44329D01*
Y44579D01*
X1102D01*
Y43411D02*
Y43744D01*
X1269Y43911D01*
X1435Y43744D01*
Y43411D01*
Y43661D01*
X1102D01*
X3858Y43411D02*
Y43744D01*
X4025Y43911D01*
X4191Y43744D01*
Y43411D01*
Y43661D01*
X3858D01*
Y44329D02*
Y44663D01*
X4025Y44829D01*
X4191Y44663D01*
Y44329D01*
Y44579D01*
X3858D01*
X1102Y37197D02*
Y37530D01*
X1269Y37697D01*
X1435Y37530D01*
Y37197D01*
Y37447D01*
X1102D01*
Y39953D02*
Y40286D01*
X1269Y40453D01*
X1435Y40286D01*
Y39953D01*
Y40203D01*
X1102D01*
X3858Y39953D02*
Y40286D01*
X4025Y40453D01*
X4191Y40286D01*
Y39953D01*
Y40203D01*
X3858D01*
Y37197D02*
Y37530D01*
X4025Y37697D01*
X4191Y37530D01*
Y37197D01*
Y37447D01*
X3858D01*
X1102Y39034D02*
Y39367D01*
X1269Y39534D01*
X1435Y39367D01*
Y39034D01*
Y39284D01*
X1102D01*
Y38115D02*
Y38449D01*
X1269Y38615D01*
X1435Y38449D01*
Y38115D01*
Y38365D01*
X1102D01*
X3858Y38115D02*
Y38449D01*
X4025Y38615D01*
X4191Y38449D01*
Y38115D01*
Y38365D01*
X3858D01*
Y39034D02*
Y39367D01*
X4025Y39534D01*
X4191Y39367D01*
Y39034D01*
Y39284D01*
X3858D01*
X1102Y28224D02*
Y28558D01*
X1269Y28724D01*
X1435Y28558D01*
Y28224D01*
Y28474D01*
X1102D01*
Y30980D02*
Y31314D01*
X1269Y31480D01*
X1435Y31314D01*
Y30980D01*
Y31230D01*
X1102D01*
X3858Y30980D02*
Y31314D01*
X4025Y31480D01*
X4191Y31314D01*
Y30980D01*
Y31230D01*
X3858D01*
Y28224D02*
Y28558D01*
X4025Y28724D01*
X4191Y28558D01*
Y28224D01*
Y28474D01*
X3858D01*
X1102Y30062D02*
Y30395D01*
X1269Y30562D01*
X1435Y30395D01*
Y30062D01*
Y30312D01*
X1102D01*
Y29143D02*
Y29476D01*
X1269Y29643D01*
X1435Y29476D01*
Y29143D01*
Y29393D01*
X1102D01*
X3858Y29143D02*
Y29476D01*
X4025Y29643D01*
X4191Y29476D01*
Y29143D01*
Y29393D01*
X3858D01*
Y30062D02*
Y30395D01*
X4025Y30562D01*
X4191Y30395D01*
Y30062D01*
Y30312D01*
X3858D01*
X1102Y24900D02*
Y25233D01*
X1269Y25400D01*
X1435Y25233D01*
Y24900D01*
Y25150D01*
X1102D01*
Y23982D02*
Y24315D01*
X1269Y24481D01*
X1435Y24315D01*
Y23982D01*
Y24232D01*
X1102D01*
X3858Y23982D02*
Y24315D01*
X4025Y24481D01*
X4191Y24315D01*
Y23982D01*
Y24232D01*
X3858D01*
Y24900D02*
Y25233D01*
X4025Y25400D01*
X4191Y25233D01*
Y24900D01*
Y25150D01*
X3858D01*
Y23063D02*
Y23396D01*
X4025Y23563D01*
X4191Y23396D01*
Y23063D01*
Y23313D01*
X3858D01*
Y25819D02*
Y26152D01*
X4025Y26319D01*
X4191Y26152D01*
Y25819D01*
Y26069D01*
X3858D01*
X1102Y25819D02*
Y26152D01*
X1269Y26319D01*
X1435Y26152D01*
Y25819D01*
Y26069D01*
X1102D01*
Y23063D02*
Y23396D01*
X1269Y23563D01*
X1435Y23396D01*
Y23063D01*
Y23313D01*
X1102D01*
Y19739D02*
Y20072D01*
X1269Y20239D01*
X1435Y20072D01*
Y19739D01*
Y19989D01*
X1102D01*
Y18820D02*
Y19153D01*
X1269Y19320D01*
X1435Y19153D01*
Y18820D01*
Y19070D01*
X1102D01*
X3858Y18820D02*
Y19153D01*
X4025Y19320D01*
X4191Y19153D01*
Y18820D01*
Y19070D01*
X3858D01*
Y19739D02*
Y20072D01*
X4025Y20239D01*
X4191Y20072D01*
Y19739D01*
Y19989D01*
X3858D01*
Y17902D02*
Y18235D01*
X4025Y18401D01*
X4191Y18235D01*
Y17902D01*
Y18151D01*
X3858D01*
Y20657D02*
Y20991D01*
X4025Y21157D01*
X4191Y20991D01*
Y20657D01*
Y20907D01*
X3858D01*
X1102Y20657D02*
Y20991D01*
X1269Y21157D01*
X1435Y20991D01*
Y20657D01*
Y20907D01*
X1102D01*
Y17902D02*
Y18235D01*
X1269Y18401D01*
X1435Y18235D01*
Y17902D01*
Y18151D01*
X1102D01*
X20488Y4255D02*
Y4588D01*
X20654Y4754D01*
X20821Y4588D01*
Y4255D01*
Y4505D01*
X20488D01*
Y3336D02*
Y3669D01*
X20654Y3836D01*
X20821Y3669D01*
Y3336D01*
Y3586D01*
X20488D01*
X17732Y3336D02*
Y3669D01*
X17899Y3836D01*
X18065Y3669D01*
Y3336D01*
Y3586D01*
X17732D01*
Y4255D02*
Y4588D01*
X17899Y4754D01*
X18065Y4588D01*
Y4255D01*
Y4505D01*
X17732D01*
Y2417D02*
Y2751D01*
X17899Y2917D01*
X18065Y2751D01*
Y2417D01*
Y2667D01*
X17732D01*
Y5173D02*
Y5506D01*
X17899Y5673D01*
X18065Y5506D01*
Y5173D01*
Y5423D01*
X17732D01*
X20488Y5173D02*
Y5506D01*
X20654Y5673D01*
X20821Y5506D01*
Y5173D01*
Y5423D01*
X20488D01*
Y2417D02*
Y2751D01*
X20654Y2917D01*
X20821Y2751D01*
Y2417D01*
Y2667D01*
X20488D01*
X20478Y7502D02*
Y7835D01*
X20645Y8002D01*
X20811Y7835D01*
Y7502D01*
Y7752D01*
X20478D01*
Y10258D02*
Y10591D01*
X20645Y10758D01*
X20811Y10591D01*
Y10258D01*
Y10508D01*
X20478D01*
X17722Y10258D02*
Y10591D01*
X17889Y10758D01*
X18055Y10591D01*
Y10258D01*
Y10508D01*
X17722D01*
Y7502D02*
Y7835D01*
X17889Y8002D01*
X18055Y7835D01*
Y7502D01*
Y7752D01*
X17722D01*
X20478Y9339D02*
Y9673D01*
X20645Y9839D01*
X20811Y9673D01*
Y9339D01*
Y9589D01*
X20478D01*
Y8421D02*
Y8754D01*
X20645Y8921D01*
X20811Y8754D01*
Y8421D01*
Y8671D01*
X20478D01*
X17722Y8421D02*
Y8754D01*
X17889Y8921D01*
X18055Y8754D01*
Y8421D01*
Y8671D01*
X17722D01*
Y9339D02*
Y9673D01*
X17889Y9839D01*
X18055Y9673D01*
Y9339D01*
Y9589D01*
X17722D01*
X20488Y14577D02*
Y14911D01*
X20654Y15077D01*
X20821Y14911D01*
Y14577D01*
Y14827D01*
X20488D01*
Y13659D02*
Y13992D01*
X20654Y14159D01*
X20821Y13992D01*
Y13659D01*
Y13909D01*
X20488D01*
X17732Y13659D02*
Y13992D01*
X17899Y14159D01*
X18065Y13992D01*
Y13659D01*
Y13909D01*
X17732D01*
Y14577D02*
Y14911D01*
X17899Y15077D01*
X18065Y14911D01*
Y14577D01*
Y14827D01*
X17732D01*
Y12740D02*
Y13073D01*
X17899Y13240D01*
X18065Y13073D01*
Y12740D01*
Y12990D01*
X17732D01*
Y15496D02*
Y15829D01*
X17899Y15996D01*
X18065Y15829D01*
Y15496D01*
Y15746D01*
X17732D01*
X20488Y15496D02*
Y15829D01*
X20654Y15996D01*
X20821Y15829D01*
Y15496D01*
Y15746D01*
X20488D01*
Y12740D02*
Y13073D01*
X20654Y13240D01*
X20821Y13073D01*
Y12740D01*
Y12990D01*
X20488D01*
Y17902D02*
Y18235D01*
X20654Y18401D01*
X20821Y18235D01*
Y17902D01*
Y18151D01*
X20488D01*
Y20657D02*
Y20991D01*
X20654Y21157D01*
X20821Y20991D01*
Y20657D01*
Y20907D01*
X20488D01*
X17732Y20657D02*
Y20991D01*
X17899Y21157D01*
X18065Y20991D01*
Y20657D01*
Y20907D01*
X17732D01*
Y17902D02*
Y18235D01*
X17899Y18401D01*
X18065Y18235D01*
Y17902D01*
Y18151D01*
X17732D01*
X20488Y19739D02*
Y20072D01*
X20654Y20239D01*
X20821Y20072D01*
Y19739D01*
Y19989D01*
X20488D01*
Y18820D02*
Y19153D01*
X20654Y19320D01*
X20821Y19153D01*
Y18820D01*
Y19070D01*
X20488D01*
X17732Y18820D02*
Y19153D01*
X17899Y19320D01*
X18065Y19153D01*
Y18820D01*
Y19070D01*
X17732D01*
Y19739D02*
Y20072D01*
X17899Y20239D01*
X18065Y20072D01*
Y19739D01*
Y19989D01*
X17732D01*
X20488Y24900D02*
Y25233D01*
X20654Y25400D01*
X20821Y25233D01*
Y24900D01*
Y25150D01*
X20488D01*
Y23982D02*
Y24315D01*
X20654Y24481D01*
X20821Y24315D01*
Y23982D01*
Y24232D01*
X20488D01*
X17732Y23982D02*
Y24315D01*
X17899Y24481D01*
X18065Y24315D01*
Y23982D01*
Y24232D01*
X17732D01*
Y24900D02*
Y25233D01*
X17899Y25400D01*
X18065Y25233D01*
Y24900D01*
Y25150D01*
X17732D01*
Y23063D02*
Y23396D01*
X17899Y23563D01*
X18065Y23396D01*
Y23063D01*
Y23313D01*
X17732D01*
Y25819D02*
Y26152D01*
X17899Y26319D01*
X18065Y26152D01*
Y25819D01*
Y26069D01*
X17732D01*
X20488Y25819D02*
Y26152D01*
X20654Y26319D01*
X20821Y26152D01*
Y25819D01*
Y26069D01*
X20488D01*
Y23063D02*
Y23396D01*
X20654Y23563D01*
X20821Y23396D01*
Y23063D01*
Y23313D01*
X20488D01*
X12803Y59437D02*
X12720Y59520D01*
X12553D01*
X12470Y59437D01*
Y59103D01*
X12553Y59020D01*
X12720D01*
X12803Y59103D01*
Y59270D01*
X12637D01*
X13653Y59437D02*
X13570Y59520D01*
X13403D01*
X13320Y59437D01*
Y59103D01*
X13403Y59020D01*
X13570D01*
X13653Y59103D01*
Y59270D01*
X13487D01*
X28233Y58267D02*
X28150Y58350D01*
X27983D01*
X27900Y58267D01*
Y57933D01*
X27983Y57850D01*
X28150D01*
X28233Y57933D01*
Y58100D01*
X28067D01*
X28243Y57547D02*
X28160Y57630D01*
X27993D01*
X27910Y57547D01*
Y57213D01*
X27993Y57130D01*
X28160D01*
X28243Y57213D01*
Y57380D01*
X28077D01*
X25930Y31230D02*
Y30730D01*
Y30980D01*
X26263D01*
Y31230D01*
Y30730D01*
X28173Y52667D02*
Y52168D01*
Y52417D01*
X28506D01*
Y52667D01*
Y52168D01*
X28573Y51867D02*
Y51368D01*
Y51617D01*
X28906D01*
Y51867D01*
Y51368D01*
X28173Y51067D02*
Y50568D01*
Y50817D01*
X28506D01*
Y51067D01*
Y50568D01*
X28573Y50267D02*
Y49768D01*
Y50017D01*
X28906D01*
Y50267D01*
Y49768D01*
X28173Y49467D02*
Y48968D01*
Y49217D01*
X28506D01*
Y49467D01*
Y48968D01*
X28573Y48667D02*
Y48168D01*
Y48417D01*
X28906D01*
Y48667D01*
Y48168D01*
X28173Y47867D02*
Y47368D01*
Y47617D01*
X28506D01*
Y47867D01*
Y47368D01*
X28573Y47067D02*
Y46568D01*
Y46817D01*
X28906D01*
Y47067D01*
Y46568D01*
X28173Y46267D02*
Y45768D01*
Y46017D01*
X28506D01*
Y46267D01*
Y45768D01*
X28573Y45467D02*
Y44968D01*
Y45217D01*
X28906D01*
Y45467D01*
Y44968D01*
X28173Y44667D02*
Y44168D01*
Y44417D01*
X28506D01*
Y44667D01*
Y44168D01*
X28573Y43867D02*
Y43368D01*
Y43617D01*
X28906D01*
Y43867D01*
Y43368D01*
X28173Y43067D02*
Y42568D01*
Y42817D01*
X28506D01*
Y43067D01*
Y42568D01*
X28573Y42267D02*
Y41768D01*
Y42017D01*
X28906D01*
Y42267D01*
Y41768D01*
X28173Y41467D02*
Y40968D01*
Y41217D01*
X28506D01*
Y41467D01*
Y40968D01*
X28573Y40667D02*
Y40168D01*
Y40417D01*
X28906D01*
Y40667D01*
Y40168D01*
X28173Y39867D02*
Y39368D01*
Y39617D01*
X28506D01*
Y39867D01*
Y39368D01*
X28573Y39067D02*
Y38568D01*
Y38817D01*
X28906D01*
Y39067D01*
Y38568D01*
X28173Y38267D02*
Y37768D01*
Y38017D01*
X28506D01*
Y38267D01*
Y37768D01*
X28573Y37467D02*
Y36968D01*
Y37217D01*
X28906D01*
Y37467D01*
Y36968D01*
X28173Y36667D02*
Y36168D01*
Y36417D01*
X28506D01*
Y36667D01*
Y36168D01*
X28573Y35867D02*
Y35368D01*
Y35617D01*
X28906D01*
Y35867D01*
Y35368D01*
X28173Y35067D02*
Y34568D01*
Y34817D01*
X28506D01*
Y35067D01*
Y34568D01*
X28573Y34267D02*
Y33768D01*
Y34017D01*
X28906D01*
Y34267D01*
Y33768D01*
X28173Y33467D02*
Y32968D01*
Y33217D01*
X28506D01*
Y33467D01*
Y32968D01*
X28573Y32667D02*
Y32168D01*
Y32417D01*
X28906D01*
Y32667D01*
Y32168D01*
X28173Y31867D02*
Y31368D01*
Y31617D01*
X28506D01*
Y31867D01*
Y31368D01*
X28573Y31067D02*
Y30568D01*
Y30817D01*
X28906D01*
Y31067D01*
Y30568D01*
X28573Y29467D02*
Y28968D01*
Y29217D01*
X28906D01*
Y29467D01*
Y28968D01*
X28173Y28667D02*
Y28168D01*
Y28417D01*
X28506D01*
Y28667D01*
Y28168D01*
X28573Y27867D02*
Y27368D01*
Y27617D01*
X28906D01*
Y27867D01*
Y27368D01*
X28173Y25467D02*
Y24968D01*
Y25217D01*
X28506D01*
Y25467D01*
Y24968D01*
X28173Y23867D02*
Y23368D01*
Y23617D01*
X28506D01*
Y23867D01*
Y23368D01*
X28173Y22267D02*
Y21768D01*
Y22017D01*
X28506D01*
Y22267D01*
Y21768D01*
X28173Y20667D02*
Y20168D01*
Y20417D01*
X28506D01*
Y20667D01*
Y20168D01*
X28173Y19067D02*
Y18568D01*
Y18817D01*
X28506D01*
Y19067D01*
Y18568D01*
X28173Y17467D02*
Y16968D01*
Y17217D01*
X28506D01*
Y17467D01*
Y16968D01*
X28173Y14267D02*
Y13768D01*
Y14017D01*
X28506D01*
Y14267D01*
Y13768D01*
X28173Y12667D02*
Y12168D01*
Y12417D01*
X28506D01*
Y12667D01*
Y12168D01*
X28173Y11067D02*
Y10568D01*
Y10817D01*
X28506D01*
Y11067D01*
Y10568D01*
X28173Y7867D02*
Y7368D01*
Y7617D01*
X28506D01*
Y7867D01*
Y7368D01*
X28573Y7067D02*
Y6568D01*
Y6817D01*
X28906D01*
Y7067D01*
Y6568D01*
X28173Y6267D02*
Y5768D01*
Y6018D01*
X28506D01*
Y6267D01*
Y5768D01*
X28573Y5467D02*
Y4968D01*
Y5217D01*
X28906D01*
Y5467D01*
Y4968D01*
X28173Y4667D02*
Y4168D01*
Y4417D01*
X28506D01*
Y4667D01*
Y4168D01*
X27373Y52667D02*
Y52168D01*
Y52417D01*
X27706D01*
Y52667D01*
Y52168D01*
X27773Y50267D02*
Y49768D01*
Y50017D01*
X28106D01*
Y50267D01*
Y49768D01*
X27373Y49467D02*
Y48968D01*
Y49217D01*
X27706D01*
Y49467D01*
Y48968D01*
X27773Y48667D02*
Y48168D01*
Y48417D01*
X28106D01*
Y48667D01*
Y48168D01*
X27373Y47867D02*
Y47368D01*
Y47617D01*
X27706D01*
Y47867D01*
Y47368D01*
X27773Y47067D02*
Y46568D01*
Y46817D01*
X28106D01*
Y47067D01*
Y46568D01*
X27373Y46267D02*
Y45768D01*
Y46017D01*
X27706D01*
Y46267D01*
Y45768D01*
X27773Y45467D02*
Y44968D01*
Y45217D01*
X28106D01*
Y45467D01*
Y44968D01*
X27373Y44667D02*
Y44168D01*
Y44417D01*
X27706D01*
Y44667D01*
Y44168D01*
X27773Y43867D02*
Y43368D01*
Y43617D01*
X28106D01*
Y43867D01*
Y43368D01*
X27373Y43067D02*
Y42568D01*
Y42817D01*
X27706D01*
Y43067D01*
Y42568D01*
X27773Y42267D02*
Y41768D01*
Y42017D01*
X28106D01*
Y42267D01*
Y41768D01*
X27373Y41467D02*
Y40968D01*
Y41217D01*
X27706D01*
Y41467D01*
Y40968D01*
X27773Y40667D02*
Y40168D01*
Y40417D01*
X28106D01*
Y40667D01*
Y40168D01*
X27373Y39867D02*
Y39368D01*
Y39617D01*
X27706D01*
Y39867D01*
Y39368D01*
X27773Y39067D02*
Y38568D01*
Y38817D01*
X28106D01*
Y39067D01*
Y38568D01*
X27373Y38267D02*
Y37768D01*
Y38017D01*
X27706D01*
Y38267D01*
Y37768D01*
X27773Y37467D02*
Y36968D01*
Y37217D01*
X28106D01*
Y37467D01*
Y36968D01*
X27373Y36667D02*
Y36168D01*
Y36417D01*
X27706D01*
Y36667D01*
Y36168D01*
X27773Y35867D02*
Y35368D01*
Y35617D01*
X28106D01*
Y35867D01*
Y35368D01*
X27373Y35067D02*
Y34568D01*
Y34817D01*
X27706D01*
Y35067D01*
Y34568D01*
X27773Y34267D02*
Y33768D01*
Y34017D01*
X28106D01*
Y34267D01*
Y33768D01*
X27373Y33467D02*
Y32968D01*
Y33217D01*
X27706D01*
Y33467D01*
Y32968D01*
X27773Y32667D02*
Y32168D01*
Y32417D01*
X28106D01*
Y32667D01*
Y32168D01*
X27373Y31867D02*
Y31368D01*
Y31617D01*
X27706D01*
Y31867D01*
Y31368D01*
X27373Y28667D02*
Y28168D01*
Y28417D01*
X27706D01*
Y28667D01*
Y28168D01*
X27373Y25467D02*
Y24968D01*
Y25217D01*
X27706D01*
Y25467D01*
Y24968D01*
X27773Y24667D02*
Y24168D01*
Y24417D01*
X28106D01*
Y24667D01*
Y24168D01*
X27373Y23867D02*
Y23368D01*
Y23617D01*
X27706D01*
Y23867D01*
Y23368D01*
X27773Y23067D02*
Y22568D01*
Y22817D01*
X28106D01*
Y23067D01*
Y22568D01*
X27373Y22267D02*
Y21768D01*
Y22017D01*
X27706D01*
Y22267D01*
Y21768D01*
X27773Y21467D02*
Y20968D01*
Y21217D01*
X28106D01*
Y21467D01*
Y20968D01*
X27373Y20667D02*
Y20168D01*
Y20417D01*
X27706D01*
Y20667D01*
Y20168D01*
X27773Y19867D02*
Y19368D01*
Y19617D01*
X28106D01*
Y19867D01*
Y19368D01*
X27373Y19067D02*
Y18568D01*
Y18817D01*
X27706D01*
Y19067D01*
Y18568D01*
X27773Y18267D02*
Y17768D01*
Y18017D01*
X28106D01*
Y18267D01*
Y17768D01*
X27373Y17467D02*
Y16968D01*
Y17217D01*
X27706D01*
Y17467D01*
Y16968D01*
X27773Y15067D02*
Y14568D01*
Y14817D01*
X28106D01*
Y15067D01*
Y14568D01*
X27373Y14267D02*
Y13768D01*
Y14017D01*
X27706D01*
Y14267D01*
Y13768D01*
X27773Y13467D02*
Y12968D01*
Y13217D01*
X28106D01*
Y13467D01*
Y12968D01*
X27373Y12667D02*
Y12168D01*
Y12417D01*
X27706D01*
Y12667D01*
Y12168D01*
X27773Y11867D02*
Y11368D01*
Y11617D01*
X28106D01*
Y11867D01*
Y11368D01*
X27373Y11067D02*
Y10568D01*
Y10817D01*
X27706D01*
Y11067D01*
Y10568D01*
X27773Y10267D02*
Y9768D01*
Y10017D01*
X28106D01*
Y10267D01*
Y9768D01*
X27773Y7067D02*
Y6568D01*
Y6817D01*
X28106D01*
Y7067D01*
Y6568D01*
X27373Y6267D02*
Y5768D01*
Y6018D01*
X27706D01*
Y6267D01*
Y5768D01*
X27773Y5467D02*
Y4968D01*
Y5217D01*
X28106D01*
Y5467D01*
Y4968D01*
X27373Y4667D02*
Y4168D01*
Y4417D01*
X27706D01*
Y4667D01*
Y4168D01*
X26573Y52667D02*
Y52168D01*
Y52417D01*
X26906D01*
Y52667D01*
Y52168D01*
X26973Y50267D02*
Y49768D01*
Y50017D01*
X27306D01*
Y50267D01*
Y49768D01*
X26573Y47867D02*
Y47368D01*
Y47617D01*
X26906D01*
Y47867D01*
Y47368D01*
X26973Y47067D02*
Y46568D01*
Y46817D01*
X27306D01*
Y47067D01*
Y46568D01*
X26573Y46267D02*
Y45768D01*
Y46017D01*
X26906D01*
Y46267D01*
Y45768D01*
X26973Y45467D02*
Y44968D01*
Y45217D01*
X27306D01*
Y45467D01*
Y44968D01*
X26573Y44667D02*
Y44168D01*
Y44417D01*
X26906D01*
Y44667D01*
Y44168D01*
X26973Y43867D02*
Y43368D01*
Y43617D01*
X27306D01*
Y43867D01*
Y43368D01*
X26573Y43067D02*
Y42568D01*
Y42817D01*
X26906D01*
Y43067D01*
Y42568D01*
X26973Y42267D02*
Y41768D01*
Y42017D01*
X27306D01*
Y42267D01*
Y41768D01*
X26573Y41467D02*
Y40968D01*
Y41217D01*
X26906D01*
Y41467D01*
Y40968D01*
X26973Y40667D02*
Y40168D01*
Y40417D01*
X27306D01*
Y40667D01*
Y40168D01*
X26573Y39867D02*
Y39368D01*
Y39617D01*
X26906D01*
Y39867D01*
Y39368D01*
X26973Y39067D02*
Y38568D01*
Y38817D01*
X27306D01*
Y39067D01*
Y38568D01*
X26573Y38267D02*
Y37768D01*
Y38017D01*
X26906D01*
Y38267D01*
Y37768D01*
X26973Y37467D02*
Y36968D01*
Y37217D01*
X27306D01*
Y37467D01*
Y36968D01*
X26573Y36667D02*
Y36168D01*
Y36417D01*
X26906D01*
Y36667D01*
Y36168D01*
X26973Y35867D02*
Y35368D01*
Y35617D01*
X27306D01*
Y35867D01*
Y35368D01*
X26573Y35067D02*
Y34568D01*
Y34817D01*
X26906D01*
Y35067D01*
Y34568D01*
X26973Y34267D02*
Y33768D01*
Y34017D01*
X27306D01*
Y34267D01*
Y33768D01*
X26573Y33467D02*
Y32968D01*
Y33217D01*
X26906D01*
Y33467D01*
Y32968D01*
X26973Y32667D02*
Y32168D01*
Y32417D01*
X27306D01*
Y32667D01*
Y32168D01*
X26573Y25467D02*
Y24968D01*
Y25217D01*
X26906D01*
Y25467D01*
Y24968D01*
X26973Y24667D02*
Y24168D01*
Y24417D01*
X27306D01*
Y24667D01*
Y24168D01*
X26573Y23867D02*
Y23368D01*
Y23617D01*
X26906D01*
Y23867D01*
Y23368D01*
X26973Y23067D02*
Y22568D01*
Y22817D01*
X27306D01*
Y23067D01*
Y22568D01*
X26573Y22267D02*
Y21768D01*
Y22017D01*
X26906D01*
Y22267D01*
Y21768D01*
X26973Y21467D02*
Y20968D01*
Y21217D01*
X27306D01*
Y21467D01*
Y20968D01*
X26573Y20667D02*
Y20168D01*
Y20417D01*
X26906D01*
Y20667D01*
Y20168D01*
X26973Y19867D02*
Y19368D01*
Y19617D01*
X27306D01*
Y19867D01*
Y19368D01*
X26573Y19067D02*
Y18568D01*
Y18817D01*
X26906D01*
Y19067D01*
Y18568D01*
X26973Y18267D02*
Y17768D01*
Y18017D01*
X27306D01*
Y18267D01*
Y17768D01*
X26573Y14267D02*
Y13768D01*
Y14017D01*
X26906D01*
Y14267D01*
Y13768D01*
X26973Y13467D02*
Y12968D01*
Y13217D01*
X27306D01*
Y13467D01*
Y12968D01*
X26573Y12667D02*
Y12168D01*
Y12417D01*
X26906D01*
Y12667D01*
Y12168D01*
X26973Y11867D02*
Y11368D01*
Y11617D01*
X27306D01*
Y11867D01*
Y11368D01*
X26573Y11067D02*
Y10568D01*
Y10817D01*
X26906D01*
Y11067D01*
Y10568D01*
X26573Y6267D02*
Y5768D01*
Y6018D01*
X26906D01*
Y6267D01*
Y5768D01*
X26973Y5467D02*
Y4968D01*
Y5217D01*
X27306D01*
Y5467D01*
Y4968D01*
X26573Y4667D02*
Y4168D01*
Y4417D01*
X26906D01*
Y4667D01*
Y4168D01*
X25773Y55867D02*
Y55368D01*
Y55617D01*
X26106D01*
Y55867D01*
Y55368D01*
X26173Y55067D02*
Y54568D01*
Y54817D01*
X26506D01*
Y55067D01*
Y54568D01*
X25773Y54267D02*
Y53768D01*
Y54017D01*
X26106D01*
Y54267D01*
Y53768D01*
X25773Y52667D02*
Y52168D01*
Y52417D01*
X26106D01*
Y52667D01*
Y52168D01*
X26173Y51867D02*
Y51368D01*
Y51617D01*
X26506D01*
Y51867D01*
Y51368D01*
X25773Y51067D02*
Y50568D01*
Y50817D01*
X26106D01*
Y51067D01*
Y50568D01*
X26173Y50267D02*
Y49768D01*
Y50017D01*
X26506D01*
Y50267D01*
Y49768D01*
X25773Y49467D02*
Y48968D01*
Y49217D01*
X26106D01*
Y49467D01*
Y48968D01*
X25773Y47867D02*
Y47368D01*
Y47617D01*
X26106D01*
Y47867D01*
Y47368D01*
X26173Y47067D02*
Y46568D01*
Y46817D01*
X26506D01*
Y47067D01*
Y46568D01*
X25773Y46267D02*
Y45768D01*
Y46017D01*
X26106D01*
Y46267D01*
Y45768D01*
X26173Y45467D02*
Y44968D01*
Y45217D01*
X26506D01*
Y45467D01*
Y44968D01*
X25773Y44667D02*
Y44168D01*
Y44417D01*
X26106D01*
Y44667D01*
Y44168D01*
X26173Y43867D02*
Y43368D01*
Y43617D01*
X26506D01*
Y43867D01*
Y43368D01*
X25773Y43067D02*
Y42568D01*
Y42817D01*
X26106D01*
Y43067D01*
Y42568D01*
X26173Y42267D02*
Y41768D01*
Y42017D01*
X26506D01*
Y42267D01*
Y41768D01*
X25773Y41467D02*
Y40968D01*
Y41217D01*
X26106D01*
Y41467D01*
Y40968D01*
X26173Y40667D02*
Y40168D01*
Y40417D01*
X26506D01*
Y40667D01*
Y40168D01*
X25773Y39867D02*
Y39368D01*
Y39617D01*
X26106D01*
Y39867D01*
Y39368D01*
X26173Y39067D02*
Y38568D01*
Y38817D01*
X26506D01*
Y39067D01*
Y38568D01*
X25773Y38267D02*
Y37768D01*
Y38017D01*
X26106D01*
Y38267D01*
Y37768D01*
X26173Y37467D02*
Y36968D01*
Y37217D01*
X26506D01*
Y37467D01*
Y36968D01*
X25773Y36667D02*
Y36168D01*
Y36417D01*
X26106D01*
Y36667D01*
Y36168D01*
X26173Y35867D02*
Y35368D01*
Y35617D01*
X26506D01*
Y35867D01*
Y35368D01*
X25773Y35067D02*
Y34568D01*
Y34817D01*
X26106D01*
Y35067D01*
Y34568D01*
X26173Y34267D02*
Y33768D01*
Y34017D01*
X26506D01*
Y34267D01*
Y33768D01*
X25773Y33467D02*
Y32968D01*
Y33217D01*
X26106D01*
Y33467D01*
Y32968D01*
X26173Y32667D02*
Y32168D01*
Y32417D01*
X26506D01*
Y32667D01*
Y32168D01*
X25773Y31867D02*
Y31368D01*
Y31617D01*
X26106D01*
Y31867D01*
Y31368D01*
X25773Y25467D02*
Y24968D01*
Y25217D01*
X26106D01*
Y25467D01*
Y24968D01*
X26173Y24667D02*
Y24168D01*
Y24417D01*
X26506D01*
Y24667D01*
Y24168D01*
X25773Y23867D02*
Y23368D01*
Y23617D01*
X26106D01*
Y23867D01*
Y23368D01*
X26173Y23067D02*
Y22568D01*
Y22817D01*
X26506D01*
Y23067D01*
Y22568D01*
X25773Y22267D02*
Y21768D01*
Y22017D01*
X26106D01*
Y22267D01*
Y21768D01*
X26173Y21467D02*
Y20968D01*
Y21217D01*
X26506D01*
Y21467D01*
Y20968D01*
X26173Y19867D02*
Y19368D01*
Y19617D01*
X26506D01*
Y19867D01*
Y19368D01*
X25773Y19067D02*
Y18568D01*
Y18817D01*
X26106D01*
Y19067D01*
Y18568D01*
X26173Y18267D02*
Y17768D01*
Y18017D01*
X26506D01*
Y18267D01*
Y17768D01*
X26173Y13467D02*
Y12968D01*
Y13217D01*
X26506D01*
Y13467D01*
Y12968D01*
X25773Y12667D02*
Y12168D01*
Y12417D01*
X26106D01*
Y12667D01*
Y12168D01*
X26173Y11867D02*
Y11368D01*
Y11617D01*
X26506D01*
Y11867D01*
Y11368D01*
X25773Y11067D02*
Y10568D01*
Y10817D01*
X26106D01*
Y11067D01*
Y10568D01*
X26173Y10267D02*
Y9768D01*
Y10017D01*
X26506D01*
Y10267D01*
Y9768D01*
X25773Y9467D02*
Y8968D01*
Y9218D01*
X26106D01*
Y9467D01*
Y8968D01*
X25773Y6267D02*
Y5768D01*
Y6018D01*
X26106D01*
Y6267D01*
Y5768D01*
X26173Y5467D02*
Y4968D01*
Y5217D01*
X26506D01*
Y5467D01*
Y4968D01*
X25773Y4667D02*
Y4168D01*
Y4417D01*
X26106D01*
Y4667D01*
Y4168D01*
X24973Y55867D02*
Y55368D01*
Y55617D01*
X25306D01*
Y55867D01*
Y55368D01*
X25373Y55067D02*
Y54568D01*
Y54817D01*
X25706D01*
Y55067D01*
Y54568D01*
X25373Y53467D02*
Y52968D01*
Y53217D01*
X25706D01*
Y53467D01*
Y52968D01*
X24973Y52667D02*
Y52168D01*
Y52417D01*
X25306D01*
Y52667D01*
Y52168D01*
X25373Y51867D02*
Y51368D01*
Y51617D01*
X25706D01*
Y51867D01*
Y51368D01*
X24973Y51067D02*
Y50568D01*
Y50817D01*
X25306D01*
Y51067D01*
Y50568D01*
X25373Y50267D02*
Y49768D01*
Y50017D01*
X25706D01*
Y50267D01*
Y49768D01*
X25373Y48667D02*
Y48168D01*
Y48417D01*
X25706D01*
Y48667D01*
Y48168D01*
X24973Y47867D02*
Y47368D01*
Y47617D01*
X25306D01*
Y47867D01*
Y47368D01*
X25373Y47067D02*
Y46568D01*
Y46817D01*
X25706D01*
Y47067D01*
Y46568D01*
X24973Y46267D02*
Y45768D01*
Y46017D01*
X25306D01*
Y46267D01*
Y45768D01*
X25373Y45467D02*
Y44968D01*
Y45217D01*
X25706D01*
Y45467D01*
Y44968D01*
X24973Y44667D02*
Y44168D01*
Y44417D01*
X25306D01*
Y44667D01*
Y44168D01*
X25373Y43867D02*
Y43368D01*
Y43617D01*
X25706D01*
Y43867D01*
Y43368D01*
X24973Y43067D02*
Y42568D01*
Y42817D01*
X25306D01*
Y43067D01*
Y42568D01*
X25373Y42267D02*
Y41768D01*
Y42017D01*
X25706D01*
Y42267D01*
Y41768D01*
X24973Y41467D02*
Y40968D01*
Y41217D01*
X25306D01*
Y41467D01*
Y40968D01*
X25373Y40667D02*
Y40168D01*
Y40417D01*
X25706D01*
Y40667D01*
Y40168D01*
X24973Y39867D02*
Y39368D01*
Y39617D01*
X25306D01*
Y39867D01*
Y39368D01*
X25373Y39067D02*
Y38568D01*
Y38817D01*
X25706D01*
Y39067D01*
Y38568D01*
X24973Y38267D02*
Y37768D01*
Y38017D01*
X25306D01*
Y38267D01*
Y37768D01*
X25373Y37467D02*
Y36968D01*
Y37217D01*
X25706D01*
Y37467D01*
Y36968D01*
X24973Y36667D02*
Y36168D01*
Y36417D01*
X25306D01*
Y36667D01*
Y36168D01*
X25373Y35867D02*
Y35368D01*
Y35617D01*
X25706D01*
Y35867D01*
Y35368D01*
X24973Y35067D02*
Y34568D01*
Y34817D01*
X25306D01*
Y35067D01*
Y34568D01*
X25373Y34267D02*
Y33768D01*
Y34017D01*
X25706D01*
Y34267D01*
Y33768D01*
X25373Y32667D02*
Y32168D01*
Y32417D01*
X25706D01*
Y32667D01*
Y32168D01*
X25373Y31067D02*
Y30568D01*
Y30817D01*
X25706D01*
Y31067D01*
Y30568D01*
X25373Y24667D02*
Y24168D01*
Y24417D01*
X25706D01*
Y24667D01*
Y24168D01*
X25373Y11867D02*
Y11368D01*
Y11617D01*
X25706D01*
Y11867D01*
Y11368D01*
X24973Y11067D02*
Y10568D01*
Y10817D01*
X25306D01*
Y11067D01*
Y10568D01*
X24973Y6267D02*
Y5768D01*
Y6018D01*
X25306D01*
Y6267D01*
Y5768D01*
X25373Y5467D02*
Y4968D01*
Y5217D01*
X25706D01*
Y5467D01*
Y4968D01*
X24973Y4667D02*
Y4168D01*
Y4417D01*
X25306D01*
Y4667D01*
Y4168D01*
X24173Y47867D02*
Y47368D01*
Y47617D01*
X24506D01*
Y47867D01*
Y47368D01*
X24573Y47067D02*
Y46568D01*
Y46817D01*
X24906D01*
Y47067D01*
Y46568D01*
X24173Y46267D02*
Y45768D01*
Y46017D01*
X24506D01*
Y46267D01*
Y45768D01*
X24573Y45467D02*
Y44968D01*
Y45217D01*
X24906D01*
Y45467D01*
Y44968D01*
X24173Y44667D02*
Y44168D01*
Y44417D01*
X24506D01*
Y44667D01*
Y44168D01*
X24573Y43867D02*
Y43368D01*
Y43617D01*
X24906D01*
Y43867D01*
Y43368D01*
X24173Y43067D02*
Y42568D01*
Y42817D01*
X24506D01*
Y43067D01*
Y42568D01*
X24573Y42267D02*
Y41768D01*
Y42017D01*
X24906D01*
Y42267D01*
Y41768D01*
X24173Y41467D02*
Y40968D01*
Y41217D01*
X24506D01*
Y41467D01*
Y40968D01*
X24573Y40667D02*
Y40168D01*
Y40417D01*
X24906D01*
Y40667D01*
Y40168D01*
X24173Y39867D02*
Y39368D01*
Y39617D01*
X24506D01*
Y39867D01*
Y39368D01*
X24573Y39067D02*
Y38568D01*
Y38817D01*
X24906D01*
Y39067D01*
Y38568D01*
X24573Y37467D02*
Y36968D01*
Y37217D01*
X24906D01*
Y37467D01*
Y36968D01*
X24573Y35867D02*
Y35368D01*
Y35617D01*
X24906D01*
Y35867D01*
Y35368D01*
X24573Y34267D02*
Y33768D01*
Y34017D01*
X24906D01*
Y34267D01*
Y33768D01*
X24173Y11067D02*
Y10568D01*
Y10817D01*
X24506D01*
Y11067D01*
Y10568D01*
X24173Y6267D02*
Y5768D01*
Y6018D01*
X24506D01*
Y6267D01*
Y5768D01*
X24573Y5467D02*
Y4968D01*
Y5217D01*
X24906D01*
Y5467D01*
Y4968D01*
X24173Y4667D02*
Y4168D01*
Y4417D01*
X24506D01*
Y4667D01*
Y4168D01*
X24573Y3867D02*
Y3368D01*
Y3618D01*
X24906D01*
Y3867D01*
Y3368D01*
X24173Y3067D02*
Y2568D01*
Y2817D01*
X24506D01*
Y3067D01*
Y2568D01*
X24173Y1467D02*
Y968D01*
Y1217D01*
X24506D01*
Y1467D01*
Y968D01*
X23373Y59067D02*
Y58568D01*
Y58817D01*
X23706D01*
Y59067D01*
Y58568D01*
X23373Y54267D02*
Y53768D01*
Y54017D01*
X23706D01*
Y54267D01*
Y53768D01*
X23373Y52667D02*
Y52168D01*
Y52417D01*
X23706D01*
Y52667D01*
Y52168D01*
X23773Y50267D02*
Y49768D01*
Y50017D01*
X24106D01*
Y50267D01*
Y49768D01*
X23373Y49467D02*
Y48968D01*
Y49217D01*
X23706D01*
Y49467D01*
Y48968D01*
X23773Y47067D02*
Y46568D01*
Y46817D01*
X24106D01*
Y47067D01*
Y46568D01*
X23373Y46267D02*
Y45768D01*
Y46017D01*
X23706D01*
Y46267D01*
Y45768D01*
X23773Y45467D02*
Y44968D01*
Y45217D01*
X24106D01*
Y45467D01*
Y44968D01*
X23373Y44667D02*
Y44168D01*
Y44417D01*
X23706D01*
Y44667D01*
Y44168D01*
X23773Y43867D02*
Y43368D01*
Y43617D01*
X24106D01*
Y43867D01*
Y43368D01*
X23373Y43067D02*
Y42568D01*
Y42817D01*
X23706D01*
Y43067D01*
Y42568D01*
X23773Y42267D02*
Y41768D01*
Y42017D01*
X24106D01*
Y42267D01*
Y41768D01*
X23373Y41467D02*
Y40968D01*
Y41217D01*
X23706D01*
Y41467D01*
Y40968D01*
X23773Y40667D02*
Y40168D01*
Y40417D01*
X24106D01*
Y40667D01*
Y40168D01*
X23373Y39867D02*
Y39368D01*
Y39617D01*
X23706D01*
Y39867D01*
Y39368D01*
X23773Y39067D02*
Y38568D01*
Y38817D01*
X24106D01*
Y39067D01*
Y38568D01*
X23373Y28667D02*
Y28168D01*
Y28417D01*
X23706D01*
Y28667D01*
Y28168D01*
X23373Y23867D02*
Y23368D01*
Y23617D01*
X23706D01*
Y23867D01*
Y23368D01*
X23373Y6267D02*
Y5768D01*
Y6018D01*
X23706D01*
Y6267D01*
Y5768D01*
X23773Y5467D02*
Y4968D01*
Y5217D01*
X24106D01*
Y5467D01*
Y4968D01*
X23373Y4667D02*
Y4168D01*
Y4417D01*
X23706D01*
Y4667D01*
Y4168D01*
X23773Y3867D02*
Y3368D01*
Y3618D01*
X24106D01*
Y3867D01*
Y3368D01*
X23373Y3067D02*
Y2568D01*
Y2817D01*
X23706D01*
Y3067D01*
Y2568D01*
X23773Y2267D02*
Y1768D01*
Y2017D01*
X24106D01*
Y2267D01*
Y1768D01*
X23373Y1467D02*
Y968D01*
Y1217D01*
X23706D01*
Y1467D01*
Y968D01*
X22573Y59067D02*
Y58568D01*
Y58817D01*
X22906D01*
Y59067D01*
Y58568D01*
X22573Y57467D02*
Y56968D01*
Y57217D01*
X22906D01*
Y57467D01*
Y56968D01*
X22973Y56667D02*
Y56168D01*
Y56417D01*
X23306D01*
Y56667D01*
Y56168D01*
X22573Y54267D02*
Y53768D01*
Y54017D01*
X22906D01*
Y54267D01*
Y53768D01*
X22973Y53467D02*
Y52968D01*
Y53217D01*
X23306D01*
Y53467D01*
Y52968D01*
X22573Y52667D02*
Y52168D01*
Y52417D01*
X22906D01*
Y52667D01*
Y52168D01*
X22973Y51867D02*
Y51368D01*
Y51617D01*
X23306D01*
Y51867D01*
Y51368D01*
X22573Y51067D02*
Y50568D01*
Y50817D01*
X22906D01*
Y51067D01*
Y50568D01*
X22973Y50267D02*
Y49768D01*
Y50017D01*
X23306D01*
Y50267D01*
Y49768D01*
X22573Y49467D02*
Y48968D01*
Y49217D01*
X22906D01*
Y49467D01*
Y48968D01*
X22973Y45467D02*
Y44968D01*
Y45217D01*
X23306D01*
Y45467D01*
Y44968D01*
X22573Y44667D02*
Y44168D01*
Y44417D01*
X22906D01*
Y44667D01*
Y44168D01*
X22973Y43867D02*
Y43368D01*
Y43617D01*
X23306D01*
Y43867D01*
Y43368D01*
X22573Y43067D02*
Y42568D01*
Y42817D01*
X22906D01*
Y43067D01*
Y42568D01*
X22973Y42267D02*
Y41768D01*
Y42017D01*
X23306D01*
Y42267D01*
Y41768D01*
X22573Y41467D02*
Y40968D01*
Y41217D01*
X22906D01*
Y41467D01*
Y40968D01*
X22973Y40667D02*
Y40168D01*
Y40417D01*
X23306D01*
Y40667D01*
Y40168D01*
X22573Y39867D02*
Y39368D01*
Y39617D01*
X22906D01*
Y39867D01*
Y39368D01*
X22973Y37467D02*
Y36968D01*
Y37217D01*
X23306D01*
Y37467D01*
Y36968D01*
X22573Y35067D02*
Y34568D01*
Y34817D01*
X22906D01*
Y35067D01*
Y34568D01*
X22573Y28667D02*
Y28168D01*
Y28417D01*
X22906D01*
Y28667D01*
Y28168D01*
X22973Y24667D02*
Y24168D01*
Y24417D01*
X23306D01*
Y24667D01*
Y24168D01*
X22573Y23867D02*
Y23368D01*
Y23617D01*
X22906D01*
Y23867D01*
Y23368D01*
X22973Y23067D02*
Y22568D01*
Y22817D01*
X23306D01*
Y23067D01*
Y22568D01*
X22573Y22267D02*
Y21768D01*
Y22017D01*
X22906D01*
Y22267D01*
Y21768D01*
X22573Y20667D02*
Y20168D01*
Y20417D01*
X22906D01*
Y20667D01*
Y20168D01*
X22973Y19867D02*
Y19368D01*
Y19617D01*
X23306D01*
Y19867D01*
Y19368D01*
X22573Y19067D02*
Y18568D01*
Y18817D01*
X22906D01*
Y19067D01*
Y18568D01*
X22973Y18267D02*
Y17768D01*
Y18017D01*
X23306D01*
Y18267D01*
Y17768D01*
X22573Y17467D02*
Y16968D01*
Y17217D01*
X22906D01*
Y17467D01*
Y16968D01*
X22973Y16667D02*
Y16168D01*
Y16417D01*
X23306D01*
Y16667D01*
Y16168D01*
X22573Y14267D02*
Y13768D01*
Y14017D01*
X22906D01*
Y14267D01*
Y13768D01*
X22573Y11067D02*
Y10568D01*
Y10817D01*
X22906D01*
Y11067D01*
Y10568D01*
X22573Y6267D02*
Y5768D01*
Y6018D01*
X22906D01*
Y6267D01*
Y5768D01*
X22973Y5467D02*
Y4968D01*
Y5217D01*
X23306D01*
Y5467D01*
Y4968D01*
X22573Y4667D02*
Y4168D01*
Y4417D01*
X22906D01*
Y4667D01*
Y4168D01*
X22973Y3867D02*
Y3368D01*
Y3618D01*
X23306D01*
Y3867D01*
Y3368D01*
X22573Y3067D02*
Y2568D01*
Y2817D01*
X22906D01*
Y3067D01*
Y2568D01*
X22973Y2267D02*
Y1768D01*
Y2017D01*
X23306D01*
Y2267D01*
Y1768D01*
X22573Y1467D02*
Y968D01*
Y1217D01*
X22906D01*
Y1467D01*
Y968D01*
X21773Y59067D02*
Y58568D01*
Y58817D01*
X22106D01*
Y59067D01*
Y58568D01*
X21773Y57467D02*
Y56968D01*
Y57217D01*
X22106D01*
Y57467D01*
Y56968D01*
X22173Y56667D02*
Y56168D01*
Y56417D01*
X22506D01*
Y56667D01*
Y56168D01*
X21773Y54267D02*
Y53768D01*
Y54017D01*
X22106D01*
Y54267D01*
Y53768D01*
X22173Y53467D02*
Y52968D01*
Y53217D01*
X22506D01*
Y53467D01*
Y52968D01*
X21773Y52667D02*
Y52168D01*
Y52417D01*
X22106D01*
Y52667D01*
Y52168D01*
X22173Y51867D02*
Y51368D01*
Y51617D01*
X22506D01*
Y51867D01*
Y51368D01*
X21773Y51067D02*
Y50568D01*
Y50817D01*
X22106D01*
Y51067D01*
Y50568D01*
X22173Y50267D02*
Y49768D01*
Y50017D01*
X22506D01*
Y50267D01*
Y49768D01*
X22173Y45467D02*
Y44968D01*
Y45217D01*
X22506D01*
Y45467D01*
Y44968D01*
X22173Y43867D02*
Y43368D01*
Y43617D01*
X22506D01*
Y43867D01*
Y43368D01*
X22173Y42267D02*
Y41768D01*
Y42017D01*
X22506D01*
Y42267D01*
Y41768D01*
X22173Y40667D02*
Y40168D01*
Y40417D01*
X22506D01*
Y40667D01*
Y40168D01*
X22173Y37467D02*
Y36968D01*
Y37217D01*
X22506D01*
Y37467D01*
Y36968D01*
X22173Y35867D02*
Y35368D01*
Y35617D01*
X22506D01*
Y35867D01*
Y35368D01*
X21773Y35067D02*
Y34568D01*
Y34817D01*
X22106D01*
Y35067D01*
Y34568D01*
X22173Y34267D02*
Y33768D01*
Y34017D01*
X22506D01*
Y34267D01*
Y33768D01*
X22173Y26267D02*
Y25768D01*
Y26017D01*
X22506D01*
Y26267D01*
Y25768D01*
X22173Y24667D02*
Y24168D01*
Y24417D01*
X22506D01*
Y24667D01*
Y24168D01*
X22173Y23067D02*
Y22568D01*
Y22817D01*
X22506D01*
Y23067D01*
Y22568D01*
X22173Y21467D02*
Y20968D01*
Y21217D01*
X22506D01*
Y21467D01*
Y20968D01*
X22173Y19867D02*
Y19368D01*
Y19617D01*
X22506D01*
Y19867D01*
Y19368D01*
X22173Y18267D02*
Y17768D01*
Y18017D01*
X22506D01*
Y18267D01*
Y17768D01*
X22173Y16667D02*
Y16168D01*
Y16417D01*
X22506D01*
Y16667D01*
Y16168D01*
X22173Y13467D02*
Y12968D01*
Y13217D01*
X22506D01*
Y13467D01*
Y12968D01*
X22173Y5467D02*
Y4968D01*
Y5217D01*
X22506D01*
Y5467D01*
Y4968D01*
X22173Y3867D02*
Y3368D01*
Y3618D01*
X22506D01*
Y3867D01*
Y3368D01*
X21773Y3067D02*
Y2568D01*
Y2817D01*
X22106D01*
Y3067D01*
Y2568D01*
X22173Y2267D02*
Y1768D01*
Y2017D01*
X22506D01*
Y2267D01*
Y1768D01*
X21773Y1467D02*
Y968D01*
Y1217D01*
X22106D01*
Y1467D01*
Y968D01*
X20973Y59067D02*
Y58568D01*
Y58817D01*
X21306D01*
Y59067D01*
Y58568D01*
X21373Y56667D02*
Y56168D01*
Y56417D01*
X21706D01*
Y56667D01*
Y56168D01*
X20973Y54267D02*
Y53768D01*
Y54017D01*
X21306D01*
Y54267D01*
Y53768D01*
X21373Y53467D02*
Y52968D01*
Y53217D01*
X21706D01*
Y53467D01*
Y52968D01*
X20973Y52667D02*
Y52168D01*
Y52417D01*
X21306D01*
Y52667D01*
Y52168D01*
X21373Y51867D02*
Y51368D01*
Y51617D01*
X21706D01*
Y51867D01*
Y51368D01*
X20973Y51067D02*
Y50568D01*
Y50817D01*
X21306D01*
Y51067D01*
Y50568D01*
X21373Y50267D02*
Y49768D01*
Y50017D01*
X21706D01*
Y50267D01*
Y49768D01*
X20973Y49467D02*
Y48968D01*
Y49217D01*
X21306D01*
Y49467D01*
Y48968D01*
X21373Y45467D02*
Y44968D01*
Y45217D01*
X21706D01*
Y45467D01*
Y44968D01*
X21373Y37467D02*
Y36968D01*
Y37217D01*
X21706D01*
Y37467D01*
Y36968D01*
X21373Y35867D02*
Y35368D01*
Y35617D01*
X21706D01*
Y35867D01*
Y35368D01*
X21373Y34267D02*
Y33768D01*
Y34017D01*
X21706D01*
Y34267D01*
Y33768D01*
X21373Y3867D02*
Y3368D01*
Y3618D01*
X21706D01*
Y3867D01*
Y3368D01*
X21373Y2267D02*
Y1768D01*
Y2017D01*
X21706D01*
Y2267D01*
Y1768D01*
X20973Y1467D02*
Y968D01*
Y1217D01*
X21306D01*
Y1467D01*
Y968D01*
X20573Y56667D02*
Y56168D01*
Y56417D01*
X20906D01*
Y56667D01*
Y56168D01*
X20173Y54267D02*
Y53768D01*
Y54017D01*
X20506D01*
Y54267D01*
Y53768D01*
X20573Y53467D02*
Y52968D01*
Y53217D01*
X20906D01*
Y53467D01*
Y52968D01*
X20173Y52667D02*
Y52168D01*
Y52417D01*
X20506D01*
Y52667D01*
Y52168D01*
X20573Y50267D02*
Y49768D01*
Y50017D01*
X20906D01*
Y50267D01*
Y49768D01*
X20173Y49467D02*
Y48968D01*
Y49217D01*
X20506D01*
Y49467D01*
Y48968D01*
X20573Y42267D02*
Y41768D01*
Y42017D01*
X20906D01*
Y42267D01*
Y41768D01*
X20173Y41467D02*
Y40968D01*
Y41217D01*
X20506D01*
Y41467D01*
Y40968D01*
X20573Y35867D02*
Y35368D01*
Y35617D01*
X20906D01*
Y35867D01*
Y35368D01*
X20173Y22267D02*
Y21768D01*
Y22017D01*
X20506D01*
Y22267D01*
Y21768D01*
X20173Y17467D02*
Y16968D01*
Y17217D01*
X20506D01*
Y17467D01*
Y16968D01*
X20573Y11867D02*
Y11368D01*
Y11617D01*
X20906D01*
Y11867D01*
Y11368D01*
X20573Y7067D02*
Y6568D01*
Y6817D01*
X20906D01*
Y7067D01*
Y6568D01*
X20173Y1467D02*
Y968D01*
Y1217D01*
X20506D01*
Y1467D01*
Y968D01*
X19773Y50267D02*
Y49768D01*
Y50017D01*
X20106D01*
Y50267D01*
Y49768D01*
X19373Y47867D02*
Y47368D01*
Y47617D01*
X19706D01*
Y47867D01*
Y47368D01*
X19773Y47067D02*
Y46568D01*
Y46817D01*
X20106D01*
Y47067D01*
Y46568D01*
X19373Y46267D02*
Y45768D01*
Y46017D01*
X19706D01*
Y46267D01*
Y45768D01*
X19773Y42267D02*
Y41768D01*
Y42017D01*
X20106D01*
Y42267D01*
Y41768D01*
X19373Y41467D02*
Y40968D01*
Y41217D01*
X19706D01*
Y41467D01*
Y40968D01*
X19773Y35867D02*
Y35368D01*
Y35617D01*
X20106D01*
Y35867D01*
Y35368D01*
X19373Y35067D02*
Y34568D01*
Y34817D01*
X19706D01*
Y35067D01*
Y34568D01*
X19773Y34267D02*
Y33768D01*
Y34017D01*
X20106D01*
Y34267D01*
Y33768D01*
X19773Y23067D02*
Y22568D01*
Y22817D01*
X20106D01*
Y23067D01*
Y22568D01*
X19373Y22267D02*
Y21768D01*
Y22017D01*
X19706D01*
Y22267D01*
Y21768D01*
X19373Y17467D02*
Y16968D01*
Y17217D01*
X19706D01*
Y17467D01*
Y16968D01*
X19773Y16667D02*
Y16168D01*
Y16417D01*
X20106D01*
Y16667D01*
Y16168D01*
X19373Y12667D02*
Y12168D01*
Y12417D01*
X19706D01*
Y12667D01*
Y12168D01*
X19773Y11867D02*
Y11368D01*
Y11617D01*
X20106D01*
Y11867D01*
Y11368D01*
X19773Y7067D02*
Y6568D01*
Y6817D01*
X20106D01*
Y7067D01*
Y6568D01*
X19373Y6267D02*
Y5768D01*
Y6018D01*
X19706D01*
Y6267D01*
Y5768D01*
X19773Y2267D02*
Y1768D01*
Y2017D01*
X20106D01*
Y2267D01*
Y1768D01*
X19373Y1467D02*
Y968D01*
Y1217D01*
X19706D01*
Y1467D01*
Y968D01*
X18573Y52667D02*
Y52168D01*
Y52417D01*
X18906D01*
Y52667D01*
Y52168D01*
X18573Y51067D02*
Y50568D01*
Y50817D01*
X18906D01*
Y51067D01*
Y50568D01*
X18573Y47867D02*
Y47368D01*
Y47617D01*
X18906D01*
Y47867D01*
Y47368D01*
X18973Y47067D02*
Y46568D01*
Y46817D01*
X19306D01*
Y47067D01*
Y46568D01*
X18573Y46267D02*
Y45768D01*
Y46017D01*
X18906D01*
Y46267D01*
Y45768D01*
X18973Y42267D02*
Y41768D01*
Y42017D01*
X19306D01*
Y42267D01*
Y41768D01*
X18573Y41467D02*
Y40968D01*
Y41217D01*
X18906D01*
Y41467D01*
Y40968D01*
X18973Y35867D02*
Y35368D01*
Y35617D01*
X19306D01*
Y35867D01*
Y35368D01*
X18973Y34267D02*
Y33768D01*
Y34017D01*
X19306D01*
Y34267D01*
Y33768D01*
X18973Y23067D02*
Y22568D01*
Y22817D01*
X19306D01*
Y23067D01*
Y22568D01*
X18573Y22267D02*
Y21768D01*
Y22017D01*
X18906D01*
Y22267D01*
Y21768D01*
X18573Y17467D02*
Y16968D01*
Y17217D01*
X18906D01*
Y17467D01*
Y16968D01*
X18973Y16667D02*
Y16168D01*
Y16417D01*
X19306D01*
Y16667D01*
Y16168D01*
X18573Y12667D02*
Y12168D01*
Y12417D01*
X18906D01*
Y12667D01*
Y12168D01*
X18973Y11867D02*
Y11368D01*
Y11617D01*
X19306D01*
Y11867D01*
Y11368D01*
X18973Y7067D02*
Y6568D01*
Y6817D01*
X19306D01*
Y7067D01*
Y6568D01*
X18573Y6267D02*
Y5768D01*
Y6018D01*
X18906D01*
Y6267D01*
Y5768D01*
X18973Y2267D02*
Y1768D01*
Y2017D01*
X19306D01*
Y2267D01*
Y1768D01*
X18573Y1467D02*
Y968D01*
Y1217D01*
X18906D01*
Y1467D01*
Y968D01*
X17773Y54267D02*
Y53768D01*
Y54017D01*
X18106D01*
Y54267D01*
Y53768D01*
X18173Y53467D02*
Y52968D01*
Y53217D01*
X18506D01*
Y53467D01*
Y52968D01*
X17773Y52667D02*
Y52168D01*
Y52417D01*
X18106D01*
Y52667D01*
Y52168D01*
X18173Y51867D02*
Y51368D01*
Y51617D01*
X18506D01*
Y51867D01*
Y51368D01*
X17773Y51067D02*
Y50568D01*
Y50817D01*
X18106D01*
Y51067D01*
Y50568D01*
X18173Y50267D02*
Y49768D01*
Y50017D01*
X18506D01*
Y50267D01*
Y49768D01*
X17773Y49467D02*
Y48968D01*
Y49217D01*
X18106D01*
Y49467D01*
Y48968D01*
X18173Y48667D02*
Y48168D01*
Y48417D01*
X18506D01*
Y48667D01*
Y48168D01*
X18173Y42267D02*
Y41768D01*
Y42017D01*
X18506D01*
Y42267D01*
Y41768D01*
X17773Y41467D02*
Y40968D01*
Y41217D01*
X18106D01*
Y41467D01*
Y40968D01*
X18173Y35867D02*
Y35368D01*
Y35617D01*
X18506D01*
Y35867D01*
Y35368D01*
X17773Y22267D02*
Y21768D01*
Y22017D01*
X18106D01*
Y22267D01*
Y21768D01*
X17773Y17467D02*
Y16968D01*
Y17217D01*
X18106D01*
Y17467D01*
Y16968D01*
X18173Y16667D02*
Y16168D01*
Y16417D01*
X18506D01*
Y16667D01*
Y16168D01*
X18173Y11867D02*
Y11368D01*
Y11617D01*
X18506D01*
Y11867D01*
Y11368D01*
X18173Y7067D02*
Y6568D01*
Y6817D01*
X18506D01*
Y7067D01*
Y6568D01*
X18173Y2267D02*
Y1768D01*
Y2017D01*
X18506D01*
Y2267D01*
Y1768D01*
X17773Y1467D02*
Y968D01*
Y1217D01*
X18106D01*
Y1467D01*
Y968D01*
X16973Y52667D02*
Y52168D01*
Y52417D01*
X17306D01*
Y52667D01*
Y52168D01*
X17373Y51867D02*
Y51368D01*
Y51617D01*
X17706D01*
Y51867D01*
Y51368D01*
X17373Y50267D02*
Y49768D01*
Y50017D01*
X17706D01*
Y50267D01*
Y49768D01*
X17373Y42267D02*
Y41768D01*
Y42017D01*
X17706D01*
Y42267D01*
Y41768D01*
X16973Y39867D02*
Y39368D01*
Y39617D01*
X17306D01*
Y39867D01*
Y39368D01*
X16973Y38267D02*
Y37768D01*
Y38017D01*
X17306D01*
Y38267D01*
Y37768D01*
X17373Y35867D02*
Y35368D01*
Y35617D01*
X17706D01*
Y35867D01*
Y35368D01*
X16973Y35067D02*
Y34568D01*
Y34817D01*
X17306D01*
Y35067D01*
Y34568D01*
X17373Y34267D02*
Y33768D01*
Y34017D01*
X17706D01*
Y34267D01*
Y33768D01*
X16973Y25467D02*
Y24968D01*
Y25217D01*
X17306D01*
Y25467D01*
Y24968D01*
X16973Y23867D02*
Y23368D01*
Y23617D01*
X17306D01*
Y23867D01*
Y23368D01*
X16973Y22267D02*
Y21768D01*
Y22017D01*
X17306D01*
Y22267D01*
Y21768D01*
X16973Y20667D02*
Y20168D01*
Y20417D01*
X17306D01*
Y20667D01*
Y20168D01*
X16973Y19067D02*
Y18568D01*
Y18817D01*
X17306D01*
Y19067D01*
Y18568D01*
X16973Y17467D02*
Y16968D01*
Y17217D01*
X17306D01*
Y17467D01*
Y16968D01*
X17373Y16667D02*
Y16168D01*
Y16417D01*
X17706D01*
Y16667D01*
Y16168D01*
X17373Y11867D02*
Y11368D01*
Y11617D01*
X17706D01*
Y11867D01*
Y11368D01*
X17373Y7067D02*
Y6568D01*
Y6817D01*
X17706D01*
Y7067D01*
Y6568D01*
X16973Y3067D02*
Y2568D01*
Y2817D01*
X17306D01*
Y3067D01*
Y2568D01*
X17373Y2267D02*
Y1768D01*
Y2017D01*
X17706D01*
Y2267D01*
Y1768D01*
X16973Y1467D02*
Y968D01*
Y1217D01*
X17306D01*
Y1467D01*
Y968D01*
X16173Y59067D02*
Y58568D01*
Y58817D01*
X16506D01*
Y59067D01*
Y58568D01*
X16173Y57467D02*
Y56968D01*
Y57217D01*
X16506D01*
Y57467D01*
Y56968D01*
X16173Y54267D02*
Y53768D01*
Y54017D01*
X16506D01*
Y54267D01*
Y53768D01*
X16573Y53467D02*
Y52968D01*
Y53217D01*
X16906D01*
Y53467D01*
Y52968D01*
X16173Y52667D02*
Y52168D01*
Y52417D01*
X16506D01*
Y52667D01*
Y52168D01*
X16573Y50267D02*
Y49768D01*
Y50017D01*
X16906D01*
Y50267D01*
Y49768D01*
X16173Y49467D02*
Y48968D01*
Y49217D01*
X16506D01*
Y49467D01*
Y48968D01*
X16173Y36667D02*
Y36168D01*
Y36417D01*
X16506D01*
Y36667D01*
Y36168D01*
X16573Y35867D02*
Y35368D01*
Y35617D01*
X16906D01*
Y35867D01*
Y35368D01*
X16573Y24667D02*
Y24168D01*
Y24417D01*
X16906D01*
Y24667D01*
Y24168D01*
X16573Y23067D02*
Y22568D01*
Y22817D01*
X16906D01*
Y23067D01*
Y22568D01*
X16173Y3067D02*
Y2568D01*
Y2817D01*
X16506D01*
Y3067D01*
Y2568D01*
X16573Y2267D02*
Y1768D01*
Y2017D01*
X16906D01*
Y2267D01*
Y1768D01*
X16173Y1467D02*
Y968D01*
Y1217D01*
X16506D01*
Y1467D01*
Y968D01*
X15373Y59067D02*
Y58568D01*
Y58817D01*
X15706D01*
Y59067D01*
Y58568D01*
X15373Y57467D02*
Y56968D01*
Y57217D01*
X15706D01*
Y57467D01*
Y56968D01*
X15773Y56667D02*
Y56168D01*
Y56417D01*
X16106D01*
Y56667D01*
Y56168D01*
X15373Y54267D02*
Y53768D01*
Y54017D01*
X15706D01*
Y54267D01*
Y53768D01*
X15773Y53467D02*
Y52968D01*
Y53217D01*
X16106D01*
Y53467D01*
Y52968D01*
X15373Y52667D02*
Y52168D01*
Y52417D01*
X15706D01*
Y52667D01*
Y52168D01*
X15773Y51867D02*
Y51368D01*
Y51617D01*
X16106D01*
Y51867D01*
Y51368D01*
X15373Y51067D02*
Y50568D01*
Y50817D01*
X15706D01*
Y51067D01*
Y50568D01*
X15773Y50267D02*
Y49768D01*
Y50017D01*
X16106D01*
Y50267D01*
Y49768D01*
X15373Y49467D02*
Y48968D01*
Y49217D01*
X15706D01*
Y49467D01*
Y48968D01*
X15373Y46267D02*
Y45768D01*
Y46017D01*
X15706D01*
Y46267D01*
Y45768D01*
X15773Y45467D02*
Y44968D01*
Y45217D01*
X16106D01*
Y45467D01*
Y44968D01*
X15373Y44667D02*
Y44168D01*
Y44417D01*
X15706D01*
Y44667D01*
Y44168D01*
X15773Y43867D02*
Y43368D01*
Y43617D01*
X16106D01*
Y43867D01*
Y43368D01*
X15373Y43067D02*
Y42568D01*
Y42817D01*
X15706D01*
Y43067D01*
Y42568D01*
X15773Y42267D02*
Y41768D01*
Y42017D01*
X16106D01*
Y42267D01*
Y41768D01*
X15373Y41467D02*
Y40968D01*
Y41217D01*
X15706D01*
Y41467D01*
Y40968D01*
X15773Y40667D02*
Y40168D01*
Y40417D01*
X16106D01*
Y40667D01*
Y40168D01*
X15373Y39867D02*
Y39368D01*
Y39617D01*
X15706D01*
Y39867D01*
Y39368D01*
X15773Y39067D02*
Y38568D01*
Y38817D01*
X16106D01*
Y39067D01*
Y38568D01*
X15373Y38267D02*
Y37768D01*
Y38017D01*
X15706D01*
Y38267D01*
Y37768D01*
X15773Y37467D02*
Y36968D01*
Y37217D01*
X16106D01*
Y37467D01*
Y36968D01*
X15373Y36667D02*
Y36168D01*
Y36417D01*
X15706D01*
Y36667D01*
Y36168D01*
X15773Y35867D02*
Y35368D01*
Y35617D01*
X16106D01*
Y35867D01*
Y35368D01*
X15373Y35067D02*
Y34568D01*
Y34817D01*
X15706D01*
Y35067D01*
Y34568D01*
X15373Y3067D02*
Y2568D01*
Y2817D01*
X15706D01*
Y3067D01*
Y2568D01*
X15773Y2267D02*
Y1768D01*
Y2017D01*
X16106D01*
Y2267D01*
Y1768D01*
X15373Y1467D02*
Y968D01*
Y1217D01*
X15706D01*
Y1467D01*
Y968D01*
X14573Y59067D02*
Y58568D01*
Y58817D01*
X14906D01*
Y59067D01*
Y58568D01*
X14573Y57467D02*
Y56968D01*
Y57217D01*
X14906D01*
Y57467D01*
Y56968D01*
X14973Y56667D02*
Y56168D01*
Y56417D01*
X15306D01*
Y56667D01*
Y56168D01*
X14573Y54267D02*
Y53768D01*
Y54017D01*
X14906D01*
Y54267D01*
Y53768D01*
X14973Y53467D02*
Y52968D01*
Y53217D01*
X15306D01*
Y53467D01*
Y52968D01*
X14573Y52667D02*
Y52168D01*
Y52417D01*
X14906D01*
Y52667D01*
Y52168D01*
X14973Y51867D02*
Y51368D01*
Y51617D01*
X15306D01*
Y51867D01*
Y51368D01*
X14573Y51067D02*
Y50568D01*
Y50817D01*
X14906D01*
Y51067D01*
Y50568D01*
X14973Y50267D02*
Y49768D01*
Y50017D01*
X15306D01*
Y50267D01*
Y49768D01*
X14573Y49467D02*
Y48968D01*
Y49217D01*
X14906D01*
Y49467D01*
Y48968D01*
X14573Y46267D02*
Y45768D01*
Y46017D01*
X14906D01*
Y46267D01*
Y45768D01*
X14973Y45467D02*
Y44968D01*
Y45217D01*
X15306D01*
Y45467D01*
Y44968D01*
X14573Y44667D02*
Y44168D01*
Y44417D01*
X14906D01*
Y44667D01*
Y44168D01*
X14973Y43867D02*
Y43368D01*
Y43617D01*
X15306D01*
Y43867D01*
Y43368D01*
X14573Y43067D02*
Y42568D01*
Y42817D01*
X14906D01*
Y43067D01*
Y42568D01*
X14973Y42267D02*
Y41768D01*
Y42017D01*
X15306D01*
Y42267D01*
Y41768D01*
X14573Y41467D02*
Y40968D01*
Y41217D01*
X14906D01*
Y41467D01*
Y40968D01*
X14973Y40667D02*
Y40168D01*
Y40417D01*
X15306D01*
Y40667D01*
Y40168D01*
X14573Y39867D02*
Y39368D01*
Y39617D01*
X14906D01*
Y39867D01*
Y39368D01*
X14973Y39067D02*
Y38568D01*
Y38817D01*
X15306D01*
Y39067D01*
Y38568D01*
X14573Y38267D02*
Y37768D01*
Y38017D01*
X14906D01*
Y38267D01*
Y37768D01*
X14973Y37467D02*
Y36968D01*
Y37217D01*
X15306D01*
Y37467D01*
Y36968D01*
X14573Y36667D02*
Y36168D01*
Y36417D01*
X14906D01*
Y36667D01*
Y36168D01*
X14973Y35867D02*
Y35368D01*
Y35617D01*
X15306D01*
Y35867D01*
Y35368D01*
X14573Y3067D02*
Y2568D01*
Y2817D01*
X14906D01*
Y3067D01*
Y2568D01*
X14973Y2267D02*
Y1768D01*
Y2017D01*
X15306D01*
Y2267D01*
Y1768D01*
X14573Y1467D02*
Y968D01*
Y1217D01*
X14906D01*
Y1467D01*
Y968D01*
X13773Y59067D02*
Y58568D01*
Y58817D01*
X14106D01*
Y59067D01*
Y58568D01*
X13773Y57467D02*
Y56968D01*
Y57217D01*
X14106D01*
Y57467D01*
Y56968D01*
X14173Y56667D02*
Y56168D01*
Y56417D01*
X14506D01*
Y56667D01*
Y56168D01*
X13773Y33467D02*
Y32968D01*
Y33217D01*
X14106D01*
Y33467D01*
Y32968D01*
X14173Y32667D02*
Y32168D01*
Y32417D01*
X14506D01*
Y32667D01*
Y32168D01*
X13773Y31867D02*
Y31368D01*
Y31617D01*
X14106D01*
Y31867D01*
Y31368D01*
X13773Y12667D02*
Y12168D01*
Y12417D01*
X14106D01*
Y12667D01*
Y12168D01*
X13773Y11067D02*
Y10568D01*
Y10817D01*
X14106D01*
Y11067D01*
Y10568D01*
X13773Y3067D02*
Y2568D01*
Y2817D01*
X14106D01*
Y3067D01*
Y2568D01*
X14173Y2267D02*
Y1768D01*
Y2017D01*
X14506D01*
Y2267D01*
Y1768D01*
X13773Y1467D02*
Y968D01*
Y1217D01*
X14106D01*
Y1467D01*
Y968D01*
X12973Y59067D02*
Y58568D01*
Y58817D01*
X13306D01*
Y59067D01*
Y58568D01*
X13373Y56667D02*
Y56168D01*
Y56417D01*
X13706D01*
Y56667D01*
Y56168D01*
X12973Y33467D02*
Y32968D01*
Y33217D01*
X13306D01*
Y33467D01*
Y32968D01*
X13373Y32667D02*
Y32168D01*
Y32417D01*
X13706D01*
Y32667D01*
Y32168D01*
X12973Y31867D02*
Y31368D01*
Y31617D01*
X13306D01*
Y31867D01*
Y31368D01*
X12973Y17467D02*
Y16968D01*
Y17217D01*
X13306D01*
Y17467D01*
Y16968D01*
X12973Y15867D02*
Y15368D01*
Y15617D01*
X13306D01*
Y15867D01*
Y15368D01*
X12973Y12667D02*
Y12168D01*
Y12417D01*
X13306D01*
Y12667D01*
Y12168D01*
X13373Y11867D02*
Y11368D01*
Y11617D01*
X13706D01*
Y11867D01*
Y11368D01*
X12973Y11067D02*
Y10568D01*
Y10817D01*
X13306D01*
Y11067D01*
Y10568D01*
X13373Y10267D02*
Y9768D01*
Y10017D01*
X13706D01*
Y10267D01*
Y9768D01*
X12973Y3067D02*
Y2568D01*
Y2817D01*
X13306D01*
Y3067D01*
Y2568D01*
X13373Y2267D02*
Y1768D01*
Y2017D01*
X13706D01*
Y2267D01*
Y1768D01*
X12973Y1467D02*
Y968D01*
Y1217D01*
X13306D01*
Y1467D01*
Y968D01*
X12173Y59067D02*
Y58568D01*
Y58817D01*
X12506D01*
Y59067D01*
Y58568D01*
X12173Y57467D02*
Y56968D01*
Y57217D01*
X12506D01*
Y57467D01*
Y56968D01*
X12573Y56667D02*
Y56168D01*
Y56417D01*
X12906D01*
Y56667D01*
Y56168D01*
X12573Y42267D02*
Y41768D01*
Y42017D01*
X12906D01*
Y42267D01*
Y41768D01*
X12573Y40667D02*
Y40168D01*
Y40417D01*
X12906D01*
Y40667D01*
Y40168D01*
X12173Y39867D02*
Y39368D01*
Y39617D01*
X12506D01*
Y39867D01*
Y39368D01*
X12573Y39067D02*
Y38568D01*
Y38817D01*
X12906D01*
Y39067D01*
Y38568D01*
X12173Y38267D02*
Y37768D01*
Y38017D01*
X12506D01*
Y38267D01*
Y37768D01*
X12173Y36667D02*
Y36168D01*
Y36417D01*
X12506D01*
Y36667D01*
Y36168D01*
X12173Y33467D02*
Y32968D01*
Y33217D01*
X12506D01*
Y33467D01*
Y32968D01*
X12573Y32667D02*
Y32168D01*
Y32417D01*
X12906D01*
Y32667D01*
Y32168D01*
X12173Y31867D02*
Y31368D01*
Y31617D01*
X12506D01*
Y31867D01*
Y31368D01*
X12173Y22267D02*
Y21768D01*
Y22017D01*
X12506D01*
Y22267D01*
Y21768D01*
X12573Y16667D02*
Y16168D01*
Y16417D01*
X12906D01*
Y16667D01*
Y16168D01*
X12173Y15867D02*
Y15368D01*
Y15617D01*
X12506D01*
Y15867D01*
Y15368D01*
X12573Y15067D02*
Y14568D01*
Y14817D01*
X12906D01*
Y15067D01*
Y14568D01*
X12173Y12667D02*
Y12168D01*
Y12417D01*
X12506D01*
Y12667D01*
Y12168D01*
X12573Y11867D02*
Y11368D01*
Y11617D01*
X12906D01*
Y11867D01*
Y11368D01*
X12173Y11067D02*
Y10568D01*
Y10817D01*
X12506D01*
Y11067D01*
Y10568D01*
X12573Y10267D02*
Y9768D01*
Y10017D01*
X12906D01*
Y10267D01*
Y9768D01*
X12173Y3067D02*
Y2568D01*
Y2817D01*
X12506D01*
Y3067D01*
Y2568D01*
X12573Y2267D02*
Y1768D01*
Y2017D01*
X12906D01*
Y2267D01*
Y1768D01*
X12173Y1467D02*
Y968D01*
Y1217D01*
X12506D01*
Y1467D01*
Y968D01*
X11773Y56667D02*
Y56168D01*
Y56417D01*
X12106D01*
Y56667D01*
Y56168D01*
X11373Y54267D02*
Y53768D01*
Y54017D01*
X11706D01*
Y54267D01*
Y53768D01*
X11373Y52667D02*
Y52168D01*
Y52417D01*
X11706D01*
Y52667D01*
Y52168D01*
X11373Y49467D02*
Y48968D01*
Y49217D01*
X11706D01*
Y49467D01*
Y48968D01*
X11773Y42267D02*
Y41768D01*
Y42017D01*
X12106D01*
Y42267D01*
Y41768D01*
X11373Y39867D02*
Y39368D01*
Y39617D01*
X11706D01*
Y39867D01*
Y39368D01*
X11773Y39067D02*
Y38568D01*
Y38817D01*
X12106D01*
Y39067D01*
Y38568D01*
X11373Y38267D02*
Y37768D01*
Y38017D01*
X11706D01*
Y38267D01*
Y37768D01*
X11373Y36667D02*
Y36168D01*
Y36417D01*
X11706D01*
Y36667D01*
Y36168D01*
X11773Y32667D02*
Y32168D01*
Y32417D01*
X12106D01*
Y32667D01*
Y32168D01*
X11773Y23067D02*
Y22568D01*
Y22817D01*
X12106D01*
Y23067D01*
Y22568D01*
X11373Y22267D02*
Y21768D01*
Y22017D01*
X11706D01*
Y22267D01*
Y21768D01*
X11773Y16667D02*
Y16168D01*
Y16417D01*
X12106D01*
Y16667D01*
Y16168D01*
X11373Y15867D02*
Y15368D01*
Y15617D01*
X11706D01*
Y15867D01*
Y15368D01*
X11373Y12667D02*
Y12168D01*
Y12417D01*
X11706D01*
Y12667D01*
Y12168D01*
X11773Y11867D02*
Y11368D01*
Y11617D01*
X12106D01*
Y11867D01*
Y11368D01*
X11373Y11067D02*
Y10568D01*
Y10817D01*
X11706D01*
Y11067D01*
Y10568D01*
X11773Y10267D02*
Y9768D01*
Y10017D01*
X12106D01*
Y10267D01*
Y9768D01*
X11373Y3067D02*
Y2568D01*
Y2817D01*
X11706D01*
Y3067D01*
Y2568D01*
X11773Y2267D02*
Y1768D01*
Y2017D01*
X12106D01*
Y2267D01*
Y1768D01*
X11373Y1467D02*
Y968D01*
Y1217D01*
X11706D01*
Y1467D01*
Y968D01*
X10573Y52667D02*
Y52168D01*
Y52417D01*
X10906D01*
Y52667D01*
Y52168D01*
X10573Y51067D02*
Y50568D01*
Y50817D01*
X10906D01*
Y51067D01*
Y50568D01*
X10973Y50267D02*
Y49768D01*
Y50017D01*
X11306D01*
Y50267D01*
Y49768D01*
X10973Y42267D02*
Y41768D01*
Y42017D01*
X11306D01*
Y42267D01*
Y41768D01*
X10973Y39067D02*
Y38568D01*
Y38817D01*
X11306D01*
Y39067D01*
Y38568D01*
X10573Y38267D02*
Y37768D01*
Y38017D01*
X10906D01*
Y38267D01*
Y37768D01*
X10973Y37467D02*
Y36968D01*
Y37217D01*
X11306D01*
Y37467D01*
Y36968D01*
X10573Y36667D02*
Y36168D01*
Y36417D01*
X10906D01*
Y36667D01*
Y36168D01*
X10973Y23067D02*
Y22568D01*
Y22817D01*
X11306D01*
Y23067D01*
Y22568D01*
X10573Y22267D02*
Y21768D01*
Y22017D01*
X10906D01*
Y22267D01*
Y21768D01*
X10973Y21467D02*
Y20968D01*
Y21217D01*
X11306D01*
Y21467D01*
Y20968D01*
X10973Y19867D02*
Y19368D01*
Y19617D01*
X11306D01*
Y19867D01*
Y19368D01*
X10973Y18267D02*
Y17768D01*
Y18017D01*
X11306D01*
Y18267D01*
Y17768D01*
X10973Y16667D02*
Y16168D01*
Y16417D01*
X11306D01*
Y16667D01*
Y16168D01*
X10573Y12667D02*
Y12168D01*
Y12417D01*
X10906D01*
Y12667D01*
Y12168D01*
X10973Y11867D02*
Y11368D01*
Y11617D01*
X11306D01*
Y11867D01*
Y11368D01*
X10573Y11067D02*
Y10568D01*
Y10817D01*
X10906D01*
Y11067D01*
Y10568D01*
X10973Y10267D02*
Y9768D01*
Y10017D01*
X11306D01*
Y10267D01*
Y9768D01*
X10573Y9467D02*
Y8968D01*
Y9218D01*
X10906D01*
Y9467D01*
Y8968D01*
X10973Y8667D02*
Y8168D01*
Y8418D01*
X11306D01*
Y8667D01*
Y8168D01*
X10573Y7867D02*
Y7368D01*
Y7617D01*
X10906D01*
Y7867D01*
Y7368D01*
X10973Y7067D02*
Y6568D01*
Y6817D01*
X11306D01*
Y7067D01*
Y6568D01*
X10573Y6267D02*
Y5768D01*
Y6018D01*
X10906D01*
Y6267D01*
Y5768D01*
X10573Y3067D02*
Y2568D01*
Y2817D01*
X10906D01*
Y3067D01*
Y2568D01*
X10973Y2267D02*
Y1768D01*
Y2017D01*
X11306D01*
Y2267D01*
Y1768D01*
X10573Y1467D02*
Y968D01*
Y1217D01*
X10906D01*
Y1467D01*
Y968D01*
X10173Y42267D02*
Y41768D01*
Y42017D01*
X10506D01*
Y42267D01*
Y41768D01*
X9773Y23867D02*
Y23368D01*
Y23617D01*
X10106D01*
Y23867D01*
Y23368D01*
X10173Y23067D02*
Y22568D01*
Y22817D01*
X10506D01*
Y23067D01*
Y22568D01*
X9773Y22267D02*
Y21768D01*
Y22017D01*
X10106D01*
Y22267D01*
Y21768D01*
X10173Y11867D02*
Y11368D01*
Y11617D01*
X10506D01*
Y11867D01*
Y11368D01*
X10173Y10267D02*
Y9768D01*
Y10017D01*
X10506D01*
Y10267D01*
Y9768D01*
X10173Y8667D02*
Y8168D01*
Y8418D01*
X10506D01*
Y8667D01*
Y8168D01*
X10173Y7067D02*
Y6568D01*
Y6817D01*
X10506D01*
Y7067D01*
Y6568D01*
X9773Y3067D02*
Y2568D01*
Y2817D01*
X10106D01*
Y3067D01*
Y2568D01*
X10173Y2267D02*
Y1768D01*
Y2017D01*
X10506D01*
Y2267D01*
Y1768D01*
X9773Y1467D02*
Y968D01*
Y1217D01*
X10106D01*
Y1467D01*
Y968D01*
X9373Y42267D02*
Y41768D01*
Y42017D01*
X9706D01*
Y42267D01*
Y41768D01*
X9373Y27867D02*
Y27368D01*
Y27617D01*
X9706D01*
Y27867D01*
Y27368D01*
X8973Y27067D02*
Y26568D01*
Y26817D01*
X9306D01*
Y27067D01*
Y26568D01*
X9373Y26267D02*
Y25768D01*
Y26017D01*
X9706D01*
Y26267D01*
Y25768D01*
X8973Y25467D02*
Y24968D01*
Y25217D01*
X9306D01*
Y25467D01*
Y24968D01*
X9373Y24667D02*
Y24168D01*
Y24417D01*
X9706D01*
Y24667D01*
Y24168D01*
X8973Y23867D02*
Y23368D01*
Y23617D01*
X9306D01*
Y23867D01*
Y23368D01*
X9373Y23067D02*
Y22568D01*
Y22817D01*
X9706D01*
Y23067D01*
Y22568D01*
X8973Y22267D02*
Y21768D01*
Y22017D01*
X9306D01*
Y22267D01*
Y21768D01*
X9373Y16667D02*
Y16168D01*
Y16417D01*
X9706D01*
Y16667D01*
Y16168D01*
X8973Y15867D02*
Y15368D01*
Y15617D01*
X9306D01*
Y15867D01*
Y15368D01*
X8973Y3067D02*
Y2568D01*
Y2817D01*
X9306D01*
Y3067D01*
Y2568D01*
X9373Y2267D02*
Y1768D01*
Y2017D01*
X9706D01*
Y2267D01*
Y1768D01*
X8973Y1467D02*
Y968D01*
Y1217D01*
X9306D01*
Y1467D01*
Y968D01*
X8173Y52667D02*
Y52168D01*
Y52417D01*
X8506D01*
Y52667D01*
Y52168D01*
X8173Y44667D02*
Y44168D01*
Y44417D01*
X8506D01*
Y44667D01*
Y44168D01*
X8573Y42267D02*
Y41768D01*
Y42017D01*
X8906D01*
Y42267D01*
Y41768D01*
X8173Y39867D02*
Y39368D01*
Y39617D01*
X8506D01*
Y39867D01*
Y39368D01*
X8173Y38267D02*
Y37768D01*
Y38017D01*
X8506D01*
Y38267D01*
Y37768D01*
X8173Y36667D02*
Y36168D01*
Y36417D01*
X8506D01*
Y36667D01*
Y36168D01*
X8173Y35067D02*
Y34568D01*
Y34817D01*
X8506D01*
Y35067D01*
Y34568D01*
X8173Y30267D02*
Y29768D01*
Y30017D01*
X8506D01*
Y30267D01*
Y29768D01*
X8173Y28667D02*
Y28168D01*
Y28417D01*
X8506D01*
Y28667D01*
Y28168D01*
X8573Y27867D02*
Y27368D01*
Y27617D01*
X8906D01*
Y27867D01*
Y27368D01*
X8173Y27067D02*
Y26568D01*
Y26817D01*
X8506D01*
Y27067D01*
Y26568D01*
X8573Y26267D02*
Y25768D01*
Y26017D01*
X8906D01*
Y26267D01*
Y25768D01*
X8173Y25467D02*
Y24968D01*
Y25217D01*
X8506D01*
Y25467D01*
Y24968D01*
X8573Y24667D02*
Y24168D01*
Y24417D01*
X8906D01*
Y24667D01*
Y24168D01*
X8173Y23867D02*
Y23368D01*
Y23617D01*
X8506D01*
Y23867D01*
Y23368D01*
X8573Y16667D02*
Y16168D01*
Y16417D01*
X8906D01*
Y16667D01*
Y16168D01*
X8173Y15867D02*
Y15368D01*
Y15617D01*
X8506D01*
Y15867D01*
Y15368D01*
X8573Y2267D02*
Y1768D01*
Y2017D01*
X8906D01*
Y2267D01*
Y1768D01*
X7773Y55067D02*
Y54568D01*
Y54817D01*
X8106D01*
Y55067D01*
Y54568D01*
X7373Y54267D02*
Y53768D01*
Y54017D01*
X7706D01*
Y54267D01*
Y53768D01*
X7773Y53467D02*
Y52968D01*
Y53217D01*
X8106D01*
Y53467D01*
Y52968D01*
X7373Y52667D02*
Y52168D01*
Y52417D01*
X7706D01*
Y52667D01*
Y52168D01*
X7773Y50267D02*
Y49768D01*
Y50017D01*
X8106D01*
Y50267D01*
Y49768D01*
X7773Y47067D02*
Y46568D01*
Y46817D01*
X8106D01*
Y47067D01*
Y46568D01*
X7373Y46267D02*
Y45768D01*
Y46017D01*
X7706D01*
Y46267D01*
Y45768D01*
X7773Y45467D02*
Y44968D01*
Y45217D01*
X8106D01*
Y45467D01*
Y44968D01*
X7373Y44667D02*
Y44168D01*
Y44417D01*
X7706D01*
Y44667D01*
Y44168D01*
X7773Y43867D02*
Y43368D01*
Y43617D01*
X8106D01*
Y43867D01*
Y43368D01*
X7773Y42267D02*
Y41768D01*
Y42017D01*
X8106D01*
Y42267D01*
Y41768D01*
X7373Y41467D02*
Y40968D01*
Y41217D01*
X7706D01*
Y41467D01*
Y40968D01*
X7773Y40667D02*
Y40168D01*
Y40417D01*
X8106D01*
Y40667D01*
Y40168D01*
X7373Y39867D02*
Y39368D01*
Y39617D01*
X7706D01*
Y39867D01*
Y39368D01*
X7773Y39067D02*
Y38568D01*
Y38817D01*
X8106D01*
Y39067D01*
Y38568D01*
X7373Y38267D02*
Y37768D01*
Y38017D01*
X7706D01*
Y38267D01*
Y37768D01*
X7773Y37467D02*
Y36968D01*
Y37217D01*
X8106D01*
Y37467D01*
Y36968D01*
X7373Y36667D02*
Y36168D01*
Y36417D01*
X7706D01*
Y36667D01*
Y36168D01*
X7773Y35867D02*
Y35368D01*
Y35617D01*
X8106D01*
Y35867D01*
Y35368D01*
X7373Y35067D02*
Y34568D01*
Y34817D01*
X7706D01*
Y35067D01*
Y34568D01*
X7773Y34267D02*
Y33768D01*
Y34017D01*
X8106D01*
Y34267D01*
Y33768D01*
X7773Y29467D02*
Y28968D01*
Y29217D01*
X8106D01*
Y29467D01*
Y28968D01*
X7373Y28667D02*
Y28168D01*
Y28417D01*
X7706D01*
Y28667D01*
Y28168D01*
X7773Y27867D02*
Y27368D01*
Y27617D01*
X8106D01*
Y27867D01*
Y27368D01*
X7373Y27067D02*
Y26568D01*
Y26817D01*
X7706D01*
Y27067D01*
Y26568D01*
X7773Y26267D02*
Y25768D01*
Y26017D01*
X8106D01*
Y26267D01*
Y25768D01*
X7373Y25467D02*
Y24968D01*
Y25217D01*
X7706D01*
Y25467D01*
Y24968D01*
X7773Y24667D02*
Y24168D01*
Y24417D01*
X8106D01*
Y24667D01*
Y24168D01*
X7373Y23867D02*
Y23368D01*
Y23617D01*
X7706D01*
Y23867D01*
Y23368D01*
X7773Y16667D02*
Y16168D01*
Y16417D01*
X8106D01*
Y16667D01*
Y16168D01*
X7373Y15867D02*
Y15368D01*
Y15617D01*
X7706D01*
Y15867D01*
Y15368D01*
X6973Y55067D02*
Y54568D01*
Y54817D01*
X7306D01*
Y55067D01*
Y54568D01*
X6573Y54267D02*
Y53768D01*
Y54017D01*
X6906D01*
Y54267D01*
Y53768D01*
X6973Y53467D02*
Y52968D01*
Y53217D01*
X7306D01*
Y53467D01*
Y52968D01*
X6573Y52667D02*
Y52168D01*
Y52417D01*
X6906D01*
Y52667D01*
Y52168D01*
X6973Y51867D02*
Y51368D01*
Y51617D01*
X7306D01*
Y51867D01*
Y51368D01*
X6573Y51067D02*
Y50568D01*
Y50817D01*
X6906D01*
Y51067D01*
Y50568D01*
X6973Y50267D02*
Y49768D01*
Y50017D01*
X7306D01*
Y50267D01*
Y49768D01*
X6973Y45467D02*
Y44968D01*
Y45217D01*
X7306D01*
Y45467D01*
Y44968D01*
X6573Y44667D02*
Y44168D01*
Y44417D01*
X6906D01*
Y44667D01*
Y44168D01*
X6573Y43067D02*
Y42568D01*
Y42817D01*
X6906D01*
Y43067D01*
Y42568D01*
X6973Y42267D02*
Y41768D01*
Y42017D01*
X7306D01*
Y42267D01*
Y41768D01*
X6573Y41467D02*
Y40968D01*
Y41217D01*
X6906D01*
Y41467D01*
Y40968D01*
X6973Y40667D02*
Y40168D01*
Y40417D01*
X7306D01*
Y40667D01*
Y40168D01*
X6573Y39867D02*
Y39368D01*
Y39617D01*
X6906D01*
Y39867D01*
Y39368D01*
X6973Y39067D02*
Y38568D01*
Y38817D01*
X7306D01*
Y39067D01*
Y38568D01*
X6573Y38267D02*
Y37768D01*
Y38017D01*
X6906D01*
Y38267D01*
Y37768D01*
X6973Y37467D02*
Y36968D01*
Y37217D01*
X7306D01*
Y37467D01*
Y36968D01*
X6573Y36667D02*
Y36168D01*
Y36417D01*
X6906D01*
Y36667D01*
Y36168D01*
X6973Y35867D02*
Y35368D01*
Y35617D01*
X7306D01*
Y35867D01*
Y35368D01*
X6573Y35067D02*
Y34568D01*
Y34817D01*
X6906D01*
Y35067D01*
Y34568D01*
X6973Y34267D02*
Y33768D01*
Y34017D01*
X7306D01*
Y34267D01*
Y33768D01*
X6573Y33467D02*
Y32968D01*
Y33217D01*
X6906D01*
Y33467D01*
Y32968D01*
X6973Y32667D02*
Y32168D01*
Y32417D01*
X7306D01*
Y32667D01*
Y32168D01*
X6573Y28667D02*
Y28168D01*
Y28417D01*
X6906D01*
Y28667D01*
Y28168D01*
X6973Y27867D02*
Y27368D01*
Y27617D01*
X7306D01*
Y27867D01*
Y27368D01*
X6573Y27067D02*
Y26568D01*
Y26817D01*
X6906D01*
Y27067D01*
Y26568D01*
X6973Y26267D02*
Y25768D01*
Y26017D01*
X7306D01*
Y26267D01*
Y25768D01*
X6573Y25467D02*
Y24968D01*
Y25217D01*
X6906D01*
Y25467D01*
Y24968D01*
X6973Y24667D02*
Y24168D01*
Y24417D01*
X7306D01*
Y24667D01*
Y24168D01*
X6573Y23867D02*
Y23368D01*
Y23617D01*
X6906D01*
Y23867D01*
Y23368D01*
X6973Y16667D02*
Y16168D01*
Y16417D01*
X7306D01*
Y16667D01*
Y16168D01*
X6573Y15867D02*
Y15368D01*
Y15617D01*
X6906D01*
Y15867D01*
Y15368D01*
X6173Y55067D02*
Y54568D01*
Y54817D01*
X6506D01*
Y55067D01*
Y54568D01*
X6173Y53467D02*
Y52968D01*
Y53217D01*
X6506D01*
Y53467D01*
Y52968D01*
X6173Y51867D02*
Y51368D01*
Y51617D01*
X6506D01*
Y51867D01*
Y51368D01*
X6173Y45467D02*
Y44968D01*
Y45217D01*
X6506D01*
Y45467D01*
Y44968D01*
X5773Y44667D02*
Y44168D01*
Y44417D01*
X6106D01*
Y44667D01*
Y44168D01*
X5773Y43067D02*
Y42568D01*
Y42817D01*
X6106D01*
Y43067D01*
Y42568D01*
X6173Y42267D02*
Y41768D01*
Y42017D01*
X6506D01*
Y42267D01*
Y41768D01*
X5773Y41467D02*
Y40968D01*
Y41217D01*
X6106D01*
Y41467D01*
Y40968D01*
X6173Y40667D02*
Y40168D01*
Y40417D01*
X6506D01*
Y40667D01*
Y40168D01*
X5773Y39867D02*
Y39368D01*
Y39617D01*
X6106D01*
Y39867D01*
Y39368D01*
X6173Y39067D02*
Y38568D01*
Y38817D01*
X6506D01*
Y39067D01*
Y38568D01*
X5773Y38267D02*
Y37768D01*
Y38017D01*
X6106D01*
Y38267D01*
Y37768D01*
X6173Y37467D02*
Y36968D01*
Y37217D01*
X6506D01*
Y37467D01*
Y36968D01*
X5773Y36667D02*
Y36168D01*
Y36417D01*
X6106D01*
Y36667D01*
Y36168D01*
X6173Y35867D02*
Y35368D01*
Y35617D01*
X6506D01*
Y35867D01*
Y35368D01*
X5773Y35067D02*
Y34568D01*
Y34817D01*
X6106D01*
Y35067D01*
Y34568D01*
X6173Y34267D02*
Y33768D01*
Y34017D01*
X6506D01*
Y34267D01*
Y33768D01*
X5773Y33467D02*
Y32968D01*
Y33217D01*
X6106D01*
Y33467D01*
Y32968D01*
X6173Y32667D02*
Y32168D01*
Y32417D01*
X6506D01*
Y32667D01*
Y32168D01*
X4973Y54267D02*
Y53768D01*
Y54017D01*
X5306D01*
Y54267D01*
Y53768D01*
X4973Y52667D02*
Y52168D01*
Y52417D01*
X5306D01*
Y52667D01*
Y52168D01*
X4973Y51067D02*
Y50568D01*
Y50817D01*
X5306D01*
Y51067D01*
Y50568D01*
X5373Y50267D02*
Y49768D01*
Y50017D01*
X5706D01*
Y50267D01*
Y49768D01*
X4973Y49467D02*
Y48968D01*
Y49217D01*
X5306D01*
Y49467D01*
Y48968D01*
X5373Y45467D02*
Y44968D01*
Y45217D01*
X5706D01*
Y45467D01*
Y44968D01*
X5373Y42267D02*
Y41768D01*
Y42017D01*
X5706D01*
Y42267D01*
Y41768D01*
X4973Y41467D02*
Y40968D01*
Y41217D01*
X5306D01*
Y41467D01*
Y40968D01*
X5373Y40667D02*
Y40168D01*
Y40417D01*
X5706D01*
Y40667D01*
Y40168D01*
X4973Y39867D02*
Y39368D01*
Y39617D01*
X5306D01*
Y39867D01*
Y39368D01*
X5373Y39067D02*
Y38568D01*
Y38817D01*
X5706D01*
Y39067D01*
Y38568D01*
X4973Y38267D02*
Y37768D01*
Y38017D01*
X5306D01*
Y38267D01*
Y37768D01*
X5373Y37467D02*
Y36968D01*
Y37217D01*
X5706D01*
Y37467D01*
Y36968D01*
X4973Y36667D02*
Y36168D01*
Y36417D01*
X5306D01*
Y36667D01*
Y36168D01*
X5373Y35867D02*
Y35368D01*
Y35617D01*
X5706D01*
Y35867D01*
Y35368D01*
X4973Y35067D02*
Y34568D01*
Y34817D01*
X5306D01*
Y35067D01*
Y34568D01*
X5373Y34267D02*
Y33768D01*
Y34017D01*
X5706D01*
Y34267D01*
Y33768D01*
X4973Y33467D02*
Y32968D01*
Y33217D01*
X5306D01*
Y33467D01*
Y32968D01*
X5373Y32667D02*
Y32168D01*
Y32417D01*
X5706D01*
Y32667D01*
Y32168D01*
X4973Y19067D02*
Y18568D01*
Y18817D01*
X5306D01*
Y19067D01*
Y18568D01*
X4973Y14267D02*
Y13768D01*
Y14017D01*
X5306D01*
Y14267D01*
Y13768D01*
X4973Y12667D02*
Y12168D01*
Y12417D01*
X5306D01*
Y12667D01*
Y12168D01*
X4573Y53467D02*
Y52968D01*
Y53217D01*
X4906D01*
Y53467D01*
Y52968D01*
X4173Y52667D02*
Y52168D01*
Y52417D01*
X4506D01*
Y52667D01*
Y52168D01*
X4573Y50267D02*
Y49768D01*
Y50017D01*
X4906D01*
Y50267D01*
Y49768D01*
X4573Y42267D02*
Y41768D01*
Y42017D01*
X4906D01*
Y42267D01*
Y41768D01*
X4173Y41467D02*
Y40968D01*
Y41217D01*
X4506D01*
Y41467D01*
Y40968D01*
X4173Y36667D02*
Y36168D01*
Y36417D01*
X4506D01*
Y36667D01*
Y36168D01*
X4573Y35867D02*
Y35368D01*
Y35617D01*
X4906D01*
Y35867D01*
Y35368D01*
X4173Y35067D02*
Y34568D01*
Y34817D01*
X4506D01*
Y35067D01*
Y34568D01*
X4573Y34267D02*
Y33768D01*
Y34017D01*
X4906D01*
Y34267D01*
Y33768D01*
X4173Y33467D02*
Y32968D01*
Y33217D01*
X4506D01*
Y33467D01*
Y32968D01*
X4573Y32667D02*
Y32168D01*
Y32417D01*
X4906D01*
Y32667D01*
Y32168D01*
X4173Y22267D02*
Y21768D01*
Y22017D01*
X4506D01*
Y22267D01*
Y21768D01*
X4573Y18267D02*
Y17768D01*
Y18017D01*
X4906D01*
Y18267D01*
Y17768D01*
X4173Y17467D02*
Y16968D01*
Y17217D01*
X4506D01*
Y17467D01*
Y16968D01*
X4573Y16667D02*
Y16168D01*
Y16417D01*
X4906D01*
Y16667D01*
Y16168D01*
X4573Y13467D02*
Y12968D01*
Y13217D01*
X4906D01*
Y13467D01*
Y12968D01*
X4573Y11867D02*
Y11368D01*
Y11617D01*
X4906D01*
Y11867D01*
Y11368D01*
X3373Y47867D02*
Y47368D01*
Y47617D01*
X3706D01*
Y47867D01*
Y47368D01*
X3773Y47067D02*
Y46568D01*
Y46817D01*
X4106D01*
Y47067D01*
Y46568D01*
X3373Y46267D02*
Y45768D01*
Y46017D01*
X3706D01*
Y46267D01*
Y45768D01*
X3773Y42267D02*
Y41768D01*
Y42017D01*
X4106D01*
Y42267D01*
Y41768D01*
X3373Y41467D02*
Y40968D01*
Y41217D01*
X3706D01*
Y41467D01*
Y40968D01*
X3373Y36667D02*
Y36168D01*
Y36417D01*
X3706D01*
Y36667D01*
Y36168D01*
X3773Y35867D02*
Y35368D01*
Y35617D01*
X4106D01*
Y35867D01*
Y35368D01*
X3373Y35067D02*
Y34568D01*
Y34817D01*
X3706D01*
Y35067D01*
Y34568D01*
X3773Y34267D02*
Y33768D01*
Y34017D01*
X4106D01*
Y34267D01*
Y33768D01*
X3373Y33467D02*
Y32968D01*
Y33217D01*
X3706D01*
Y33467D01*
Y32968D01*
X3773Y32667D02*
Y32168D01*
Y32417D01*
X4106D01*
Y32667D01*
Y32168D01*
X3373Y22267D02*
Y21768D01*
Y22017D01*
X3706D01*
Y22267D01*
Y21768D01*
X3373Y17467D02*
Y16968D01*
Y17217D01*
X3706D01*
Y17467D01*
Y16968D01*
X3373Y12667D02*
Y12168D01*
Y12417D01*
X3706D01*
Y12667D01*
Y12168D01*
X3773Y11867D02*
Y11368D01*
Y11617D01*
X4106D01*
Y11867D01*
Y11368D01*
X3773Y7067D02*
Y6568D01*
Y6817D01*
X4106D01*
Y7067D01*
Y6568D01*
X3373Y6267D02*
Y5768D01*
Y6018D01*
X3706D01*
Y6267D01*
Y5768D01*
X2973Y47067D02*
Y46568D01*
Y46817D01*
X3306D01*
Y47067D01*
Y46568D01*
X2573Y46267D02*
Y45768D01*
Y46017D01*
X2906D01*
Y46267D01*
Y45768D01*
X2973Y42267D02*
Y41768D01*
Y42017D01*
X3306D01*
Y42267D01*
Y41768D01*
X2573Y41467D02*
Y40968D01*
Y41217D01*
X2906D01*
Y41467D01*
Y40968D01*
X2973Y35867D02*
Y35368D01*
Y35617D01*
X3306D01*
Y35867D01*
Y35368D01*
X2973Y34267D02*
Y33768D01*
Y34017D01*
X3306D01*
Y34267D01*
Y33768D01*
X2973Y32667D02*
Y32168D01*
Y32417D01*
X3306D01*
Y32667D01*
Y32168D01*
X2973Y23067D02*
Y22568D01*
Y22817D01*
X3306D01*
Y23067D01*
Y22568D01*
X2573Y22267D02*
Y21768D01*
Y22017D01*
X2906D01*
Y22267D01*
Y21768D01*
X2573Y17467D02*
Y16968D01*
Y17217D01*
X2906D01*
Y17467D01*
Y16968D01*
X2973Y16667D02*
Y16168D01*
Y16417D01*
X3306D01*
Y16667D01*
Y16168D01*
X2573Y12667D02*
Y12168D01*
Y12417D01*
X2906D01*
Y12667D01*
Y12168D01*
X2973Y11867D02*
Y11368D01*
Y11617D01*
X3306D01*
Y11867D01*
Y11368D01*
X2973Y7067D02*
Y6568D01*
Y6817D01*
X3306D01*
Y7067D01*
Y6568D01*
X2573Y6267D02*
Y5768D01*
Y6018D01*
X2906D01*
Y6267D01*
Y5768D01*
X1773Y55867D02*
Y55368D01*
Y55617D01*
X2106D01*
Y55867D01*
Y55368D01*
X1773Y52667D02*
Y52168D01*
Y52417D01*
X2106D01*
Y52667D01*
Y52168D01*
X1773Y51067D02*
Y50568D01*
Y50817D01*
X2106D01*
Y51067D01*
Y50568D01*
X1773Y46267D02*
Y45768D01*
Y46017D01*
X2106D01*
Y46267D01*
Y45768D01*
X2173Y42267D02*
Y41768D01*
Y42017D01*
X2506D01*
Y42267D01*
Y41768D01*
X1773Y27067D02*
Y26568D01*
Y26817D01*
X2106D01*
Y27067D01*
Y26568D01*
X2173Y23067D02*
Y22568D01*
Y22817D01*
X2506D01*
Y23067D01*
Y22568D01*
X1773Y22267D02*
Y21768D01*
Y22017D01*
X2106D01*
Y22267D01*
Y21768D01*
X1773Y17467D02*
Y16968D01*
Y17217D01*
X2106D01*
Y17467D01*
Y16968D01*
X2173Y16667D02*
Y16168D01*
Y16417D01*
X2506D01*
Y16667D01*
Y16168D01*
X1773Y12667D02*
Y12168D01*
Y12417D01*
X2106D01*
Y12667D01*
Y12168D01*
X2173Y11867D02*
Y11368D01*
Y11617D01*
X2506D01*
Y11867D01*
Y11368D01*
X2173Y7067D02*
Y6568D01*
Y6817D01*
X2506D01*
Y7067D01*
Y6568D01*
X1773Y6267D02*
Y5768D01*
Y6018D01*
X2106D01*
Y6267D01*
Y5768D01*
X973Y55867D02*
Y55368D01*
Y55617D01*
X1306D01*
Y55867D01*
Y55368D01*
X973Y54267D02*
Y53768D01*
Y54017D01*
X1306D01*
Y54267D01*
Y53768D01*
X973Y52667D02*
Y52168D01*
Y52417D01*
X1306D01*
Y52667D01*
Y52168D01*
X1373Y51867D02*
Y51368D01*
Y51617D01*
X1706D01*
Y51867D01*
Y51368D01*
X1373Y50267D02*
Y49768D01*
Y50017D01*
X1706D01*
Y50267D01*
Y49768D01*
X973Y49467D02*
Y48968D01*
Y49217D01*
X1306D01*
Y49467D01*
Y48968D01*
X973Y36667D02*
Y36168D01*
Y36417D01*
X1306D01*
Y36667D01*
Y36168D01*
X1373Y35867D02*
Y35368D01*
Y35617D01*
X1706D01*
Y35867D01*
Y35368D01*
X973Y35067D02*
Y34568D01*
Y34817D01*
X1306D01*
Y35067D01*
Y34568D01*
X1373Y34267D02*
Y33768D01*
Y34017D01*
X1706D01*
Y34267D01*
Y33768D01*
X973Y33467D02*
Y32968D01*
Y33217D01*
X1306D01*
Y33467D01*
Y32968D01*
X1373Y32667D02*
Y32168D01*
Y32417D01*
X1706D01*
Y32667D01*
Y32168D01*
X1373Y27867D02*
Y27368D01*
Y27617D01*
X1706D01*
Y27867D01*
Y27368D01*
X973Y27067D02*
Y26568D01*
Y26817D01*
X1306D01*
Y27067D01*
Y26568D01*
X973Y22267D02*
Y21768D01*
Y22017D01*
X1306D01*
Y22267D01*
Y21768D01*
X973Y17467D02*
Y16968D01*
Y17217D01*
X1306D01*
Y17467D01*
Y16968D01*
X1373Y16667D02*
Y16168D01*
Y16417D01*
X1706D01*
Y16667D01*
Y16168D01*
X1373Y11867D02*
Y11368D01*
Y11617D01*
X1706D01*
Y11867D01*
Y11368D01*
X1373Y7067D02*
Y6568D01*
Y6817D01*
X1706D01*
Y7067D01*
Y6568D01*
X25490Y30167D02*
Y29667D01*
Y29917D01*
X25823D01*
Y30167D01*
Y29667D01*
X25200Y29270D02*
Y28770D01*
Y29020D01*
X25533D01*
Y29270D01*
Y28770D01*
X25250Y22630D02*
Y22130D01*
Y22380D01*
X25583D01*
Y22630D01*
Y22130D01*
X24390Y22640D02*
Y22140D01*
Y22390D01*
X24723D01*
Y22640D01*
Y22140D01*
X23530Y22690D02*
Y22190D01*
Y22440D01*
X23863D01*
Y22690D01*
Y22190D01*
X13080Y36410D02*
Y35910D01*
Y36160D01*
X13413D01*
Y36410D01*
Y35910D01*
X13400Y37080D02*
Y36580D01*
Y36830D01*
X13733D01*
Y37080D01*
Y36580D01*
X13710Y36400D02*
Y35900D01*
Y36150D01*
X14043D01*
Y36400D01*
Y35900D01*
X14030Y37040D02*
Y36540D01*
Y36790D01*
X14363D01*
Y37040D01*
Y36540D01*
X16130Y34590D02*
Y34090D01*
Y34340D01*
X16463D01*
Y34590D01*
Y34090D01*
X16170Y34170D02*
Y33670D01*
Y33920D01*
X16503D01*
Y34170D01*
Y33670D01*
X16200Y33720D02*
Y33220D01*
Y33470D01*
X16533D01*
Y33720D01*
Y33220D01*
X16720Y29560D02*
Y29060D01*
Y29310D01*
X17053D01*
Y29560D01*
Y29060D01*
X15990Y32510D02*
Y32010D01*
Y32260D01*
X16323D01*
Y32510D01*
Y32010D01*
X8860Y31830D02*
Y31330D01*
Y31580D01*
X9193D01*
Y31830D01*
Y31330D01*
X8860Y33150D02*
Y32650D01*
Y32900D01*
X9193D01*
Y33150D01*
Y32650D01*
X18000Y32500D02*
Y32000D01*
Y32250D01*
X18333D01*
Y32500D01*
Y32000D01*
X12630Y28040D02*
Y27540D01*
Y27790D01*
X12963D01*
Y28040D01*
Y27540D01*
X24400Y12900D02*
Y12400D01*
Y12650D01*
X24733D01*
Y12900D01*
Y12400D01*
X22600Y12900D02*
Y12400D01*
Y12650D01*
X22933D01*
Y12900D01*
Y12400D01*
X26200Y17700D02*
Y17200D01*
Y17450D01*
X26533D01*
Y17700D01*
Y17200D01*
X9410Y32510D02*
Y32010D01*
Y32260D01*
X9743D01*
Y32510D01*
Y32010D01*
X24850Y15460D02*
Y14960D01*
Y15210D01*
X25183D01*
Y15460D01*
Y14960D01*
X23860Y16760D02*
Y16260D01*
Y16510D01*
X24193D01*
Y16760D01*
Y16260D01*
X22559Y9600D02*
Y9100D01*
Y9350D01*
X22893D01*
Y9600D01*
Y9100D01*
X22450Y32040D02*
Y31540D01*
Y31790D01*
X22783D01*
Y32040D01*
Y31540D01*
X21990Y32040D02*
Y31540D01*
Y31790D01*
X22323D01*
Y32040D01*
Y31540D01*
X21570Y32020D02*
Y31520D01*
Y31770D01*
X21903D01*
Y32020D01*
Y31520D01*
X7480Y16400D02*
Y15900D01*
Y16150D01*
X7813D01*
Y16400D01*
Y15900D01*
X6490Y14210D02*
Y13710D01*
Y13960D01*
X6823D01*
Y14210D01*
Y13710D01*
X8920Y16650D02*
Y16150D01*
Y16400D01*
X9253D01*
Y16650D01*
Y16150D01*
X22600Y30490D02*
Y29990D01*
Y30240D01*
X22933D01*
Y30490D01*
Y29990D01*
X22600Y26580D02*
Y26080D01*
Y26330D01*
X22933D01*
Y26580D01*
Y26080D01*
X22400Y37170D02*
Y36670D01*
Y36920D01*
X22733D01*
Y37170D01*
Y36670D01*
X1290Y35410D02*
Y34910D01*
Y35160D01*
X1623D01*
Y35410D01*
Y34910D01*
X6510Y53420D02*
Y52920D01*
Y53170D01*
X6843D01*
Y53420D01*
Y52920D01*
X13190Y57550D02*
Y57050D01*
Y57300D01*
X13523D01*
Y57550D01*
Y57050D01*
X20940Y57380D02*
Y56880D01*
Y57130D01*
X21273D01*
Y57380D01*
Y56880D01*
X21410Y59530D02*
Y59030D01*
Y59280D01*
X21743D01*
Y59530D01*
Y59030D01*
D29*
X6831Y1496D02*
G03*
X6831Y1496I-787J0D01*
G01*
Y30059D02*
G03*
X6831Y30059I-787J0D01*
G01*
X6792Y57140D02*
G03*
X6792Y57140I-787J0D01*
G01*
X22441Y47244D02*
G03*
X22441Y47244I-787J0D01*
G01*
X28898Y1441D02*
G03*
X28898Y1441I-787J0D01*
G01*
X28874Y54390D02*
G03*
X28874Y54390I-787J0D01*
G01*
X6693Y47244D02*
G03*
X6693Y47244I-787J0D01*
G01*
X31380Y20130D02*
Y20930D01*
X31780Y21330D01*
X32180Y20930D01*
Y20130D01*
Y20730D01*
X31380D01*
X40980Y21130D02*
X41180Y21330D01*
X41580D01*
X41780Y21130D01*
Y20930D01*
X41580Y20730D01*
X41780Y20530D01*
Y20330D01*
X41580Y20130D01*
X41180D01*
X40980Y20330D01*
Y20530D01*
X41180Y20730D01*
X40980Y20930D01*
Y21130D01*
X41180Y20730D02*
X41580D01*
X42180Y21330D02*
X42979D01*
Y21130D01*
X42180Y20330D01*
Y20130D01*
X43379D02*
X43779D01*
X43579D01*
Y21330D01*
X43379Y21130D01*
X54416Y20130D02*
X54816D01*
X54616D01*
Y21330D01*
X54416Y21130D01*
X56216Y21330D02*
X55416D01*
Y20730D01*
X55816Y20930D01*
X56016D01*
X56216Y20730D01*
Y20330D01*
X56016Y20130D01*
X55616D01*
X55416Y20330D01*
X56616Y20130D02*
Y20930D01*
X56816D01*
X57015Y20730D01*
Y20130D01*
Y20730D01*
X57215Y20930D01*
X57415Y20730D01*
Y20130D01*
X57815D02*
X58215D01*
X58015D01*
Y20930D01*
X57815D01*
X58815Y20130D02*
X59215D01*
X59015D01*
Y21330D01*
X58815D01*
X61414Y20130D02*
X61014Y20530D01*
Y20930D01*
X61414Y21330D01*
X62014Y21130D02*
X62214Y21330D01*
X62614D01*
X62814Y21130D01*
Y20330D01*
X62614Y20130D01*
X62214D01*
X62014Y20330D01*
Y21130D01*
X63213Y20130D02*
Y20330D01*
X63413D01*
Y20130D01*
X63213D01*
X64213Y21130D02*
X64413Y21330D01*
X64813D01*
X65013Y21130D01*
Y20930D01*
X64813Y20730D01*
X64613D01*
X64813D01*
X65013Y20530D01*
Y20330D01*
X64813Y20130D01*
X64413D01*
X64213Y20330D01*
X65413Y21130D02*
X65613Y21330D01*
X66013D01*
X66212Y21130D01*
Y20930D01*
X66013Y20730D01*
X66212Y20530D01*
Y20330D01*
X66013Y20130D01*
X65613D01*
X65413Y20330D01*
Y20530D01*
X65613Y20730D01*
X65413Y20930D01*
Y21130D01*
X65613Y20730D02*
X66013D01*
X66612Y20130D02*
X67012D01*
X66812D01*
Y21330D01*
X66612Y21130D01*
X67612Y20130D02*
Y20930D01*
X67812D01*
X68012Y20730D01*
Y20130D01*
Y20730D01*
X68212Y20930D01*
X68412Y20730D01*
Y20130D01*
X68812D02*
Y20930D01*
X69012D01*
X69212Y20730D01*
Y20130D01*
Y20730D01*
X69411Y20930D01*
X69611Y20730D01*
Y20130D01*
X70011D02*
X70411Y20530D01*
Y20930D01*
X70011Y21330D01*
X80808Y20130D02*
Y21330D01*
X81408D01*
X81608Y21130D01*
Y20730D01*
X81408Y20530D01*
X80808D01*
X82008Y21330D02*
X82808D01*
X82408D01*
Y20130D01*
X83208Y21330D02*
Y20130D01*
Y20730D01*
X84007D01*
Y21330D01*
Y20130D01*
X90406D02*
Y21330D01*
X91006D01*
X91206Y21130D01*
Y20730D01*
X91006Y20530D01*
X90406D01*
X90806D02*
X91206Y20130D01*
X91805D02*
X92205D01*
X92405Y20330D01*
Y20730D01*
X92205Y20930D01*
X91805D01*
X91606Y20730D01*
Y20330D01*
X91805Y20130D01*
X92805Y20930D02*
Y20330D01*
X93005Y20130D01*
X93605D01*
Y20930D01*
X94005Y20130D02*
Y20930D01*
X94605D01*
X94804Y20730D01*
Y20130D01*
X96004Y21330D02*
Y20130D01*
X95404D01*
X95204Y20330D01*
Y20730D01*
X95404Y20930D01*
X96004D01*
X31380Y18930D02*
Y17730D01*
X31980D01*
X32180Y17930D01*
Y18130D01*
X31980Y18330D01*
X31380D01*
X31980D01*
X32180Y18530D01*
Y18730D01*
X31980Y18930D01*
X31380D01*
X41580Y17730D02*
Y18930D01*
X40980Y18330D01*
X41780D01*
X54416Y18730D02*
X54616Y18930D01*
X55016D01*
X55216Y18730D01*
Y18530D01*
X55016Y18330D01*
X54816D01*
X55016D01*
X55216Y18130D01*
Y17930D01*
X55016Y17730D01*
X54616D01*
X54416Y17930D01*
X55616Y18730D02*
X55816Y18930D01*
X56216D01*
X56416Y18730D01*
Y17930D01*
X56216Y17730D01*
X55816D01*
X55616Y17930D01*
Y18730D01*
X56816Y17730D02*
Y18530D01*
X57015D01*
X57215Y18330D01*
Y17730D01*
Y18330D01*
X57415Y18530D01*
X57615Y18330D01*
Y17730D01*
X58015D02*
X58415D01*
X58215D01*
Y18530D01*
X58015D01*
X59015Y17730D02*
X59415D01*
X59215D01*
Y18930D01*
X59015D01*
X61614Y17730D02*
X61214Y18130D01*
Y18530D01*
X61614Y18930D01*
X62214Y18730D02*
X62414Y18930D01*
X62814D01*
X63014Y18730D01*
Y17930D01*
X62814Y17730D01*
X62414D01*
X62214Y17930D01*
Y18730D01*
X63413Y17730D02*
Y17930D01*
X63613D01*
Y17730D01*
X63413D01*
X64413Y18930D02*
X65213D01*
Y18730D01*
X64413Y17930D01*
Y17730D01*
X66412Y18930D02*
X66013Y18730D01*
X65613Y18330D01*
Y17930D01*
X65813Y17730D01*
X66212D01*
X66412Y17930D01*
Y18130D01*
X66212Y18330D01*
X65613D01*
X67612Y17730D02*
X66812D01*
X67612Y18530D01*
Y18730D01*
X67412Y18930D01*
X67012D01*
X66812Y18730D01*
X68012Y17730D02*
Y18530D01*
X68212D01*
X68412Y18330D01*
Y17730D01*
Y18330D01*
X68612Y18530D01*
X68812Y18330D01*
Y17730D01*
X69212D02*
Y18530D01*
X69411D01*
X69611Y18330D01*
Y17730D01*
Y18330D01*
X69811Y18530D01*
X70011Y18330D01*
Y17730D01*
X70411D02*
X70811Y18130D01*
Y18530D01*
X70411Y18930D01*
X80808Y17730D02*
Y18930D01*
X81408D01*
X81608Y18730D01*
Y18330D01*
X81408Y18130D01*
X80808D01*
X82008Y18930D02*
X82808D01*
X82408D01*
Y17730D01*
X83208Y18930D02*
Y17730D01*
Y18330D01*
X84007D01*
Y18930D01*
Y17730D01*
X90406D02*
Y18930D01*
X91006D01*
X91206Y18730D01*
Y18330D01*
X91006Y18130D01*
X90406D01*
X90806D02*
X91206Y17730D01*
X91805D02*
X92205D01*
X92405Y17930D01*
Y18330D01*
X92205Y18530D01*
X91805D01*
X91606Y18330D01*
Y17930D01*
X91805Y17730D01*
X92805Y18530D02*
Y17930D01*
X93005Y17730D01*
X93605D01*
Y18530D01*
X94005Y17730D02*
Y18530D01*
X94605D01*
X94804Y18330D01*
Y17730D01*
X96004Y18930D02*
Y17730D01*
X95404D01*
X95204Y17930D01*
Y18330D01*
X95404Y18530D01*
X96004D01*
X32180Y16330D02*
X31980Y16530D01*
X31580D01*
X31380Y16330D01*
Y15530D01*
X31580Y15330D01*
X31980D01*
X32180Y15530D01*
X41780Y15330D02*
X40980D01*
X41780Y16130D01*
Y16330D01*
X41580Y16530D01*
X41180D01*
X40980Y16330D01*
X54416D02*
X54616Y16530D01*
X55016D01*
X55216Y16330D01*
Y16130D01*
X55016Y15930D01*
X54816D01*
X55016D01*
X55216Y15730D01*
Y15530D01*
X55016Y15330D01*
X54616D01*
X54416Y15530D01*
X56416Y15330D02*
X55616D01*
X56416Y16130D01*
Y16330D01*
X56216Y16530D01*
X55816D01*
X55616Y16330D01*
X56816Y15330D02*
Y16130D01*
X57015D01*
X57215Y15930D01*
Y15330D01*
Y15930D01*
X57415Y16130D01*
X57615Y15930D01*
Y15330D01*
X58015D02*
X58415D01*
X58215D01*
Y16130D01*
X58015D01*
X59015Y15330D02*
X59415D01*
X59215D01*
Y16530D01*
X59015D01*
X61614Y15330D02*
X61214Y15730D01*
Y16130D01*
X61614Y16530D01*
X62214Y16330D02*
X62414Y16530D01*
X62814D01*
X63014Y16330D01*
Y15530D01*
X62814Y15330D01*
X62414D01*
X62214Y15530D01*
Y16330D01*
X63413Y15330D02*
Y15530D01*
X63613D01*
Y15330D01*
X63413D01*
X64413Y16330D02*
X64613Y16530D01*
X65013D01*
X65213Y16330D01*
Y16130D01*
X65013Y15930D01*
X65213Y15730D01*
Y15530D01*
X65013Y15330D01*
X64613D01*
X64413Y15530D01*
Y15730D01*
X64613Y15930D01*
X64413Y16130D01*
Y16330D01*
X64613Y15930D02*
X65013D01*
X65613Y15330D02*
X66013D01*
X65813D01*
Y16530D01*
X65613Y16330D01*
X67412Y15330D02*
X66612D01*
X67412Y16130D01*
Y16330D01*
X67212Y16530D01*
X66812D01*
X66612Y16330D01*
X67812D02*
X68012Y16530D01*
X68412D01*
X68612Y16330D01*
Y16130D01*
X68412Y15930D01*
X68612Y15730D01*
Y15530D01*
X68412Y15330D01*
X68012D01*
X67812Y15530D01*
Y15730D01*
X68012Y15930D01*
X67812Y16130D01*
Y16330D01*
X68012Y15930D02*
X68412D01*
X69012Y15330D02*
Y16130D01*
X69212D01*
X69411Y15930D01*
Y15330D01*
Y15930D01*
X69611Y16130D01*
X69811Y15930D01*
Y15330D01*
X70211D02*
Y16130D01*
X70411D01*
X70611Y15930D01*
Y15330D01*
Y15930D01*
X70811Y16130D01*
X71011Y15930D01*
Y15330D01*
X71411D02*
X71811Y15730D01*
Y16130D01*
X71411Y16530D01*
X80808Y15330D02*
Y16530D01*
X81408D01*
X81608Y16330D01*
Y15930D01*
X81408Y15730D01*
X80808D01*
X82008Y16530D02*
X82808D01*
X82408D01*
Y15330D01*
X83208Y16530D02*
Y15330D01*
Y15930D01*
X84007D01*
Y16530D01*
Y15330D01*
X90406D02*
Y16530D01*
X91006D01*
X91206Y16330D01*
Y15930D01*
X91006Y15730D01*
X90406D01*
X90806D02*
X91206Y15330D01*
X91805D02*
X92205D01*
X92405Y15530D01*
Y15930D01*
X92205Y16130D01*
X91805D01*
X91606Y15930D01*
Y15530D01*
X91805Y15330D01*
X92805Y16130D02*
Y15530D01*
X93005Y15330D01*
X93605D01*
Y16130D01*
X94005Y15330D02*
Y16130D01*
X94605D01*
X94804Y15930D01*
Y15330D01*
X96004Y16530D02*
Y15330D01*
X95404D01*
X95204Y15530D01*
Y15930D01*
X95404Y16130D01*
X96004D01*
X31380Y14130D02*
Y12930D01*
X31980D01*
X32180Y13130D01*
Y13930D01*
X31980Y14130D01*
X31380D01*
X41780Y12930D02*
X40980D01*
X41780Y13730D01*
Y13930D01*
X41580Y14130D01*
X41180D01*
X40980Y13930D01*
X54416D02*
X54616Y14130D01*
X55016D01*
X55216Y13930D01*
Y13730D01*
X55016Y13530D01*
X54816D01*
X55016D01*
X55216Y13330D01*
Y13130D01*
X55016Y12930D01*
X54616D01*
X54416Y13130D01*
X56416Y14130D02*
X55616D01*
Y13530D01*
X56016Y13730D01*
X56216D01*
X56416Y13530D01*
Y13130D01*
X56216Y12930D01*
X55816D01*
X55616Y13130D01*
X56816Y12930D02*
Y13130D01*
X57015D01*
Y12930D01*
X56816D01*
X58415D02*
Y14130D01*
X57815Y13530D01*
X58615D01*
X59015Y13930D02*
X59215Y14130D01*
X59615D01*
X59815Y13930D01*
Y13730D01*
X59615Y13530D01*
X59415D01*
X59615D01*
X59815Y13330D01*
Y13130D01*
X59615Y12930D01*
X59215D01*
X59015Y13130D01*
X60214Y13930D02*
X60414Y14130D01*
X60814D01*
X61014Y13930D01*
Y13730D01*
X60814Y13530D01*
X60614D01*
X60814D01*
X61014Y13330D01*
Y13130D01*
X60814Y12930D01*
X60414D01*
X60214Y13130D01*
X61414Y12930D02*
Y13730D01*
X61614D01*
X61814Y13530D01*
Y12930D01*
Y13530D01*
X62014Y13730D01*
X62214Y13530D01*
Y12930D01*
X62614D02*
X63014D01*
X62814D01*
Y13730D01*
X62614D01*
X63613Y12930D02*
X64013D01*
X63813D01*
Y14130D01*
X63613D01*
X66212Y12930D02*
X65813Y13330D01*
Y13730D01*
X66212Y14130D01*
X66812Y13930D02*
X67012Y14130D01*
X67412D01*
X67612Y13930D01*
Y13130D01*
X67412Y12930D01*
X67012D01*
X66812Y13130D01*
Y13930D01*
X68012Y12930D02*
Y13130D01*
X68212D01*
Y12930D01*
X68012D01*
X69012Y13130D02*
X69212Y12930D01*
X69611D01*
X69811Y13130D01*
Y13930D01*
X69611Y14130D01*
X69212D01*
X69012Y13930D01*
Y13730D01*
X69212Y13530D01*
X69811D01*
X70211Y12930D02*
Y13730D01*
X70411D01*
X70611Y13530D01*
Y12930D01*
Y13530D01*
X70811Y13730D01*
X71011Y13530D01*
Y12930D01*
X71411D02*
Y13730D01*
X71611D01*
X71811Y13530D01*
Y12930D01*
Y13530D01*
X72011Y13730D01*
X72211Y13530D01*
Y12930D01*
X72610D02*
X73010Y13330D01*
Y13730D01*
X72610Y14130D01*
X80808Y12930D02*
Y14130D01*
X81408D01*
X81608Y13930D01*
Y13530D01*
X81408Y13330D01*
X80808D01*
X82008Y14130D02*
X82808D01*
X82408D01*
Y12930D01*
X83208Y14130D02*
Y12930D01*
Y13530D01*
X84007D01*
Y14130D01*
Y12930D01*
X90406D02*
Y14130D01*
X91006D01*
X91206Y13930D01*
Y13530D01*
X91006Y13330D01*
X90406D01*
X90806D02*
X91206Y12930D01*
X91805D02*
X92205D01*
X92405Y13130D01*
Y13530D01*
X92205Y13730D01*
X91805D01*
X91606Y13530D01*
Y13130D01*
X91805Y12930D01*
X92805Y13730D02*
Y13130D01*
X93005Y12930D01*
X93605D01*
Y13730D01*
X94005Y12930D02*
Y13730D01*
X94605D01*
X94804Y13530D01*
Y12930D01*
X96004Y14130D02*
Y12930D01*
X95404D01*
X95204Y13130D01*
Y13530D01*
X95404Y13730D01*
X96004D01*
X32180Y11730D02*
X31380D01*
Y10530D01*
X32180D01*
X31380Y11130D02*
X31780D01*
X40980Y10530D02*
X41380D01*
X41180D01*
Y11730D01*
X40980Y11530D01*
X41980Y11730D02*
X42779D01*
Y11530D01*
X41980Y10730D01*
Y10530D01*
X43179Y11530D02*
X43379Y11730D01*
X43779D01*
X43979Y11530D01*
Y10730D01*
X43779Y10530D01*
X43379D01*
X43179Y10730D01*
Y11530D01*
X54416D02*
X54616Y11730D01*
X55016D01*
X55216Y11530D01*
Y11330D01*
X55016Y11130D01*
X54816D01*
X55016D01*
X55216Y10930D01*
Y10730D01*
X55016Y10530D01*
X54616D01*
X54416Y10730D01*
X56416Y11730D02*
X56016Y11530D01*
X55616Y11130D01*
Y10730D01*
X55816Y10530D01*
X56216D01*
X56416Y10730D01*
Y10930D01*
X56216Y11130D01*
X55616D01*
X56816Y10530D02*
Y11330D01*
X57015D01*
X57215Y11130D01*
Y10530D01*
Y11130D01*
X57415Y11330D01*
X57615Y11130D01*
Y10530D01*
X58015D02*
X58415D01*
X58215D01*
Y11330D01*
X58015D01*
X59015Y10530D02*
X59415D01*
X59215D01*
Y11730D01*
X59015D01*
X61614Y10530D02*
X61214Y10930D01*
Y11330D01*
X61614Y11730D01*
X62214Y11530D02*
X62414Y11730D01*
X62814D01*
X63014Y11530D01*
Y10730D01*
X62814Y10530D01*
X62414D01*
X62214Y10730D01*
Y11530D01*
X63413Y10530D02*
Y10730D01*
X63613D01*
Y10530D01*
X63413D01*
X64413Y10730D02*
X64613Y10530D01*
X65013D01*
X65213Y10730D01*
Y11530D01*
X65013Y11730D01*
X64613D01*
X64413Y11530D01*
Y11330D01*
X64613Y11130D01*
X65213D01*
X65613Y10530D02*
X66013D01*
X65813D01*
Y11730D01*
X65613Y11530D01*
X67212Y10530D02*
Y11730D01*
X66612Y11130D01*
X67412D01*
X68412Y10530D02*
Y11730D01*
X67812Y11130D01*
X68612D01*
X69012Y10530D02*
Y11330D01*
X69212D01*
X69411Y11130D01*
Y10530D01*
Y11130D01*
X69611Y11330D01*
X69811Y11130D01*
Y10530D01*
X70211D02*
Y11330D01*
X70411D01*
X70611Y11130D01*
Y10530D01*
Y11130D01*
X70811Y11330D01*
X71011Y11130D01*
Y10530D01*
X71411D02*
X71811Y10930D01*
Y11330D01*
X71411Y11730D01*
X80808Y10530D02*
Y11730D01*
X81408D01*
X81608Y11530D01*
Y11130D01*
X81408Y10930D01*
X80808D01*
X82008Y11730D02*
X82808D01*
X82408D01*
Y10530D01*
X83208Y11730D02*
Y10530D01*
Y11130D01*
X84007D01*
Y11730D01*
Y10530D01*
X90406D02*
Y11730D01*
X91006D01*
X91206Y11530D01*
Y11130D01*
X91006Y10930D01*
X90406D01*
X90806D02*
X91206Y10530D01*
X91805D02*
X92205D01*
X92405Y10730D01*
Y11130D01*
X92205Y11330D01*
X91805D01*
X91606Y11130D01*
Y10730D01*
X91805Y10530D01*
X92805Y11330D02*
Y10730D01*
X93005Y10530D01*
X93605D01*
Y11330D01*
X94005Y10530D02*
Y11330D01*
X94605D01*
X94804Y11130D01*
Y10530D01*
X96004Y11730D02*
Y10530D01*
X95404D01*
X95204Y10730D01*
Y11130D01*
X95404Y11330D01*
X96004D01*
X32180Y9330D02*
X31380D01*
Y8730D01*
X31780D01*
X31380D01*
Y8130D01*
X40980Y9130D02*
X41180Y9330D01*
X41580D01*
X41780Y9130D01*
Y8930D01*
X41580Y8730D01*
X41780Y8530D01*
Y8330D01*
X41580Y8130D01*
X41180D01*
X40980Y8330D01*
Y8530D01*
X41180Y8730D01*
X40980Y8930D01*
Y9130D01*
X41180Y8730D02*
X41580D01*
X54416Y9130D02*
X54616Y9330D01*
X55016D01*
X55216Y9130D01*
Y8930D01*
X55016Y8730D01*
X54816D01*
X55016D01*
X55216Y8530D01*
Y8330D01*
X55016Y8130D01*
X54616D01*
X54416Y8330D01*
X55616D02*
X55816Y8130D01*
X56216D01*
X56416Y8330D01*
Y9130D01*
X56216Y9330D01*
X55816D01*
X55616Y9130D01*
Y8930D01*
X55816Y8730D01*
X56416D01*
X56816Y8130D02*
Y8330D01*
X57015D01*
Y8130D01*
X56816D01*
X57815Y9130D02*
X58015Y9330D01*
X58415D01*
X58615Y9130D01*
Y8930D01*
X58415Y8730D01*
X58215D01*
X58415D01*
X58615Y8530D01*
Y8330D01*
X58415Y8130D01*
X58015D01*
X57815Y8330D01*
X59015Y9330D02*
X59815D01*
Y9130D01*
X59015Y8330D01*
Y8130D01*
X60214D02*
Y8930D01*
X60414D01*
X60614Y8730D01*
Y8130D01*
Y8730D01*
X60814Y8930D01*
X61014Y8730D01*
Y8130D01*
X61414D02*
X61814D01*
X61614D01*
Y8930D01*
X61414D01*
X62414Y8130D02*
X62814D01*
X62614D01*
Y9330D01*
X62414D01*
X65013Y8130D02*
X64613Y8530D01*
Y8930D01*
X65013Y9330D01*
X65613Y8130D02*
X66013D01*
X65813D01*
Y9330D01*
X65613Y9130D01*
X66612Y8130D02*
Y8930D01*
X66812D01*
X67012Y8730D01*
Y8130D01*
Y8730D01*
X67212Y8930D01*
X67412Y8730D01*
Y8130D01*
X67812D02*
Y8930D01*
X68012D01*
X68212Y8730D01*
Y8130D01*
Y8730D01*
X68412Y8930D01*
X68612Y8730D01*
Y8130D01*
X69012D02*
X69411Y8530D01*
Y8930D01*
X69012Y9330D01*
X80808Y8130D02*
Y9330D01*
X81408D01*
X81608Y9130D01*
Y8730D01*
X81408Y8530D01*
X80808D01*
X82008Y9330D02*
X82808D01*
X82408D01*
Y8130D01*
X83208Y9330D02*
Y8130D01*
Y8730D01*
X84007D01*
Y9330D01*
Y8130D01*
X90406D02*
Y9330D01*
X91006D01*
X91206Y9130D01*
Y8730D01*
X91006Y8530D01*
X90406D01*
X90806D02*
X91206Y8130D01*
X91805D02*
X92205D01*
X92405Y8330D01*
Y8730D01*
X92205Y8930D01*
X91805D01*
X91606Y8730D01*
Y8330D01*
X91805Y8130D01*
X92805Y8930D02*
Y8330D01*
X93005Y8130D01*
X93605D01*
Y8930D01*
X94005Y8130D02*
Y8930D01*
X94605D01*
X94804Y8730D01*
Y8130D01*
X96004Y9330D02*
Y8130D01*
X95404D01*
X95204Y8330D01*
Y8730D01*
X95404Y8930D01*
X96004D01*
X32180Y6730D02*
X31980Y6930D01*
X31580D01*
X31380Y6730D01*
Y5930D01*
X31580Y5730D01*
X31980D01*
X32180Y5930D01*
Y6330D01*
X31780D01*
X40980Y5730D02*
X41380D01*
X41180D01*
Y6930D01*
X40980Y6730D01*
X42779Y6930D02*
X42380Y6730D01*
X41980Y6330D01*
Y5930D01*
X42180Y5730D01*
X42579D01*
X42779Y5930D01*
Y6130D01*
X42579Y6330D01*
X41980D01*
X55216Y6930D02*
X54416D01*
Y6330D01*
X54816Y6530D01*
X55016D01*
X55216Y6330D01*
Y5930D01*
X55016Y5730D01*
X54616D01*
X54416Y5930D01*
X56416Y6930D02*
X55616D01*
Y6330D01*
X56016Y6530D01*
X56216D01*
X56416Y6330D01*
Y5930D01*
X56216Y5730D01*
X55816D01*
X55616Y5930D01*
X56816Y5730D02*
Y6530D01*
X57015D01*
X57215Y6330D01*
Y5730D01*
Y6330D01*
X57415Y6530D01*
X57615Y6330D01*
Y5730D01*
X58015D02*
X58415D01*
X58215D01*
Y6530D01*
X58015D01*
X59015Y5730D02*
X59415D01*
X59215D01*
Y6930D01*
X59015D01*
X61614Y5730D02*
X61214Y6130D01*
Y6530D01*
X61614Y6930D01*
X62214Y5730D02*
X62614D01*
X62414D01*
Y6930D01*
X62214Y6730D01*
X63213Y5730D02*
Y5930D01*
X63413D01*
Y5730D01*
X63213D01*
X64213Y6730D02*
X64413Y6930D01*
X64813D01*
X65013Y6730D01*
Y6530D01*
X64813Y6330D01*
X64613D01*
X64813D01*
X65013Y6130D01*
Y5930D01*
X64813Y5730D01*
X64413D01*
X64213Y5930D01*
X65413D02*
X65613Y5730D01*
X66013D01*
X66212Y5930D01*
Y6730D01*
X66013Y6930D01*
X65613D01*
X65413Y6730D01*
Y6530D01*
X65613Y6330D01*
X66212D01*
X66612Y6930D02*
X67412D01*
Y6730D01*
X66612Y5930D01*
Y5730D01*
X67812D02*
Y6530D01*
X68012D01*
X68212Y6330D01*
Y5730D01*
Y6330D01*
X68412Y6530D01*
X68612Y6330D01*
Y5730D01*
X69012D02*
Y6530D01*
X69212D01*
X69411Y6330D01*
Y5730D01*
Y6330D01*
X69611Y6530D01*
X69811Y6330D01*
Y5730D01*
X70211D02*
X70611Y6130D01*
Y6530D01*
X70211Y6930D01*
X80808Y5730D02*
Y6930D01*
X81408D01*
X81608Y6730D01*
Y6330D01*
X81408Y6130D01*
X80808D01*
X82008Y6930D02*
X82808D01*
X82408D01*
Y5730D01*
X83208Y6930D02*
Y5730D01*
Y6330D01*
X84007D01*
Y6930D01*
Y5730D01*
X90406D02*
Y6930D01*
X91006D01*
X91206Y6730D01*
Y6330D01*
X91006Y6130D01*
X90406D01*
X90806D02*
X91206Y5730D01*
X91805D02*
X92205D01*
X92405Y5930D01*
Y6330D01*
X92205Y6530D01*
X91805D01*
X91606Y6330D01*
Y5930D01*
X91805Y5730D01*
X92805Y6530D02*
Y5930D01*
X93005Y5730D01*
X93605D01*
Y6530D01*
X94005Y5730D02*
Y6530D01*
X94605D01*
X94804Y6330D01*
Y5730D01*
X96004Y6930D02*
Y5730D01*
X95404D01*
X95204Y5930D01*
Y6330D01*
X95404Y6530D01*
X96004D01*
X31380Y4530D02*
Y3330D01*
Y3930D01*
X32180D01*
Y4530D01*
Y3330D01*
X40980Y4330D02*
X41180Y4530D01*
X41580D01*
X41780Y4330D01*
Y4130D01*
X41580Y3930D01*
X41780Y3730D01*
Y3530D01*
X41580Y3330D01*
X41180D01*
X40980Y3530D01*
Y3730D01*
X41180Y3930D01*
X40980Y4130D01*
Y4330D01*
X41180Y3930D02*
X41580D01*
X54416Y4530D02*
X55216D01*
Y4330D01*
X54416Y3530D01*
Y3330D01*
X55616Y4330D02*
X55816Y4530D01*
X56216D01*
X56416Y4330D01*
Y4130D01*
X56216Y3930D01*
X56416Y3730D01*
Y3530D01*
X56216Y3330D01*
X55816D01*
X55616Y3530D01*
Y3730D01*
X55816Y3930D01*
X55616Y4130D01*
Y4330D01*
X55816Y3930D02*
X56216D01*
X56816Y3330D02*
Y3530D01*
X57015D01*
Y3330D01*
X56816D01*
X57815Y4530D02*
X58615D01*
Y4330D01*
X57815Y3530D01*
Y3330D01*
X59615D02*
Y4530D01*
X59015Y3930D01*
X59815D01*
X60214Y3330D02*
Y4130D01*
X60414D01*
X60614Y3930D01*
Y3330D01*
Y3930D01*
X60814Y4130D01*
X61014Y3930D01*
Y3330D01*
X61414D02*
X61814D01*
X61614D01*
Y4130D01*
X61414D01*
X62414Y3330D02*
X62814D01*
X62614D01*
Y4530D01*
X62414D01*
X65013Y3330D02*
X64613Y3730D01*
Y4130D01*
X65013Y4530D01*
X66412Y3330D02*
X65613D01*
X66412Y4130D01*
Y4330D01*
X66212Y4530D01*
X65813D01*
X65613Y4330D01*
X66812Y3330D02*
Y4130D01*
X67012D01*
X67212Y3930D01*
Y3330D01*
Y3930D01*
X67412Y4130D01*
X67612Y3930D01*
Y3330D01*
X68012D02*
Y4130D01*
X68212D01*
X68412Y3930D01*
Y3330D01*
Y3930D01*
X68612Y4130D01*
X68812Y3930D01*
Y3330D01*
X69212D02*
X69611Y3730D01*
Y4130D01*
X69212Y4530D01*
X80808Y3330D02*
Y4530D01*
X81608Y3330D01*
Y4530D01*
X82008Y3330D02*
Y4530D01*
X82608D01*
X82808Y4330D01*
Y3930D01*
X82608Y3730D01*
X82008D01*
X83208Y4530D02*
X84007D01*
X83607D01*
Y3330D01*
X84407Y4530D02*
Y3330D01*
Y3930D01*
X85207D01*
Y4530D01*
Y3330D01*
X90406D02*
Y4530D01*
X91006D01*
X91206Y4330D01*
Y3930D01*
X91006Y3730D01*
X90406D01*
X90806D02*
X91206Y3330D01*
X91805D02*
X92205D01*
X92405Y3530D01*
Y3930D01*
X92205Y4130D01*
X91805D01*
X91606Y3930D01*
Y3530D01*
X91805Y3330D01*
X92805Y4130D02*
Y3530D01*
X93005Y3330D01*
X93605D01*
Y4130D01*
X94005Y3330D02*
Y4130D01*
X94605D01*
X94804Y3930D01*
Y3330D01*
X96004Y4530D02*
Y3330D01*
X95404D01*
X95204Y3530D01*
Y3930D01*
X95404Y4130D01*
X96004D01*
X40980Y930D02*
X41380D01*
X41180D01*
Y2130D01*
X40980Y1930D01*
X41980D02*
X42180Y2130D01*
X42579D01*
X42779Y1930D01*
Y1130D01*
X42579Y930D01*
X42180D01*
X41980Y1130D01*
Y1930D01*
X43179D02*
X43379Y2130D01*
X43779D01*
X43979Y1930D01*
Y1730D01*
X43779Y1530D01*
X43979Y1330D01*
Y1130D01*
X43779Y930D01*
X43379D01*
X43179Y1130D01*
Y1330D01*
X43379Y1530D01*
X43179Y1730D01*
Y1930D01*
X43379Y1530D02*
X43779D01*
X44379Y930D02*
X44779D01*
X44579D01*
Y2130D01*
X44379Y1930D01*
X46579Y2130D02*
X47379D01*
X46979D01*
Y930D01*
X47978D02*
X48378D01*
X48578Y1130D01*
Y1530D01*
X48378Y1730D01*
X47978D01*
X47778Y1530D01*
Y1130D01*
X47978Y930D01*
X49178Y1930D02*
Y1730D01*
X48978D01*
X49378D01*
X49178D01*
Y1130D01*
X49378Y930D01*
X50178Y1730D02*
X50577D01*
X50777Y1530D01*
Y930D01*
X50178D01*
X49978Y1130D01*
X50178Y1330D01*
X50777D01*
X51177Y930D02*
X51577D01*
X51377D01*
Y2130D01*
X51177D01*
D74*
X32340Y24210D02*
X32100Y24450D01*
X31620D01*
X31380Y24210D01*
Y23970D01*
X31620Y23730D01*
X32100D01*
X32340Y23490D01*
Y23250D01*
X32100Y23010D01*
X31620D01*
X31380Y23250D01*
X32820Y23970D02*
Y23250D01*
X33059Y23010D01*
X33779D01*
Y22770D01*
X33539Y22530D01*
X33299D01*
X33779Y23010D02*
Y23970D01*
X34259Y23010D02*
Y23970D01*
X34499D01*
X34739Y23730D01*
Y23010D01*
Y23730D01*
X34979Y23970D01*
X35219Y23730D01*
Y23010D01*
X35699Y24450D02*
Y23010D01*
X36418D01*
X36658Y23250D01*
Y23490D01*
Y23730D01*
X36418Y23970D01*
X35699D01*
X37378Y23010D02*
X37858D01*
X38098Y23250D01*
Y23730D01*
X37858Y23970D01*
X37378D01*
X37138Y23730D01*
Y23250D01*
X37378Y23010D01*
X38578D02*
X39058D01*
X38818D01*
Y24450D01*
X38578D01*
X40980D02*
Y23010D01*
Y23730D01*
X41940D01*
Y24450D01*
Y23010D01*
X42420D02*
X42899D01*
X42659D01*
Y23970D01*
X42420D01*
X43859Y24210D02*
Y23970D01*
X43619D01*
X44099D01*
X43859D01*
Y23250D01*
X44099Y23010D01*
X47218Y24210D02*
X46978Y24450D01*
X46498D01*
X46258Y24210D01*
Y23250D01*
X46498Y23010D01*
X46978D01*
X47218Y23250D01*
X47938Y23010D02*
X48418D01*
X48658Y23250D01*
Y23730D01*
X48418Y23970D01*
X47938D01*
X47698Y23730D01*
Y23250D01*
X47938Y23010D01*
X49137Y23970D02*
Y23250D01*
X49377Y23010D01*
X50097D01*
Y23970D01*
X50577Y23010D02*
Y23970D01*
X51297D01*
X51537Y23730D01*
Y23010D01*
X52256Y24210D02*
Y23970D01*
X52016D01*
X52496D01*
X52256D01*
Y23250D01*
X52496Y23010D01*
X55376Y24450D02*
X54416D01*
Y23730D01*
X54896D01*
X54416D01*
Y23010D01*
X55856D02*
X56336D01*
X56096D01*
Y23970D01*
X55856D01*
X57055Y23010D02*
Y23970D01*
X57775D01*
X58015Y23730D01*
Y23010D01*
X58495D02*
X58975D01*
X58735D01*
Y23970D01*
X58495D01*
X59695Y23010D02*
X60414D01*
X60654Y23250D01*
X60414Y23490D01*
X59934D01*
X59695Y23730D01*
X59934Y23970D01*
X60654D01*
X61134Y24450D02*
Y23010D01*
Y23730D01*
X61374Y23970D01*
X61854D01*
X62094Y23730D01*
Y23010D01*
X63293D02*
X62814D01*
X62574Y23250D01*
Y23730D01*
X62814Y23970D01*
X63293D01*
X63533Y23730D01*
Y23490D01*
X62574D01*
X64973Y24450D02*
Y23010D01*
X64253D01*
X64013Y23250D01*
Y23730D01*
X64253Y23970D01*
X64973D01*
X66892Y24450D02*
Y23010D01*
Y23730D01*
X67852D01*
Y24450D01*
Y23010D01*
X68572D02*
X69052D01*
X69291Y23250D01*
Y23730D01*
X69052Y23970D01*
X68572D01*
X68332Y23730D01*
Y23250D01*
X68572Y23010D01*
X69771D02*
X70251D01*
X70011D01*
Y24450D01*
X69771D01*
X71691Y23010D02*
X71211D01*
X70971Y23250D01*
Y23730D01*
X71211Y23970D01*
X71691D01*
X71931Y23730D01*
Y23490D01*
X70971D01*
X74810Y24210D02*
X74570Y24450D01*
X74090D01*
X73850Y24210D01*
Y23970D01*
X74090Y23730D01*
X74570D01*
X74810Y23490D01*
Y23250D01*
X74570Y23010D01*
X74090D01*
X73850Y23250D01*
X75290Y23010D02*
X75769D01*
X75529D01*
Y23970D01*
X75290D01*
X76489D02*
X77449D01*
X76489Y23010D01*
X77449D01*
X78648D02*
X78169D01*
X77929Y23250D01*
Y23730D01*
X78169Y23970D01*
X78648D01*
X78888Y23730D01*
Y23490D01*
X77929D01*
X80808Y23010D02*
Y24450D01*
X81528D01*
X81768Y24210D01*
Y23730D01*
X81528Y23490D01*
X80808D01*
X82248Y23010D02*
X82728D01*
X82488D01*
Y24450D01*
X82248D01*
X83687Y23970D02*
X84167D01*
X84407Y23730D01*
Y23010D01*
X83687D01*
X83448Y23250D01*
X83687Y23490D01*
X84407D01*
X85127Y24210D02*
Y23970D01*
X84887D01*
X85367D01*
X85127D01*
Y23250D01*
X85367Y23010D01*
X86806D02*
X86327D01*
X86087Y23250D01*
Y23730D01*
X86327Y23970D01*
X86806D01*
X87046Y23730D01*
Y23490D01*
X86087D01*
X88486Y24450D02*
Y23010D01*
X87766D01*
X87526Y23250D01*
Y23730D01*
X87766Y23970D01*
X88486D01*
X90406Y24450D02*
Y23010D01*
Y23730D01*
X91366D01*
Y24450D01*
Y23010D01*
X92085D02*
X92565D01*
X92805Y23250D01*
Y23730D01*
X92565Y23970D01*
X92085D01*
X91845Y23730D01*
Y23250D01*
X92085Y23010D01*
X93285D02*
X93765D01*
X93525D01*
Y24450D01*
X93285D01*
X95204Y23010D02*
X94725D01*
X94485Y23250D01*
Y23730D01*
X94725Y23970D01*
X95204D01*
X95444Y23730D01*
Y23490D01*
X94485D01*
X97364Y24450D02*
X98323D01*
X97843D01*
Y23010D01*
X98803Y23970D02*
Y23250D01*
X99043Y23010D01*
X99763D01*
Y22770D01*
X99523Y22530D01*
X99283D01*
X99763Y23010D02*
Y23970D01*
X100243Y22530D02*
Y23970D01*
X100962D01*
X101202Y23730D01*
Y23250D01*
X100962Y23010D01*
X100243D01*
X102402D02*
X101922D01*
X101682Y23250D01*
Y23730D01*
X101922Y23970D01*
X102402D01*
X102642Y23730D01*
Y23490D01*
X101682D01*
X29780Y25170D02*
X104562D01*
X29780Y21930D02*
X104562D01*
X29780Y25170D02*
Y330D01*
X104562Y25170D02*
Y330D01*
X40180Y25170D02*
Y330D01*
X53616Y25170D02*
Y330D01*
X80008Y25170D02*
Y330D01*
X89606Y25170D02*
Y330D01*
X29780Y2730D02*
X104562D01*
X29780Y330D02*
X104562D01*
M02*
